<svg width="1982" height="2942" xmlns="http://www.w3.org/2000/svg" xmlns:xlink="http://www.w3.org/1999/xlink" xml:space="preserve" overflow="hidden"><defs><clipPath id="clip0"><rect x="3928" y="63" width="1982" height="2942"/></clipPath></defs><g clip-path="url(#clip0)" transform="translate(-3928 -63)"><rect x="3929" y="63.9999" width="1979" height="1605" fill="#FFFFFF"/><g><path d="M4235.5 1606.5 5857.5 1606.5M4235.5 1461.55 5857.5 1461.55M4235.5 1315.54 5857.5 1315.54M4235.5 1170.54 5857.5 1170.54M4235.5 1024.53 5857.5 1024.53M4235.5 879.529 5857.5 879.529M4235.5 733.524 5857.5 733.524M4235.5 588.52 5857.5 588.52M4235.5 442.515 5857.5 442.515M4235.5 297.5 5857.5 297.5" stroke="#D9D9D9" stroke-width="3.4375" stroke-linejoin="round" stroke-miterlimit="10" fill="none"/></g><g><path d="M4357.64 297.5 4357.64 1606.5M4428.65 297.5 4428.65 1606.5M4479.65 297.5 4479.65 1606.5M4518.65 297.5 4518.65 1606.5M4550.65 297.5 4550.65 1606.5M4578.65 297.5 4578.65 1606.5M4601.65 297.5 4601.65 1606.5M4622.65 297.5 4622.65 1606.5M4763.66 297.5 4763.66 1606.5M4834.66 297.5 4834.66 1606.5M4885.66 297.5 4885.66 1606.5M4924.66 297.5 4924.66 1606.5M4956.66 297.5 4956.66 1606.5M4983.66 297.5 4983.66 1606.5M5007.66 297.5 5007.66 1606.5M5028.67 297.5 5028.67 1606.5M5168.67 297.5 5168.67 1606.5M5240.67 297.5 5240.67 1606.5M5290.67 297.5 5290.67 1606.5M5330.68 297.5 5330.68 1606.5M5362.68 297.5 5362.68 1606.5M5389.68 297.5 5389.68 1606.5M5412.68 297.5 5412.68 1606.5M5433.68 297.5 5433.68 1606.5M5574.68 297.5 5574.68 1606.5M5645.69 297.5 5645.69 1606.5M5696.69 297.5 5696.69 1606.5M5735.69 297.5 5735.69 1606.5M5767.69 297.5 5767.69 1606.5M5794.69 297.5 5794.69 1606.5M5818.69 297.5 5818.69 1606.5M5839.69 297.5 5839.69 1606.5" stroke="#F2F2F2" stroke-width="3.4375" stroke-linejoin="round" stroke-miterlimit="10" fill="none"/></g><g><path d="M4640.65 297.5 4640.65 1606.5M5046.67 297.5 5046.67 1606.5M5452.68 297.5 5452.68 1606.5M5857.5 297.5 5857.5 1606.5" stroke="#D9D9D9" stroke-width="3.4375" stroke-linejoin="round" stroke-miterlimit="10" fill="none"/></g><g><path d="M0 0 0.000360892 1309" stroke="#BFBFBF" stroke-width="3.4375" stroke-linejoin="round" stroke-miterlimit="10" fill="none" fill-rule="evenodd" transform="matrix(1 0 0 -1 4235.5 1606.5)"/></g><g><path d="M4235.5 1388.5 5857.5 1388.5" stroke="#BFBFBF" stroke-width="3.4375" stroke-linejoin="round" stroke-miterlimit="10" fill="none" fill-rule="evenodd"/></g><g><path d="M4235.5 1580.5C4240.96 1580.46 4246.42 1580.42 4251.88 1580.37 4257.34 1580.33 4262.81 1580.28 4268.27 1580.22 4273.73 1580.16 4279.19 1580.1 4284.65 1580.04 4290.11 1579.97 4295.57 1579.9 4301.04 1579.82 4306.5 1579.74 4311.96 1579.65 4317.42 1579.55 4322.88 1579.46 4328.34 1579.35 4333.8 1579.24 4339.26 1579.12 4344.73 1579 4350.19 1578.86 4355.65 1578.73 4361.11 1578.58 4366.57 1578.41 4372.03 1578.25 4377.49 1578.07 4382.95 1577.88 4388.42 1577.69 4393.88 1577.48 4399.34 1577.25 4404.8 1577.01 4410.26 1576.77 4415.72 1576.49 4421.18 1576.22 4426.64 1575.93 4432.11 1575.61 4437.57 1575.28 4443.03 1574.94 4448.49 1574.56 4453.95 1574.18 4459.41 1573.78 4464.87 1573.34 4470.33 1572.9 4475.8 1572.42 4481.26 1571.91 4486.72 1571.4 4492.18 1570.85 4497.64 1570.26 4503.1 1569.66 4508.56 1569.03 4514.03 1568.35 4519.49 1567.67 4524.95 1566.94 4530.41 1566.17 4535.87 1565.39 4541.33 1564.57 4546.79 1563.69 4552.25 1562.82 4557.72 1561.89 4563.18 1560.91 4568.64 1559.93 4574.1 1558.9 4579.56 1557.81 4585.02 1556.72 4590.48 1555.58 4595.94 1554.39 4601.41 1553.2 4606.87 1551.95 4612.33 1550.66 4617.79 1549.37 4623.25 1548.02 4628.71 1546.63 4634.17 1545.25 4639.63 1543.81 4645.1 1542.33 4650.56 1540.86 4656.02 1539.34 4661.48 1537.79 4666.94 1536.24 4672.4 1534.65 4677.86 1533.04 4683.32 1531.42 4688.79 1529.78 4694.25 1528.11 4699.71 1526.44 4705.17 1524.74 4710.63 1523.03 4716.09 1521.32 4721.55 1519.58 4727.02 1517.83 4732.48 1516.08 4737.94 1514.31 4743.4 1512.52 4748.86 1510.73 4754.32 1508.93 4759.78 1507.11 4765.24 1505.29 4770.71 1503.46 4776.17 1501.6 4781.63 1499.75 4787.09 1497.87 4792.55 1495.98 4798.01 1494.08 4803.47 1492.17 4808.93 1490.23 4814.4 1488.29 4819.86 1486.33 4825.32 1484.34 4830.78 1482.35 4836.24 1480.34 4841.7 1478.3 4847.16 1476.26 4852.62 1474.19 4858.09 1472.11 4863.55 1470.02 4869.01 1467.91 4874.47 1465.79 4879.93 1463.67 4885.39 1461.52 4890.85 1459.38 4896.31 1457.24 4901.78 1455.08 4907.24 1452.96 4912.7 1450.84 4918.16 1448.71 4923.62 1446.66 4929.08 1444.61 4934.54 1442.57 4940 1440.67 4945.47 1438.78 4950.93 1436.91 4956.39 1435.3 4961.85 1433.69 4967.31 1432.14 4972.77 1431.01 4978.23 1429.88 4983.7 1428.85 4989.16 1428.53 4994.62 1428.22 5000.08 1428.05 5005.54 1429.11 5011 1430.17 5016.46 1431.54 5021.92 1434.87 5027.39 1438.2 5032.85 1443.33 5038.31 1449.11 5043.77 1454.89 5049.23 1472.43 5054.69 1469.54 5058.56 1467.49 5067.21 1452 5071.08 1431.79 5076.54 1403.26 5082 1347.45 5087.46 1298.36 5092.92 1249.27 5098.38 1206.19 5103.84 1137.26 5109.3 1068.34 5114.77 933.466 5120.23 884.803 5122.61 863.544 5134.23 847.404 5136.61 845.283 5137.73 844.286 5151.87 846.038 5153 855.68 5158.46 902.607 5163.92 1064.25 5169.38 1126.85 5173.97 1179.51 5181.17 1225.91 5185.76 1231.29 5191.22 1237.68 5196.69 1181.4 5202.15 1165.19 5207.61 1148.98 5213.07 1143.03 5218.53 1134.02 5223.99 1125.01 5229.45 1118.44 5234.91 1111.13 5240.38 1103.83 5245.84 1097.22 5251.3 1090.18 5256.76 1083.14 5262.22 1076.26 5267.68 1068.9 5273.14 1061.55 5278.6 1054.12 5284.07 1046.05 5289.53 1037.98 5294.99 1029.71 5300.45 1020.5 5305.91 1011.28 5311.37 1001.8 5316.83 990.747 5322.29 979.692 5327.76 968.518 5333.22 954.171 5338.68 939.824 5344.14 927.56 5349.6 904.666 5355.06 881.771 5360.52 825.29 5365.98 816.803 5368.77 812.469 5379.58 873.751 5382.37 853.739 5387.83 814.545 5393.29 615.107 5398.75 581.64 5403.34 553.5 5410.54 616.648 5415.14 652.938 5420.6 696.097 5426.06 797.494 5431.52 840.592 5436.1 876.707 5443.33 895.054 5447.9 911.531 5453.37 931.193 5458.83 944.701 5464.29 958.567 5469.75 972.433 5475.21 983.699 5480.67 994.725 5486.13 1005.75 5491.59 1015.27 5497.06 1024.72 5502.52 1034.18 5507.98 1043.86 5513.44 1051.45 5518.9 1059.05 5524.36 1063.41 5529.82 1070.31 5535.28 1077.2 5540.75 1085.79 5546.21 1092.82 5551.67 1099.84 5557.13 1106.12 5562.59 1112.44 5568.05 1118.76 5573.51 1124.79 5578.97 1130.73 5584.44 1136.67 5589.9 1142.42 5595.36 1148.07 5600.82 1153.73 5606.28 1159.24 5611.74 1164.68 5617.2 1170.13 5622.67 1175.45 5628.13 1180.72 5633.59 1185.99 5639.05 1191.17 5644.51 1196.3 5649.97 1201.43 5655.43 1206.49 5660.89 1211.51 5666.35 1216.53 5671.82 1221.49 5677.28 1226.42 5682.74 1231.35 5688.2 1236.23 5693.66 1241.09 5699.12 1245.94 5704.58 1250.76 5710.05 1255.56 5715.51 1260.35 5720.97 1265.12 5726.43 1269.86 5731.89 1274.61 5737.35 1279.33 5742.81 1284.04 5748.27 1288.75 5753.74 1293.43 5759.2 1298.11 5764.66 1302.78 5770.12 1307.44 5775.58 1312.08 5781.04 1316.73 5786.5 1321.36 5791.96 1325.98 5797.43 1330.61 5802.89 1335.22 5808.35 1339.82 5813.81 1344.43 5819.27 1349.02 5824.73 1353.61 5830.19 1358.2 5835.66 1362.78 5841.12 1367.36 5846.58 1371.94 5852.04 1376.5 5857.5 1381.07" stroke="#4472C4" stroke-width="9.16667" stroke-linecap="round" stroke-linejoin="round" stroke-miterlimit="10" fill="none"/></g><g><path d="M4235.5 1579.5C4240.96 1579.46 4246.42 1579.42 4251.88 1579.38 4257.34 1579.34 4262.81 1579.29 4268.27 1579.24 4273.73 1579.19 4279.19 1579.13 4284.65 1579.07 4290.11 1579.01 4295.57 1578.94 4301.04 1578.86 4306.5 1578.79 4311.96 1578.71 4317.42 1578.62 4322.88 1578.53 4328.34 1578.43 4333.8 1578.32 4339.26 1578.21 4344.73 1578.1 4350.19 1577.97 4355.65 1577.84 4361.11 1577.7 4366.57 1577.55 4372.03 1577.39 4377.49 1577.22 4382.95 1577.04 4388.42 1576.86 4393.88 1576.66 4399.34 1576.44 4404.8 1576.22 4410.26 1575.99 4415.72 1575.72 4421.18 1575.46 4426.64 1575.19 4432.11 1574.88 4437.57 1574.57 4443.03 1574.24 4448.49 1573.87 4453.95 1573.51 4459.41 1573.12 4464.87 1572.69 4470.33 1572.26 4475.8 1571.8 4481.26 1571.3 4486.72 1570.8 4492.18 1570.26 4497.64 1569.68 4503.1 1569.09 4508.56 1568.46 4514.03 1567.78 4519.49 1567.1 4524.95 1566.38 4530.41 1565.6 4535.87 1564.81 4541.33 1563.98 4546.79 1563.08 4552.25 1562.19 4557.72 1561.24 4563.18 1560.22 4568.64 1559.2 4574.1 1558.12 4579.56 1556.98 4585.02 1555.83 4590.48 1554.62 4595.94 1553.34 4601.41 1552.06 4606.87 1550.71 4612.33 1549.3 4617.79 1547.88 4623.25 1546.4 4628.71 1544.85 4634.17 1543.31 4639.63 1541.69 4645.1 1540.02 4650.56 1538.34 4656.02 1536.6 4661.48 1534.8 4666.94 1533.01 4672.4 1531.15 4677.86 1529.24 4683.32 1527.34 4688.79 1525.38 4694.25 1523.37 4699.71 1521.37 4705.17 1519.32 4710.63 1517.23 4716.09 1515.15 4721.55 1513.02 4727.02 1510.86 4732.48 1508.71 4737.94 1506.51 4743.4 1504.3 4748.86 1502.08 4754.32 1499.84 4759.78 1497.57 4765.24 1495.3 4770.71 1493.01 4776.17 1490.7 4781.63 1488.4 4787.09 1486.06 4792.55 1483.71 4798.01 1481.36 4803.47 1478.99 4808.93 1476.6 4814.4 1474.21 4819.86 1471.8 4825.32 1469.37 4830.78 1466.94 4836.24 1464.49 4841.7 1462.01 4847.16 1459.54 4852.62 1457.04 4858.09 1454.53 4863.55 1452.01 4869.01 1449.47 4874.47 1446.91 4879.93 1444.35 4885.39 1441.77 4890.85 1439.18 4896.31 1436.59 4901.78 1433.98 4907.24 1431.37 4912.7 1428.77 4918.16 1426.15 4923.62 1423.56 4929.08 1420.98 4934.54 1418.38 4940 1415.86 4945.47 1413.34 4950.93 1410.82 4956.39 1408.44 4961.85 1406.07 4967.31 1403.71 4972.77 1401.59 4978.23 1399.48 4983.7 1397.41 4989.16 1395.75 4994.62 1394.1 5000.08 1392.52 5005.54 1391.67 5011 1390.82 5016.46 1390.07 5021.92 1390.65 5027.39 1391.22 5032.85 1392.01 5038.31 1395.13 5043.77 1398.25 5049.23 1403.72 5054.69 1409.38 5060.15 1415.05 5065.61 1438.5 5071.08 1429.12 5076 1420.67 5082.54 1391.67 5087.46 1353.1 5092.92 1310.29 5098.38 1248.28 5103.84 1172.25 5109.3 1096.21 5114.77 955.651 5120.23 896.897 5123.88 857.619 5132.96 810.362 5136.61 819.723 5142.07 833.724 5147.53 908.764 5153 980.904 5158.46 1053.04 5163.92 1218.38 5169.38 1252.56 5174.79 1286.42 5180.35 1202.55 5185.76 1185.96 5191.22 1169.21 5196.69 1161.52 5202.15 1152.09 5207.61 1142.67 5213.07 1136.51 5218.53 1129.4 5223.99 1122.3 5229.45 1116.08 5234.91 1109.46 5240.38 1102.83 5245.84 1096.43 5251.3 1089.65 5256.76 1082.87 5262.22 1076.06 5267.68 1068.76 5273.14 1061.46 5278.6 1054.01 5284.07 1045.85 5289.53 1037.69 5294.99 1029.34 5300.45 1019.8 5305.91 1010.25 5311.37 1000.77 5316.83 988.567 5322.29 976.361 5327.76 967.854 5333.22 946.559 5338.68 925.264 5344.14 869.166 5349.6 860.795 5355.06 852.424 5360.52 909.302 5365.98 896.332 5371.45 883.363 5376.91 836.744 5382.37 782.98 5387.83 729.215 5393.29 585.993 5398.75 573.746 5404.21 561.5 5409.68 663.982 5415.14 709.502 5420.6 755.021 5426.06 812.85 5431.52 846.863 5436.97 880.779 5442.46 894.852 5447.9 913.58 5453.37 932.361 5458.83 945.918 5464.29 959.552 5469.75 973.185 5475.21 984.393 5480.67 995.38 5486.13 1006.37 5491.59 1015.26 5497.06 1025.47 5502.52 1035.69 5507.98 1049.08 5513.44 1056.66 5518.9 1064.25 5524.36 1064.96 5529.82 1070.97 5535.28 1076.98 5540.75 1085.84 5546.21 1092.73 5551.67 1099.62 5557.13 1106 5562.59 1112.31 5568.05 1118.62 5573.51 1124.66 5578.97 1130.59 5584.44 1136.53 5589.9 1142.27 5595.36 1147.93 5600.82 1153.59 5606.28 1159.1 5611.74 1164.54 5617.2 1169.97 5622.67 1175.3 5628.13 1180.57 5633.59 1185.83 5639.05 1191.01 5644.51 1196.14 5649.97 1201.27 5655.43 1206.33 5660.89 1211.35 5666.35 1216.36 5671.82 1221.32 5677.28 1226.25 5682.74 1231.18 5688.2 1236.06 5693.66 1240.92 5699.12 1245.77 5704.58 1250.59 5710.05 1255.39 5715.51 1260.18 5720.97 1264.94 5726.43 1269.69 5731.89 1274.44 5737.35 1279.16 5742.81 1283.86 5748.27 1288.57 5753.74 1293.25 5759.2 1297.93 5764.66 1302.6 5770.12 1307.25 5775.58 1311.9 5781.04 1316.54 5786.5 1321.18 5791.96 1325.8 5797.43 1330.42 5802.89 1335.03 5808.35 1339.63 5813.81 1344.24 5819.27 1348.83 5824.73 1353.42 5830.19 1358.01 5835.66 1362.59 5841.12 1367.17 5846.58 1371.74 5852.04 1376.3 5857.5 1380.87" stroke="#ED7D31" stroke-width="9.16667" stroke-linecap="round" stroke-linejoin="round" stroke-miterlimit="10" fill="none"/></g><g><path d="M4235.5 1579.5C4240.96 1579.46 4246.42 1579.43 4251.88 1579.38 4257.34 1579.34 4262.81 1579.3 4268.27 1579.24 4273.73 1579.19 4279.19 1579.14 4284.65 1579.08 4290.11 1579.01 4295.57 1578.95 4301.04 1578.87 4306.5 1578.8 4311.96 1578.72 4317.42 1578.63 4322.88 1578.54 4328.34 1578.45 4333.8 1578.34 4339.26 1578.24 4344.73 1578.12 4350.19 1578 4355.65 1577.87 4361.11 1577.73 4366.57 1577.58 4372.03 1577.43 4377.49 1577.27 4382.95 1577.09 4388.42 1576.9 4393.88 1576.71 4399.34 1576.5 4404.8 1576.28 4410.26 1576.05 4415.72 1575.79 4421.18 1575.54 4426.64 1575.26 4432.11 1574.96 4437.57 1574.65 4443.03 1574.33 4448.49 1573.97 4453.95 1573.61 4459.41 1573.22 4464.87 1572.8 4470.33 1572.37 4475.8 1571.92 4481.26 1571.42 4486.72 1570.93 4492.18 1570.4 4497.64 1569.81 4503.1 1569.23 4508.56 1568.61 4514.03 1567.94 4519.49 1567.26 4524.95 1566.54 4530.41 1565.76 4535.87 1564.98 4541.33 1564.15 4546.79 1563.25 4552.25 1562.36 4557.72 1561.41 4563.18 1560.39 4568.64 1559.37 4574.1 1558.28 4579.56 1557.13 4585.02 1555.98 4590.48 1554.76 4595.94 1553.47 4601.41 1552.17 4606.87 1550.81 4612.33 1549.38 4617.79 1547.95 4623.25 1546.44 4628.71 1544.86 4634.17 1543.29 4639.63 1541.64 4645.1 1539.92 4650.56 1538.21 4656.02 1536.42 4661.48 1534.58 4666.94 1532.73 4672.4 1530.81 4677.86 1528.84 4683.32 1526.88 4688.79 1524.84 4694.25 1522.76 4699.71 1520.68 4705.17 1518.55 4710.63 1516.37 4716.09 1514.19 4721.55 1511.97 4727.02 1509.71 4732.48 1507.45 4737.94 1505.14 4743.4 1502.81 4748.86 1500.48 4754.32 1498.11 4759.78 1495.72 4765.24 1493.33 4770.71 1490.91 4776.17 1488.47 4781.63 1486.03 4787.09 1483.56 4792.55 1481.07 4798.01 1478.58 4803.47 1476.07 4808.93 1473.54 4814.4 1471 4819.86 1468.45 4825.32 1465.87 4830.78 1463.3 4836.24 1460.7 4841.7 1458.08 4847.16 1455.45 4852.62 1452.81 4858.09 1450.14 4863.55 1447.48 4869.01 1444.79 4874.47 1442.08 4879.93 1439.37 4885.39 1436.63 4890.85 1433.89 4896.31 1431.14 4901.78 1428.37 4907.24 1425.6 4912.7 1422.83 4918.16 1420.04 4923.62 1417.28 4929.08 1414.51 4934.54 1411.73 4940 1409 4945.47 1406.28 4950.93 1403.55 4956.39 1400.92 4961.85 1398.3 4967.31 1395.69 4972.77 1393.27 4978.23 1390.85 4983.7 1388.46 4989.16 1386.4 4994.62 1384.35 5000.08 1382.35 5005.54 1380.93 5011 1379.52 5016.46 1378.18 5021.92 1377.92 5027.39 1377.66 5032.85 1377.5 5038.31 1379.35 5043.77 1381.21 5049.23 1383.99 5054.69 1389.07 5060.15 1394.15 5065.61 1412.81 5071.08 1409.82 5074.17 1408.13 5084.37 1391.91 5087.46 1371.13 5092.92 1334.41 5098.38 1267.45 5103.84 1189.47 5109.3 1111.49 5114.77 967.101 5120.23 903.272 5124.41 854.374 5132.43 785.956 5136.61 806.497 5142.07 833.311 5147.53 993.325 5153 1064.15 5158.46 1134.98 5163.92 1212.67 5169.38 1231.47 5174.84 1250.28 5180.3 1190.71 5185.76 1176.97 5191.22 1163.23 5196.69 1157.15 5202.15 1149.03 5207.61 1140.91 5213.07 1134.92 5218.53 1128.27 5223.99 1121.61 5229.45 1115.53 5234.91 1109.09 5240.38 1102.64 5245.84 1096.31 5251.3 1089.6 5256.76 1082.89 5262.22 1076.1 5267.68 1068.82 5273.14 1061.53 5278.6 1054.09 5284.07 1045.89 5289.53 1037.69 5294.99 1029.33 5300.45 1019.62 5305.91 1009.9 5311.37 1000.71 5316.83 987.596 5322.29 974.478 5327.76 941.644 5333.22 940.911 5338.68 940.178 5344.14 992.505 5349.6 983.198 5355.06 973.89 5360.52 919.133 5365.98 885.064 5371.45 850.995 5376.91 830.928 5382.37 778.785 5387.83 726.642 5393.29 582.914 5398.75 572.207 5404.21 561.5 5409.68 668.62 5415.14 714.544 5420.6 760.467 5426.06 814.512 5431.52 847.748 5436.98 880.984 5442.44 895.284 5447.9 913.958 5453.37 932.632 5458.83 946.186 5464.29 959.791 5469.75 973.395 5475.21 984.594 5480.67 995.585 5486.13 1006.58 5491.59 1014.96 5497.06 1025.74 5502.52 1036.51 5507.98 1052.69 5513.44 1060.25 5518.9 1067.81 5524.36 1065.67 5529.82 1071.1 5535.28 1076.53 5540.75 1085.93 5546.21 1092.81 5551.67 1099.69 5557.13 1106.07 5562.59 1112.39 5568.05 1118.7 5573.51 1124.73 5578.97 1130.67 5584.44 1136.61 5589.9 1142.35 5595.36 1148.01 5600.82 1153.67 5606.28 1159.18 5611.74 1164.62 5617.2 1170.06 5622.67 1175.39 5628.13 1180.66 5633.59 1185.93 5639.05 1191.1 5644.51 1196.23 5649.97 1201.36 5655.43 1206.42 5660.89 1211.44 5666.35 1216.46 5671.82 1221.42 5677.28 1226.35 5682.74 1231.28 5688.2 1236.16 5693.66 1241.02 5699.12 1245.88 5704.58 1250.69 5710.05 1255.49 5715.51 1260.29 5720.97 1265.05 5726.43 1269.8 5731.89 1274.55 5737.35 1279.27 5742.81 1283.97 5748.27 1288.68 5753.74 1293.37 5759.2 1298.04 5764.66 1302.71 5770.12 1307.37 5775.58 1312.02 5781.04 1316.66 5786.5 1321.29 5791.96 1325.92 5797.43 1330.54 5802.89 1335.15 5808.35 1339.76 5813.81 1344.36 5819.27 1348.96 5824.73 1353.55 5830.19 1358.14 5835.66 1362.72 5841.12 1367.29 5846.58 1371.87 5852.04 1376.43 5857.5 1381.01" stroke="#A5A5A5" stroke-width="9.16667" stroke-linecap="round" stroke-linejoin="round" stroke-miterlimit="10" fill="none"/></g><g><path d="M4235.5 1579.5C4240.96 1579.46 4246.42 1579.43 4251.88 1579.38 4257.34 1579.34 4262.81 1579.3 4268.27 1579.25 4273.73 1579.2 4279.19 1579.14 4284.65 1579.08 4290.11 1579.02 4295.57 1578.95 4301.04 1578.88 4306.5 1578.81 4311.96 1578.73 4317.42 1578.64 4322.88 1578.55 4328.34 1578.46 4333.8 1578.35 4339.26 1578.25 4344.73 1578.14 4350.19 1578.01 4355.65 1577.88 4361.11 1577.75 4366.57 1577.6 4372.03 1577.45 4377.49 1577.29 4382.95 1577.11 4388.42 1576.93 4393.88 1576.74 4399.34 1576.52 4404.8 1576.31 4410.26 1576.08 4415.72 1575.82 4421.18 1575.57 4426.64 1575.3 4432.11 1574.99 4437.57 1574.69 4443.03 1574.37 4448.49 1574.01 4453.95 1573.65 4459.41 1573.27 4464.87 1572.85 4470.33 1572.43 4475.8 1571.98 4481.26 1571.48 4486.72 1570.99 4492.18 1570.46 4497.64 1569.88 4503.1 1569.3 4508.56 1568.69 4514.03 1568.01 4519.49 1567.34 4524.95 1566.62 4530.41 1565.84 4535.87 1565.07 4541.33 1564.24 4546.79 1563.34 4552.25 1562.45 4557.72 1561.5 4563.18 1560.48 4568.64 1559.46 4574.1 1558.37 4579.56 1557.22 4585.02 1556.06 4590.48 1554.84 4595.94 1553.55 4601.41 1552.25 4606.87 1550.88 4612.33 1549.44 4617.79 1548 4623.25 1546.48 4628.71 1544.9 4634.17 1543.31 4639.63 1541.65 4645.1 1539.92 4650.56 1538.19 4656.02 1536.38 4661.48 1534.51 4666.94 1532.65 4672.4 1530.71 4677.86 1528.71 4683.32 1526.72 4688.79 1524.65 4694.25 1522.54 4699.71 1520.43 4705.17 1518.25 4710.63 1516.04 4716.09 1513.82 4721.55 1511.55 4727.02 1509.24 4732.48 1506.94 4737.94 1504.58 4743.4 1502.2 4748.86 1499.82 4754.32 1497.4 4759.78 1494.95 4765.24 1492.5 4770.71 1490.02 4776.17 1487.51 4781.63 1485.01 4787.09 1482.48 4792.55 1479.92 4798.01 1477.37 4803.47 1474.79 4808.93 1472.19 4814.4 1469.59 4819.86 1466.96 4825.32 1464.31 4830.78 1461.67 4836.24 1459 4841.7 1456.3 4847.16 1453.61 4852.62 1450.89 4858.09 1448.15 4863.55 1445.41 4869.01 1442.65 4874.47 1439.86 4879.93 1437.08 4885.39 1434.27 4890.85 1431.44 4896.31 1428.62 4901.78 1425.77 4907.24 1422.92 4912.7 1420.07 4918.16 1417.19 4923.62 1414.34 4929.08 1411.48 4934.54 1408.6 4940 1405.78 4945.47 1402.95 4950.93 1400.11 4956.39 1397.37 4961.85 1394.63 4967.31 1391.89 4972.77 1389.32 4978.23 1386.75 4983.7 1384.21 4989.16 1381.96 4994.62 1379.71 5000.08 1377.5 5005.54 1375.82 5011 1374.13 5016.46 1372.51 5021.92 1371.85 5027.39 1371.18 5032.85 1370.59 5038.31 1371.83 5043.77 1373.06 5049.23 1374.82 5054.69 1379.23 5060.15 1383.64 5065.61 1398.61 5071.08 1398.28 5073.24 1398.16 5085.29 1390.43 5087.46 1377.29 5092.92 1344.17 5098.38 1277.91 5103.84 1199.57 5109.3 1121.22 5114.77 973.813 5120.23 907.212 5124.66 853.146 5132.18 773.175 5136.61 799.964 5142.07 832.964 5147.53 1035.18 5153 1105.21 5157.51 1163.09 5164.87 1210.8 5169.38 1220.16 5174.84 1231.48 5180.3 1185.24 5185.76 1173.16 5191.22 1161.08 5196.69 1155.25 5202.15 1147.68 5207.61 1140.12 5213.07 1134.23 5218.53 1127.77 5223.99 1121.32 5229.45 1115.3 5234.91 1108.94 5240.38 1102.58 5245.84 1096.29 5251.3 1089.61 5256.76 1082.93 5262.22 1076.17 5267.68 1068.89 5273.14 1061.61 5278.6 1054.17 5284.07 1045.95 5289.53 1037.73 5294.99 1029.38 5300.45 1019.56 5305.91 1009.75 5311.37 1000.88 5316.83 987.058 5322.29 973.233 5327.76 938.963 5333.22 936.616 5338.68 934.269 5344.14 982.092 5349.6 972.977 5355.06 963.862 5360.52 914.53 5365.98 881.927 5371.45 849.324 5376.91 829.073 5382.37 777.359 5387.83 725.645 5393.29 581.789 5398.75 571.644 5404.21 561.5 5409.68 670.406 5415.14 716.492 5420.6 762.577 5426.06 815.214 5431.52 848.161 5436.98 881.106 5442.44 895.538 5447.9 914.168 5453.37 932.798 5458.83 946.35 5464.29 959.942 5469.75 973.535 5475.21 984.728 5480.67 995.721 5486.13 1006.71 5491.59 1014.77 5497.06 1025.9 5502.52 1037.04 5507.98 1054.99 5513.44 1062.54 5518.87 1070.05 5524.39 1066.17 5529.82 1071.2 5535.28 1076.25 5540.75 1086 5546.21 1092.88 5551.67 1099.76 5557.13 1106.15 5562.59 1112.46 5568.05 1118.77 5573.51 1124.81 5578.97 1130.75 5584.44 1136.68 5589.9 1142.43 5595.36 1148.09 5600.82 1153.74 5606.28 1159.25 5611.74 1164.7 5617.2 1170.14 5622.67 1175.46 5628.13 1180.73 5633.59 1186 5639.05 1191.18 5644.51 1196.31 5649.97 1201.44 5655.43 1206.5 5660.89 1211.52 5666.35 1216.54 5671.82 1221.5 5677.28 1226.43 5682.74 1231.36 5688.2 1236.24 5693.66 1241.09 5699.12 1245.95 5704.58 1250.77 5710.05 1255.56 5715.51 1260.36 5720.97 1265.13 5726.43 1269.87 5731.89 1274.62 5737.35 1279.34 5742.81 1284.05 5748.27 1288.75 5753.74 1293.44 5759.2 1298.11 5764.66 1302.79 5770.12 1307.44 5775.58 1312.09 5781.04 1316.74 5786.5 1321.37 5791.96 1325.99 5797.43 1330.61 5802.89 1335.23 5808.35 1339.83 5813.81 1344.44 5819.27 1349.03 5824.73 1353.62 5830.19 1358.21 5835.66 1362.79 5841.12 1367.37 5846.58 1371.94 5852.04 1376.51 5857.5 1381.08" stroke="#FFC000" stroke-width="9.16667" stroke-linecap="round" stroke-linejoin="round" stroke-miterlimit="10" fill="none"/></g><g><path d="M4235.5 1579.5C4240.96 1579.46 4246.42 1579.43 4251.88 1579.39 4257.34 1579.34 4262.81 1579.3 4268.27 1579.25 4273.73 1579.2 4279.19 1579.14 4284.65 1579.08 4290.11 1579.02 4295.57 1578.96 4301.04 1578.88 4306.5 1578.81 4311.96 1578.73 4317.42 1578.65 4322.88 1578.56 4328.34 1578.46 4333.8 1578.36 4339.26 1578.26 4344.73 1578.14 4350.19 1578.02 4355.65 1577.89 4361.11 1577.76 4366.57 1577.61 4372.03 1577.46 4377.49 1577.3 4382.95 1577.12 4388.42 1576.94 4393.88 1576.75 4399.34 1576.54 4404.8 1576.32 4410.26 1576.1 4415.72 1575.84 4421.18 1575.59 4426.64 1575.32 4432.11 1575.02 4437.57 1574.72 4443.03 1574.39 4448.49 1574.04 4453.95 1573.68 4459.41 1573.3 4464.87 1572.88 4470.33 1572.46 4475.8 1572.01 4481.26 1571.52 4486.72 1571.03 4492.18 1570.5 4497.64 1569.92 4503.1 1569.35 4508.56 1568.73 4514.03 1568.06 4519.49 1567.39 4524.95 1566.67 4530.41 1565.89 4535.87 1565.12 4541.33 1564.29 4546.79 1563.4 4552.25 1562.5 4557.72 1561.55 4563.18 1560.53 4568.64 1559.51 4574.1 1558.43 4579.56 1557.27 4585.02 1556.12 4590.48 1554.89 4595.94 1553.6 4601.41 1552.3 4606.87 1550.93 4612.33 1549.48 4617.79 1548.04 4623.25 1546.52 4628.71 1544.93 4634.17 1543.33 4639.63 1541.66 4645.1 1539.92 4650.56 1538.19 4656.02 1536.37 4661.48 1534.49 4666.94 1532.61 4672.4 1530.66 4677.86 1528.65 4683.32 1526.64 4688.79 1524.56 4694.25 1522.43 4699.71 1520.29 4705.17 1518.1 4710.63 1515.86 4716.09 1513.62 4721.55 1511.33 4727.02 1509 4732.48 1506.66 4737.94 1504.28 4743.4 1501.87 4748.86 1499.46 4754.32 1497 4759.78 1494.52 4765.24 1492.04 4770.71 1489.53 4776.17 1486.99 4781.63 1484.45 4787.09 1481.88 4792.55 1479.28 4798.01 1476.69 4803.47 1474.07 4808.93 1471.43 4814.4 1468.79 4819.86 1466.12 4825.32 1463.43 4830.78 1460.75 4836.24 1458.03 4841.7 1455.3 4847.16 1452.56 4852.62 1449.8 4858.09 1447.02 4863.55 1444.23 4869.01 1441.42 4874.47 1438.59 4879.93 1435.76 4885.39 1432.91 4890.85 1430.04 4896.31 1427.17 4901.78 1424.27 4907.24 1421.37 4912.7 1418.47 4918.16 1415.54 4923.62 1412.63 4929.08 1409.72 4934.54 1406.79 4940 1403.9 4945.47 1401.01 4950.93 1398.11 4956.39 1395.3 4961.85 1392.49 4967.31 1389.67 4972.77 1387.02 4978.23 1384.36 4983.7 1381.72 4989.16 1379.36 4994.62 1376.99 5000.08 1374.67 5005.54 1372.83 5011 1370.98 5016.46 1369.2 5021.92 1368.29 5027.39 1367.39 5032.85 1366.56 5038.31 1367.41 5043.77 1368.27 5049.23 1369.51 5054.69 1373.44 5060.15 1377.38 5065.61 1390.04 5071.08 1391.03 5072.83 1391.35 5085.7 1389.28 5087.46 1379.38 5092.92 1348.57 5098.38 1284.4 5103.84 1206.15 5109.3 1127.9 5114.77 978.076 5120.23 909.864 5124.78 852.961 5132.06 766.429 5136.61 796.877 5142.07 833.378 5147.53 1059.39 5153 1128.87 5156.38 1171.96 5165.99 1209.4 5169.38 1213.76 5174.84 1220.79 5180.3 1182.2 5185.76 1171.06 5191.22 1159.92 5196.69 1154.18 5202.15 1146.92 5207.61 1139.66 5213.07 1133.83 5218.53 1127.49 5223.99 1121.15 5229.45 1115.18 5234.91 1108.87 5240.38 1102.56 5245.84 1096.28 5251.3 1089.62 5256.76 1082.97 5262.22 1076.21 5267.68 1068.94 5273.14 1061.66 5278.6 1054.22 5284.07 1045.99 5289.53 1037.75 5294.99 1029.41 5300.45 1019.53 5305.91 1009.65 5311.37 1001.08 5316.83 986.703 5322.29 972.326 5327.76 936.929 5333.22 933.265 5338.68 929.601 5344.14 973.519 5349.6 964.719 5355.06 955.92 5360.52 911.813 5365.98 880.467 5371.45 849.121 5376.91 828.163 5382.37 776.645 5387.83 725.125 5393.29 581.206 5398.75 571.353 5404.21 561.5 5409.68 671.352 5415.14 717.526 5420.6 763.699 5426.06 815.6 5431.52 848.395 5436.98 881.19 5442.44 895.687 5447.9 914.295 5453.37 932.901 5458.83 946.451 5464.29 960.037 5469.75 973.622 5475.21 984.812 5480.67 995.807 5486.13 1006.8 5491.59 1014.64 5497.06 1026 5502.52 1037.36 5507.98 1056.42 5513.44 1063.96 5518.7 1071.23 5524.56 1066.61 5529.82 1071.26 5535.28 1076.09 5540.75 1086.06 5546.21 1092.93 5551.67 1099.81 5557.13 1106.2 5562.59 1112.51 5568.05 1118.82 5573.51 1124.85 5578.97 1130.79 5584.44 1136.73 5589.9 1142.47 5595.36 1148.13 5600.82 1153.79 5606.28 1159.3 5611.74 1164.74 5617.2 1170.18 5622.67 1175.51 5628.13 1180.78 5633.59 1186.05 5639.05 1191.22 5644.51 1196.35 5649.97 1201.48 5655.43 1206.54 5660.89 1211.56 5666.35 1216.58 5671.82 1221.54 5677.28 1226.47 5682.74 1231.4 5688.2 1236.28 5693.66 1241.14 5699.12 1246 5704.58 1250.81 5710.05 1255.61 5715.51 1260.41 5720.97 1265.17 5726.43 1269.92 5731.89 1274.67 5737.35 1279.39 5742.81 1284.09 5748.27 1288.8 5753.74 1293.49 5759.2 1298.16 5764.66 1302.83 5770.12 1307.49 5775.58 1312.14 5781.04 1316.78 5786.5 1321.41 5791.96 1326.04 5797.43 1330.66 5802.89 1335.27 5808.35 1339.88 5813.81 1344.48 5819.27 1349.08 5824.73 1353.67 5830.19 1358.25 5835.66 1362.84 5841.12 1367.41 5846.58 1371.99 5852.04 1376.55 5857.5 1381.12" stroke="#5B9BD5" stroke-width="9.16667" stroke-linecap="round" stroke-linejoin="round" stroke-miterlimit="10" fill="none"/></g><g><text font-family="Calibri,Calibri_MSFontService,sans-serif" font-weight="400" font-size="64" transform="matrix(1 0 0 1 4091.31 1625)">-30</text></g><g><text font-family="Calibri,Calibri_MSFontService,sans-serif" font-weight="400" font-size="64" transform="matrix(1 0 0 1 4091.31 1480)">-10</text></g><g><text font-family="Calibri,Calibri_MSFontService,sans-serif" font-weight="400" font-size="64" transform="matrix(1 0 0 1 4110.95 1334)">10</text></g><g><text font-family="Calibri,Calibri_MSFontService,sans-serif" font-weight="400" font-size="64" transform="matrix(1 0 0 1 4110.95 1189)">30</text></g><g><text font-family="Calibri,Calibri_MSFontService,sans-serif" font-weight="400" font-size="64" transform="matrix(1 0 0 1 4110.95 1043)">50</text></g><g><text font-family="Calibri,Calibri_MSFontService,sans-serif" font-weight="400" font-size="64" transform="matrix(1 0 0 1 4110.95 898)">70</text></g><g><text font-family="Calibri,Calibri_MSFontService,sans-serif" font-weight="400" font-size="64" transform="matrix(1 0 0 1 4110.95 752)">90</text></g><g><text font-family="Calibri,Calibri_MSFontService,sans-serif" font-weight="400" font-size="64" transform="matrix(1 0 0 1 4078.43 606)">110</text></g><g><text font-family="Calibri,Calibri_MSFontService,sans-serif" font-weight="400" font-size="64" transform="matrix(1 0 0 1 4078.43 461)">130</text></g><g><text font-family="Calibri,Calibri_MSFontService,sans-serif" font-weight="400" font-size="64" transform="matrix(1 0 0 1 4078.43 315)">150</text></g><g><text font-family="Calibri,Calibri_MSFontService,sans-serif" font-weight="700" font-size="64" transform="matrix(6.12323e-17 -1 1 6.12323e-17 4047.36 1160)">Magnitude (dB)</text></g><g><path d="M4365.5 219.5 4453.5 219.501" stroke="#4472C4" stroke-width="9.16667" stroke-linecap="round" stroke-linejoin="round" stroke-miterlimit="10" fill="none" fill-rule="evenodd"/></g><g><text font-family="Calibri,Calibri_MSFontService,sans-serif" font-weight="700" font-size="73" transform="matrix(1 0 0 1 4462.5 241)">Z1</text></g><g><path d="M4664.5 219.5 4752.5 219.501" stroke="#ED7D31" stroke-width="9.16667" stroke-linecap="round" stroke-linejoin="round" stroke-miterlimit="10" fill="none" fill-rule="evenodd"/></g><g><text font-family="Calibri,Calibri_MSFontService,sans-serif" font-weight="700" font-size="73" transform="matrix(1 0 0 1 4761.77 241)">Z2</text></g><g><path d="M4963.5 219.5 5051.5 219.501" stroke="#A5A5A5" stroke-width="9.16667" stroke-linecap="round" stroke-linejoin="round" stroke-miterlimit="10" fill="none" fill-rule="evenodd"/></g><g><text font-family="Calibri,Calibri_MSFontService,sans-serif" font-weight="700" font-size="73" transform="matrix(1 0 0 1 5061.05 241)">Z3</text></g><g><path d="M5263.5 219.5 5351.5 219.501" stroke="#FFC000" stroke-width="9.16667" stroke-linecap="round" stroke-linejoin="round" stroke-miterlimit="10" fill="none" fill-rule="evenodd"/></g><g><text font-family="Calibri,Calibri_MSFontService,sans-serif" font-weight="700" font-size="73" transform="matrix(1 0 0 1 5360.33 241)">Z4</text></g><g><path d="M5562.5 219.5 5650.5 219.501" stroke="#5B9BD5" stroke-width="9.16667" stroke-linecap="round" stroke-linejoin="round" stroke-miterlimit="10" fill="none" fill-rule="evenodd"/></g><g><text font-family="Calibri,Calibri_MSFontService,sans-serif" font-weight="700" font-size="73" transform="matrix(1 0 0 1 5659.61 241)">Z5</text></g><rect x="3929.5" y="64.5001" width="1979" height="1605" stroke="#D9D9D9" stroke-width="3.4375" stroke-linejoin="round" stroke-miterlimit="10" fill="none"/><g><g><text fill="#FF0000" font-family="Calibri,Calibri_MSFontService,sans-serif" font-weight="700" font-size="64" transform="matrix(1 0 0 1 4628.66 1112)">Increasing</text></g></g><g><text fill="#FF0000" font-family="Calibri,Calibri_MSFontService,sans-serif" font-weight="700" font-size="64" transform="matrix(1 0 0 1 4604.5 1190)">Load (Z</text></g><g><text fill="#FF0000" font-family="Calibri,Calibri_MSFontService,sans-serif" font-weight="700" font-size="43" transform="matrix(1 0 0 1 4797.39 1205)">Load4</text></g><g><text fill="#FF0000" font-family="Calibri,Calibri_MSFontService,sans-serif" font-weight="700" font-size="64" transform="matrix(1 0 0 1 4904.25 1190)">)</text></g><g><g><text fill="#FF0000" font-family="Calibri,Calibri_MSFontService,sans-serif" font-weight="700" font-size="64" transform="matrix(1 0 0 1 4486.87 1269)">Z1</text></g></g><g><g><text fill="#FF0000" font-family="Calibri,Calibri_MSFontService,sans-serif" font-weight="700" font-size="64" transform="matrix(1 0 0 1 4559.73 1269)">&lt; Z2</text></g></g><g><g><text fill="#FF0000" font-family="Calibri,Calibri_MSFontService,sans-serif" font-weight="700" font-size="64" transform="matrix(1 0 0 1 4693.56 1269)">&lt; Z3</text></g></g><g><g><text fill="#FF0000" font-family="Calibri,Calibri_MSFontService,sans-serif" font-weight="700" font-size="64" transform="matrix(1 0 0 1 4812.89 1269)">&lt; Z4</text></g></g><g><g><text fill="#FF0000" font-family="Calibri,Calibri_MSFontService,sans-serif" font-weight="700" font-size="64" transform="matrix(1 0 0 1 4932.21 1269)">&lt; Z5</text></g></g><rect x="3930" y="1665" width="1978" height="1338" fill="#FFFFFF"/><g><path d="M4255.5 2734.5 5760.5 2734.5M4255.5 2566.58 5760.5 2566.58M4255.5 2398.58 5760.5 2398.58M4255.5 2062.57 5760.5 2062.57M4255.5 1895.56 5760.5 1895.56M4255.5 1727.5 5760.5 1727.5" stroke="#D9D9D9" stroke-width="3.4375" stroke-linejoin="round" stroke-miterlimit="10" fill="none"/></g><g><path d="M4368.64 1727.5 4368.64 2734.5M4435.65 1727.5 4435.65 2734.5M4482.65 1727.5 4482.65 2734.5M4518.65 1727.5 4518.65 2734.5M4548.65 1727.5 4548.65 2734.5M4573.65 1727.5 4573.65 2734.5M4595.65 1727.5 4595.65 2734.5M4614.65 1727.5 4614.65 2734.5M4745.66 1727.5 4745.66 2734.5M4811.66 1727.5 4811.66 2734.5M4858.66 1727.5 4858.66 2734.5M4894.66 1727.5 4894.66 2734.5M4924.66 1727.5 4924.66 2734.5M4949.66 1727.5 4949.66 2734.5M4971.66 1727.5 4971.66 2734.5M4990.66 1727.5 4990.66 2734.5M5121.67 1727.5 5121.67 2734.5M5187.67 1727.5 5187.67 2734.5M5234.67 1727.5 5234.67 2734.5M5270.67 1727.5 5270.67 2734.5M5300.67 1727.5 5300.67 2734.5M5325.67 1727.5 5325.67 2734.5M5347.68 1727.5 5347.68 2734.5M5366.68 1727.5 5366.68 2734.5M5497.68 1727.5 5497.68 2734.5M5563.68 1727.5 5563.68 2734.5M5610.68 1727.5 5610.68 2734.5M5646.69 1727.5 5646.69 2734.5M5676.69 1727.5 5676.69 2734.5M5701.69 1727.5 5701.69 2734.5M5723.69 1727.5 5723.69 2734.5M5743.69 1727.5 5743.69 2734.5" stroke="#F2F2F2" stroke-width="3.4375" stroke-linejoin="round" stroke-miterlimit="10" fill="none"/></g><g><path d="M4631.65 1727.5 4631.65 2734.5M5007.66 1727.5 5007.66 2734.5M5384.68 1727.5 5384.68 2734.5M5760.5 1727.5 5760.5 2734.5" stroke="#D9D9D9" stroke-width="3.4375" stroke-linejoin="round" stroke-miterlimit="10" fill="none"/></g><g><path d="M0 0 0.000360892 1007" stroke="#BFBFBF" stroke-width="3.4375" stroke-linejoin="round" stroke-miterlimit="10" fill="none" fill-rule="evenodd" transform="matrix(1 0 0 -1 4255.5 2734.5)"/></g><g><path d="M4255.5 2230.5 5760.5 2230.5" stroke="#BFBFBF" stroke-width="3.4375" stroke-linejoin="round" stroke-miterlimit="10" fill="none" fill-rule="evenodd"/></g><g><path d="M4255.5 1954.36C4260.57 1954.14 4265.63 1953.93 4270.7 1953.7 4275.77 1953.47 4280.84 1953.24 4285.9 1952.99 4290.97 1952.74 4296.04 1952.47 4301.11 1952.2 4306.17 1951.93 4311.24 1951.64 4316.31 1951.35 4321.38 1951.05 4326.44 1950.74 4331.51 1950.41 4336.58 1950.09 4341.65 1949.75 4346.71 1949.39 4351.78 1949.04 4356.85 1948.67 4361.91 1948.29 4366.98 1947.9 4372.05 1947.5 4377.12 1947.08 4382.18 1946.66 4387.25 1946.23 4392.32 1945.78 4397.39 1945.32 4402.45 1944.85 4407.52 1944.36 4412.59 1943.87 4417.65 1943.37 4422.72 1942.84 4427.79 1942.31 4432.86 1941.77 4437.92 1941.2 4442.99 1940.64 4448.06 1940.05 4453.13 1939.44 4458.19 1938.84 4463.26 1938.21 4468.33 1937.57 4473.4 1936.93 4478.46 1936.26 4483.53 1935.58 4488.6 1934.9 4493.67 1934.2 4498.73 1933.48 4503.8 1932.76 4508.87 1932.02 4513.93 1931.27 4519 1930.52 4524.07 1929.75 4529.14 1928.97 4534.2 1928.19 4539.27 1927.4 4544.34 1926.6 4549.41 1925.79 4554.47 1924.98 4559.54 1924.16 4564.61 1923.34 4569.68 1922.51 4574.74 1921.68 4579.81 1920.85 4584.88 1920.01 4589.94 1919.18 4595.01 1918.35 4600.08 1917.51 4605.15 1916.68 4610.21 1915.85 4615.28 1915.02 4620.35 1914.2 4625.42 1913.38 4630.48 1912.56 4635.55 1911.75 4640.62 1910.94 4645.69 1910.14 4650.75 1909.35 4655.82 1908.56 4660.89 1907.77 4665.95 1907 4671.02 1906.22 4676.09 1905.45 4681.16 1904.69 4686.22 1903.93 4691.29 1903.17 4696.36 1902.42 4701.43 1901.67 4706.49 1900.92 4711.56 1900.18 4716.63 1899.43 4721.7 1898.69 4726.76 1897.94 4731.83 1897.19 4736.9 1896.44 4741.96 1895.69 4747.03 1894.93 4752.1 1894.17 4757.17 1893.41 4762.23 1892.64 4767.3 1891.87 4772.37 1891.09 4777.44 1890.31 4782.5 1889.52 4787.57 1888.73 4792.64 1887.93 4797.71 1887.13 4802.77 1886.32 4807.84 1885.51 4812.91 1884.7 4817.97 1883.88 4823.04 1883.07 4828.11 1882.25 4833.18 1881.45 4838.24 1880.64 4843.31 1879.83 4848.38 1879.04 4853.45 1878.25 4858.51 1877.47 4863.58 1876.72 4868.65 1875.97 4873.72 1875.23 4878.78 1874.54 4883.85 1873.85 4888.92 1873.19 4893.98 1872.6 4899.05 1872.01 4904.12 1871.45 4909.19 1871 4914.25 1870.55 4919.32 1870.15 4924.39 1869.92 4929.46 1869.68 4934.52 1869.5 4939.59 1869.59 4944.66 1869.68 4949.73 1869.83 4954.79 1870.46 4959.86 1871.08 4964.93 1871.74 4970 1873.35 4975.06 1874.96 4980.13 1876.37 4985.2 1880.12 4990.26 1883.87 4995.33 1886.46 5000.4 1895.82 5005.47 1905.19 5010.53 1915.89 5015.6 1936.32 5020.67 1956.76 5025.74 1995.42 5030.8 2018.45 5035.87 2041.48 5040.94 2061.35 5046 2074.52 5050.95 2087.37 5056.26 2091.55 5061.21 2097.47 5062.16 2098.61 5075.46 2100.82 5076.41 2110.93 5081.48 2164.9 5086.54 2359.71 5091.61 2421.25 5094.11 2451.58 5104.32 2464.24 5106.81 2480.19 5111.88 2512.56 5116.95 2620.14 5122.02 2615.46 5127.08 2610.79 5132.15 2483.63 5137.22 2452.13 5139.59 2437.41 5150.05 2428.84 5152.42 2426.48 5157.49 2421.43 5162.55 2422.88 5167.62 2421.85 5172.69 2420.82 5177.76 2420.66 5182.82 2420.28 5187.89 2419.9 5192.96 2419.75 5198.03 2419.57 5203.09 2419.4 5208.16 2419.3 5213.23 2419.21 5218.29 2419.12 5223.36 2419.07 5228.43 2419.04 5233.5 2419.01 5238.56 2418.99 5243.63 2419.02 5248.7 2419.04 5253.77 2419.07 5258.83 2419.18 5263.9 2419.29 5268.97 2419.35 5274.04 2419.67 5279.1 2420 5284.17 2419.31 5289.24 2421.14 5294.3 2422.97 5299.37 2424.52 5304.44 2430.65 5306.8 2433.5 5317.28 2442.47 5319.64 2457.89 5324.71 2491.03 5329.78 2592.56 5334.84 2629.49 5338.39 2655.35 5346.5 2669.73 5350.05 2679.44 5355.11 2693.31 5360.18 2706.72 5365.25 2712.65 5370.25 2718.5 5375.45 2714.49 5380.45 2715.01 5385.52 2715.55 5390.58 2715.64 5395.65 2715.85 5400.72 2716.06 5405.79 2716.16 5410.85 2716.26 5415.92 2716.37 5420.99 2716.45 5426.06 2716.49 5431.12 2716.54 5436.19 2716.53 5441.26 2716.55 5446.32 2716.56 5451.39 2716.53 5456.46 2716.58 5461.53 2716.62 5466.59 2716.77 5471.66 2716.82 5476.73 2716.87 5481.8 2716.87 5486.86 2716.88 5491.93 2716.9 5497 2716.91 5502.07 2716.92 5507.13 2716.93 5512.2 2716.94 5517.27 2716.95 5522.33 2716.95 5527.4 2716.96 5532.47 2716.97 5537.54 2716.97 5542.6 2716.98 5547.67 2716.98 5552.74 2716.99 5557.81 2716.99 5562.87 2716.99 5567.94 2717 5573.01 2717 5578.08 2717 5583.14 2717.01 5588.21 2717.01 5593.28 2717.01 5598.34 2717.01 5603.41 2717.02 5608.48 2717.02 5613.55 2717.02 5618.61 2717.02 5623.68 2717.03 5628.75 2717.03 5633.82 2717.03 5638.88 2717.03 5643.95 2717.03 5649.02 2717.04 5654.09 2717.04 5659.15 2717.04 5664.22 2717.04 5669.29 2717.04 5674.35 2717.05 5679.42 2717.05 5684.49 2717.05 5689.56 2717.05 5694.62 2717.05 5699.69 2717.06 5704.76 2717.06 5709.83 2717.06 5714.89 2717.06 5719.96 2717.06 5725.03 2717.07 5730.1 2717.07 5735.16 2717.07 5740.23 2717.07 5745.3 2717.08 5750.37 2717.08 5755.43 2717.08 5760.5 2717.09" stroke="#4472C4" stroke-width="9.16667" stroke-linecap="round" stroke-linejoin="round" stroke-miterlimit="10" fill="none"/></g><g><path d="M4255.5 1953.78C4260.57 1953.54 4265.63 1953.32 4270.7 1953.08 4275.77 1952.84 4280.84 1952.59 4285.9 1952.33 4290.97 1952.06 4296.04 1951.79 4301.11 1951.5 4306.17 1951.21 4311.24 1950.91 4316.31 1950.59 4321.38 1950.28 4326.44 1949.95 4331.51 1949.6 4336.58 1949.26 4341.65 1948.9 4346.71 1948.52 4351.78 1948.15 4356.85 1947.76 4361.91 1947.35 4366.98 1946.94 4372.05 1946.51 4377.12 1946.06 4382.18 1945.62 4387.25 1945.15 4392.32 1944.67 4397.39 1944.18 4402.45 1943.68 4407.52 1943.16 4412.59 1942.63 4417.65 1942.08 4422.72 1941.52 4427.79 1940.95 4432.86 1940.36 4437.92 1939.75 4442.99 1939.13 4448.06 1938.5 4453.13 1937.84 4458.19 1937.18 4463.26 1936.49 4468.33 1935.79 4473.4 1935.08 4478.46 1934.35 4483.53 1933.6 4488.6 1932.84 4493.67 1932.07 4498.73 1931.27 4503.8 1930.47 4508.87 1929.64 4513.93 1928.8 4519 1927.95 4524.07 1927.09 4529.14 1926.2 4534.2 1925.32 4539.27 1924.41 4544.34 1923.49 4549.41 1922.56 4554.47 1921.62 4559.54 1920.67 4564.61 1919.71 4569.68 1918.74 4574.74 1917.77 4579.81 1916.79 4584.88 1915.8 4589.94 1914.81 4595.01 1913.81 4600.08 1912.81 4605.15 1911.81 4610.21 1910.81 4615.28 1909.81 4620.35 1908.81 4625.42 1907.82 4630.48 1906.82 4635.55 1905.83 4640.62 1904.85 4645.69 1903.86 4650.75 1902.9 4655.82 1901.93 4660.89 1900.97 4665.95 1900.03 4671.02 1899.09 4676.09 1898.16 4681.16 1897.24 4686.22 1896.33 4691.29 1895.43 4696.36 1894.54 4701.43 1893.66 4706.49 1892.79 4711.56 1891.94 4716.63 1891.08 4721.7 1890.24 4726.76 1889.41 4731.83 1888.58 4736.9 1887.77 4741.96 1886.96 4747.03 1886.15 4752.1 1885.36 4757.17 1884.57 4762.23 1883.78 4767.3 1882.99 4772.37 1882.21 4777.44 1881.43 4782.5 1880.66 4787.57 1879.89 4792.64 1879.11 4797.71 1878.34 4802.77 1877.58 4807.84 1876.81 4812.91 1876.04 4817.97 1875.28 4823.04 1874.52 4828.11 1873.75 4833.18 1873 4838.24 1872.25 4843.31 1871.5 4848.38 1870.76 4853.45 1870.02 4858.51 1869.29 4863.58 1868.58 4868.65 1867.88 4873.72 1867.18 4878.78 1866.51 4883.85 1865.85 4888.92 1865.2 4893.98 1864.6 4899.05 1864 4904.12 1863.43 4909.19 1862.93 4914.25 1862.43 4919.32 1861.96 4924.39 1861.6 4929.46 1861.24 4934.52 1860.92 4939.59 1860.76 4944.66 1860.6 4949.73 1860.5 4954.79 1860.66 4959.86 1860.83 4964.93 1861.04 4970 1861.74 4975.06 1862.43 4980.13 1863.13 4985.2 1864.85 4990.26 1866.57 4995.33 1867.95 5000.4 1872.07 5005.14 1875.93 5010.86 1879.01 5015.6 1889.59 5020.67 1900.89 5025.74 1915.6 5030.8 1939.87 5035.87 1964.14 5040.94 2011.2 5046 2035.23 5051.07 2059.27 5056.14 2072.16 5061.21 2084.08 5062.39 2086.86 5075.23 2093.16 5076.41 2106.76 5081.48 2165.19 5086.54 2352.67 5091.61 2434.61 5096.68 2516.55 5101.75 2588.32 5106.81 2598.39 5111.88 2608.46 5116.95 2522.78 5122.02 2495.03 5127.08 2467.29 5132.15 2443.9 5137.22 2431.93 5140.63 2423.87 5149.01 2424.51 5152.42 2423.25 5157.49 2421.37 5162.55 2421.28 5167.62 2420.67 5172.69 2420.06 5177.76 2419.86 5182.82 2419.59 5187.89 2419.32 5192.96 2419.19 5198.03 2419.05 5203.09 2418.91 5208.16 2418.82 5213.23 2418.75 5218.29 2418.68 5223.36 2418.64 5228.43 2418.62 5233.5 2418.61 5238.56 2418.6 5243.63 2418.67 5248.7 2418.74 5253.77 2418.7 5258.83 2419.03 5263.37 2419.33 5269.5 2414.51 5274.04 2420.66 5279.1 2427.52 5284.17 2459.48 5289.24 2460.23 5294.3 2460.97 5299.37 2430.84 5304.44 2425.15 5305.6 2423.84 5318.48 2418.55 5319.64 2426.07 5324.71 2458.91 5329.78 2576.21 5334.84 2622.18 5339.29 2662.53 5345.6 2688.68 5350.05 2701.93 5353.01 2710.77 5362.28 2711.51 5365.25 2712.74 5370.31 2714.85 5375.38 2714.13 5380.45 2714.56 5385.52 2714.99 5390.58 2715.12 5395.65 2715.31 5400.72 2715.49 5405.79 2715.59 5410.85 2715.69 5415.92 2715.79 5420.99 2716.04 5426.06 2715.9 5431.12 2715.76 5436.19 2714.82 5441.26 2714.86 5446.32 2714.89 5451.39 2715.89 5456.46 2716.12 5461.53 2716.35 5466.59 2716.21 5471.66 2716.24 5476.73 2716.27 5481.8 2716.28 5486.86 2716.3 5491.93 2716.31 5497 2716.32 5502.07 2716.33 5507.13 2716.34 5512.2 2716.35 5517.27 2716.36 5522.33 2716.37 5527.4 2716.37 5532.47 2716.38 5537.54 2716.39 5542.6 2716.39 5547.67 2716.4 5552.74 2716.4 5557.81 2716.4 5562.87 2716.41 5567.94 2716.41 5573.01 2716.41 5578.08 2716.42 5583.14 2716.42 5588.21 2716.42 5593.28 2716.43 5598.34 2716.43 5603.41 2716.43 5608.48 2716.43 5613.55 2716.44 5618.61 2716.44 5623.68 2716.44 5628.75 2716.44 5633.82 2716.44 5638.88 2716.45 5643.95 2716.45 5649.02 2716.45 5654.09 2716.45 5659.15 2716.45 5664.22 2716.46 5669.29 2716.46 5674.35 2716.46 5679.42 2716.46 5684.49 2716.46 5689.56 2716.47 5694.62 2716.47 5699.69 2716.47 5704.76 2716.47 5709.83 2716.47 5714.89 2716.48 5719.96 2716.48 5725.03 2716.48 5730.1 2716.48 5735.16 2716.49 5740.23 2716.49 5745.3 2716.49 5750.37 2716.49 5755.43 2716.5 5760.5 2716.5" stroke="#ED7D31" stroke-width="6.875" stroke-linecap="round" stroke-linejoin="round" stroke-miterlimit="10" fill="none"/></g><g><path d="M4255.5 1953.65C4260.57 1953.41 4265.63 1953.19 4270.7 1952.95 4275.77 1952.7 4280.84 1952.45 4285.9 1952.18 4290.97 1951.91 4296.04 1951.63 4301.11 1951.34 4306.17 1951.05 4311.24 1950.74 4316.31 1950.42 4321.38 1950.1 4326.44 1949.77 4331.51 1949.42 4336.58 1949.07 4341.65 1948.71 4346.71 1948.33 4351.78 1947.95 4356.85 1947.55 4361.91 1947.13 4366.98 1946.72 4372.05 1946.29 4377.12 1945.83 4382.18 1945.38 4387.25 1944.91 4392.32 1944.42 4397.39 1943.93 4402.45 1943.41 4407.52 1942.88 4412.59 1942.35 4417.65 1941.79 4422.72 1941.21 4427.79 1940.64 4432.86 1940.04 4437.92 1939.41 4442.99 1938.79 4448.06 1938.14 4453.13 1937.47 4458.19 1936.8 4463.26 1936.1 4468.33 1935.38 4473.4 1934.66 4478.46 1933.91 4483.53 1933.14 4488.6 1932.37 4493.67 1931.57 4498.73 1930.76 4503.8 1929.94 4508.87 1929.09 4513.93 1928.22 4519 1927.36 4524.07 1926.47 4529.14 1925.55 4534.2 1924.64 4539.27 1923.71 4544.34 1922.76 4549.41 1921.8 4554.47 1920.83 4559.54 1919.84 4564.61 1918.86 4569.68 1917.85 4574.74 1916.83 4579.81 1915.82 4584.88 1914.79 4589.94 1913.75 4595.01 1912.72 4600.08 1911.67 4605.15 1910.63 4610.21 1909.58 4615.28 1908.53 4620.35 1907.48 4625.42 1906.44 4630.48 1905.39 4635.55 1904.35 4640.62 1903.31 4645.69 1902.28 4650.75 1901.25 4655.82 1900.23 4660.89 1899.22 4665.95 1898.22 4671.02 1897.23 4676.09 1896.24 4681.16 1895.27 4686.22 1894.31 4691.29 1893.35 4696.36 1892.42 4701.43 1891.48 4706.49 1890.56 4711.56 1889.66 4716.63 1888.76 4721.7 1887.88 4726.76 1887.01 4731.83 1886.14 4736.9 1885.28 4741.96 1884.44 4747.03 1883.6 4752.1 1882.77 4757.17 1881.96 4762.23 1881.14 4767.3 1880.33 4772.37 1879.53 4777.44 1878.73 4782.5 1877.94 4787.57 1877.16 4792.64 1876.37 4797.71 1875.6 4802.77 1874.82 4807.84 1874.05 4812.91 1873.28 4817.97 1872.52 4823.04 1871.76 4828.11 1871 4833.18 1870.25 4838.24 1869.5 4843.31 1868.76 4848.38 1868.03 4853.45 1867.3 4858.51 1866.57 4863.58 1865.87 4868.65 1865.17 4873.72 1864.48 4878.78 1863.82 4883.85 1863.16 4888.92 1862.51 4893.98 1861.91 4899.05 1861.31 4904.12 1860.73 4909.19 1860.22 4914.25 1859.71 4919.32 1859.22 4924.39 1858.83 4929.46 1858.44 4934.52 1858.09 4939.59 1857.88 4944.66 1857.66 4949.73 1857.5 4954.79 1857.56 4959.86 1857.62 4964.93 1857.73 4970 1858.23 4975.06 1858.73 4980.13 1859.25 4985.2 1860.56 4990.26 1861.88 4995.33 1863 5000.4 1866.12 5005.47 1869.24 5010.53 1870.93 5015.6 1879.28 5020.11 1886.71 5026.3 1896.77 5030.8 1916.23 5035.87 1938.12 5040.94 1983.93 5046 2010.59 5051.07 2037.24 5056.14 2060.53 5061.21 2076.14 5062.51 2080.17 5075.1 2088.35 5076.41 2104.28 5081.48 2166.09 5086.54 2364.52 5091.61 2446.96 5096.3 2523.16 5102.13 2596.15 5106.81 2598.9 5111.88 2601.88 5116.95 2493.17 5122.02 2464.84 5125.45 2445.65 5133.78 2433.72 5137.22 2428.94 5142.03 2422.24 5147.61 2423.87 5152.42 2422.51 5157.49 2421.08 5162.55 2420.89 5167.62 2420.38 5172.69 2419.86 5177.76 2419.67 5182.82 2419.43 5187.89 2419.19 5192.96 2419.06 5198.03 2418.93 5203.09 2418.8 5208.16 2418.72 5213.23 2418.65 5218.29 2418.59 5223.36 2418.55 5228.43 2418.54 5233.5 2418.54 5238.56 2418.52 5243.63 2418.62 5248.7 2418.71 5253.77 2418.51 5258.83 2419.11 5263.27 2419.64 5269.6 2415.85 5274.04 2422.21 5279.1 2429.48 5284.17 2462.74 5289.24 2462.75 5294.3 2462.77 5299.37 2428.5 5304.44 2422.3 5305.61 2420.86 5318.47 2417.86 5319.64 2425.54 5324.71 2458.68 5329.78 2574.94 5334.84 2621.17 5339.38 2662.52 5345.51 2689.33 5350.05 2702.97 5352.89 2711.53 5362.4 2711.62 5365.25 2712.69 5370.31 2714.61 5375.38 2714.04 5380.45 2714.46 5385.52 2714.88 5390.58 2715.01 5395.65 2715.19 5400.72 2715.38 5405.79 2715.48 5410.85 2715.57 5415.92 2715.67 5420.99 2716.18 5426.06 2715.77 5431.12 2715.37 5436.19 2713.12 5441.26 2713.16 5446.32 2713.2 5451.39 2715.51 5456.46 2716.01 5461.53 2716.5 5466.59 2716.09 5471.66 2716.12 5476.73 2716.15 5481.8 2716.16 5486.86 2716.18 5491.93 2716.19 5497 2716.2 5502.07 2716.21 5507.13 2716.22 5512.2 2716.23 5517.27 2716.24 5522.33 2716.25 5527.4 2716.25 5532.47 2716.26 5537.54 2716.27 5542.6 2716.27 5547.67 2716.27 5552.74 2716.28 5557.81 2716.28 5562.87 2716.29 5567.94 2716.29 5573.01 2716.29 5578.08 2716.3 5583.14 2716.3 5588.21 2716.3 5593.28 2716.31 5598.34 2716.31 5603.41 2716.31 5608.48 2716.31 5613.55 2716.31 5618.61 2716.32 5623.68 2716.32 5628.75 2716.32 5633.82 2716.32 5638.88 2716.33 5643.95 2716.33 5649.02 2716.33 5654.09 2716.33 5659.15 2716.33 5664.22 2716.33 5669.29 2716.34 5674.35 2716.34 5679.42 2716.34 5684.49 2716.34 5689.56 2716.34 5694.62 2716.35 5699.69 2716.35 5704.76 2716.35 5709.83 2716.35 5714.89 2716.36 5719.96 2716.36 5725.03 2716.36 5730.1 2716.36 5735.16 2716.37 5740.23 2716.37 5745.3 2716.37 5750.37 2716.37 5755.43 2716.38 5760.5 2716.38" stroke="#A5A5A5" stroke-width="9.16667" stroke-linecap="round" stroke-linejoin="round" stroke-miterlimit="10" fill="none"/></g><g><path d="M4255.5 1954.11C4260.57 1953.87 4265.63 1953.65 4270.7 1953.4 4275.77 1953.16 4280.84 1952.9 4285.9 1952.63 4290.97 1952.36 4296.04 1952.08 4301.11 1951.79 4306.17 1951.49 4311.24 1951.19 4316.31 1950.87 4321.38 1950.54 4326.44 1950.21 4331.51 1949.86 4336.58 1949.51 4341.65 1949.14 4346.71 1948.76 4351.78 1948.37 4356.85 1947.97 4361.91 1947.56 4366.98 1947.14 4372.05 1946.7 4377.12 1946.25 4382.18 1945.79 4387.25 1945.32 4392.32 1944.82 4397.39 1944.33 4402.45 1943.81 4407.52 1943.27 4412.59 1942.73 4417.65 1942.18 4422.72 1941.59 4427.79 1941.01 4432.86 1940.41 4437.92 1939.78 4442.99 1939.15 4448.06 1938.5 4453.13 1937.82 4458.19 1937.14 4463.26 1936.44 4468.33 1935.71 4473.4 1934.98 4478.46 1934.23 4483.53 1933.45 4488.6 1932.67 4493.67 1931.87 4498.73 1931.04 4503.8 1930.21 4508.87 1929.36 4513.93 1928.48 4519 1927.6 4524.07 1926.7 4529.14 1925.77 4534.2 1924.85 4539.27 1923.9 4544.34 1922.94 4549.41 1921.97 4554.47 1920.98 4559.54 1919.98 4564.61 1918.98 4569.68 1917.95 4574.74 1916.92 4579.81 1915.89 4584.88 1914.84 4589.94 1913.79 4595.01 1912.73 4600.08 1911.66 4605.15 1910.6 4610.21 1909.53 4615.28 1908.46 4620.35 1907.39 4625.42 1906.32 4630.48 1905.24 4635.55 1904.18 4640.62 1903.12 4645.69 1902.06 4650.75 1901.01 4655.82 1899.96 4660.89 1898.92 4665.95 1897.9 4671.02 1896.87 4676.09 1895.86 4681.16 1894.87 4686.22 1893.87 4691.29 1892.89 4696.36 1891.93 4701.43 1890.97 4706.49 1890.03 4711.56 1889.1 4716.63 1888.17 4721.7 1887.27 4726.76 1886.37 4731.83 1885.48 4736.9 1884.61 4741.96 1883.75 4747.03 1882.89 4752.1 1882.04 4757.17 1881.21 4762.23 1880.37 4767.3 1879.55 4772.37 1878.74 4777.44 1877.93 4782.5 1877.13 4787.57 1876.34 4792.64 1875.54 4797.71 1874.76 4802.77 1873.98 4807.84 1873.2 4812.91 1872.43 4817.97 1871.66 4823.04 1870.9 4828.11 1870.14 4833.18 1869.39 4838.24 1868.64 4843.31 1867.89 4848.38 1867.17 4853.45 1866.44 4858.51 1865.71 4863.58 1865.01 4868.65 1864.31 4873.72 1863.62 4878.78 1862.96 4883.85 1862.3 4888.92 1861.65 4893.98 1861.05 4899.05 1860.45 4904.12 1859.87 4909.19 1859.35 4914.25 1858.83 4919.32 1858.34 4924.39 1857.94 4929.46 1857.53 4934.52 1857.17 4939.59 1856.93 4944.66 1856.69 4949.73 1856.5 4954.79 1856.51 4959.86 1856.53 4964.93 1856.59 4970 1857 4975.06 1857.42 4980.13 1857.86 4985.2 1859.01 4990.26 1860.15 4995.33 1861.15 5000.4 1863.87 5005.47 1866.58 5010.53 1868.15 5015.6 1875.28 5019.86 1881.27 5026.54 1889.73 5030.8 1906.62 5035.87 1926.69 5040.94 1968.24 5046 1995.71 5051.07 2023.18 5056.14 2053.53 5061.21 2071.44 5062.59 2076.33 5075.03 2085.65 5076.41 2103.2 5081.48 2167.56 5086.54 2376.21 5091.61 2457.63 5095.8 2524.98 5102.62 2591.96 5106.81 2591.74 5111.88 2591.47 5116.95 2483.23 5122.02 2456.01 5124.9 2440.53 5134.33 2431.58 5137.22 2428.43 5142.28 2422.91 5147.35 2424.12 5152.42 2422.87 5157.49 2421.62 5162.55 2421.4 5167.62 2420.93 5172.69 2420.45 5177.76 2420.26 5182.82 2420.03 5187.89 2419.81 5192.96 2419.68 5198.03 2419.56 5203.09 2419.43 5208.16 2419.35 5213.23 2419.29 5218.29 2419.23 5223.36 2419.19 5228.43 2419.19 5233.5 2419.19 5238.56 2419.17 5243.63 2419.28 5248.7 2419.4 5253.77 2419 5258.83 2419.87 5263.9 2420.73 5268.97 2421.67 5274.04 2424.49 5279.1 2427.32 5284.17 2437.16 5289.24 2436.81 5294.3 2436.46 5299.37 2424.18 5304.44 2422.39 5305.62 2421.97 5318.46 2418.33 5319.64 2426.05 5324.71 2459.24 5329.78 2575.19 5334.84 2621.53 5339.41 2663.26 5345.48 2690.31 5350.05 2704.11 5352.85 2712.58 5362.45 2712.43 5365.25 2713.46 5370.31 2715.3 5375.38 2714.79 5380.45 2715.2 5385.52 2715.61 5390.58 2715.75 5395.65 2715.93 5400.72 2716.11 5405.79 2716.21 5410.85 2716.31 5415.92 2716.41 5420.99 2717.17 5426.06 2716.51 5431.12 2715.84 5436.19 2712.29 5441.26 2712.33 5446.32 2712.37 5451.39 2715.99 5456.46 2716.74 5461.53 2717.5 5466.59 2716.83 5471.66 2716.86 5476.73 2716.88 5481.8 2716.9 5486.86 2716.91 5491.93 2716.93 5497 2716.94 5502.07 2716.95 5507.13 2716.96 5512.2 2716.97 5517.27 2716.98 5522.33 2716.98 5527.4 2716.99 5532.47 2717 5537.54 2717 5542.6 2717.01 5547.67 2717.01 5552.74 2717.01 5557.81 2717.02 5562.87 2717.02 5567.94 2717.03 5573.01 2717.03 5578.08 2717.03 5583.14 2717.04 5588.21 2717.04 5593.28 2717.04 5598.34 2717.04 5603.41 2717.05 5608.48 2717.05 5613.55 2717.05 5618.61 2717.05 5623.68 2717.05 5628.75 2717.06 5633.82 2717.06 5638.88 2717.06 5643.95 2717.06 5649.02 2717.06 5654.09 2717.07 5659.15 2717.07 5664.22 2717.07 5669.29 2717.07 5674.35 2717.07 5679.42 2717.08 5684.49 2717.08 5689.56 2717.08 5694.62 2717.08 5699.69 2717.08 5704.76 2717.09 5709.83 2717.09 5714.89 2717.09 5719.96 2717.09 5725.03 2717.1 5730.1 2717.1 5735.16 2717.1 5740.23 2717.1 5745.3 2717.11 5750.37 2717.11 5755.43 2717.11 5760.5 2717.11" stroke="#FFC000" stroke-width="6.875" stroke-linecap="round" stroke-linejoin="round" stroke-miterlimit="10" fill="none"/></g><g><path d="M4255.5 1953.97C4260.57 1953.74 4265.63 1953.52 4270.7 1953.27 4275.77 1953.02 4280.84 1952.77 4285.9 1952.5 4290.97 1952.23 4296.04 1951.95 4301.11 1951.65 4306.17 1951.36 4311.24 1951.05 4316.31 1950.73 4321.38 1950.4 4326.44 1950.07 4331.51 1949.71 4336.58 1949.36 4341.65 1948.99 4346.71 1948.61 4351.78 1948.22 4356.85 1947.82 4361.91 1947.4 4366.98 1946.98 4372.05 1946.55 4377.12 1946.09 4382.18 1945.63 4387.25 1945.16 4392.32 1944.66 4397.39 1944.16 4402.45 1943.65 4407.52 1943.11 4412.59 1942.57 4417.65 1942.01 4422.72 1941.42 4427.79 1940.84 4432.86 1940.23 4437.92 1939.6 4442.99 1938.96 4448.06 1938.31 4453.13 1937.63 4458.19 1936.95 4463.26 1936.24 4468.33 1935.51 4473.4 1934.78 4478.46 1934.02 4483.53 1933.24 4488.6 1932.46 4493.67 1931.65 4498.73 1930.81 4503.8 1929.98 4508.87 1929.12 4513.93 1928.24 4519 1927.35 4524.07 1926.45 4529.14 1925.52 4534.2 1924.59 4539.27 1923.63 4544.34 1922.66 4549.41 1921.68 4554.47 1920.69 4559.54 1919.68 4564.61 1918.67 4569.68 1917.63 4574.74 1916.59 4579.81 1915.55 4584.88 1914.49 4589.94 1913.42 4595.01 1912.36 4600.08 1911.28 4605.15 1910.2 4610.21 1909.12 4615.28 1908.03 4620.35 1906.95 4625.42 1905.87 4630.48 1904.78 4635.55 1903.7 4640.62 1902.63 4645.69 1901.55 4650.75 1900.49 4655.82 1899.43 4660.89 1898.37 4665.95 1897.33 4671.02 1896.29 4676.09 1895.26 4681.16 1894.25 4686.22 1893.24 4691.29 1892.25 4696.36 1891.27 4701.43 1890.3 4706.49 1889.34 4711.56 1888.4 4716.63 1887.46 4721.7 1886.54 4726.76 1885.63 4731.83 1884.73 4736.9 1883.84 4741.96 1882.97 4747.03 1882.09 4752.1 1881.24 4757.17 1880.4 4762.23 1879.55 4767.3 1878.72 4772.37 1877.9 4777.44 1877.08 4782.5 1876.28 4787.57 1875.48 4792.64 1874.68 4797.71 1873.89 4802.77 1873.1 4807.84 1872.32 4812.91 1871.55 4817.97 1870.78 4823.04 1870.01 4828.11 1869.25 4833.18 1868.5 4838.24 1867.75 4843.31 1867 4848.38 1866.27 4853.45 1865.54 4858.51 1864.82 4863.58 1864.12 4868.65 1863.42 4873.72 1862.73 4878.78 1862.07 4883.85 1861.41 4888.92 1860.76 4893.98 1860.16 4899.05 1859.56 4904.12 1858.98 4909.19 1858.45 4914.25 1857.93 4919.32 1857.43 4924.39 1857.02 4929.46 1856.61 4934.52 1856.24 4939.59 1855.98 4944.66 1855.73 4949.73 1855.53 4954.79 1855.51 4959.86 1855.5 4964.93 1855.54 4970 1855.9 4975.06 1856.27 4980.13 1856.67 4985.2 1857.72 4990.26 1858.77 4995.33 1859.7 5000.4 1862.2 5005.47 1864.69 5010.53 1866.2 5015.6 1872.67 5019.78 1878 5026.62 1885.47 5030.8 1900.99 5035.87 1919.79 5040.94 1957.71 5046 1985.47 5051.07 2013.24 5056.14 2048.19 5061.21 2067.59 5062.64 2073.07 5074.98 2083.19 5076.41 2101.9 5081.48 2168.17 5086.54 2384.94 5091.61 2465.26 5095.37 2524.9 5103.05 2585.52 5106.81 2583.8 5111.88 2581.48 5116.95 2477.36 5122.02 2451.33 5124.71 2437.51 5134.53 2430.18 5137.22 2427.63 5142.28 2422.83 5147.35 2423.68 5152.42 2422.52 5157.49 2421.36 5162.55 2421.13 5167.62 2420.68 5172.69 2420.24 5177.76 2420.05 5182.82 2419.83 5187.89 2419.61 5192.96 2419.48 5198.03 2419.36 5203.09 2419.24 5208.16 2419.17 5213.23 2419.11 5218.29 2419.05 5223.36 2419.01 5228.43 2419.01 5233.5 2419.01 5238.56 2418.99 5243.63 2419.11 5248.7 2419.24 5253.77 2418.63 5258.83 2419.76 5263.9 2420.88 5268.97 2424.09 5274.04 2425.86 5279.1 2427.62 5284.17 2430.98 5289.24 2430.34 5294.3 2429.69 5299.37 2422.73 5304.44 2421.97 5305.62 2421.8 5318.46 2418.06 5319.64 2425.81 5324.71 2459 5329.78 2574.75 5334.84 2621.13 5339.42 2663.04 5345.47 2690.21 5350.05 2704.08 5352.83 2712.51 5362.47 2712.24 5365.25 2713.24 5370.31 2715.05 5375.38 2714.56 5380.45 2714.97 5385.52 2715.38 5390.58 2715.51 5395.65 2715.7 5400.72 2715.88 5405.79 2715.98 5410.85 2716.08 5415.92 2716.17 5420.99 2717.17 5426.06 2716.27 5431.12 2715.38 5436.19 2710.66 5441.26 2710.7 5446.32 2710.74 5451.39 2715.53 5456.46 2716.51 5461.53 2717.5 5466.59 2716.6 5471.66 2716.62 5476.73 2716.65 5481.8 2716.66 5486.86 2716.68 5491.93 2716.69 5497 2716.71 5502.07 2716.72 5507.13 2716.73 5512.2 2716.73 5517.27 2716.74 5522.33 2716.75 5527.4 2716.76 5532.47 2716.76 5537.54 2716.77 5542.6 2716.77 5547.67 2716.78 5552.74 2716.78 5557.81 2716.79 5562.87 2716.79 5567.94 2716.79 5573.01 2716.8 5578.08 2716.8 5583.14 2716.8 5588.21 2716.81 5593.28 2716.81 5598.34 2716.81 5603.41 2716.81 5608.48 2716.82 5613.55 2716.82 5618.61 2716.82 5623.68 2716.82 5628.75 2716.82 5633.82 2716.83 5638.88 2716.83 5643.95 2716.83 5649.02 2716.83 5654.09 2716.83 5659.15 2716.84 5664.22 2716.84 5669.29 2716.84 5674.35 2716.84 5679.42 2716.84 5684.49 2716.85 5689.56 2716.85 5694.62 2716.85 5699.69 2716.85 5704.76 2716.85 5709.83 2716.86 5714.89 2716.86 5719.96 2716.86 5725.03 2716.86 5730.1 2716.87 5735.16 2716.87 5740.23 2716.87 5745.3 2716.87 5750.37 2716.88 5755.43 2716.88 5760.5 2716.88" stroke="#5B9BD5" stroke-width="9.16667" stroke-linecap="round" stroke-linejoin="round" stroke-miterlimit="10" fill="none"/></g><g><text font-family="Calibri,Calibri_MSFontService,sans-serif" font-weight="400" font-size="64" transform="matrix(1 0 0 1 4079.12 2753)">-300</text></g><g><text font-family="Calibri,Calibri_MSFontService,sans-serif" font-weight="400" font-size="64" transform="matrix(1 0 0 1 4079.12 2585)">-200</text></g><g><text font-family="Calibri,Calibri_MSFontService,sans-serif" font-weight="400" font-size="64" transform="matrix(1 0 0 1 4079.12 2417)">-100</text></g><g><text font-family="Calibri,Calibri_MSFontService,sans-serif" font-weight="400" font-size="64" transform="matrix(1 0 0 1 4163.8 2249)">0</text></g><g><text font-family="Calibri,Calibri_MSFontService,sans-serif" font-weight="400" font-size="64" transform="matrix(1 0 0 1 4098.76 2081)">100</text></g><g><text font-family="Calibri,Calibri_MSFontService,sans-serif" font-weight="400" font-size="64" transform="matrix(1 0 0 1 4098.76 1913)">200</text></g><g><text font-family="Calibri,Calibri_MSFontService,sans-serif" font-weight="400" font-size="64" transform="matrix(1 0 0 1 4098.76 1745)">300</text></g><g><text font-family="Calibri,Calibri_MSFontService,sans-serif" font-weight="400" font-size="64" transform="matrix(1 0 0 1 4223.33 2836)">10</text></g><g><text font-family="Calibri,Calibri_MSFontService,sans-serif" font-weight="400" font-size="64" transform="matrix(1 0 0 1 4583.21 2836)">100</text></g><g><text font-family="Calibri,Calibri_MSFontService,sans-serif" font-weight="400" font-size="64" transform="matrix(1 0 0 1 4943.09 2836)">1000</text></g><g><text font-family="Calibri,Calibri_MSFontService,sans-serif" font-weight="400" font-size="64" transform="matrix(1 0 0 1 5302.97 2836)">10000</text></g><g><text font-family="Calibri,Calibri_MSFontService,sans-serif" font-weight="400" font-size="64" transform="matrix(1 0 0 1 5662.85 2836)">100000</text></g><g><text font-family="Calibri,Calibri_MSFontService,sans-serif" font-weight="700" font-size="64" transform="matrix(6.12323e-17 -1 1 6.12323e-17 4048.05 2429)">Phase (degree)</text></g><g><text font-family="Calibri,Calibri_MSFontService,sans-serif" font-weight="700" font-size="64" transform="matrix(1 0 0 1 4809.53 2928)">Frequency (Hz)</text></g><rect x="3930.5" y="1665.5" width="1978" height="1338" stroke="#D9D9D9" stroke-width="3.4375" stroke-linejoin="round" stroke-miterlimit="10" fill="none"/><g><g><text fill="#FF0000" font-family="Calibri,Calibri_MSFontService,sans-serif" font-weight="700" font-size="64" transform="matrix(1 0 0 1 5261.17 1858)">Increasing</text></g></g><g><text fill="#FF0000" font-family="Calibri,Calibri_MSFontService,sans-serif" font-weight="700" font-size="64" transform="matrix(1 0 0 1 5237.01 1936)">Load (Z</text></g><g><text fill="#FF0000" font-family="Calibri,Calibri_MSFontService,sans-serif" font-weight="700" font-size="43" transform="matrix(1 0 0 1 5429.9 1951)">Load4</text></g><g><text fill="#FF0000" font-family="Calibri,Calibri_MSFontService,sans-serif" font-weight="700" font-size="64" transform="matrix(1 0 0 1 5536.76 1936)">)</text></g><g><g><text fill="#FF0000" font-family="Calibri,Calibri_MSFontService,sans-serif" font-weight="700" font-size="64" transform="matrix(1 0 0 1 5119.38 2015)">Z1</text></g></g><g><g><text fill="#FF0000" font-family="Calibri,Calibri_MSFontService,sans-serif" font-weight="700" font-size="64" transform="matrix(1 0 0 1 5192.23 2015)">&lt; Z2</text></g></g><g><g><text fill="#FF0000" font-family="Calibri,Calibri_MSFontService,sans-serif" font-weight="700" font-size="64" transform="matrix(1 0 0 1 5326.07 2015)">&lt; Z3</text></g></g><g><g><text fill="#FF0000" font-family="Calibri,Calibri_MSFontService,sans-serif" font-weight="700" font-size="64" transform="matrix(1 0 0 1 5445.39 2015)">&lt; Z4</text></g></g><g><g><text fill="#FF0000" font-family="Calibri,Calibri_MSFontService,sans-serif" font-weight="700" font-size="64" transform="matrix(1 0 0 1 5564.72 2015)">&lt; Z5</text></g></g><g><path d="M0.682914-3.36898 232.595 43.6411 231.229 50.379-0.682914 3.36898ZM230.152 32.6236 254.372 51.5629 224.689 59.5755Z" fill="#7F7F7F" transform="matrix(1 0 0 -1 4898.5 1970.06)"/></g></g></svg>