<svg width="1965" height="2906" xmlns="http://www.w3.org/2000/svg" xmlns:xlink="http://www.w3.org/1999/xlink" xml:space="preserve" overflow="hidden"><defs><clipPath id="clip0"><rect x="5278" y="60" width="1965" height="2906"/></clipPath></defs><g clip-path="url(#clip0)" transform="translate(-5278 -60)"><rect x="5279" y="60.9998" width="1962" height="1585" fill="#FFFFFF"/><g><path d="M5584.5 1558.5 7140.5 1558.5M5584.5 1415.5 7140.5 1415.5M5584.5 1273.5 7140.5 1273.5M5584.5 1131.5 7140.5 1131.5M5584.5 989.5 7140.5 989.5M5584.5 847.5 7140.5 847.5M5584.5 705.5 7140.5 705.5M5584.5 563.5 7140.5 563.5M5584.5 421.5 7140.5 421.5M5584.5 278.5 7140.5 278.5" stroke="#D9D9D9" stroke-width="3.4375" stroke-linejoin="round" stroke-miterlimit="10" fill="none"/></g><g><path d="M5701.5 278.5 5701.5 1558.5M5769.5 278.5 5769.5 1558.5M5818.5 278.5 5818.5 1558.5M5856.5 278.5 5856.5 1558.5M5886.5 278.5 5886.5 1558.5M5912.5 278.5 5912.5 1558.5M5935.5 278.5 5935.5 1558.5M5955.5 278.5 5955.5 1558.5M6090.5 278.5 6090.5 1558.5M6158.5 278.5 6158.5 1558.5M6207.5 278.5 6207.5 1558.5M6245.5 278.5 6245.5 1558.5M6276.5 278.5 6276.5 1558.5M6302.5 278.5 6302.5 1558.5M6324.5 278.5 6324.5 1558.5M6344.5 278.5 6344.5 1558.5M6479.5 278.5 6479.5 1558.5M6547.5 278.5 6547.5 1558.5M6596.5 278.5 6596.5 1558.5M6634.5 278.5 6634.5 1558.5M6665.5 278.5 6665.5 1558.5M6691.5 278.5 6691.5 1558.5M6713.5 278.5 6713.5 1558.5M6733.5 278.5 6733.5 1558.5M6868.5 278.5 6868.5 1558.5M6937.5 278.5 6937.5 1558.5M6985.5 278.5 6985.5 1558.5M7023.5 278.5 7023.5 1558.5M7054.5 278.5 7054.5 1558.5M7080.5 278.5 7080.5 1558.5M7102.5 278.5 7102.5 1558.5M7122.5 278.5 7122.5 1558.5" stroke="#F2F2F2" stroke-width="3.4375" stroke-linejoin="round" stroke-miterlimit="10" fill="none"/></g><g><path d="M5973.5 278.5 5973.5 1558.5M6362.5 278.5 6362.5 1558.5M6751.5 278.5 6751.5 1558.5M7140.5 278.5 7140.5 1558.5" stroke="#D9D9D9" stroke-width="3.4375" stroke-linejoin="round" stroke-miterlimit="10" fill="none"/></g><g><path d="M0 0 0.000360892 1280" stroke="#BFBFBF" stroke-width="3.4375" stroke-linejoin="round" stroke-miterlimit="10" fill="none" fill-rule="evenodd" transform="matrix(1 0 0 -1 5584.5 1558.5)"/></g><g><path d="M5584.5 1344.5 7140.5 1344.5" stroke="#BFBFBF" stroke-width="3.4375" stroke-linejoin="round" stroke-miterlimit="10" fill="none" fill-rule="evenodd"/></g><g><path d="M5584.18 1531.48C5589.42 1531.43 5594.66 1531.39 5599.9 1531.35 5605.14 1531.3 5610.38 1531.25 5615.62 1531.19 5620.86 1531.14 5626.1 1531.08 5631.34 1531.01 5636.58 1530.94 5641.82 1530.87 5647.06 1530.79 5652.3 1530.7 5657.54 1530.62 5662.78 1530.52 5668.02 1530.42 5673.26 1530.32 5678.5 1530.2 5683.74 1530.09 5688.98 1529.96 5694.22 1529.82 5699.46 1529.68 5704.7 1529.54 5709.94 1529.37 5715.18 1529.2 5720.42 1529.03 5725.66 1528.83 5730.9 1528.63 5736.14 1528.42 5741.38 1528.19 5746.62 1527.96 5751.86 1527.71 5757.1 1527.43 5762.34 1527.16 5767.58 1526.86 5772.82 1526.54 5778.06 1526.21 5783.3 1525.86 5788.54 1525.48 5793.78 1525.1 5799.02 1524.69 5804.26 1524.24 5809.5 1523.8 5814.74 1523.32 5819.98 1522.8 5825.22 1522.28 5830.46 1521.73 5835.7 1521.13 5840.94 1520.53 5846.18 1519.89 5851.42 1519.2 5856.66 1518.51 5861.9 1517.78 5867.14 1517 5872.38 1516.21 5877.62 1515.38 5882.86 1514.49 5888.1 1513.6 5893.34 1512.66 5898.58 1511.67 5903.82 1510.68 5909.06 1509.63 5914.3 1508.53 5919.54 1507.42 5924.78 1506.26 5930.02 1505.05 5935.26 1503.84 5940.5 1502.57 5945.74 1501.25 5950.98 1499.94 5956.22 1498.57 5961.46 1497.15 5966.7 1495.73 5971.94 1494.26 5977.19 1492.75 5982.42 1491.24 5987.67 1489.68 5992.9 1488.09 5998.14 1486.5 6003.38 1484.86 6008.62 1483.2 6013.86 1481.53 6019.11 1479.83 6024.35 1478.1 6029.59 1476.37 6034.83 1474.6 6040.07 1472.82 6045.31 1471.04 6050.55 1469.22 6055.79 1467.39 6061.03 1465.56 6066.27 1463.7 6071.51 1461.82 6076.75 1459.94 6081.99 1458.04 6087.23 1456.12 6092.47 1454.19 6097.71 1452.25 6102.95 1450.28 6108.19 1448.31 6113.43 1446.32 6118.67 1444.31 6123.91 1442.29 6129.15 1440.25 6134.39 1438.18 6139.63 1436.11 6144.87 1434.02 6150.11 1431.89 6155.35 1429.77 6160.59 1427.62 6165.83 1425.44 6171.07 1423.26 6176.31 1421.05 6181.55 1418.82 6186.79 1416.59 6192.03 1414.32 6197.27 1412.05 6202.51 1409.77 6207.75 1407.47 6212.99 1405.16 6218.23 1402.86 6223.47 1400.54 6228.71 1398.24 6233.95 1395.94 6239.19 1393.62 6244.43 1391.37 6249.67 1389.12 6254.91 1386.86 6260.15 1384.72 6265.39 1382.59 6270.63 1380.46 6275.87 1378.55 6281.11 1376.63 6286.35 1374.76 6291.59 1373.23 6296.83 1371.7 6302.07 1370.24 6307.31 1369.38 6312.55 1368.51 6317.79 1367.76 6323.03 1368.03 6328.27 1368.3 6333.51 1368.74 6338.75 1371 6343.99 1373.26 6349.23 1376.2 6354.47 1381.6 6359.71 1387.01 6364.95 1400.28 6370.19 1403.41 6372.12 1404.57 6383.98 1408.18 6385.91 1400.41 6391.15 1379.33 6396.39 1325.3 6401.63 1276.91 6406.87 1228.52 6412.11 1180.18 6417.35 1110.07 6422.59 1039.95 6427.83 906.349 6433.07 856.216 6435.64 831.595 6446.22 813.02 6448.79 809.268 6449.6 808.094 6463.71 802.537 6464.51 810.376 6469.75 861.364 6474.99 1050.77 6480.23 1115.2 6483.61 1156.7 6492.58 1195.17 6495.95 1196.97 6501.19 1199.76 6506.43 1148.06 6511.67 1131.96 6516.91 1115.87 6522.15 1109.55 6527.39 1100.41 6532.63 1091.27 6537.87 1084.55 6543.11 1077.13 6548.35 1069.71 6553.59 1063.02 6558.83 1055.9 6564.07 1048.78 6569.31 1041.84 6574.55 1034.4 6579.79 1026.96 6585.03 1019.49 6590.27 1011.28 6595.51 1003.06 6600.75 994.747 6605.99 985.122 6611.23 975.496 6616.47 966.216 6621.71 953.523 6626.95 940.83 6632.19 926.759 6637.43 908.964 6642.67 891.169 6647.91 852.818 6653.15 846.756 6658.39 840.693 6663.63 885.262 6668.88 872.589 6673.51 861.375 6679.96 822.045 6684.59 770.714 6689.83 712.696 6695.08 535.234 6700.31 524.483 6705.55 513.732 6710.8 656.919 6716.04 706.208 6721.28 755.497 6726.52 790.551 6731.76 820.218 6737 849.884 6742.24 866.595 6747.48 884.205 6752.72 901.815 6757.96 913.04 6763.2 925.877 6768.44 938.714 6773.68 950.42 6778.92 961.226 6784.16 972.032 6789.4 980.253 6794.64 990.714 6799.88 1001.17 6805.12 1016.6 6810.36 1023.99 6815.6 1031.38 6820.84 1029.68 6826.08 1035.05 6831.32 1040.43 6836.56 1049.53 6841.8 1056.25 6847.04 1062.97 6852.28 1069.2 6857.52 1075.36 6862.76 1081.52 6868 1087.42 6873.24 1093.22 6878.48 1099.02 6883.72 1104.62 6888.96 1110.15 6894.2 1115.67 6899.44 1121.05 6904.68 1126.37 6909.92 1131.68 6915.16 1136.88 6920.4 1142.02 6925.64 1147.17 6930.88 1152.22 6936.12 1157.23 6941.36 1162.24 6946.6 1167.18 6951.84 1172.08 6957.08 1176.98 6962.32 1181.82 6967.56 1186.64 6972.8 1191.45 6978.04 1196.22 6983.28 1200.96 6988.52 1205.7 6993.76 1210.4 6999 1215.09 7004.24 1219.77 7009.48 1224.42 7014.72 1229.06 7019.96 1233.69 7025.2 1238.3 7030.44 1242.9 7035.68 1247.49 7040.92 1252.06 7046.16 1256.63 7051.4 1261.19 7056.64 1265.74 7061.88 1270.27 7067.12 1274.81 7072.36 1279.33 7077.6 1283.85 7082.84 1288.36 7088.08 1292.86 7093.32 1297.36 7098.56 1301.85 7103.8 1306.34 7109.04 1310.82 7114.28 1315.3 7119.52 1319.77 7124.76 1324.24 7130 1328.71 7137.86 1335.4 7140.48 1337.63" stroke="#4472C4" stroke-width="8.02083" stroke-linecap="round" stroke-linejoin="round" stroke-miterlimit="10" fill="none"/></g><g><path d="M5584.18 1531.44C5589.42 1531.4 5594.66 1531.37 5599.9 1531.32 5605.14 1531.28 5610.38 1531.23 5615.62 1531.18 5620.86 1531.13 5626.1 1531.08 5631.34 1531.01 5636.58 1530.95 5641.82 1530.89 5647.06 1530.81 5652.3 1530.74 5657.54 1530.66 5662.78 1530.57 5668.02 1530.48 5673.26 1530.39 5678.5 1530.28 5683.74 1530.17 5688.98 1530.06 5694.22 1529.93 5699.46 1529.81 5704.7 1529.67 5709.94 1529.52 5715.18 1529.37 5720.42 1529.2 5725.66 1529.02 5730.9 1528.84 5736.14 1528.65 5741.38 1528.43 5746.62 1528.21 5751.86 1527.98 5757.1 1527.73 5762.34 1527.47 5767.58 1527.2 5772.82 1526.89 5778.06 1526.59 5783.3 1526.27 5788.54 1525.91 5793.78 1525.55 5799.02 1525.17 5804.26 1524.74 5809.5 1524.32 5814.74 1523.87 5819.98 1523.38 5825.22 1522.88 5830.46 1522.36 5835.7 1521.78 5840.94 1521.2 5846.18 1520.59 5851.42 1519.92 5856.66 1519.25 5861.9 1518.54 5867.14 1517.77 5872.38 1517 5877.62 1516.18 5882.86 1515.3 5888.1 1514.42 5893.34 1513.48 5898.58 1512.48 5903.82 1511.48 5909.06 1510.42 5914.3 1509.29 5919.54 1508.16 5924.78 1506.97 5930.02 1505.71 5935.26 1504.45 5940.5 1503.13 5945.74 1501.74 5950.98 1500.35 5956.22 1498.89 5961.46 1497.36 5966.7 1495.84 5971.94 1494.25 5977.19 1492.6 5982.42 1490.95 5987.67 1489.24 5992.9 1487.47 5998.14 1485.7 6003.38 1483.87 6008.62 1482 6013.86 1480.12 6019.11 1478.18 6024.35 1476.21 6029.59 1474.24 6034.83 1472.21 6040.07 1470.16 6045.31 1468.1 6050.55 1466 6055.79 1463.87 6061.03 1461.75 6066.27 1459.58 6071.51 1457.4 6076.75 1455.21 6081.99 1452.99 6087.23 1450.75 6092.47 1448.52 6097.71 1446.25 6102.95 1443.97 6108.19 1441.69 6113.43 1439.38 6118.67 1437.06 6123.91 1434.73 6129.15 1432.39 6134.39 1430.03 6139.63 1427.66 6144.87 1425.28 6150.11 1422.87 6155.35 1420.46 6160.59 1418.04 6165.83 1415.59 6171.07 1413.14 6176.31 1410.66 6181.55 1408.17 6186.79 1405.68 6192.03 1403.16 6197.27 1400.62 6202.51 1398.09 6207.75 1395.53 6212.99 1392.96 6218.23 1390.4 6223.47 1387.81 6228.71 1385.22 6233.95 1382.64 6239.19 1380.04 6244.43 1377.47 6249.67 1374.9 6254.91 1372.32 6260.15 1369.81 6265.39 1367.3 6270.63 1364.79 6275.87 1362.41 6281.11 1360.03 6286.35 1357.66 6291.59 1355.53 6296.83 1353.39 6302.07 1351.3 6307.31 1349.59 6312.55 1347.89 6317.79 1346.25 6323.03 1345.3 6328.27 1344.35 6333.51 1343.49 6338.75 1343.88 6343.99 1344.27 6349.23 1344.83 6354.47 1347.65 6359.71 1350.48 6364.95 1355.18 6370.19 1360.81 6375.43 1366.45 6380.67 1389.16 6385.91 1381.46 6390.28 1375.03 6397.26 1348.66 6401.63 1314.6 6406.87 1273.79 6412.11 1211.42 6417.35 1136.62 6422.59 1061.82 6427.83 923.829 6433.07 865.789 6436.62 826.454 6445.24 779.048 6448.79 788.38 6454.03 802.149 6459.27 877.313 6464.51 948.406 6469.75 1019.5 6474.99 1181.41 6480.23 1214.94 6485.42 1248.14 6490.76 1165.96 6495.95 1149.59 6501.19 1133.05 6506.43 1125.13 6511.67 1115.73 6516.91 1106.32 6522.15 1100.2 6527.39 1093.14 6532.63 1086.08 6537.87 1079.94 6543.11 1073.39 6548.35 1066.84 6553.59 1060.53 6558.83 1053.84 6564.07 1047.15 6569.31 1040.45 6574.55 1033.25 6579.79 1026.06 6585.03 1018.73 6590.27 1010.67 6595.51 1002.61 6600.75 994.412 6605.99 984.888 6611.23 975.363 6616.47 966.289 6621.71 953.525 6626.95 940.76 6632.19 910.599 6637.43 908.303 6642.67 906.007 6647.91 947.858 6653.15 939.748 6658.39 931.636 6663.63 889.776 6668.88 859.638 6672.88 836.596 6680.59 809.729 6684.59 758.916 6689.83 692.451 6695.08 475.144 6700.31 460.851 6705.55 446.558 6710.8 613.918 6716.04 673.156 6721.28 732.394 6726.52 781.548 6731.76 816.279 6736.76 849.467 6742.47 864.008 6747.48 881.541 6752.72 899.887 6757.96 913.061 6763.2 926.357 6768.44 939.653 6773.68 950.584 6778.92 961.318 6784.16 972.052 6789.4 980.246 6794.64 990.76 6799.88 1001.28 6805.12 1017.02 6810.36 1024.41 6815.6 1031.79 6820.84 1029.75 6826.08 1035.06 6831.32 1040.36 6836.56 1049.53 6841.8 1056.25 6847.04 1062.97 6852.28 1069.2 6857.52 1075.36 6862.76 1081.52 6868 1087.42 6873.24 1093.22 6878.48 1099.02 6883.72 1104.62 6888.96 1110.15 6894.2 1115.67 6899.44 1121.05 6904.68 1126.37 6909.92 1131.68 6915.16 1136.88 6920.4 1142.02 6925.64 1147.17 6930.88 1152.22 6936.12 1157.23 6941.36 1162.24 6946.6 1167.18 6951.84 1172.08 6957.08 1176.98 6962.32 1181.82 6967.56 1186.64 6972.8 1191.45 6978.04 1196.22 6983.28 1200.96 6988.52 1205.7 6993.76 1210.4 6999 1215.09 7004.24 1219.77 7009.48 1224.42 7014.72 1229.06 7019.96 1233.69 7025.2 1238.3 7030.44 1242.9 7035.68 1247.49 7040.92 1252.06 7046.16 1256.63 7051.4 1261.19 7056.64 1265.74 7061.88 1270.27 7067.12 1274.81 7072.36 1279.33 7077.6 1283.85 7082.84 1288.36 7088.08 1292.86 7093.32 1297.36 7098.56 1301.85 7103.8 1306.34 7109.04 1310.82 7114.28 1315.3 7119.52 1319.77 7124.76 1324.24 7130 1328.71 7137.86 1335.4 7140.48 1337.63" stroke="#ED7D31" stroke-width="6.875" stroke-linecap="round" stroke-linejoin="round" stroke-miterlimit="10" fill="none"/></g><g><path d="M5584.18 1531.43C5589.42 1531.39 5594.66 1531.36 5599.9 1531.32 5605.14 1531.28 5610.38 1531.23 5615.62 1531.18 5620.86 1531.13 5626.1 1531.08 5631.34 1531.02 5636.58 1530.96 5641.82 1530.89 5647.06 1530.82 5652.3 1530.75 5657.54 1530.67 5662.78 1530.58 5668.02 1530.5 5673.26 1530.41 5678.5 1530.3 5683.74 1530.2 5688.98 1530.09 5694.22 1529.96 5699.46 1529.84 5704.7 1529.71 5709.94 1529.56 5715.18 1529.41 5720.42 1529.25 5725.66 1529.07 5730.9 1528.9 5736.14 1528.71 5741.38 1528.5 5746.62 1528.29 5751.86 1528.06 5757.1 1527.81 5762.34 1527.56 5767.58 1527.29 5772.82 1527 5778.06 1526.7 5783.3 1526.38 5788.54 1526.03 5793.78 1525.68 5799.02 1525.3 5804.26 1524.89 5809.5 1524.47 5814.74 1524.03 5819.98 1523.55 5825.22 1523.06 5830.46 1522.54 5835.7 1521.97 5840.94 1521.41 5846.18 1520.8 5851.42 1520.14 5856.66 1519.48 5861.9 1518.78 5867.14 1518.02 5872.38 1517.26 5877.62 1516.44 5882.86 1515.57 5888.1 1514.7 5893.34 1513.77 5898.58 1512.77 5903.82 1511.77 5909.06 1510.72 5914.3 1509.59 5919.54 1508.47 5924.78 1507.28 5930.02 1506.01 5935.26 1504.75 5940.5 1503.42 5945.74 1502.02 5950.98 1500.62 5956.22 1499.15 5961.46 1497.61 5966.7 1496.08 5971.94 1494.47 5977.19 1492.79 5982.42 1491.12 5987.67 1489.37 5992.9 1487.57 5998.14 1485.77 6003.38 1483.9 6008.62 1481.97 6013.86 1480.05 6019.11 1478.07 6024.35 1476.04 6029.59 1474.01 6034.83 1471.92 6040.07 1469.79 6045.31 1467.67 6050.55 1465.49 6055.79 1463.29 6061.03 1461.08 6066.27 1458.83 6071.51 1456.56 6076.75 1454.28 6081.99 1451.97 6087.23 1449.64 6092.47 1447.3 6097.71 1444.94 6102.95 1442.55 6108.19 1440.17 6113.43 1437.76 6118.67 1435.33 6123.91 1432.9 6129.15 1430.45 6134.39 1427.97 6139.63 1425.5 6144.87 1423.01 6150.11 1420.49 6155.35 1417.98 6160.59 1415.44 6165.83 1412.88 6171.07 1410.32 6176.31 1407.74 6181.55 1405.13 6186.79 1402.53 6192.03 1399.9 6197.27 1397.26 6202.51 1394.61 6207.75 1391.94 6212.99 1389.26 6218.23 1386.58 6223.47 1383.88 6228.71 1381.17 6233.95 1378.47 6239.19 1375.75 6244.43 1373.05 6249.67 1370.34 6254.91 1367.63 6260.15 1364.97 6265.39 1362.3 6270.63 1359.64 6275.87 1357.08 6281.11 1354.52 6286.35 1351.97 6291.59 1349.61 6296.83 1347.24 6302.07 1344.91 6307.31 1342.9 6312.55 1340.89 6317.79 1338.94 6323.03 1337.56 6328.27 1336.18 6333.51 1334.87 6338.75 1334.62 6343.99 1334.36 6349.23 1334.21 6354.47 1336.02 6359.71 1337.83 6364.95 1340.55 6370.19 1345.5 6375.43 1350.46 6380.67 1368.68 6385.91 1365.76 6388.87 1364.11 6398.67 1348.23 6401.63 1327.99 6406.87 1292.13 6412.11 1226.76 6417.35 1150.62 6422.59 1074.49 6427.83 933.515 6433.07 871.196 6437.08 823.472 6444.78 756.661 6448.79 776.71 6454.03 802.889 6459.27 959.119 6464.51 1028.27 6469.75 1097.43 6474.99 1173.28 6480.23 1191.64 6485.47 1209.99 6490.71 1151.83 6495.95 1138.42 6501.19 1125 6506.43 1119.07 6511.67 1111.14 6516.91 1103.22 6522.15 1097.37 6527.39 1090.87 6532.63 1084.37 6537.87 1078.43 6543.11 1072.14 6548.35 1065.85 6553.59 1059.67 6558.83 1053.12 6564.07 1046.56 6569.31 1039.94 6574.55 1032.83 6579.79 1025.72 6585.03 1018.45 6590.27 1010.44 6595.51 1002.43 6600.75 994.276 6605.99 984.79 6611.23 975.304 6616.47 966.333 6621.71 953.526 6626.95 940.718 6632.19 908.66 6637.43 907.945 6642.67 907.229 6647.91 958.319 6653.15 949.231 6658.39 940.143 6663.63 886.682 6668.88 853.418 6674.11 820.155 6679.35 800.563 6684.59 749.653 6689.83 698.743 6695.08 558.414 6700.31 547.96 6705.55 537.506 6710.8 642.093 6716.04 686.931 6721.28 731.768 6726.52 784.535 6731.76 816.985 6737 849.435 6742.24 863.397 6747.48 881.629 6752.72 899.861 6757.96 913.095 6763.2 926.378 6768.44 939.661 6773.68 950.594 6778.92 961.326 6784.16 972.057 6789.4 980.243 6794.64 990.766 6799.88 1001.29 6805.12 1017.08 6810.36 1024.46 6815.6 1031.84 6820.84 1029.76 6826.08 1035.06 6831.32 1040.35 6836.56 1049.53 6841.8 1056.25 6847.04 1062.97 6852.28 1069.2 6857.52 1075.36 6862.76 1081.52 6868 1087.42 6873.24 1093.22 6878.48 1099.02 6883.72 1104.62 6888.96 1110.15 6894.2 1115.67 6899.44 1121.05 6904.68 1126.37 6909.92 1131.68 6915.16 1136.88 6920.4 1142.02 6925.64 1147.17 6930.88 1152.22 6936.12 1157.23 6941.36 1162.24 6946.6 1167.18 6951.84 1172.08 6957.08 1176.98 6962.32 1181.82 6967.56 1186.64 6972.8 1191.45 6978.04 1196.22 6983.28 1200.96 6988.52 1205.7 6993.76 1210.4 6999 1215.09 7004.24 1219.77 7009.48 1224.42 7014.72 1229.06 7019.96 1233.69 7025.2 1238.3 7030.44 1242.9 7035.68 1247.49 7040.92 1252.06 7046.16 1256.63 7051.4 1261.19 7056.64 1265.74 7061.88 1270.27 7067.12 1274.81 7072.36 1279.33 7077.6 1283.85 7082.84 1288.36 7088.08 1292.86 7093.32 1297.36 7098.56 1301.85 7103.8 1306.34 7109.04 1310.82 7114.28 1315.3 7119.52 1319.77 7124.76 1324.24 7130 1328.71 7137.86 1335.4 7140.48 1337.63" stroke="#A5A5A5" stroke-width="6.875" stroke-linecap="round" stroke-linejoin="round" stroke-miterlimit="10" fill="none"/></g><g><path d="M5584.18 1531.43C5589.42 1531.39 5594.66 1531.36 5599.9 1531.32 5605.14 1531.27 5610.38 1531.23 5615.62 1531.18 5620.86 1531.13 5626.1 1531.08 5631.34 1531.02 5636.58 1530.96 5641.82 1530.9 5647.06 1530.82 5652.3 1530.75 5657.54 1530.68 5662.78 1530.59 5668.02 1530.51 5673.26 1530.41 5678.5 1530.31 5683.74 1530.21 5688.98 1530.1 5694.22 1529.98 5699.46 1529.86 5704.7 1529.72 5709.94 1529.58 5715.18 1529.43 5720.42 1529.27 5725.66 1529.1 5730.9 1528.92 5736.14 1528.74 5741.38 1528.53 5746.62 1528.32 5751.86 1528.1 5757.1 1527.85 5762.34 1527.6 5767.58 1527.34 5772.82 1527.04 5778.06 1526.75 5783.3 1526.43 5788.54 1526.09 5793.78 1525.74 5799.02 1525.37 5804.26 1524.96 5809.5 1524.55 5814.74 1524.11 5819.98 1523.63 5825.22 1523.14 5830.46 1522.63 5835.7 1522.07 5840.94 1521.5 5846.18 1520.9 5851.42 1520.25 5856.66 1519.59 5861.9 1518.9 5867.14 1518.14 5872.38 1517.38 5877.62 1516.57 5882.86 1515.7 5888.1 1514.83 5893.34 1513.91 5898.58 1512.91 5903.82 1511.92 5909.06 1510.87 5914.3 1509.74 5919.54 1508.62 5924.78 1507.43 5930.02 1506.17 5935.26 1504.91 5940.5 1503.58 5945.74 1502.18 5950.98 1500.77 5956.22 1499.3 5961.46 1497.76 5966.7 1496.21 5971.94 1494.59 5977.19 1492.91 5982.42 1491.23 5987.67 1489.47 5992.9 1487.66 5998.14 1485.84 6003.38 1483.95 6008.62 1482.01 6013.86 1480.07 6019.11 1478.06 6024.35 1476.01 6029.59 1473.95 6034.83 1471.84 6040.07 1469.68 6045.31 1467.53 6050.55 1465.32 6055.79 1463.08 6061.03 1460.84 6066.27 1458.55 6071.51 1456.23 6076.75 1453.92 6081.99 1451.56 6087.23 1449.19 6092.47 1446.81 6097.71 1444.39 6102.95 1441.96 6108.19 1439.53 6113.43 1437.07 6118.67 1434.59 6123.91 1432.1 6129.15 1429.6 6134.39 1427.07 6139.63 1424.54 6144.87 1421.99 6150.11 1419.42 6155.35 1416.85 6160.59 1414.26 6165.83 1411.64 6171.07 1409.02 6176.31 1406.39 6181.55 1403.72 6186.79 1401.06 6192.03 1398.38 6197.27 1395.67 6202.51 1392.97 6207.75 1390.24 6212.99 1387.5 6218.23 1384.75 6223.47 1381.99 6228.71 1379.22 6233.95 1376.45 6239.19 1373.66 6244.43 1370.89 6249.67 1368.12 6254.91 1365.33 6260.15 1362.59 6265.39 1359.85 6270.63 1357.1 6275.87 1354.44 6281.11 1351.78 6286.35 1349.14 6291.59 1346.65 6296.83 1344.17 6302.07 1341.71 6307.31 1339.55 6312.55 1337.39 6317.79 1335.27 6323.03 1333.67 6328.27 1332.07 6333.51 1330.53 6338.75 1329.94 6343.99 1329.35 6349.23 1328.85 6354.47 1330.14 6359.71 1331.43 6364.95 1333.3 6370.19 1337.69 6375.43 1342.08 6380.67 1357.21 6385.91 1356.47 6388.12 1356.16 6399.42 1347.1 6401.63 1333.26 6406.87 1300.38 6412.11 1235.65 6417.35 1159.21 6422.59 1082.78 6427.83 939.439 6433.07 874.661 6437.32 822.183 6444.55 744.137 6448.79 770.543 6454.03 803.138 6459.27 1002.24 6464.51 1070.23 6468.72 1124.77 6476.03 1170.05 6480.23 1178.51 6485.47 1189.04 6490.71 1145.03 6495.95 1133.44 6501.19 1121.85 6506.43 1116.26 6511.67 1108.98 6516.91 1101.7 6522.15 1096 6527.39 1089.76 6532.63 1083.52 6537.87 1077.69 6543.11 1071.52 6548.35 1065.35 6553.59 1059.23 6558.83 1052.75 6564.07 1046.26 6569.31 1039.68 6574.55 1032.61 6579.79 1025.54 6585.03 1018.29 6590.27 1010.31 6595.51 1002.34 6600.75 994.201 6605.99 984.736 6611.23 975.271 6616.47 966.362 6621.71 953.526 6626.95 940.69 6632.19 909.141 6637.43 907.72 6642.67 906.3 6647.91 954.662 6653.15 945.004 6658.39 935.345 6663.63 883.566 6668.88 849.767 6674.11 815.968 6679.35 759.609 6684.59 742.209 6686.91 734.533 6698 749.153 6700.31 745.366 6705.55 736.782 6710.8 678.74 6716.04 690.707 6721.28 702.674 6726.52 785.344 6731.76 817.169 6737 848.994 6742.24 863.455 6747.48 881.658 6752.72 899.86 6757.96 913.106 6763.2 926.385 6768.44 939.663 6773.68 950.598 6778.92 961.328 6784.16 972.058 6789.4 980.242 6794.64 990.767 6799.88 1001.29 6805.12 1017.1 6810.36 1024.48 6815.6 1031.86 6820.84 1029.76 6826.08 1035.06 6831.32 1040.35 6836.56 1049.53 6841.8 1056.25 6847.04 1062.97 6852.28 1069.2 6857.52 1075.36 6862.76 1081.52 6868 1087.42 6873.24 1093.22 6878.48 1099.02 6883.72 1104.62 6888.96 1110.15 6894.2 1115.67 6899.44 1121.05 6904.68 1126.37 6909.92 1131.68 6915.16 1136.88 6920.4 1142.02 6925.64 1147.17 6930.88 1152.22 6936.12 1157.23 6941.36 1162.24 6946.6 1167.18 6951.84 1172.08 6957.08 1176.98 6962.32 1181.82 6967.56 1186.64 6972.8 1191.45 6978.04 1196.22 6983.28 1200.96 6988.52 1205.7 6993.76 1210.4 6999 1215.09 7004.24 1219.77 7009.48 1224.42 7014.72 1229.06 7019.96 1233.69 7025.2 1238.3 7030.44 1242.9 7035.68 1247.49 7040.92 1252.06 7046.16 1256.63 7051.4 1261.19 7056.64 1265.74 7061.88 1270.27 7067.12 1274.81 7072.36 1279.33 7077.6 1283.85 7082.84 1288.36 7088.08 1292.86 7093.32 1297.36 7098.56 1301.85 7103.8 1306.34 7109.04 1310.82 7114.28 1315.3 7119.52 1319.77 7124.76 1324.24 7130 1328.71 7137.86 1335.4 7140.48 1337.63" stroke="#FFC000" stroke-width="6.875" stroke-linecap="round" stroke-linejoin="round" stroke-miterlimit="10" fill="none"/></g><g><path d="M5584.18 1531.43C5589.42 1531.39 5594.66 1531.36 5599.9 1531.31 5605.14 1531.27 5610.38 1531.23 5615.62 1531.18 5620.86 1531.13 5626.1 1531.08 5631.34 1531.02 5636.58 1530.96 5641.82 1530.9 5647.06 1530.83 5652.3 1530.76 5657.54 1530.68 5662.78 1530.6 5668.02 1530.51 5673.26 1530.42 5678.5 1530.32 5683.74 1530.22 5688.98 1530.11 5694.22 1529.99 5699.46 1529.86 5704.7 1529.73 5709.94 1529.59 5715.18 1529.44 5720.42 1529.29 5725.66 1529.11 5730.9 1528.94 5736.14 1528.75 5741.38 1528.55 5746.62 1528.34 5751.86 1528.12 5757.1 1527.87 5762.34 1527.63 5767.58 1527.36 5772.82 1527.07 5778.06 1526.78 5783.3 1526.47 5788.54 1526.12 5793.78 1525.77 5799.02 1525.4 5804.26 1525 5809.5 1524.59 5814.74 1524.15 5819.98 1523.67 5825.22 1523.19 5830.46 1522.68 5835.7 1522.12 5840.94 1521.56 5846.18 1520.96 5851.42 1520.31 5856.66 1519.66 5861.9 1518.96 5867.14 1518.21 5872.38 1517.45 5877.62 1516.65 5882.86 1515.78 5888.1 1514.91 5893.34 1513.99 5898.58 1513 5903.82 1512.01 5909.06 1510.96 5914.3 1509.84 5919.54 1508.71 5924.78 1507.52 5930.02 1506.26 5935.26 1505 5940.5 1503.67 5945.74 1502.27 5950.98 1500.87 5956.22 1499.39 5961.46 1497.84 5966.7 1496.3 5971.94 1494.68 5977.19 1492.99 5982.42 1491.3 5987.67 1489.54 5992.9 1487.72 5998.14 1485.89 6003.38 1484 6008.62 1482.04 6013.86 1480.09 6019.11 1478.07 6024.35 1476.01 6029.59 1473.94 6034.83 1471.81 6040.07 1469.64 6045.31 1467.47 6050.55 1465.24 6055.79 1462.98 6061.03 1460.72 6066.27 1458.41 6071.51 1456.07 6076.75 1453.73 6081.99 1451.35 6087.23 1448.95 6092.47 1446.54 6097.71 1444.1 6102.95 1441.64 6108.19 1439.18 6113.43 1436.69 6118.67 1434.18 6123.91 1431.66 6129.15 1429.13 6134.39 1426.57 6139.63 1424.01 6144.87 1421.42 6150.11 1418.82 6155.35 1416.21 6160.59 1413.59 6165.83 1410.94 6171.07 1408.29 6176.31 1405.61 6181.55 1402.91 6186.79 1400.22 6192.03 1397.5 6197.27 1394.76 6202.51 1392.01 6207.75 1389.25 6212.99 1386.47 6218.23 1383.69 6223.47 1380.88 6228.71 1378.07 6233.95 1375.27 6239.19 1372.43 6244.43 1369.62 6249.67 1366.8 6254.91 1363.97 6260.15 1361.18 6265.39 1358.38 6270.63 1355.58 6275.87 1352.87 6281.11 1350.15 6286.35 1347.44 6291.59 1344.89 6296.83 1342.33 6302.07 1339.8 6307.31 1337.54 6312.55 1335.28 6317.79 1333.06 6323.03 1331.33 6328.27 1329.59 6333.51 1327.92 6338.75 1327.13 6343.99 1326.34 6349.23 1325.62 6354.47 1326.59 6359.71 1327.56 6364.95 1328.97 6370.19 1332.96 6375.43 1336.94 6380.67 1350.09 6385.91 1350.51 6387.73 1350.66 6399.81 1346.2 6401.63 1335.48 6406.87 1304.56 6412.11 1241.4 6417.35 1164.99 6422.59 1088.59 6427.83 943.316 6433.07 877.067 6437.44 821.897 6444.43 737.236 6448.79 767.504 6454.03 803.85 6459.27 1027.9 6464.51 1095.14 6467.52 1133.74 6477.22 1167.56 6480.23 1170.95 6485.47 1176.86 6490.71 1141.16 6495.95 1130.62 6501.19 1120.08 6506.43 1114.64 6511.67 1107.72 6516.91 1100.8 6522.15 1095.2 6527.39 1089.1 6532.63 1083.01 6537.87 1077.24 6543.11 1071.15 6548.35 1065.05 6553.59 1058.97 6558.83 1052.52 6564.07 1046.08 6569.31 1039.52 6574.55 1032.47 6579.79 1025.42 6585.03 1018.2 6590.27 1010.24 6595.51 1002.28 6600.75 994.155 6605.99 984.703 6611.23 975.251 6616.47 966.382 6621.71 953.526 6626.95 940.67 6632.19 909.701 6637.43 907.568 6642.67 905.434 6647.91 950.758 6653.15 940.725 6658.39 930.691 6663.63 881.469 6668.88 847.367 6674.11 813.264 6679.35 753.181 6684.59 736.109 6687.24 727.491 6697.67 748.637 6700.31 744.936 6705.55 737.603 6710.8 680.058 6716.04 692.112 6721.28 704.164 6726.52 785.66 6731.76 817.254 6737 848.847 6742.24 863.482 6747.48 881.672 6752.72 899.861 6757.96 913.112 6763.2 926.389 6768.44 939.665 6773.68 950.6 6778.92 961.33 6784.16 972.059 6789.4 980.241 6794.64 990.768 6799.88 1001.29 6805.12 1017.11 6810.36 1024.49 6815.6 1031.87 6820.84 1029.76 6826.08 1035.06 6831.32 1040.35 6836.56 1049.53 6841.8 1056.25 6847.04 1062.97 6852.28 1069.2 6857.52 1075.36 6862.76 1081.52 6868 1087.42 6873.24 1093.22 6878.48 1099.02 6883.72 1104.62 6888.96 1110.15 6894.2 1115.67 6899.44 1121.05 6904.68 1126.37 6909.92 1131.68 6915.16 1136.88 6920.4 1142.02 6925.64 1147.17 6930.88 1152.22 6936.12 1157.23 6941.36 1162.24 6946.6 1167.18 6951.84 1172.08 6957.08 1176.98 6962.32 1181.82 6967.56 1186.64 6972.8 1191.45 6978.04 1196.22 6983.28 1200.96 6988.52 1205.7 6993.76 1210.4 6999 1215.09 7004.24 1219.77 7009.48 1224.42 7014.72 1229.06 7019.96 1233.69 7025.2 1238.3 7030.44 1242.9 7035.68 1247.49 7040.92 1252.06 7046.16 1256.63 7051.4 1261.19 7056.64 1265.74 7061.88 1270.27 7067.12 1274.81 7072.36 1279.33 7077.6 1283.85 7082.84 1288.36 7088.08 1292.86 7093.32 1297.36 7098.56 1301.85 7103.8 1306.34 7109.04 1310.82 7114.28 1315.3 7119.52 1319.77 7124.76 1324.24 7130 1328.71 7137.86 1335.4 7140.48 1337.63" stroke="#5B9BD5" stroke-width="6.875" stroke-linecap="round" stroke-linejoin="round" stroke-miterlimit="10" fill="none"/></g><g><text font-family="Calibri,Calibri_MSFontService,sans-serif" font-weight="400" font-size="64" transform="matrix(1 0 0 1 5439.97 1576)">-30</text></g><g><text font-family="Calibri,Calibri_MSFontService,sans-serif" font-weight="400" font-size="64" transform="matrix(1 0 0 1 5439.97 1434)">-10</text></g><g><text font-family="Calibri,Calibri_MSFontService,sans-serif" font-weight="400" font-size="64" transform="matrix(1 0 0 1 5459.61 1292)">10</text></g><g><text font-family="Calibri,Calibri_MSFontService,sans-serif" font-weight="400" font-size="64" transform="matrix(1 0 0 1 5459.61 1150)">30</text></g><g><text font-family="Calibri,Calibri_MSFontService,sans-serif" font-weight="400" font-size="64" transform="matrix(1 0 0 1 5459.61 1008)">50</text></g><g><text font-family="Calibri,Calibri_MSFontService,sans-serif" font-weight="400" font-size="64" transform="matrix(1 0 0 1 5459.61 866)">70</text></g><g><text font-family="Calibri,Calibri_MSFontService,sans-serif" font-weight="400" font-size="64" transform="matrix(1 0 0 1 5459.61 724)">90</text></g><g><text font-family="Calibri,Calibri_MSFontService,sans-serif" font-weight="400" font-size="64" transform="matrix(1 0 0 1 5427.09 581)">110</text></g><g><text font-family="Calibri,Calibri_MSFontService,sans-serif" font-weight="400" font-size="64" transform="matrix(1 0 0 1 5427.09 439)">130</text></g><g><text font-family="Calibri,Calibri_MSFontService,sans-serif" font-weight="400" font-size="64" transform="matrix(1 0 0 1 5427.09 297)">150</text></g><g><text font-family="Calibri,Calibri_MSFontService,sans-serif" font-weight="700" font-size="64" transform="matrix(6.12323e-17 -1 1 6.12323e-17 5396.02 1127)">Magnitude (dB)</text></g><g><path d="M5719 218 5807 218" stroke="#4472C4" stroke-width="8.02083" stroke-linecap="round" stroke-linejoin="round" stroke-miterlimit="10" fill="none" fill-rule="evenodd"/></g><g><text font-family="Calibri,Calibri_MSFontService,sans-serif" font-weight="700" font-size="73" transform="matrix(1 0 0 1 5816.64 239)">Z1</text></g><g><path d="M6014.5 217.5 6102.5 217.5" stroke="#ED7D31" stroke-width="6.875" stroke-linecap="round" stroke-linejoin="round" stroke-miterlimit="10" fill="none" fill-rule="evenodd"/></g><g><text font-family="Calibri,Calibri_MSFontService,sans-serif" font-weight="700" font-size="73" transform="matrix(1 0 0 1 6111.96 239)">Z2</text></g><g><path d="M6309.5 217.5 6397.5 217.5" stroke="#A5A5A5" stroke-width="6.875" stroke-linecap="round" stroke-linejoin="round" stroke-miterlimit="10" fill="none" fill-rule="evenodd"/></g><g><text font-family="Calibri,Calibri_MSFontService,sans-serif" font-weight="700" font-size="73" transform="matrix(1 0 0 1 6407.27 239)">Z3</text></g><g><path d="M6605.5 217.5 6693.5 217.5" stroke="#FFC000" stroke-width="6.875" stroke-linecap="round" stroke-linejoin="round" stroke-miterlimit="10" fill="none" fill-rule="evenodd"/></g><g><text font-family="Calibri,Calibri_MSFontService,sans-serif" font-weight="700" font-size="73" transform="matrix(1 0 0 1 6702.59 239)">Z4</text></g><g><path d="M6900.5 217.5 6988.5 217.5" stroke="#5B9BD5" stroke-width="6.875" stroke-linecap="round" stroke-linejoin="round" stroke-miterlimit="10" fill="none" fill-rule="evenodd"/></g><g><text font-family="Calibri,Calibri_MSFontService,sans-serif" font-weight="700" font-size="73" transform="matrix(1 0 0 1 6997.91 239)">Z5</text></g><rect x="5279.5" y="61.5" width="1962" height="1585" stroke="#D9D9D9" stroke-width="3.4375" stroke-linejoin="round" stroke-miterlimit="10" fill="none"/><g><g><text fill="#FF0000" font-family="Calibri,Calibri_MSFontService,sans-serif" font-weight="700" font-size="64" transform="matrix(1 0 0 1 5984.65 1010)">Increasing</text></g></g><g><text fill="#FF0000" font-family="Calibri,Calibri_MSFontService,sans-serif" font-weight="700" font-size="64" transform="matrix(1 0 0 1 5960.49 1088)">Load (Z</text></g><g><text fill="#FF0000" font-family="Calibri,Calibri_MSFontService,sans-serif" font-weight="700" font-size="43" transform="matrix(1 0 0 1 6153.38 1103)">Load5</text></g><g><text fill="#FF0000" font-family="Calibri,Calibri_MSFontService,sans-serif" font-weight="700" font-size="64" transform="matrix(1 0 0 1 6260.24 1088)">)</text></g><g><g><text fill="#FF0000" font-family="Calibri,Calibri_MSFontService,sans-serif" font-weight="700" font-size="64" transform="matrix(1 0 0 1 5842.86 1167)">Z1</text></g></g><g><g><text fill="#FF0000" font-family="Calibri,Calibri_MSFontService,sans-serif" font-weight="700" font-size="64" transform="matrix(1 0 0 1 5915.71 1167)">&lt; Z2</text></g></g><g><g><text fill="#FF0000" font-family="Calibri,Calibri_MSFontService,sans-serif" font-weight="700" font-size="64" transform="matrix(1 0 0 1 6049.55 1167)">&lt; Z3</text></g></g><g><g><text fill="#FF0000" font-family="Calibri,Calibri_MSFontService,sans-serif" font-weight="700" font-size="64" transform="matrix(1 0 0 1 6168.87 1167)">&lt; Z4</text></g></g><g><g><text fill="#FF0000" font-family="Calibri,Calibri_MSFontService,sans-serif" font-weight="700" font-size="64" transform="matrix(1 0 0 1 6288.2 1167)">&lt; Z5</text></g></g><g><path d="M4.58333-6.53809e-06 4.58366 230.076-4.58301 230.076-4.58333 6.53809e-06ZM13.7503 225.493 0.000360892 252.993-13.7497 225.493Z" fill="#7F7F7F" transform="matrix(1 0 0 -1 6333.5 1433.49)"/></g><rect x="5280" y="1647" width="1960" height="1317" fill="#FFFFFF"/><g><path d="M5582.5 2701.5 7115.5 2701.5M5582.5 2539.58 7115.5 2539.58M5582.5 2376.58 7115.5 2376.58M5582.5 2050.57 7115.5 2050.57M5582.5 1887.56 7115.5 1887.56M5582.5 1725.5 7115.5 1725.5" stroke="#D9D9D9" stroke-width="3.4375" stroke-linejoin="round" stroke-miterlimit="10" fill="none"/></g><g><path d="M5697.69 1725.5 5697.69 2701.5M5764.69 1725.5 5764.69 2701.5M5812.69 1725.5 5812.69 2701.5M5849.69 1725.5 5849.69 2701.5M5880.69 1725.5 5880.69 2701.5M5905.69 1725.5 5905.69 2701.5M5927.69 1725.5 5927.69 2701.5M5947.7 1725.5 5947.7 2701.5M6080.7 1725.5 6080.7 2701.5M6147.7 1725.5 6147.7 2701.5M6195.7 1725.5 6195.7 2701.5M6233.7 1725.5 6233.7 2701.5M6263.71 1725.5 6263.71 2701.5M6289.71 1725.5 6289.71 2701.5M6311.71 1725.5 6311.71 2701.5M6330.71 1725.5 6330.71 2701.5M6463.71 1725.5 6463.71 2701.5M6531.71 1725.5 6531.71 2701.5M6579.72 1725.5 6579.72 2701.5M6616.72 1725.5 6616.72 2701.5M6646.72 1725.5 6646.72 2701.5M6672.72 1725.5 6672.72 2701.5M6694.72 1725.5 6694.72 2701.5M6714.72 1725.5 6714.72 2701.5M6846.72 1725.5 6846.72 2701.5M6914.73 1725.5 6914.73 2701.5M6962.73 1725.5 6962.73 2701.5M6999.73 1725.5 6999.73 2701.5M7029.73 1725.5 7029.73 2701.5M7055.73 1725.5 7055.73 2701.5M7077.73 1725.5 7077.73 2701.5M7097.73 1725.5 7097.73 2701.5" stroke="#F2F2F2" stroke-width="3.4375" stroke-linejoin="round" stroke-miterlimit="10" fill="none"/></g><g><path d="M5965.7 1725.5 5965.7 2701.5M6348.71 1725.5 6348.71 2701.5M6731.72 1725.5 6731.72 2701.5M7115.5 1725.5 7115.5 2701.5" stroke="#D9D9D9" stroke-width="3.4375" stroke-linejoin="round" stroke-miterlimit="10" fill="none"/></g><g><path d="M0 0 0.000360892 976" stroke="#BFBFBF" stroke-width="3.4375" stroke-linejoin="round" stroke-miterlimit="10" fill="none" fill-rule="evenodd" transform="matrix(1 0 0 -1 5582.5 2701.5)"/></g><g><path d="M5582.5 2213.5 7115.5 2213.5" stroke="#BFBFBF" stroke-width="3.4375" stroke-linejoin="round" stroke-miterlimit="10" fill="none" fill-rule="evenodd"/></g><g><path d="M5582.5 1945.97C5587.66 1945.75 5592.82 1945.54 5597.98 1945.31 5603.15 1945.07 5608.31 1944.83 5613.47 1944.58 5618.63 1944.33 5623.79 1944.07 5628.95 1943.79 5634.12 1943.51 5639.28 1943.23 5644.44 1942.92 5649.6 1942.62 5654.76 1942.31 5659.92 1941.98 5665.09 1941.65 5670.25 1941.31 5675.41 1940.95 5680.57 1940.59 5685.73 1940.22 5690.89 1939.83 5696.06 1939.44 5701.22 1939.04 5706.38 1938.62 5711.54 1938.19 5716.7 1937.76 5721.86 1937.3 5727.02 1936.84 5732.19 1936.36 5737.35 1935.87 5742.51 1935.37 5747.67 1934.86 5752.83 1934.33 5757.99 1933.8 5763.16 1933.24 5768.32 1932.67 5773.48 1932.1 5778.64 1931.5 5783.8 1930.89 5788.96 1930.28 5794.13 1929.65 5799.29 1928.99 5804.45 1928.34 5809.61 1927.67 5814.77 1926.98 5819.93 1926.29 5825.1 1925.58 5830.26 1924.85 5835.42 1924.12 5840.58 1923.37 5845.74 1922.61 5850.9 1921.85 5856.07 1921.07 5861.23 1920.28 5866.39 1919.48 5871.55 1918.67 5876.71 1917.86 5881.87 1917.04 5887.04 1916.21 5892.2 1915.37 5897.36 1914.54 5902.52 1913.69 5907.68 1912.84 5912.84 1912 5918 1911.14 5923.17 1910.29 5928.33 1909.43 5933.49 1908.58 5938.65 1907.72 5943.81 1906.87 5948.97 1906.02 5954.14 1905.18 5959.3 1904.33 5964.46 1903.49 5969.62 1902.65 5974.78 1901.82 5979.94 1900.99 5985.11 1900.17 5990.27 1899.35 5995.43 1898.54 6000.59 1897.74 6005.75 1896.93 6010.91 1896.14 6016.08 1895.34 6021.24 1894.55 6026.4 1893.77 6031.56 1892.99 6036.72 1892.21 6041.88 1891.44 6047.05 1890.67 6052.21 1889.89 6057.37 1889.13 6062.53 1888.36 6067.69 1887.59 6072.85 1886.82 6078.02 1886.04 6083.18 1885.27 6088.34 1884.5 6093.5 1883.72 6098.66 1882.94 6103.82 1882.16 6108.98 1881.37 6114.15 1880.59 6119.31 1879.8 6124.47 1879 6129.63 1878.21 6134.79 1877.41 6139.95 1876.61 6145.12 1875.8 6150.28 1875 6155.44 1874.2 6160.6 1873.4 6165.76 1872.59 6170.92 1871.8 6176.09 1871.01 6181.25 1870.21 6186.41 1869.44 6191.57 1868.67 6196.73 1867.9 6201.89 1867.16 6207.06 1866.42 6212.22 1865.7 6217.38 1865.01 6222.54 1864.33 6227.7 1863.67 6232.86 1863.07 6238.02 1862.47 6243.19 1861.89 6248.35 1861.41 6253.51 1860.93 6258.67 1860.49 6263.83 1860.18 6268.99 1859.87 6274.16 1859.61 6279.32 1859.55 6284.48 1859.5 6289.64 1859.5 6294.8 1859.86 6299.96 1860.21 6305.13 1860.61 6310.29 1861.69 6315.45 1862.77 6320.61 1863.76 6325.77 1866.34 6330.93 1868.92 6336.1 1870.68 6341.26 1877.17 6345.88 1882.98 6352.12 1889.91 6356.74 1905.27 6361.9 1922.41 6367.07 1955.28 6372.23 1979.98 6377.39 2004.69 6382.55 2036.47 6387.71 2053.51 6392.44 2069.12 6398.47 2075.54 6403.2 2082.23 6404.25 2083.72 6417.63 2086.58 6418.68 2097.35 6423.84 2150.36 6429 2336.45 6434.17 2400.27 6437.45 2440.9 6446.37 2460.44 6449.65 2480.31 6454.81 2511.52 6459.97 2596.21 6465.14 2587.55 6470.3 2578.9 6475.46 2458.93 6480.62 2428.36 6483.01 2414.19 6493.71 2406.36 6496.11 2404.13 6501.27 2399.33 6506.43 2400.56 6511.59 2399.53 6516.75 2398.49 6521.91 2398.31 6527.08 2397.93 6532.24 2397.54 6537.4 2397.38 6542.56 2397.2 6547.72 2397.02 6552.88 2396.92 6558.05 2396.84 6563.21 2396.75 6568.37 2396.7 6573.53 2396.69 6578.69 2396.67 6583.85 2396.66 6589.02 2396.74 6594.18 2396.82 6599.34 2396.73 6604.5 2397.19 6607.1 2397.42 6617.39 2392.09 6619.98 2399.47 6625.15 2414.13 6630.31 2484.72 6635.47 2485.15 6640.63 2485.57 6645.79 2415.84 6650.95 2402 6653.66 2394.75 6663.73 2399.27 6666.44 2402.11 6668.46 2404.23 6679.91 2416.69 6681.92 2434.55 6687.09 2480.24 6692.25 2635.01 6697.41 2676.24 6698.43 2684.43 6711.87 2681.74 6712.89 2681.96 6718.06 2683.1 6723.22 2682.71 6728.38 2683.08 6733.54 2683.45 6738.7 2683.92 6743.86 2684.18 6749.02 2684.44 6754.19 2684.52 6759.35 2684.63 6764.51 2684.74 6769.67 2685.18 6774.83 2684.83 6779.99 2684.48 6785.16 2682.5 6790.32 2682.53 6795.48 2682.57 6800.64 2684.62 6805.8 2685.06 6810.96 2685.5 6816.13 2685.14 6821.29 2685.17 6826.45 2685.2 6831.61 2685.21 6836.77 2685.23 6841.93 2685.24 6847.1 2685.25 6852.26 2685.26 6857.42 2685.27 6862.58 2685.28 6867.74 2685.29 6872.9 2685.29 6878.07 2685.3 6883.23 2685.31 6888.39 2685.31 6893.55 2685.32 6898.71 2685.32 6903.87 2685.33 6909.04 2685.33 6914.2 2685.33 6919.36 2685.34 6924.52 2685.34 6929.68 2685.34 6934.84 2685.35 6940 2685.35 6945.17 2685.35 6950.33 2685.35 6955.49 2685.35 6960.65 2685.36 6965.81 2685.36 6970.97 2685.36 6976.14 2685.36 6981.3 2685.37 6986.46 2685.37 6991.62 2685.37 6996.78 2685.37 7001.94 2685.37 7007.11 2685.38 7012.27 2685.38 7017.43 2685.38 7022.59 2685.38 7027.75 2685.38 7032.91 2685.38 7038.08 2685.39 7043.24 2685.39 7048.4 2685.39 7053.56 2685.39 7058.72 2685.4 7063.88 2685.4 7069.05 2685.4 7074.21 2685.4 7079.37 2685.4 7084.53 2685.41 7089.69 2685.41 7094.85 2685.41 7100.02 2685.41 7105.18 2685.42 7110.34 2685.42 7115.5 2685.42" stroke="#4472C4" stroke-width="9.16667" stroke-linecap="round" stroke-linejoin="round" stroke-miterlimit="10" fill="none"/></g><g><path d="M5582.5 1945.74C5587.66 1945.52 5592.82 1945.3 5597.98 1945.07 5603.15 1944.83 5608.31 1944.59 5613.47 1944.33 5618.63 1944.07 5623.79 1943.8 5628.95 1943.52 5634.12 1943.24 5639.28 1942.94 5644.44 1942.63 5649.6 1942.33 5654.76 1942 5659.92 1941.67 5665.09 1941.33 5670.25 1940.98 5675.41 1940.61 5680.57 1940.24 5685.73 1939.86 5690.89 1939.46 5696.06 1939.06 5701.22 1938.64 5706.38 1938.21 5711.54 1937.77 5716.7 1937.32 5721.86 1936.84 5727.02 1936.37 5732.19 1935.88 5737.35 1935.36 5742.51 1934.85 5747.67 1934.32 5752.83 1933.76 5757.99 1933.21 5763.16 1932.63 5768.32 1932.03 5773.48 1931.43 5778.64 1930.81 5783.8 1930.17 5788.96 1929.52 5794.13 1928.85 5799.29 1928.16 5804.45 1927.47 5809.61 1926.76 5814.77 1926.02 5819.93 1925.29 5825.1 1924.53 5830.26 1923.74 5835.42 1922.96 5840.58 1922.16 5845.74 1921.33 5850.9 1920.5 5856.07 1919.66 5861.23 1918.79 5866.39 1917.92 5871.55 1917.04 5876.71 1916.13 5881.87 1915.23 5887.04 1914.31 5892.2 1913.38 5897.36 1912.45 5902.52 1911.5 5907.68 1910.54 5912.84 1909.59 5918 1908.62 5923.17 1907.65 5928.33 1906.67 5933.49 1905.69 5938.65 1904.72 5943.81 1903.74 5948.97 1902.75 5954.14 1901.78 5959.3 1900.8 5964.46 1899.83 5969.62 1898.86 5974.78 1897.9 5979.94 1896.94 5985.11 1895.99 5990.27 1895.04 5995.43 1894.1 6000.59 1893.18 6005.75 1892.26 6010.91 1891.34 6016.08 1890.45 6021.24 1889.55 6026.4 1888.67 6031.56 1887.8 6036.72 1886.94 6041.88 1886.09 6047.05 1885.25 6052.21 1884.41 6057.37 1883.59 6062.53 1882.78 6067.69 1881.96 6072.85 1881.17 6078.02 1880.38 6083.18 1879.58 6088.34 1878.81 6093.5 1878.03 6098.66 1877.26 6103.82 1876.49 6108.98 1875.73 6114.15 1874.97 6119.31 1874.21 6124.47 1873.46 6129.63 1872.7 6134.79 1871.95 6139.95 1871.2 6145.12 1870.45 6150.28 1869.71 6155.44 1868.96 6160.6 1868.22 6165.76 1867.48 6170.92 1866.75 6176.09 1866.02 6181.25 1865.28 6186.41 1864.57 6191.57 1863.85 6196.73 1863.14 6201.89 1862.45 6207.06 1861.76 6212.22 1861.08 6217.38 1860.44 6222.54 1859.79 6227.7 1859.16 6232.86 1858.58 6238.02 1857.99 6243.19 1857.43 6248.35 1856.94 6253.51 1856.45 6258.67 1855.99 6263.83 1855.63 6268.99 1855.27 6274.16 1854.95 6279.32 1854.78 6284.48 1854.62 6289.64 1854.5 6294.8 1854.63 6299.96 1854.76 6305.13 1854.94 6310.29 1855.57 6315.45 1856.19 6320.61 1856.82 6325.77 1858.39 6330.93 1859.96 6336.1 1861.23 6341.26 1864.98 6346.23 1868.59 6351.77 1870.97 6356.74 1880.91 6361.9 1891.22 6367.07 1903.52 6372.23 1926.84 6377.39 1950.16 6382.55 1996.77 6387.71 2020.83 6392.87 2044.9 6398.04 2059.02 6403.2 2071.21 6404.44 2074.15 6417.44 2080.28 6418.68 2094.01 6423.84 2150.96 6429 2333.19 6434.17 2412.94 6439.33 2492.68 6444.49 2562.39 6449.65 2572.48 6454.81 2582.57 6459.97 2500.53 6465.14 2473.48 6470.3 2446.43 6475.46 2422.16 6480.62 2410.16 6484.13 2401.99 6492.6 2402.73 6496.11 2401.45 6501.27 2399.56 6506.43 2399.47 6511.59 2398.86 6516.75 2398.25 6521.91 2398.05 6527.08 2397.78 6532.24 2397.5 6537.4 2397.37 6542.56 2397.23 6547.72 2397.09 6552.88 2397 6558.05 2396.93 6563.21 2396.86 6568.37 2396.82 6573.53 2396.81 6578.69 2396.8 6583.85 2396.79 6589.02 2396.88 6594.18 2396.97 6599.34 2396.82 6604.5 2397.35 6607.71 2397.68 6616.77 2392.91 6619.98 2400.09 6625.15 2411.62 6630.31 2466.41 6635.47 2466.54 6640.63 2466.67 6645.79 2411.49 6650.95 2400.86 6654.04 2394.5 6663.35 2395.62 6666.44 2402.79 6671.1 2413.61 6677.26 2437.23 6681.92 2472.75 6687.09 2512.07 6692.25 2603.82 6697.41 2638.7 6700.78 2661.48 6709.52 2677.15 6712.89 2682.07 6717.3 2688.5 6723.97 2683.54 6728.38 2683.9 6733.54 2684.33 6738.7 2684.44 6743.86 2684.62 6749.02 2684.8 6754.19 2684.9 6759.35 2684.99 6764.51 2685.09 6769.67 2685.57 6774.83 2685.19 6779.99 2684.8 6785.16 2682.64 6790.32 2682.68 6795.48 2682.72 6800.64 2684.94 6805.8 2685.41 6810.96 2685.89 6816.13 2685.5 6821.29 2685.53 6826.45 2685.55 6831.61 2685.56 6836.77 2685.58 6841.93 2685.59 6847.1 2685.6 6852.26 2685.61 6857.42 2685.62 6862.58 2685.63 6867.74 2685.64 6872.9 2685.65 6878.07 2685.65 6883.23 2685.66 6888.39 2685.67 6893.55 2685.67 6898.71 2685.67 6903.87 2685.68 6909.04 2685.68 6914.2 2685.69 6919.36 2685.69 6924.52 2685.69 6929.68 2685.7 6934.84 2685.7 6940 2685.7 6945.17 2685.7 6950.33 2685.71 6955.49 2685.71 6960.65 2685.71 6965.81 2685.71 6970.97 2685.71 6976.14 2685.72 6981.3 2685.72 6986.46 2685.72 6991.62 2685.72 6996.78 2685.72 7001.94 2685.73 7007.11 2685.73 7012.27 2685.73 7017.43 2685.73 7022.59 2685.73 7027.75 2685.74 7032.91 2685.74 7038.08 2685.74 7043.24 2685.74 7048.4 2685.74 7053.56 2685.75 7058.72 2685.75 7063.88 2685.75 7069.05 2685.75 7074.21 2685.76 7079.37 2685.76 7084.53 2685.76 7089.69 2685.76 7094.85 2685.76 7100.02 2685.77 7105.18 2685.77 7110.34 2685.77 7115.5 2685.78" stroke="#ED7D31" stroke-width="9.16667" stroke-linecap="round" stroke-linejoin="round" stroke-miterlimit="10" fill="none"/></g><g><path d="M5582.5 1945.73C5587.66 1945.51 5592.82 1945.29 5597.98 1945.06 5603.15 1944.82 5608.31 1944.57 5613.47 1944.31 5618.63 1944.05 5623.79 1943.78 5628.95 1943.5 5634.12 1943.22 5639.28 1942.92 5644.44 1942.61 5649.6 1942.3 5654.76 1941.98 5659.92 1941.64 5665.09 1941.3 5670.25 1940.95 5675.41 1940.58 5680.57 1940.21 5685.73 1939.82 5690.89 1939.42 5696.06 1939.02 5701.22 1938.6 5706.38 1938.16 5711.54 1937.72 5716.7 1937.26 5721.86 1936.79 5727.02 1936.31 5732.19 1935.81 5737.35 1935.3 5742.51 1934.78 5747.67 1934.24 5752.83 1933.68 5757.99 1933.12 5763.16 1932.54 5768.32 1931.93 5773.48 1931.33 5778.64 1930.7 5783.8 1930.05 5788.96 1929.39 5794.13 1928.72 5799.29 1928.02 5804.45 1927.32 5809.61 1926.6 5814.77 1925.85 5819.93 1925.1 5825.1 1924.33 5830.26 1923.54 5835.42 1922.74 5840.58 1921.92 5845.74 1921.08 5850.9 1920.24 5856.07 1919.38 5861.23 1918.49 5866.39 1917.61 5871.55 1916.7 5876.71 1915.78 5881.87 1914.86 5887.04 1913.91 5892.2 1912.95 5897.36 1912 5902.52 1911.02 5907.68 1910.04 5912.84 1909.05 5918 1908.05 5923.17 1907.05 5928.33 1906.05 5933.49 1905.03 5938.65 1904.02 5943.81 1903.01 5948.97 1901.98 5954.14 1900.97 5959.3 1899.96 5964.46 1898.94 5969.62 1897.93 5974.78 1896.92 5979.94 1895.92 5985.11 1894.93 5990.27 1893.94 5995.43 1892.96 6000.59 1891.99 6005.75 1891.02 6010.91 1890.07 6016.08 1889.13 6021.24 1888.19 6026.4 1887.27 6031.56 1886.36 6036.72 1885.45 6041.88 1884.56 6047.05 1883.69 6052.21 1882.81 6057.37 1881.96 6062.53 1881.11 6067.69 1880.27 6072.85 1879.44 6078.02 1878.63 6083.18 1877.81 6088.34 1877.01 6093.5 1876.21 6098.66 1875.42 6103.82 1874.64 6108.98 1873.87 6114.15 1873.09 6119.31 1872.33 6124.47 1871.56 6129.63 1870.8 6134.79 1870.05 6139.95 1869.3 6145.12 1868.55 6150.28 1867.8 6155.44 1867.07 6160.6 1866.33 6165.76 1865.59 6170.92 1864.86 6176.09 1864.14 6181.25 1863.42 6186.41 1862.71 6191.57 1862 6196.73 1861.3 6201.89 1860.62 6207.06 1859.94 6212.22 1859.26 6217.38 1858.62 6222.54 1857.98 6227.7 1857.36 6232.86 1856.78 6238.02 1856.19 6243.19 1855.63 6248.35 1855.14 6253.51 1854.64 6258.67 1854.17 6263.83 1853.79 6268.99 1853.41 6274.16 1853.07 6279.32 1852.86 6284.48 1852.66 6289.64 1852.5 6294.8 1852.56 6299.96 1852.61 6305.13 1852.72 6310.29 1853.21 6315.45 1853.69 6320.61 1854.2 6325.77 1855.47 6330.93 1856.75 6336.1 1857.83 6341.26 1860.86 6346.42 1863.89 6351.58 1865.53 6356.74 1873.62 6361.35 1880.86 6367.61 1890.49 6372.23 1909.46 6377.39 1930.68 6382.55 1975.11 6387.71 2000.95 6392.87 2026.8 6398.04 2049.38 6403.2 2064.53 6404.54 2068.47 6417.34 2076.18 6418.68 2091.81 6423.84 2151.74 6429 2344.17 6434.17 2424.11 6438.94 2498.04 6444.88 2568.79 6449.65 2571.46 6454.81 2574.35 6459.97 2468.93 6465.14 2441.46 6468.65 2422.73 6477.1 2411.31 6480.62 2406.65 6485.65 2399.98 6491.08 2401.76 6496.11 2400.41 6501.27 2399.02 6506.43 2398.84 6511.59 2398.34 6516.75 2397.84 6521.91 2397.65 6527.08 2397.42 6532.24 2397.18 6537.4 2397.06 6542.56 2396.93 6547.72 2396.81 6552.88 2396.73 6558.05 2396.67 6563.21 2396.61 6568.37 2396.57 6573.53 2396.56 6578.69 2396.55 6583.85 2396.54 6589.02 2396.63 6594.18 2396.73 6599.34 2396.53 6604.5 2397.11 6609.16 2397.64 6615.33 2393.75 6619.98 2400.12 6625.15 2407.17 6630.31 2439.42 6635.47 2439.43 6640.63 2439.45 6645.79 2406.22 6650.95 2400.21 6652.21 2398.75 6665.19 2395.55 6666.44 2403.35 6671.6 2435.49 6676.76 2548.22 6681.92 2593.06 6686.55 2633.2 6692.79 2659.14 6697.41 2672.38 6700.4 2680.94 6709.91 2680.73 6712.89 2681.81 6718.06 2683.66 6723.22 2683.12 6728.38 2683.52 6733.54 2683.92 6738.7 2684.05 6743.86 2684.23 6749.02 2684.41 6754.19 2684.51 6759.35 2684.6 6764.51 2684.7 6769.67 2685.19 6774.83 2684.8 6779.99 2684.41 6785.16 2682.22 6790.32 2682.26 6795.48 2682.3 6800.64 2684.54 6805.8 2685.02 6810.96 2685.5 6816.13 2685.1 6821.29 2685.13 6826.45 2685.16 6831.61 2685.17 6836.77 2685.19 6841.93 2685.2 6847.1 2685.21 6852.26 2685.22 6857.42 2685.23 6862.58 2685.24 6867.74 2685.25 6872.9 2685.25 6878.07 2685.26 6883.23 2685.27 6888.39 2685.27 6893.55 2685.28 6898.71 2685.28 6903.87 2685.29 6909.04 2685.29 6914.2 2685.29 6919.36 2685.3 6924.52 2685.3 6929.68 2685.3 6934.84 2685.31 6940 2685.31 6945.17 2685.31 6950.33 2685.31 6955.49 2685.31 6960.65 2685.32 6965.81 2685.32 6970.97 2685.32 6976.14 2685.32 6981.3 2685.33 6986.46 2685.33 6991.62 2685.33 6996.78 2685.33 7001.94 2685.33 7007.11 2685.34 7012.27 2685.34 7017.43 2685.34 7022.59 2685.34 7027.75 2685.34 7032.91 2685.35 7038.08 2685.35 7043.24 2685.35 7048.4 2685.35 7053.56 2685.35 7058.72 2685.36 7063.88 2685.36 7069.05 2685.36 7074.21 2685.36 7079.37 2685.36 7084.53 2685.37 7089.69 2685.37 7094.85 2685.37 7100.02 2685.37 7105.18 2685.38 7110.34 2685.38 7115.5 2685.38" stroke="#A5A5A5" stroke-width="6.875" stroke-linecap="round" stroke-linejoin="round" stroke-miterlimit="10" fill="none"/></g><g><path d="M5582.5 1945.84C5587.66 1945.61 5592.82 1945.39 5597.98 1945.16 5603.15 1944.92 5608.31 1944.67 5613.47 1944.41 5618.63 1944.15 5623.79 1943.88 5628.95 1943.6 5634.12 1943.31 5639.28 1943.02 5644.44 1942.71 5649.6 1942.39 5654.76 1942.07 5659.92 1941.73 5665.09 1941.39 5670.25 1941.04 5675.41 1940.67 5680.57 1940.3 5685.73 1939.91 5690.89 1939.51 5696.06 1939.1 5701.22 1938.68 5706.38 1938.24 5711.54 1937.8 5716.7 1937.34 5721.86 1936.86 5727.02 1936.39 5732.19 1935.89 5737.35 1935.37 5742.51 1934.85 5747.67 1934.31 5752.83 1933.75 5757.99 1933.18 5763.16 1932.6 5768.32 1931.99 5773.48 1931.38 5778.64 1930.75 5783.8 1930.1 5788.96 1929.44 5794.13 1928.76 5799.29 1928.06 5804.45 1927.36 5809.61 1926.63 5814.77 1925.88 5819.93 1925.13 5825.1 1924.35 5830.26 1923.55 5835.42 1922.75 5840.58 1921.92 5845.74 1921.08 5850.9 1920.23 5856.07 1919.36 5861.23 1918.46 5866.39 1917.57 5871.55 1916.66 5876.71 1915.72 5881.87 1914.79 5887.04 1913.83 5892.2 1912.87 5897.36 1911.9 5902.52 1910.91 5907.68 1909.91 5912.84 1908.91 5918 1907.9 5923.17 1906.88 5928.33 1905.86 5933.49 1904.83 5938.65 1903.8 5943.81 1902.77 5948.97 1901.73 5954.14 1900.7 5959.3 1899.67 5964.46 1898.63 5969.62 1897.6 5974.78 1896.58 5979.94 1895.55 5985.11 1894.54 5990.27 1893.53 5995.43 1892.52 6000.59 1891.54 6005.75 1890.55 6010.91 1889.57 6016.08 1888.61 6021.24 1887.65 6026.4 1886.7 6031.56 1885.77 6036.72 1884.85 6041.88 1883.94 6047.05 1883.04 6052.21 1882.15 6057.37 1881.27 6062.53 1880.41 6067.69 1879.55 6072.85 1878.7 6078.02 1877.87 6083.18 1877.04 6088.34 1876.22 6093.5 1875.41 6098.66 1874.61 6103.82 1873.82 6108.98 1873.03 6114.15 1872.24 6119.31 1871.47 6124.47 1870.7 6129.63 1869.93 6134.79 1869.17 6139.95 1868.42 6145.12 1867.67 6150.28 1866.92 6155.44 1866.18 6160.6 1865.44 6165.76 1864.7 6170.92 1863.97 6176.09 1863.25 6181.25 1862.53 6186.41 1861.82 6191.57 1861.11 6196.73 1860.41 6201.89 1859.73 6207.06 1859.05 6212.22 1858.38 6217.38 1857.74 6222.54 1857.1 6227.7 1856.47 6232.86 1855.89 6238.02 1855.31 6243.19 1854.74 6248.35 1854.24 6253.51 1853.74 6258.67 1853.26 6263.83 1852.88 6268.99 1852.49 6274.16 1852.13 6279.32 1851.91 6284.48 1851.68 6289.64 1851.5 6294.8 1851.52 6299.96 1851.54 6305.13 1851.61 6310.29 1852.02 6315.45 1852.44 6320.61 1852.88 6325.77 1854.02 6330.93 1855.16 6336.1 1856.15 6341.26 1858.84 6346.42 1861.53 6351.58 1863.09 6356.74 1870.17 6361.15 1876.23 6367.82 1884.52 6372.23 1901.36 6377.39 1921.07 6382.55 1961.98 6387.71 1988.45 6392.87 2014.92 6398.04 2043.17 6403.2 2060.17 6404.6 2064.79 6417.28 2073.5 6418.68 2090.44 6423.84 2152.69 6429 2354.95 6434.17 2433.69 6438.42 2498.6 6445.4 2563.2 6449.65 2562.86 6454.81 2562.45 6459.97 2457.47 6465.14 2431.21 6468.05 2416.41 6477.71 2408.25 6480.62 2405.33 6485.78 2400.14 6490.94 2401.26 6496.11 2400.07 6501.27 2398.89 6506.43 2398.68 6511.59 2398.24 6516.75 2397.79 6521.91 2397.61 6527.08 2397.4 6532.24 2397.18 6537.4 2397.06 6542.56 2396.94 6547.72 2396.83 6552.88 2396.75 6558.05 2396.69 6563.21 2396.63 6568.37 2396.6 6573.53 2396.59 6578.69 2396.59 6583.85 2396.57 6589.02 2396.67 6594.18 2396.76 6599.34 2396.54 6604.5 2397.15 6609.66 2397.76 6614.82 2395.27 6619.98 2400.33 6625.15 2405.4 6630.31 2427.58 6635.47 2427.54 6640.63 2427.49 6645.79 2403.94 6650.95 2400.06 6652.54 2398.88 6664.86 2396.42 6666.44 2404.29 6671.6 2429.96 6676.76 2509.19 6681.92 2554.1 6687.09 2599 6692.25 2652.43 6697.41 2673.72 6699.47 2682.21 6710.83 2681.18 6712.89 2681.83 6718.06 2683.47 6723.22 2683.12 6728.38 2683.52 6733.54 2683.92 6738.7 2684.05 6743.86 2684.23 6749.02 2684.41 6754.19 2684.51 6759.35 2684.6 6764.51 2684.69 6769.67 2685.19 6774.83 2684.79 6779.99 2684.4 6785.16 2682.21 6790.32 2682.25 6795.48 2682.28 6800.64 2684.54 6805.8 2685.02 6810.96 2685.5 6816.13 2685.1 6821.29 2685.13 6826.45 2685.16 6831.61 2685.17 6836.77 2685.18 6841.93 2685.2 6847.1 2685.21 6852.26 2685.22 6857.42 2685.23 6862.58 2685.24 6867.74 2685.25 6872.9 2685.25 6878.07 2685.26 6883.23 2685.26 6888.39 2685.27 6893.55 2685.27 6898.71 2685.28 6903.87 2685.28 6909.04 2685.29 6914.2 2685.29 6919.36 2685.29 6924.52 2685.3 6929.68 2685.3 6934.84 2685.3 6940 2685.31 6945.17 2685.31 6950.33 2685.31 6955.49 2685.31 6960.65 2685.32 6965.81 2685.32 6970.97 2685.32 6976.14 2685.32 6981.3 2685.32 6986.46 2685.33 6991.62 2685.33 6996.78 2685.33 7001.94 2685.33 7007.11 2685.33 7012.27 2685.34 7017.43 2685.34 7022.59 2685.34 7027.75 2685.34 7032.91 2685.34 7038.08 2685.35 7043.24 2685.35 7048.4 2685.35 7053.56 2685.35 7058.72 2685.35 7063.88 2685.36 7069.05 2685.36 7074.21 2685.36 7079.37 2685.36 7084.53 2685.36 7089.69 2685.37 7094.85 2685.37 7100.02 2685.37 7105.18 2685.38 7110.34 2685.38 7115.5 2685.38" stroke="#FFC000" stroke-width="9.16667" stroke-linecap="round" stroke-linejoin="round" stroke-miterlimit="10" fill="none"/></g><g><path d="M5582.5 1945.58C5587.66 1945.35 5592.82 1945.13 5597.98 1944.89 5603.15 1944.66 5608.31 1944.41 5613.47 1944.15 5618.63 1943.89 5623.79 1943.62 5628.95 1943.33 5634.12 1943.05 5639.28 1942.75 5644.44 1942.44 5649.6 1942.13 5654.76 1941.8 5659.92 1941.46 5665.09 1941.12 5670.25 1940.77 5675.41 1940.4 5680.57 1940.03 5685.73 1939.64 5690.89 1939.24 5696.06 1938.83 5701.22 1938.41 5706.38 1937.97 5711.54 1937.53 5716.7 1937.07 5721.86 1936.59 5727.02 1936.11 5732.19 1935.61 5737.35 1935.09 5742.51 1934.57 5747.67 1934.03 5752.83 1933.46 5757.99 1932.9 5763.16 1932.31 5768.32 1931.7 5773.48 1931.09 5778.64 1930.46 5783.8 1929.8 5788.96 1929.15 5794.13 1928.46 5799.29 1927.76 5804.45 1927.05 5809.61 1926.32 5814.77 1925.57 5819.93 1924.81 5825.1 1924.03 5830.26 1923.23 5835.42 1922.42 5840.58 1921.59 5845.74 1920.74 5850.9 1919.89 5856.07 1919.01 5861.23 1918.12 5866.39 1917.22 5871.55 1916.3 5876.71 1915.36 5881.87 1914.42 5887.04 1913.46 5892.2 1912.48 5897.36 1911.51 5902.52 1910.51 5907.68 1909.51 5912.84 1908.5 5918 1907.48 5923.17 1906.45 5928.33 1905.43 5933.49 1904.38 5938.65 1903.34 5943.81 1902.3 5948.97 1901.25 5954.14 1900.21 5959.3 1899.16 5964.46 1898.12 5969.62 1897.08 5974.78 1896.04 5979.94 1895 5985.11 1893.98 5990.27 1892.95 5995.43 1891.93 6000.59 1890.93 6005.75 1889.93 6010.91 1888.94 6016.08 1887.96 6021.24 1886.99 6026.4 1886.03 6031.56 1885.09 6036.72 1884.15 6041.88 1883.22 6047.05 1882.31 6052.21 1881.41 6057.37 1880.52 6062.53 1879.64 6067.69 1878.77 6072.85 1877.91 6078.02 1877.07 6083.18 1876.23 6088.34 1875.4 6093.5 1874.59 6098.66 1873.77 6103.82 1872.97 6108.98 1872.18 6114.15 1871.39 6119.31 1870.6 6124.47 1869.83 6129.63 1869.06 6134.79 1868.29 6139.95 1867.53 6145.12 1866.77 6150.28 1866.02 6155.44 1865.28 6160.6 1864.53 6165.76 1863.8 6170.92 1863.07 6176.09 1862.34 6181.25 1861.62 6186.41 1860.91 6191.57 1860.2 6196.73 1859.5 6201.89 1858.82 6207.06 1858.14 6212.22 1857.47 6217.38 1856.83 6222.54 1856.19 6227.7 1855.56 6232.86 1854.97 6238.02 1854.39 6243.19 1853.82 6248.35 1853.32 6253.51 1852.81 6258.67 1852.33 6263.83 1851.94 6268.99 1851.54 6274.16 1851.18 6279.32 1850.94 6284.48 1850.7 6289.64 1850.51 6294.8 1850.5 6299.96 1850.5 6305.13 1850.55 6310.29 1850.92 6315.45 1851.3 6320.61 1851.7 6325.77 1852.76 6330.93 1853.81 6336.1 1854.75 6341.26 1857.25 6346.42 1859.75 6351.58 1861.26 6356.74 1867.77 6361.08 1873.24 6367.89 1880.68 6372.23 1896.34 6377.39 1915 6382.55 1952.98 6387.71 1979.72 6392.87 2006.45 6398.04 2038.52 6403.2 2056.76 6404.64 2061.86 6417.24 2071.27 6418.68 2089.17 6423.84 2153.26 6429 2363.83 6434.17 2441.31 6437.95 2498.07 6445.87 2555.88 6449.65 2554.04 6454.81 2551.52 6459.97 2451.15 6465.14 2426.22 6467.84 2413.16 6477.92 2406.8 6480.62 2404.49 6485.78 2400.08 6490.94 2400.83 6496.11 2399.76 6501.27 2398.68 6506.43 2398.47 6511.59 2398.05 6516.75 2397.64 6521.91 2397.46 6527.08 2397.26 6532.24 2397.05 6537.4 2396.94 6542.56 2396.82 6547.72 2396.71 6552.88 2396.64 6558.05 2396.58 6563.21 2396.53 6568.37 2396.49 6573.53 2396.48 6578.69 2396.48 6583.85 2396.47 6589.02 2396.56 6594.18 2396.66 6599.34 2396.42 6604.5 2397.05 6609.66 2397.69 6614.82 2396.28 6619.98 2400.36 6625.15 2404.43 6630.31 2421.57 6635.47 2421.49 6640.63 2421.41 6645.79 2402.6 6650.95 2399.87 6654.38 2398.06 6663.01 2397.69 6666.44 2405.11 6670.08 2413 6678.28 2435.26 6681.92 2466.91 6687.09 2511.75 6692.25 2638.31 6697.41 2674.13 6698.64 2682.69 6711.66 2681.47 6712.89 2681.84 6718.06 2683.41 6723.22 2683.12 6728.38 2683.52 6733.54 2683.92 6738.7 2684.05 6743.86 2684.23 6749.02 2684.41 6754.19 2684.5 6759.35 2684.6 6764.51 2684.69 6769.67 2685.19 6774.83 2684.79 6779.99 2684.4 6785.16 2682.2 6790.32 2682.24 6795.48 2682.28 6800.64 2684.54 6805.8 2685.02 6810.96 2685.5 6816.13 2685.1 6821.29 2685.13 6826.45 2685.16 6831.61 2685.17 6836.77 2685.18 6841.93 2685.2 6847.1 2685.21 6852.26 2685.22 6857.42 2685.23 6862.58 2685.24 6867.74 2685.24 6872.9 2685.25 6878.07 2685.26 6883.23 2685.26 6888.39 2685.27 6893.55 2685.27 6898.71 2685.28 6903.87 2685.28 6909.04 2685.29 6914.2 2685.29 6919.36 2685.29 6924.52 2685.3 6929.68 2685.3 6934.84 2685.3 6940 2685.31 6945.17 2685.31 6950.33 2685.31 6955.49 2685.31 6960.65 2685.31 6965.81 2685.32 6970.97 2685.32 6976.14 2685.32 6981.3 2685.32 6986.46 2685.32 6991.62 2685.33 6996.78 2685.33 7001.94 2685.33 7007.11 2685.33 7012.27 2685.33 7017.43 2685.34 7022.59 2685.34 7027.75 2685.34 7032.91 2685.34 7038.08 2685.34 7043.24 2685.35 7048.4 2685.35 7053.56 2685.35 7058.72 2685.35 7063.88 2685.35 7069.05 2685.36 7074.21 2685.36 7079.37 2685.36 7084.53 2685.36 7089.69 2685.37 7094.85 2685.37 7100.02 2685.37 7105.18 2685.37 7110.34 2685.38 7115.5 2685.38" stroke="#5B9BD5" stroke-width="9.16667" stroke-linecap="round" stroke-linejoin="round" stroke-miterlimit="10" fill="none"/></g><g><text font-family="Calibri,Calibri_MSFontService,sans-serif" font-weight="400" font-size="64" transform="matrix(1 0 0 1 5405.35 2720)">-300</text></g><g><text font-family="Calibri,Calibri_MSFontService,sans-serif" font-weight="400" font-size="64" transform="matrix(1 0 0 1 5405.35 2557)">-200</text></g><g><text font-family="Calibri,Calibri_MSFontService,sans-serif" font-weight="400" font-size="64" transform="matrix(1 0 0 1 5405.35 2395)">-100</text></g><g><text font-family="Calibri,Calibri_MSFontService,sans-serif" font-weight="400" font-size="64" transform="matrix(1 0 0 1 5490.02 2232)">0</text></g><g><text font-family="Calibri,Calibri_MSFontService,sans-serif" font-weight="400" font-size="64" transform="matrix(1 0 0 1 5424.99 2069)">100</text></g><g><text font-family="Calibri,Calibri_MSFontService,sans-serif" font-weight="400" font-size="64" transform="matrix(1 0 0 1 5424.99 1906)">200</text></g><g><text font-family="Calibri,Calibri_MSFontService,sans-serif" font-weight="400" font-size="64" transform="matrix(1 0 0 1 5424.99 1743)">300</text></g><g><text font-family="Calibri,Calibri_MSFontService,sans-serif" font-weight="400" font-size="64" transform="matrix(1 0 0 1 5549.55 2804)">10</text></g><g><text font-family="Calibri,Calibri_MSFontService,sans-serif" font-weight="400" font-size="64" transform="matrix(1 0 0 1 5916.55 2804)">100</text></g><g><text font-family="Calibri,Calibri_MSFontService,sans-serif" font-weight="400" font-size="64" transform="matrix(1 0 0 1 6283.55 2804)">1000</text></g><g><text font-family="Calibri,Calibri_MSFontService,sans-serif" font-weight="400" font-size="64" transform="matrix(1 0 0 1 6650.54 2804)">10000</text></g><g><text font-family="Calibri,Calibri_MSFontService,sans-serif" font-weight="400" font-size="64" transform="matrix(1 0 0 1 7017.54 2804)">100000</text></g><g><text font-family="Calibri,Calibri_MSFontService,sans-serif" font-weight="700" font-size="64" transform="matrix(6.12323e-17 -1 1 6.12323e-17 5374.27 2412)">Phase (degree)</text></g><g><text font-family="Calibri,Calibri_MSFontService,sans-serif" font-weight="700" font-size="64" transform="matrix(1 0 0 1 6149.99 2896)">Frequency (Hz)</text></g><rect x="5280.5" y="1647.5" width="1960" height="1317" stroke="#D9D9D9" stroke-width="3.4375" stroke-linejoin="round" stroke-miterlimit="10" fill="none"/><g><g><text fill="#FF0000" font-family="Calibri,Calibri_MSFontService,sans-serif" font-weight="700" font-size="64" transform="matrix(1 0 0 1 6609.11 1904)">Increasing</text></g></g><g><text fill="#FF0000" font-family="Calibri,Calibri_MSFontService,sans-serif" font-weight="700" font-size="64" transform="matrix(1 0 0 1 6584.96 1982)">Load (Z</text></g><g><text fill="#FF0000" font-family="Calibri,Calibri_MSFontService,sans-serif" font-weight="700" font-size="43" transform="matrix(1 0 0 1 6777.85 1997)">Load5</text></g><g><text fill="#FF0000" font-family="Calibri,Calibri_MSFontService,sans-serif" font-weight="700" font-size="64" transform="matrix(1 0 0 1 6884.71 1982)">)</text></g><g><text fill="#FF0000" font-family="Calibri,Calibri_MSFontService,sans-serif" font-weight="700" font-size="64" transform="matrix(1 0 0 1 6467.32 2061)">Z1</text></g><g><text fill="#FF0000" font-family="Calibri,Calibri_MSFontService,sans-serif" font-weight="700" font-size="64" transform="matrix(1 0 0 1 6540.18 2061)">&lt; Z2</text></g><g><text fill="#FF0000" font-family="Calibri,Calibri_MSFontService,sans-serif" font-weight="700" font-size="64" transform="matrix(1 0 0 1 6674.01 2061)">&lt; Z3</text></g><g><text fill="#FF0000" font-family="Calibri,Calibri_MSFontService,sans-serif" font-weight="700" font-size="64" transform="matrix(1 0 0 1 6793.34 2061)">&lt; Z4</text></g><g><text fill="#FF0000" font-family="Calibri,Calibri_MSFontService,sans-serif" font-weight="700" font-size="64" transform="matrix(1 0 0 1 6912.66 2061)">&lt; Z5</text></g><g><path d="M0.0509704-4.58305 209.315-2.25572 209.213 6.91038-0.0509704 4.58305ZM204.834-11.4728 232.179 2.58219 204.528 16.0255Z" fill="#7F7F7F" transform="matrix(1 0 0 -1 6273.5 1967.08)"/></g></g></svg>