<svg width="1986" height="2825" xmlns="http://www.w3.org/2000/svg" xmlns:xlink="http://www.w3.org/1999/xlink" xml:space="preserve" overflow="hidden"><defs><clipPath id="clip0"><rect x="4087" y="47" width="1986" height="2825"/></clipPath></defs><g clip-path="url(#clip0)" transform="translate(-4087 -47)"><rect x="4088" y="48.0001" width="1981" height="1542" fill="#FFFFFF"/><g><path d="M4408.5 1523.5 5953.5 1523.5M4408.5 1381.55 5953.5 1381.55M4408.5 1240.54 5953.5 1240.54M4408.5 1099.54 5953.5 1099.54M4408.5 958.532 5953.5 958.532M4408.5 817.527 5953.5 817.527M4408.5 676.522 5953.5 676.522M4408.5 535.518 5953.5 535.518M4408.5 394.513 5953.5 394.513M4408.5 253.5 5953.5 253.5" stroke="#D9D9D9" stroke-width="3.4375" stroke-linejoin="round" stroke-miterlimit="10" fill="none"/></g><g><path d="M4524.65 253.5 4524.65 1523.5M4592.65 253.5 4592.65 1523.5M4641.65 253.5 4641.65 1523.5M4678.65 253.5 4678.65 1523.5M4709.65 253.5 4709.65 1523.5M4734.66 253.5 4734.66 1523.5M4757.66 253.5 4757.66 1523.5M4777.66 253.5 4777.66 1523.5M4911.66 253.5 4911.66 1523.5M4979.66 253.5 4979.66 1523.5M5027.67 253.5 5027.67 1523.5M5064.67 253.5 5064.67 1523.5M5095.67 253.5 5095.67 1523.5M5121.67 253.5 5121.67 1523.5M5143.67 253.5 5143.67 1523.5M5163.67 253.5 5163.67 1523.5M5297.67 253.5 5297.67 1523.5M5365.68 253.5 5365.68 1523.5M5413.68 253.5 5413.68 1523.5M5450.68 253.5 5450.68 1523.5M5481.68 253.5 5481.68 1523.5M5507.68 253.5 5507.68 1523.5M5529.68 253.5 5529.68 1523.5M5549.68 253.5 5549.68 1523.5M5683.69 253.5 5683.69 1523.5M5751.69 253.5 5751.69 1523.5M5799.69 253.5 5799.69 1523.5M5837.69 253.5 5837.69 1523.5M5867.69 253.5 5867.69 1523.5M5893.69 253.5 5893.69 1523.5M5915.69 253.5 5915.69 1523.5M5935.69 253.5 5935.69 1523.5" stroke="#F2F2F2" stroke-width="3.4375" stroke-linejoin="round" stroke-miterlimit="10" fill="none"/></g><g><path d="M4794.66 253.5 4794.66 1523.5M5180.67 253.5 5180.67 1523.5M5567.68 253.5 5567.68 1523.5M5953.5 253.5 5953.5 1523.5" stroke="#D9D9D9" stroke-width="3.4375" stroke-linejoin="round" stroke-miterlimit="10" fill="none"/></g><g><path d="M0 0 0.000360892 1270" stroke="#BFBFBF" stroke-width="3.4375" stroke-linejoin="round" stroke-miterlimit="10" fill="none" fill-rule="evenodd" transform="matrix(1 0 0 -1 4408.5 1523.5)"/></g><g><path d="M4408.5 1311.5 5953.5 1311.5" stroke="#BFBFBF" stroke-width="3.4375" stroke-linejoin="round" stroke-miterlimit="10" fill="none" fill-rule="evenodd"/></g><g><path d="M4408.5 1497.5C4413.7 1497.46 4418.9 1497.42 4424.11 1497.38 4429.31 1497.33 4434.51 1497.29 4439.71 1497.23 4444.91 1497.18 4450.12 1497.12 4455.32 1497.06 4460.52 1496.99 4465.72 1496.92 4470.92 1496.85 4476.13 1496.77 4481.33 1496.69 4486.53 1496.6 4491.73 1496.5 4496.93 1496.4 4502.14 1496.29 4507.34 1496.18 4512.54 1496.07 4517.74 1495.94 4522.94 1495.8 4528.15 1495.66 4533.35 1495.51 4538.55 1495.35 4543.75 1495.18 4548.95 1495 4554.16 1494.81 4559.36 1494.61 4564.56 1494.39 4569.76 1494.17 4574.96 1493.93 4580.17 1493.67 4585.37 1493.41 4590.57 1493.13 4595.77 1492.82 4600.97 1492.52 4606.18 1492.19 4611.38 1491.83 4616.58 1491.46 4621.78 1491.08 4626.98 1490.66 4632.19 1490.23 4637.39 1489.78 4642.59 1489.29 4647.79 1488.8 4653 1488.28 4658.2 1487.71 4663.4 1487.15 4668.6 1486.54 4673.8 1485.89 4679 1485.24 4684.21 1484.55 4689.41 1483.81 4694.61 1483.07 4699.81 1482.28 4705.02 1481.45 4710.22 1480.61 4715.42 1479.73 4720.62 1478.79 4725.82 1477.85 4731.02 1476.87 4736.23 1475.83 4741.43 1474.8 4746.63 1473.71 4751.83 1472.57 4757.04 1471.43 4762.24 1470.25 4767.44 1469.02 4772.64 1467.78 4777.84 1466.5 4783.05 1465.18 4788.25 1463.86 4793.45 1462.49 4798.65 1461.09 4803.85 1459.69 4809.06 1458.25 4814.26 1456.77 4819.46 1455.3 4824.66 1453.79 4829.86 1452.27 4835.07 1450.74 4840.27 1449.17 4845.47 1447.6 4850.67 1446.02 4855.87 1444.42 4861.08 1442.8 4866.28 1441.18 4871.48 1439.55 4876.68 1437.9 4881.88 1436.25 4887.09 1434.59 4892.29 1432.91 4897.49 1431.24 4902.69 1429.55 4907.89 1427.85 4913.1 1426.15 4918.3 1424.43 4923.5 1422.7 4928.7 1420.97 4933.9 1419.23 4939.11 1417.47 4944.31 1415.71 4949.51 1413.93 4954.71 1412.13 4959.91 1410.33 4965.12 1408.52 4970.32 1406.68 4975.52 1404.84 4980.72 1402.98 4985.92 1401.1 4991.13 1399.22 4996.33 1397.31 5001.53 1395.4 5006.73 1393.48 5011.93 1391.53 5017.14 1389.59 5022.34 1387.64 5027.54 1385.67 5032.74 1383.71 5037.94 1381.76 5043.15 1379.78 5048.35 1377.85 5053.55 1375.92 5058.75 1373.99 5063.95 1372.14 5069.16 1370.29 5074.36 1368.45 5079.56 1366.77 5084.76 1365.09 5089.96 1363.44 5095.17 1362.05 5100.37 1360.67 5105.57 1359.35 5110.77 1358.47 5115.97 1357.58 5121.18 1356.81 5126.38 1356.76 5131.58 1356.72 5136.78 1356.85 5141.98 1358.19 5147.19 1359.54 5152.39 1361.31 5157.59 1364.83 5162.79 1368.36 5168 1374.41 5173.2 1379.34 5178.4 1384.27 5183.6 1400.5 5188.8 1394.4 5193.43 1388.98 5199.78 1369.35 5204.41 1342.79 5209.61 1312.94 5214.81 1261.85 5220.01 1215.32 5225.22 1168.79 5230.42 1129.14 5235.62 1063.6 5240.82 998.071 5246.02 868.263 5251.23 822.119 5253.39 802.908 5264.67 788.151 5266.83 786.737 5268.07 785.927 5281.2 790.992 5282.44 801.74 5287.64 846.847 5292.84 998.924 5298.05 1057.38 5302.32 1105.38 5309.38 1147.78 5313.65 1152.48 5318.85 1158.2 5324.06 1106.65 5329.26 1091.71 5334.46 1076.77 5339.66 1071.22 5344.86 1062.85 5350.07 1054.47 5355.27 1048.31 5360.47 1041.46 5365.67 1034.6 5370.87 1028.36 5376.08 1021.71 5381.28 1015.07 5386.48 1008.54 5391.68 1001.56 5396.88 994.589 5402.09 987.526 5407.29 979.869 5412.49 972.213 5417.69 964.352 5422.89 955.625 5428.1 946.897 5433.3 937.897 5438.5 927.503 5443.7 917.108 5448.9 906.515 5454.11 893.256 5459.31 879.996 5464.51 868.077 5469.71 847.946 5474.91 827.815 5480.12 790.726 5485.32 772.467 5487.23 765.772 5499.02 757.031 5500.92 738.392 5506.13 687.56 5511.33 487.452 5516.53 467.476 5521.73 447.5 5526.93 565.544 5532.14 618.535 5537.34 671.526 5542.54 746.625 5547.74 785.424 5552.24 818.984 5558.85 835.395 5563.35 851.326 5568.55 869.743 5573.75 882.723 5578.95 895.927 5584.16 909.131 5589.36 919.958 5594.56 930.55 5599.76 941.141 5604.96 950.282 5610.17 959.476 5615.37 968.671 5620.57 978.618 5625.77 985.716 5630.97 992.815 5636.18 995.596 5641.38 1002.07 5646.58 1008.54 5651.78 1017.62 5656.98 1024.55 5662.19 1031.47 5667.39 1037.5 5672.59 1043.64 5677.79 1049.78 5682.99 1055.63 5688.2 1061.38 5693.4 1067.14 5698.6 1072.7 5703.8 1078.19 5709 1083.67 5714.21 1089.01 5719.41 1094.28 5724.61 1099.55 5729.81 1104.7 5735.01 1109.81 5740.22 1114.91 5745.42 1119.92 5750.62 1124.89 5755.82 1129.86 5761.02 1134.76 5766.23 1139.62 5771.43 1144.48 5776.63 1149.28 5781.83 1154.06 5787.04 1158.83 5792.24 1163.56 5797.44 1168.26 5802.64 1172.97 5807.84 1177.63 5813.05 1182.28 5818.25 1186.92 5823.45 1191.53 5828.65 1196.13 5833.85 1200.73 5839.06 1205.3 5844.26 1209.86 5849.46 1214.41 5854.66 1218.95 5859.86 1223.48 5865.07 1228 5870.27 1232.51 5875.47 1237.01 5880.67 1241.51 5885.87 1246 5891.08 1250.47 5896.28 1254.95 5901.48 1259.42 5906.68 1263.87 5911.88 1268.33 5917.09 1272.78 5922.29 1277.23 5927.49 1281.67 5932.69 1286.11 5937.89 1290.54 5943.1 1294.97 5948.3 1299.39 5953.5 1303.82" stroke="#4472C4" stroke-width="9.16667" stroke-linecap="round" stroke-linejoin="round" stroke-miterlimit="10" fill="none"/></g><g><path d="M4408.5 1496.5C4413.7 1496.46 4418.9 1496.43 4424.11 1496.39 4429.31 1496.34 4434.51 1496.3 4439.71 1496.25 4444.91 1496.2 4450.12 1496.14 4455.32 1496.08 4460.52 1496.02 4465.72 1495.96 4470.92 1495.88 4476.13 1495.81 4481.33 1495.73 4486.53 1495.64 4491.73 1495.56 4496.93 1495.46 4502.14 1495.36 4507.34 1495.25 4512.54 1495.14 4517.74 1495.02 4522.94 1494.89 4528.15 1494.76 4533.35 1494.61 4538.55 1494.46 4543.75 1494.3 4548.95 1494.12 4554.16 1493.94 4559.36 1493.75 4564.56 1493.54 4569.76 1493.33 4574.96 1493.1 4580.17 1492.85 4585.37 1492.6 4590.57 1492.33 4595.77 1492.03 4600.97 1491.73 4606.18 1491.41 4611.38 1491.06 4616.58 1490.7 4621.78 1490.33 4626.98 1489.91 4632.19 1489.5 4637.39 1489.05 4642.59 1488.57 4647.79 1488.08 4653 1487.56 4658.2 1486.99 4663.4 1486.43 4668.6 1485.82 4673.8 1485.17 4679 1484.51 4684.21 1483.81 4689.41 1483.05 4694.61 1482.29 4699.81 1481.49 4705.02 1480.62 4710.22 1479.75 4715.42 1478.83 4720.62 1477.85 4725.82 1476.86 4731.02 1475.82 4736.23 1474.71 4741.43 1473.6 4746.63 1472.43 4751.83 1471.19 4757.04 1469.95 4762.24 1468.65 4767.44 1467.28 4772.64 1465.92 4777.84 1464.48 4783.05 1462.99 4788.25 1461.49 4793.45 1459.93 4798.65 1458.31 4803.85 1456.69 4809.06 1455 4814.26 1453.27 4819.46 1451.53 4824.66 1449.74 4829.86 1447.9 4835.07 1446.06 4840.27 1444.16 4845.47 1442.23 4850.67 1440.29 4855.87 1438.31 4861.08 1436.3 4866.28 1434.28 4871.48 1432.22 4876.68 1430.14 4881.88 1428.06 4887.09 1425.95 4892.29 1423.81 4897.49 1421.67 4902.69 1419.51 4907.89 1417.32 4913.1 1415.14 4918.3 1412.93 4923.5 1410.7 4928.7 1408.48 4933.9 1406.23 4939.11 1403.97 4944.31 1401.71 4949.51 1399.43 4954.71 1397.13 4959.91 1394.83 4965.12 1392.51 4970.32 1390.17 4975.52 1387.83 4980.72 1385.47 4985.92 1383.09 4991.13 1380.72 4996.33 1378.32 5001.53 1375.9 5006.73 1373.48 5011.93 1371.04 5017.14 1368.58 5022.34 1366.12 5027.54 1363.64 5032.74 1361.16 5037.94 1358.67 5043.15 1356.17 5048.35 1353.67 5053.55 1351.17 5058.75 1348.66 5063.95 1346.18 5069.16 1343.71 5074.36 1341.22 5079.56 1338.81 5084.76 1336.4 5089.96 1333.99 5095.17 1331.72 5100.37 1329.45 5105.57 1327.2 5110.77 1325.19 5115.97 1323.18 5121.18 1321.22 5126.38 1319.67 5131.58 1318.12 5136.78 1316.64 5141.98 1315.89 5147.19 1315.13 5152.39 1314.48 5157.59 1315.13 5162.79 1315.78 5168 1316.66 5173.2 1319.79 5178.4 1322.92 5183.6 1328.6 5188.8 1333.92 5194 1339.25 5199.21 1361.72 5204.41 1351.76 5209.28 1342.42 5215.15 1313.41 5220.01 1274.12 5225.22 1232.14 5230.42 1173.23 5235.62 1099.89 5240.82 1026.55 5246.02 890.642 5251.23 834.075 5254.67 796.623 5263.39 751.532 5266.83 760.492 5272.04 774.025 5277.24 845.714 5282.44 915.274 5287.64 984.833 5292.84 1144.76 5298.05 1177.85 5303.16 1210.41 5308.53 1129.62 5313.65 1113.8 5318.85 1097.72 5324.06 1090.41 5329.26 1081.38 5334.46 1072.34 5339.66 1066.42 5344.86 1059.6 5350.07 1052.77 5355.27 1046.79 5360.47 1040.42 5365.67 1034.04 5370.87 1027.87 5376.08 1021.33 5381.28 1014.79 5386.48 1008.22 5391.68 1001.18 5396.88 994.138 5402.09 986.953 5407.29 979.085 5412.49 971.217 5417.69 963.162 5422.89 953.973 5428.1 944.783 5433.3 935.638 5438.5 923.948 5443.7 912.257 5448.9 903.652 5454.11 883.828 5459.31 864.004 5464.51 813.983 5469.71 805.003 5474.85 796.126 5480.18 843.728 5485.32 829.945 5490.52 816.001 5495.72 774.394 5500.92 721.339 5506.13 668.283 5511.33 522.73 5516.53 511.615 5521.73 500.5 5526.93 608.815 5532.14 654.65 5537.34 700.484 5542.54 753.894 5547.74 786.621 5552.94 819.336 5558.15 832.874 5563.35 851.01 5568.55 869.151 5573.75 882.278 5578.95 895.47 5584.16 908.663 5589.36 919.518 5594.56 930.163 5599.76 940.808 5604.96 949.382 5610.17 959.341 5615.37 969.3 5620.57 982.6 5625.77 989.918 5630.97 997.235 5636.18 997.501 5641.38 1003.25 5646.58 1008.99 5651.78 1017.71 5656.98 1024.4 5662.19 1031.09 5667.39 1037.27 5672.59 1043.39 5677.79 1049.51 5682.99 1055.37 5688.2 1061.12 5693.4 1066.88 5698.6 1072.45 5703.8 1077.94 5709 1083.42 5714.21 1088.76 5719.41 1094.04 5724.61 1099.31 5729.81 1104.48 5735.01 1109.58 5740.22 1114.69 5745.42 1119.71 5750.62 1124.68 5755.82 1129.66 5761.02 1134.56 5766.23 1139.43 5771.43 1144.29 5776.63 1149.1 5781.83 1153.88 5787.04 1158.66 5792.24 1163.39 5797.44 1168.1 5802.64 1172.81 5807.84 1177.48 5813.05 1182.13 5818.25 1186.78 5823.45 1191.4 5828.65 1196 5833.85 1200.6 5839.06 1205.18 5844.26 1209.74 5849.46 1214.3 5854.66 1218.85 5859.86 1223.38 5865.07 1227.91 5870.27 1232.42 5875.47 1236.93 5880.67 1241.43 5885.87 1245.92 5891.08 1250.4 5896.28 1254.88 5901.48 1259.35 5906.68 1263.82 5911.88 1268.28 5917.09 1272.74 5922.29 1277.19 5927.49 1281.63 5932.69 1286.08 5937.89 1290.51 5943.1 1294.95 5948.3 1299.37 5953.5 1303.8" stroke="#ED7D31" stroke-width="9.16667" stroke-linecap="round" stroke-linejoin="round" stroke-miterlimit="10" fill="none"/></g><g><path d="M4408.5 1496.5C4413.7 1496.46 4418.9 1496.43 4424.11 1496.39 4429.31 1496.35 4434.51 1496.3 4439.71 1496.25 4444.91 1496.2 4450.12 1496.15 4455.32 1496.09 4460.52 1496.03 4465.72 1495.97 4470.92 1495.89 4476.13 1495.82 4481.33 1495.74 4486.53 1495.66 4491.73 1495.57 4496.93 1495.48 4502.14 1495.38 4507.34 1495.28 4512.54 1495.17 4517.74 1495.04 4522.94 1494.92 4528.15 1494.79 4533.35 1494.64 4538.55 1494.49 4543.75 1494.33 4548.95 1494.16 4554.16 1493.98 4559.36 1493.8 4564.56 1493.59 4569.76 1493.38 4574.96 1493.15 4580.17 1492.9 4585.37 1492.66 4590.57 1492.39 4595.77 1492.09 4600.97 1491.8 4606.18 1491.48 4611.38 1491.14 4616.58 1490.79 4621.78 1490.41 4626.98 1490 4632.19 1489.59 4637.39 1489.15 4642.59 1488.67 4647.79 1488.19 4653 1487.67 4658.2 1487.11 4663.4 1486.55 4668.6 1485.94 4673.8 1485.29 4679 1484.63 4684.21 1483.94 4689.41 1483.18 4694.61 1482.42 4699.81 1481.62 4705.02 1480.75 4710.22 1479.88 4715.42 1478.96 4720.62 1477.97 4725.82 1476.98 4731.02 1475.93 4736.23 1474.81 4741.43 1473.69 4746.63 1472.51 4751.83 1471.26 4757.04 1470.01 4762.24 1468.69 4767.44 1467.3 4772.64 1465.91 4777.84 1464.45 4783.05 1462.92 4788.25 1461.39 4793.45 1459.79 4798.65 1458.13 4803.85 1456.47 4809.06 1454.73 4814.26 1452.94 4819.46 1451.15 4824.66 1449.3 4829.86 1447.39 4835.07 1445.48 4840.27 1443.51 4845.47 1441.49 4850.67 1439.47 4855.87 1437.4 4861.08 1435.29 4866.28 1433.18 4871.48 1431.02 4876.68 1428.83 4881.88 1426.64 4887.09 1424.41 4892.29 1422.15 4897.49 1419.89 4902.69 1417.59 4907.89 1415.27 4913.1 1412.96 4918.3 1410.61 4923.5 1408.24 4928.7 1405.87 4933.9 1403.48 4939.11 1401.07 4944.31 1398.66 4949.51 1396.22 4954.71 1393.76 4959.91 1391.31 4965.12 1388.83 4970.32 1386.33 4975.52 1383.83 4980.72 1381.31 4985.92 1378.77 4991.13 1376.23 4996.33 1373.67 5001.53 1371.08 5006.73 1368.5 5011.93 1365.89 5017.14 1363.26 5022.34 1360.63 5027.54 1357.98 5032.74 1355.32 5037.94 1352.66 5043.15 1349.97 5048.35 1347.29 5053.55 1344.6 5058.75 1341.9 5063.95 1339.22 5069.16 1336.53 5074.36 1333.84 5079.56 1331.19 5084.76 1328.55 5089.96 1325.9 5095.17 1323.36 5100.37 1320.82 5105.57 1318.29 5110.77 1315.94 5115.97 1313.59 5121.18 1311.28 5126.38 1309.28 5131.58 1307.29 5136.78 1305.35 5141.98 1303.98 5147.19 1302.61 5152.39 1301.31 5157.59 1301.06 5162.79 1300.8 5168 1300.65 5173.2 1302.45 5178.4 1304.25 5183.6 1306.94 5188.8 1311.87 5194 1316.79 5199.21 1334.88 5204.41 1331.98 5207.35 1330.35 5217.08 1314.58 5220.01 1294.48 5225.22 1258.87 5230.42 1193.95 5235.62 1118.35 5240.82 1042.74 5246.02 902.75 5251.23 840.865 5255.21 793.473 5262.85 727.128 5266.83 747.037 5272.04 773.034 5277.24 928.175 5282.44 996.848 5287.64 1065.52 5292.84 1140.84 5298.05 1159.07 5303.25 1177.3 5308.45 1119.55 5313.65 1106.23 5318.85 1092.9 5324.06 1087.01 5329.26 1079.14 5334.46 1071.27 5339.66 1065.46 5344.86 1059.01 5350.07 1052.55 5355.27 1046.66 5360.47 1040.41 5365.67 1034.16 5370.87 1028.02 5376.08 1021.52 5381.28 1015.01 5386.48 1008.43 5391.68 1001.37 5396.88 994.307 5402.09 987.089 5407.29 979.138 5412.49 971.188 5417.69 963.087 5422.89 953.667 5428.1 944.247 5433.3 935.339 5438.5 922.621 5443.7 909.902 5448.9 878.068 5454.11 877.357 5459.31 876.647 5464.51 927.381 5469.71 918.357 5474.91 909.332 5480.12 856.242 5485.32 823.211 5490.52 790.179 5495.72 770.723 5500.92 720.169 5506.13 669.613 5511.33 530.261 5516.53 519.881 5521.73 509.5 5526.93 613.358 5532.14 657.883 5537.34 702.409 5542.54 754.808 5547.74 787.032 5552.94 819.255 5558.15 833.12 5563.35 851.225 5568.55 869.33 5573.75 882.472 5578.95 895.662 5584.16 908.852 5589.36 919.71 5594.56 930.366 5599.76 941.023 5604.96 949.152 5610.17 959.601 5615.37 970.05 5620.57 985.729 5625.77 993.059 5630.97 1000.39 5636.18 998.321 5641.38 1003.58 5646.58 1008.84 5651.78 1017.96 5656.98 1024.63 5662.19 1031.3 5667.39 1037.49 5672.59 1043.61 5677.79 1049.73 5682.99 1055.58 5688.2 1061.34 5693.4 1067.1 5698.6 1072.67 5703.8 1078.15 5709 1083.64 5714.21 1088.98 5719.41 1094.26 5724.61 1099.53 5729.81 1104.69 5735.01 1109.8 5740.22 1114.91 5745.42 1119.93 5750.62 1124.91 5755.82 1129.88 5761.02 1134.78 5766.23 1139.65 5771.43 1144.52 5776.63 1149.33 5781.83 1154.11 5787.04 1158.89 5792.24 1163.62 5797.44 1168.33 5802.64 1173.04 5807.84 1177.71 5813.05 1182.36 5818.25 1187.01 5823.45 1191.63 5828.65 1196.23 5833.85 1200.83 5839.06 1205.41 5844.26 1209.97 5849.46 1214.54 5854.66 1219.08 5859.86 1223.61 5865.07 1228.14 5870.27 1232.66 5875.47 1237.16 5880.67 1241.67 5885.87 1246.16 5891.08 1250.64 5896.28 1255.12 5901.48 1259.59 5906.68 1264.06 5911.88 1268.52 5917.09 1272.98 5922.29 1277.43 5927.49 1281.88 5932.69 1286.32 5937.89 1290.76 5943.1 1295.19 5948.3 1299.62 5953.5 1304.05" stroke="#A5A5A5" stroke-width="9.16667" stroke-linecap="round" stroke-linejoin="round" stroke-miterlimit="10" fill="none"/></g><g><path d="M4408.5 1496.5C4413.7 1496.46 4418.9 1496.43 4424.11 1496.39 4429.31 1496.35 4434.51 1496.3 4439.71 1496.25 4444.91 1496.2 4450.12 1496.15 4455.32 1496.09 4460.52 1496.03 4465.72 1495.97 4470.92 1495.9 4476.13 1495.83 4481.33 1495.75 4486.53 1495.67 4491.73 1495.58 4496.93 1495.49 4502.14 1495.39 4507.34 1495.29 4512.54 1495.18 4517.74 1495.05 4522.94 1494.93 4528.15 1494.8 4533.35 1494.66 4538.55 1494.51 4543.75 1494.35 4548.95 1494.18 4554.16 1494 4559.36 1493.82 4564.56 1493.61 4569.76 1493.4 4574.96 1493.18 4580.17 1492.93 4585.37 1492.69 4590.57 1492.42 4595.77 1492.13 4600.97 1491.84 4606.18 1491.52 4611.38 1491.18 4616.58 1490.83 4621.78 1490.46 4626.98 1490.05 4632.19 1489.64 4637.39 1489.2 4642.59 1488.72 4647.79 1488.24 4653 1487.73 4658.2 1487.17 4663.4 1486.61 4668.6 1486.01 4673.8 1485.36 4679 1484.7 4684.21 1484.01 4689.41 1483.25 4694.61 1482.5 4699.81 1481.69 4705.02 1480.82 4710.22 1479.96 4715.42 1479.03 4720.62 1478.04 4725.82 1477.05 4731.02 1476 4736.23 1474.88 4741.43 1473.76 4746.63 1472.58 4751.83 1471.32 4757.04 1470.06 4762.24 1468.73 4767.44 1467.34 4772.64 1465.94 4777.84 1464.47 4783.05 1462.93 4788.25 1461.39 4793.45 1459.77 4798.65 1458.09 4803.85 1456.41 4809.06 1454.66 4814.26 1452.85 4819.46 1451.04 4824.66 1449.15 4829.86 1447.22 4835.07 1445.28 4840.27 1443.28 4845.47 1441.22 4850.67 1439.17 4855.87 1437.06 4861.08 1434.91 4866.28 1432.76 4871.48 1430.55 4876.68 1428.31 4881.88 1426.07 4887.09 1423.79 4892.29 1421.47 4897.49 1419.16 4902.69 1416.81 4907.89 1414.43 4913.1 1412.05 4918.3 1409.64 4923.5 1407.2 4928.7 1404.77 4933.9 1402.31 4939.11 1399.83 4944.31 1397.34 4949.51 1394.83 4954.71 1392.31 4959.91 1389.78 4965.12 1387.22 4970.32 1384.65 4975.52 1382.07 4980.72 1379.48 4985.92 1376.86 4991.13 1374.23 4996.33 1371.59 5001.53 1368.92 5006.73 1366.26 5011.93 1363.57 5017.14 1360.86 5022.34 1358.15 5027.54 1355.41 5032.74 1352.66 5037.94 1349.91 5043.15 1347.14 5048.35 1344.36 5053.55 1341.58 5058.75 1338.79 5063.95 1336 5069.16 1333.22 5074.36 1330.42 5079.56 1327.66 5084.76 1324.91 5089.96 1322.14 5095.17 1319.47 5100.37 1316.79 5105.57 1314.12 5110.77 1311.61 5115.97 1309.1 5121.18 1306.61 5126.38 1304.41 5131.58 1302.2 5136.78 1300.04 5141.98 1298.38 5147.19 1296.71 5152.39 1295.11 5157.59 1294.43 5162.79 1293.74 5168 1293.12 5173.2 1294.26 5178.4 1295.39 5183.6 1297 5188.8 1301.24 5194 1305.47 5199.21 1319.64 5204.41 1319.67 5206.35 1319.68 5218.07 1313.25 5220.01 1301.39 5225.22 1269.67 5230.42 1205.38 5235.62 1129.35 5240.82 1053.32 5246.02 910.032 5251.23 845.214 5255.46 792.42 5262.6 714.393 5266.83 740.442 5272.04 772.422 5277.24 969.012 5282.44 1037.1 5286.74 1093.41 5293.74 1139.86 5298.05 1148.96 5303.25 1159.97 5308.45 1114.9 5313.65 1103.11 5318.85 1091.33 5324.06 1085.63 5329.26 1078.26 5334.46 1070.88 5339.66 1065.15 5344.86 1058.86 5350.07 1052.58 5355.27 1046.73 5360.47 1040.54 5365.67 1034.36 5370.87 1028.24 5376.08 1021.75 5381.28 1015.26 5386.48 1008.68 5391.68 1001.61 5396.88 994.536 5402.09 987.304 5407.29 979.312 5412.49 971.319 5417.69 963.206 5422.89 953.652 5428.1 944.098 5433.3 935.496 5438.5 921.986 5443.7 908.475 5448.9 874.333 5454.11 872.589 5459.31 870.846 5464.51 920.046 5469.71 911.525 5474.91 903.003 5480.12 853.382 5485.32 821.46 5490.52 789.538 5495.72 769.635 5500.92 719.994 5506.13 670.351 5511.33 533.717 5516.53 523.609 5521.73 513.5 5526.93 615.373 5532.14 659.343 5537.34 703.312 5542.54 755.393 5547.74 787.423 5552.94 819.452 5558.15 833.435 5563.35 851.52 5568.55 869.605 5573.75 882.748 5578.95 895.934 5584.16 909.119 5589.36 919.973 5594.56 930.632 5599.76 941.29 5604.96 949.136 5610.17 959.883 5615.37 970.63 5620.57 987.784 5625.77 995.116 5630.95 1002.41 5636.2 998.938 5641.38 1003.87 5646.58 1008.83 5651.78 1018.21 5656.98 1024.88 5662.19 1031.54 5667.39 1037.73 5672.59 1043.85 5677.79 1049.96 5682.99 1055.82 5688.2 1061.57 5693.4 1067.33 5698.6 1072.89 5703.8 1078.38 5709 1083.86 5714.21 1089.2 5719.41 1094.48 5724.61 1099.75 5729.81 1104.91 5735.01 1110.02 5740.22 1115.13 5745.42 1120.15 5750.62 1125.12 5755.82 1130.09 5761.02 1134.99 5766.23 1139.86 5771.43 1144.73 5776.63 1149.53 5781.83 1154.31 5787.04 1159.09 5792.24 1163.82 5797.44 1168.53 5802.64 1173.24 5807.84 1177.91 5813.05 1182.56 5818.25 1187.21 5823.45 1191.82 5828.65 1196.43 5833.85 1201.03 5839.06 1205.6 5844.26 1210.17 5849.46 1214.73 5854.66 1219.27 5859.86 1223.8 5865.07 1228.33 5870.27 1232.84 5875.47 1237.35 5880.67 1241.85 5885.87 1246.34 5891.08 1250.82 5896.28 1255.3 5901.48 1259.77 5906.68 1264.24 5911.88 1268.7 5917.09 1273.15 5922.29 1277.6 5927.49 1282.05 5932.69 1286.49 5937.89 1290.93 5943.1 1295.36 5948.3 1299.79 5953.5 1304.22" stroke="#FFC000" stroke-width="9.16667" stroke-linecap="round" stroke-linejoin="round" stroke-miterlimit="10" fill="none"/></g><g><path d="M4408.5 1496.5C4413.7 1496.46 4418.9 1496.43 4424.11 1496.39 4429.31 1496.35 4434.51 1496.3 4439.71 1496.26 4444.91 1496.21 4450.12 1496.15 4455.32 1496.09 4460.52 1496.04 4465.72 1495.97 4470.92 1495.9 4476.13 1495.83 4481.33 1495.76 4486.53 1495.67 4491.73 1495.59 4496.93 1495.5 4502.14 1495.39 4507.34 1495.29 4512.54 1495.18 4517.74 1495.06 4522.94 1494.94 4528.15 1494.81 4533.35 1494.66 4538.55 1494.52 4543.75 1494.36 4548.95 1494.19 4554.16 1494.02 4559.36 1493.83 4564.56 1493.62 4569.76 1493.42 4574.96 1493.19 4580.17 1492.95 4585.37 1492.7 4590.57 1492.44 4595.77 1492.15 4600.97 1491.86 4606.18 1491.54 4611.38 1491.2 4616.58 1490.85 4621.78 1490.48 4626.98 1490.08 4632.19 1489.67 4637.39 1489.23 4642.59 1488.75 4647.79 1488.27 4653 1487.76 4658.2 1487.2 4663.4 1486.64 4668.6 1486.04 4673.8 1485.39 4679 1484.74 4684.21 1484.05 4689.41 1483.29 4694.61 1482.54 4699.81 1481.73 4705.02 1480.87 4710.22 1480 4715.42 1479.08 4720.62 1478.09 4725.82 1477.1 4731.02 1476.04 4736.23 1474.92 4741.43 1473.8 4746.63 1472.61 4751.83 1471.35 4757.04 1470.09 4762.24 1468.76 4767.44 1467.36 4772.64 1465.96 4777.84 1464.48 4783.05 1462.93 4788.25 1461.39 4793.45 1459.76 4798.65 1458.08 4803.85 1456.39 4809.06 1454.62 4814.26 1452.8 4819.46 1450.97 4824.66 1449.08 4829.86 1447.12 4835.07 1445.17 4840.27 1443.15 4845.47 1441.08 4850.67 1439.01 4855.87 1436.87 4861.08 1434.7 4866.28 1432.52 4871.48 1430.29 4876.68 1428.02 4881.88 1425.76 4887.09 1423.44 4892.29 1421.09 4897.49 1418.75 4902.69 1416.36 4907.89 1413.95 4913.1 1411.53 4918.3 1409.08 4923.5 1406.61 4928.7 1404.14 4933.9 1401.64 4939.11 1399.11 4944.31 1396.59 4949.51 1394.04 4954.71 1391.47 4959.91 1388.89 4965.12 1386.3 4970.32 1383.67 4975.52 1381.05 4980.72 1378.41 4985.92 1375.74 4991.13 1373.07 4996.33 1370.38 5001.53 1367.67 5006.73 1364.95 5011.93 1362.21 5017.14 1359.45 5022.34 1356.69 5027.54 1353.9 5032.74 1351.1 5037.94 1348.3 5043.15 1345.47 5048.35 1342.64 5053.55 1339.81 5058.75 1336.95 5063.95 1334.11 5069.16 1331.26 5074.36 1328.4 5079.56 1325.58 5084.76 1322.75 5089.96 1319.92 5095.17 1317.16 5100.37 1314.41 5105.57 1311.66 5110.77 1309.05 5115.97 1306.44 5121.18 1303.86 5126.38 1301.53 5131.58 1299.19 5136.78 1296.9 5141.98 1295.07 5147.19 1293.23 5152.39 1291.45 5157.59 1290.51 5162.79 1289.57 5168 1288.69 5173.2 1289.43 5178.4 1290.17 5183.6 1291.23 5188.8 1294.96 5194 1298.69 5199.21 1310.41 5204.41 1311.84 5205.96 1312.26 5218.47 1312.23 5220.01 1303.52 5225.22 1274.29 5230.42 1212.39 5235.62 1136.47 5240.82 1060.55 5246.02 914.554 5251.23 848.001 5255.59 792.202 5262.47 707.502 5266.83 737.156 5272.04 772.524 5277.24 992.545 5282.44 1060.21 5285.67 1102.29 5294.81 1138.9 5298.05 1143.16 5303.25 1150.01 5308.45 1112.23 5313.65 1101.32 5318.85 1090.4 5324.06 1084.78 5329.26 1077.68 5334.46 1070.58 5339.66 1064.89 5344.86 1058.69 5350.07 1052.5 5355.27 1046.68 5360.47 1040.53 5365.67 1034.38 5370.87 1028.27 5376.08 1021.79 5381.28 1015.31 5386.48 1008.73 5391.68 1001.65 5396.88 994.571 5402.09 987.331 5407.29 979.31 5412.49 971.289 5417.69 963.172 5422.89 953.526 5428.1 943.88 5433.3 935.568 5438.5 921.435 5443.7 907.302 5448.9 871.551 5454.11 868.73 5459.31 865.908 5464.51 912.542 5469.71 904.508 5474.91 896.474 5480.12 851.314 5485.32 820.525 5490.52 789.736 5495.72 768.949 5500.92 719.773 5506.13 670.597 5511.33 535.438 5516.53 525.469 5521.73 515.5 5526.93 616.286 5532.14 659.96 5537.34 703.633 5542.54 755.575 5547.74 787.509 5552.94 819.444 5558.15 833.489 5563.35 851.567 5568.55 869.644 5573.75 882.791 5578.95 895.976 5584.16 909.161 5589.36 920.015 5594.56 930.677 5599.76 941.338 5604.96 949.012 5610.17 959.943 5615.37 970.874 5620.57 988.93 5625.77 996.264 5630.8 1003.36 5636.35 999.325 5641.38 1003.95 5646.58 1008.72 5651.78 1018.27 5656.98 1024.93 5662.19 1031.59 5667.39 1037.78 5672.59 1043.9 5677.79 1050.01 5682.99 1055.87 5688.2 1061.62 5693.4 1067.38 5698.6 1072.94 5703.8 1078.43 5709 1083.91 5714.21 1089.25 5719.41 1094.53 5724.61 1099.8 5729.81 1104.96 5735.01 1110.07 5740.22 1115.18 5745.42 1120.2 5750.62 1125.17 5755.82 1130.14 5761.02 1135.05 5766.23 1139.91 5771.43 1144.78 5776.63 1149.59 5781.83 1154.37 5787.04 1159.14 5792.24 1163.88 5797.44 1168.58 5802.64 1173.29 5807.84 1177.96 5813.05 1182.61 5818.25 1187.26 5823.45 1191.88 5828.65 1196.48 5833.85 1201.08 5839.06 1205.66 5844.26 1210.22 5849.46 1214.78 5854.66 1219.32 5859.86 1223.86 5865.07 1228.39 5870.27 1232.9 5875.47 1237.4 5880.67 1241.91 5885.87 1246.4 5891.08 1250.88 5896.28 1255.36 5901.48 1259.83 5906.68 1264.29 5911.88 1268.76 5917.09 1273.21 5922.29 1277.66 5927.49 1282.11 5932.69 1286.55 5937.89 1290.99 5943.1 1295.42 5948.3 1299.85 5953.5 1304.28" stroke="#5B9BD5" stroke-width="9.16667" stroke-linecap="round" stroke-linejoin="round" stroke-miterlimit="10" fill="none"/></g><g><text font-family="Calibri,Calibri_MSFontService,sans-serif" font-weight="400" font-size="64" transform="matrix(1 0 0 1 4264.53 1541)">-30</text></g><g><text font-family="Calibri,Calibri_MSFontService,sans-serif" font-weight="400" font-size="64" transform="matrix(1 0 0 1 4264.53 1400)">-10</text></g><g><text font-family="Calibri,Calibri_MSFontService,sans-serif" font-weight="400" font-size="64" transform="matrix(1 0 0 1 4284.17 1259)">10</text></g><g><text font-family="Calibri,Calibri_MSFontService,sans-serif" font-weight="400" font-size="64" transform="matrix(1 0 0 1 4284.17 1118)">30</text></g><g><text font-family="Calibri,Calibri_MSFontService,sans-serif" font-weight="400" font-size="64" transform="matrix(1 0 0 1 4284.17 977)">50</text></g><g><text font-family="Calibri,Calibri_MSFontService,sans-serif" font-weight="400" font-size="64" transform="matrix(1 0 0 1 4284.17 836)">70</text></g><g><text font-family="Calibri,Calibri_MSFontService,sans-serif" font-weight="400" font-size="64" transform="matrix(1 0 0 1 4284.17 695)">90</text></g><g><text font-family="Calibri,Calibri_MSFontService,sans-serif" font-weight="400" font-size="64" transform="matrix(1 0 0 1 4251.65 554)">110</text></g><g><text font-family="Calibri,Calibri_MSFontService,sans-serif" font-weight="400" font-size="64" transform="matrix(1 0 0 1 4251.65 413)">130</text></g><g><text font-family="Calibri,Calibri_MSFontService,sans-serif" font-weight="400" font-size="64" transform="matrix(1 0 0 1 4251.65 271)">150</text></g><g><text font-family="Calibri,Calibri_MSFontService,sans-serif" font-weight="700" font-size="64" transform="matrix(6.12323e-17 -1 1 6.12323e-17 4185.94 1025)">Magnitude (dB)</text></g><g><path d="M4526.5 188.5 4614.5 188.5" stroke="#4472C4" stroke-width="9.16667" stroke-linecap="round" stroke-linejoin="round" stroke-miterlimit="10" fill="none" fill-rule="evenodd"/></g><g><text font-family="Calibri,Calibri_MSFontService,sans-serif" font-weight="700" font-size="73" transform="matrix(1 0 0 1 4623.73 210)">Z1</text></g><g><path d="M4813.5 188.5 4901.5 188.5" stroke="#ED7D31" stroke-width="9.16667" stroke-linecap="round" stroke-linejoin="round" stroke-miterlimit="10" fill="none" fill-rule="evenodd"/></g><g><text font-family="Calibri,Calibri_MSFontService,sans-serif" font-weight="700" font-size="73" transform="matrix(1 0 0 1 4910.91 210)">Z2</text></g><g><path d="M5100.5 188.5 5188.5 188.5" stroke="#A5A5A5" stroke-width="9.16667" stroke-linecap="round" stroke-linejoin="round" stroke-miterlimit="10" fill="none" fill-rule="evenodd"/></g><g><text font-family="Calibri,Calibri_MSFontService,sans-serif" font-weight="700" font-size="73" transform="matrix(1 0 0 1 5198.09 210)">Z3</text></g><g><path d="M5387.5 188.5 5475.5 188.5" stroke="#FFC000" stroke-width="9.16667" stroke-linecap="round" stroke-linejoin="round" stroke-miterlimit="10" fill="none" fill-rule="evenodd"/></g><g><text font-family="Calibri,Calibri_MSFontService,sans-serif" font-weight="700" font-size="73" transform="matrix(1 0 0 1 5485.26 210)">Z4</text></g><g><path d="M5675.5 188.5 5763.5 188.5" stroke="#5B9BD5" stroke-width="9.16667" stroke-linecap="round" stroke-linejoin="round" stroke-miterlimit="10" fill="none" fill-rule="evenodd"/></g><g><text font-family="Calibri,Calibri_MSFontService,sans-serif" font-weight="700" font-size="73" transform="matrix(1 0 0 1 5772.44 210)">Z5</text></g><rect x="4088.5" y="48.5" width="1981" height="1542" stroke="#D9D9D9" stroke-width="3.4375" stroke-linejoin="round" stroke-miterlimit="10" fill="none"/><g><path d="M3.31967-0.892294 60.6142 212.265 53.9748 214.05-3.31967 0.892294ZM69.3835 205.162 63.2431 235.288 42.8261 212.3Z" fill="#7F7F7F" transform="matrix(1 0 0 -1 5126.5 1445.79)"/></g><g><text fill="#FF0000" font-family="Calibri,Calibri_MSFontService,sans-serif" font-weight="700" font-size="73" transform="matrix(1 0 0 1 4738.5 1030)">Increasing</text></g><g><text fill="#FF0000" font-family="Calibri,Calibri_MSFontService,sans-serif" font-weight="700" font-size="73" transform="matrix(1 0 0 1 4710.89 1119)">Load (Z</text></g><g><text fill="#FF0000" font-family="Calibri,Calibri_MSFontService,sans-serif" font-weight="700" font-size="49" transform="matrix(1 0 0 1 4931.35 1136)">Load3</text></g><g><text fill="#FF0000" font-family="Calibri,Calibri_MSFontService,sans-serif" font-weight="700" font-size="73" transform="matrix(1 0 0 1 5053.45 1119)">)</text></g><g><text fill="#FF0000" font-family="Calibri,Calibri_MSFontService,sans-serif" font-weight="700" font-size="73" transform="matrix(1 0 0 1 4576.44 1209)">Z1</text></g><g><text fill="#FF0000" font-family="Calibri,Calibri_MSFontService,sans-serif" font-weight="700" font-size="73" transform="matrix(1 0 0 1 4659.72 1209)">&lt; </text></g><g><text fill="#FF0000" font-family="Calibri,Calibri_MSFontService,sans-serif" font-weight="700" font-size="73" transform="matrix(1 0 0 1 4712.82 1209)">Z2</text></g><g><text fill="#FF0000" font-family="Calibri,Calibri_MSFontService,sans-serif" font-weight="700" font-size="73" transform="matrix(1 0 0 1 4812.66 1209)">&lt; Z3</text></g><g><text fill="#FF0000" font-family="Calibri,Calibri_MSFontService,sans-serif" font-weight="700" font-size="73" transform="matrix(1 0 0 1 4949.04 1209)">&lt; Z4</text></g><g><text fill="#FF0000" font-family="Calibri,Calibri_MSFontService,sans-serif" font-weight="700" font-size="73" transform="matrix(1 0 0 1 5085.42 1209)">&lt; Z5</text></g><rect x="4088" y="1589" width="1983" height="1281" fill="#FFFFFF"/><g><path d="M4399.5 2607.5 5945.5 2607.5M4399.5 2447.58 5945.5 2447.58M4399.5 2288.58 5945.5 2288.58M4399.5 1969.56 5945.5 1969.56M4399.5 1809.56 5945.5 1809.56M4399.5 1649.5 5945.5 1649.5" stroke="#D9D9D9" stroke-width="3.4375" stroke-linejoin="round" stroke-miterlimit="10" fill="none"/></g><g><path d="M4515.65 1649.5 4515.65 2607.5M4583.65 1649.5 4583.65 2607.5M4632.65 1649.5 4632.65 2607.5M4669.65 1649.5 4669.65 2607.5M4700.65 1649.5 4700.65 2607.5M4726.66 1649.5 4726.66 2607.5M4748.66 1649.5 4748.66 2607.5M4768.66 1649.5 4768.66 2607.5M4902.66 1649.5 4902.66 2607.5M4970.66 1649.5 4970.66 2607.5M5018.66 1649.5 5018.66 2607.5M5056.67 1649.5 5056.67 2607.5M5086.67 1649.5 5086.67 2607.5M5112.67 1649.5 5112.67 2607.5M5134.67 1649.5 5134.67 2607.5M5154.67 1649.5 5154.67 2607.5M5288.67 1649.5 5288.67 2607.5M5356.68 1649.5 5356.68 2607.5M5405.68 1649.5 5405.68 2607.5M5442.68 1649.5 5442.68 2607.5M5473.68 1649.5 5473.68 2607.5M5499.68 1649.5 5499.68 2607.5M5521.68 1649.5 5521.68 2607.5M5541.68 1649.5 5541.68 2607.5M5675.69 1649.5 5675.69 2607.5M5743.69 1649.5 5743.69 2607.5M5791.69 1649.5 5791.69 2607.5M5829.69 1649.5 5829.69 2607.5M5859.69 1649.5 5859.69 2607.5M5885.69 1649.5 5885.69 2607.5M5907.69 1649.5 5907.69 2607.5M5927.69 1649.5 5927.69 2607.5" stroke="#F2F2F2" stroke-width="3.4375" stroke-linejoin="round" stroke-miterlimit="10" fill="none"/></g><g><path d="M4785.66 1649.5 4785.66 2607.5M5172.67 1649.5 5172.67 2607.5M5558.68 1649.5 5558.68 2607.5M5945.5 1649.5 5945.5 2607.5" stroke="#D9D9D9" stroke-width="3.4375" stroke-linejoin="round" stroke-miterlimit="10" fill="none"/></g><g><path d="M0 0 0.000360892 958" stroke="#BFBFBF" stroke-width="3.4375" stroke-linejoin="round" stroke-miterlimit="10" fill="none" fill-rule="evenodd" transform="matrix(1 0 0 -1 4399.5 2607.5)"/></g><g><path d="M4399.5 2128.5 5945.5 2128.5" stroke="#BFBFBF" stroke-width="3.4375" stroke-linejoin="round" stroke-miterlimit="10" fill="none" fill-rule="evenodd"/></g><g><path d="M4399.5 1865.55C4404.71 1865.34 4409.91 1865.15 4415.12 1864.94 4420.32 1864.72 4425.53 1864.5 4430.73 1864.27 4435.94 1864.03 4441.14 1863.79 4446.35 1863.54 4451.55 1863.28 4456.76 1863.02 4461.96 1862.74 4467.17 1862.46 4472.38 1862.17 4477.58 1861.87 4482.79 1861.56 4487.99 1861.25 4493.2 1860.92 4498.4 1860.59 4503.61 1860.24 4508.81 1859.88 4514.02 1859.52 4519.22 1859.15 4524.43 1858.76 4529.63 1858.37 4534.84 1857.96 4540.05 1857.54 4545.25 1857.12 4550.46 1856.68 4555.66 1856.22 4560.87 1855.77 4566.07 1855.29 4571.28 1854.8 4576.48 1854.31 4581.69 1853.8 4586.89 1853.27 4592.1 1852.75 4597.3 1852.2 4602.51 1851.64 4607.72 1851.07 4612.92 1850.49 4618.13 1849.89 4623.33 1849.29 4628.54 1848.67 4633.74 1848.04 4638.95 1847.4 4644.15 1846.75 4649.36 1846.08 4654.56 1845.41 4659.77 1844.72 4664.97 1844.02 4670.18 1843.33 4675.39 1842.61 4680.59 1841.89 4685.8 1841.16 4691 1840.42 4696.21 1839.68 4701.41 1838.93 4706.62 1838.17 4711.82 1837.41 4717.03 1836.65 4722.23 1835.88 4727.44 1835.11 4732.64 1834.34 4737.85 1833.57 4743.06 1832.8 4748.26 1832.02 4753.47 1831.25 4758.67 1830.48 4763.88 1829.72 4769.08 1828.95 4774.29 1828.19 4779.49 1827.43 4784.7 1826.68 4789.9 1825.94 4795.11 1825.19 4800.31 1824.46 4805.52 1823.73 4810.73 1823 4815.93 1822.28 4821.14 1821.57 4826.34 1820.86 4831.55 1820.16 4836.75 1819.46 4841.96 1818.76 4847.16 1818.07 4852.37 1817.39 4857.57 1816.7 4862.78 1816.02 4867.98 1815.34 4873.19 1814.66 4878.4 1813.98 4883.6 1813.3 4888.81 1812.62 4894.01 1811.93 4899.22 1811.25 4904.42 1810.56 4909.63 1809.87 4914.83 1809.17 4920.04 1808.47 4925.24 1807.76 4930.45 1807.05 4935.65 1806.33 4940.86 1805.61 4946.07 1804.88 4951.27 1804.15 4956.48 1803.41 4961.68 1802.67 4966.89 1801.93 4972.09 1801.18 4977.3 1800.43 4982.5 1799.68 4987.71 1798.93 4992.91 1798.18 4998.12 1797.44 5003.32 1796.69 5008.53 1795.96 5013.74 1795.23 5018.94 1794.51 5024.15 1793.82 5029.35 1793.13 5034.56 1792.45 5039.76 1791.82 5044.97 1791.2 5050.17 1790.59 5055.38 1790.06 5060.58 1789.53 5065.79 1789.03 5071 1788.65 5076.2 1788.27 5081.41 1787.93 5086.61 1787.77 5091.82 1787.61 5097.02 1787.5 5102.23 1787.68 5107.43 1787.87 5112.64 1788.11 5117.84 1788.87 5123.05 1789.63 5128.25 1790.41 5133.46 1792.24 5138.67 1794.08 5143.87 1795.69 5149.08 1799.89 5154.28 1804.09 5159.49 1807.24 5164.69 1817.47 5169.9 1827.69 5175.1 1841.44 5180.31 1861.25 5185.51 1881.06 5190.72 1916.12 5195.92 1936.31 5201.13 1956.5 5206.33 1971.41 5211.54 1982.39 5216.75 1993.38 5221.95 1996.88 5227.16 2002.22 5228.16 2003.25 5241.77 2004.58 5242.77 2014.44 5247.98 2065.58 5253.18 2251.27 5258.39 2309.07 5260.83 2336.17 5271.56 2347.04 5274 2361.21 5279.21 2391.41 5284.42 2494.32 5289.62 2490.26 5294.83 2486.2 5300.03 2366.25 5305.24 2336.87 5307.66 2323.21 5318.43 2316.04 5320.85 2313.94 5326.06 2309.43 5331.26 2310.7 5336.47 2309.76 5341.67 2308.83 5346.88 2308.69 5352.09 2308.35 5357.29 2308 5362.5 2307.87 5367.7 2307.71 5372.91 2307.55 5378.11 2307.46 5383.32 2307.38 5388.52 2307.3 5393.73 2307.25 5398.93 2307.22 5404.14 2307.19 5409.34 2307.18 5414.55 2307.19 5419.76 2307.21 5424.96 2307.23 5430.17 2307.32 5435.37 2307.41 5440.58 2307.46 5445.78 2307.72 5450.99 2307.97 5456.19 2307.41 5461.4 2308.84 5466.6 2310.28 5471.81 2314.15 5477.02 2316.34 5478.37 2316.91 5491.27 2313.79 5492.63 2321.99 5497.84 2353.43 5503.04 2466.18 5508.25 2504.97 5511.72 2530.84 5520.39 2545.67 5523.86 2554.77 5529.07 2568.41 5534.27 2581.16 5539.48 2586.83 5544.69 2592.5 5549.89 2588.35 5555.1 2588.8 5560.3 2589.25 5565.51 2589.34 5570.71 2589.52 5575.92 2589.71 5581.12 2589.8 5586.33 2589.89 5591.53 2589.99 5596.74 2590.06 5601.94 2590.1 5607.15 2590.13 5612.35 2590.11 5617.56 2590.1 5622.77 2590.1 5627.97 2590.03 5633.18 2590.08 5638.38 2590.13 5643.59 2590.33 5648.79 2590.4 5654 2590.46 5659.2 2590.44 5664.41 2590.46 5669.61 2590.48 5674.82 2590.49 5680.02 2590.5 5685.23 2590.51 5690.44 2590.51 5695.64 2590.52 5700.85 2590.53 5706.05 2590.53 5711.26 2590.54 5716.46 2590.55 5721.67 2590.55 5726.87 2590.56 5732.08 2590.56 5737.28 2590.56 5742.49 2590.57 5747.7 2590.57 5752.9 2590.57 5758.11 2590.58 5763.31 2590.58 5768.52 2590.58 5773.72 2590.58 5778.93 2590.59 5784.13 2590.59 5789.34 2590.59 5794.54 2590.59 5799.75 2590.59 5804.95 2590.6 5810.16 2590.6 5815.37 2590.6 5820.57 2590.6 5825.78 2590.6 5830.98 2590.61 5836.19 2590.61 5841.39 2590.61 5846.6 2590.61 5851.8 2590.61 5857.01 2590.62 5862.21 2590.62 5867.42 2590.62 5872.62 2590.62 5877.83 2590.62 5883.04 2590.63 5888.24 2590.63 5893.45 2590.63 5898.65 2590.63 5903.86 2590.63 5909.06 2590.64 5914.27 2590.64 5919.47 2590.64 5924.68 2590.64 5929.88 2590.65 5935.09 2590.65 5940.29 2590.65 5945.5 2590.65" stroke="#4472C4" stroke-width="9.16667" stroke-linecap="round" stroke-linejoin="round" stroke-miterlimit="10" fill="none"/></g><g><path d="M4399.5 1865.58C4404.71 1865.36 4409.91 1865.15 4415.12 1864.92 4420.32 1864.7 4425.53 1864.46 4430.73 1864.21 4435.94 1863.96 4441.14 1863.7 4446.35 1863.42 4451.55 1863.15 4456.76 1862.86 4461.96 1862.57 4467.17 1862.27 4472.38 1861.96 4477.58 1861.63 4482.79 1861.3 4487.99 1860.96 4493.2 1860.61 4498.4 1860.25 4503.61 1859.88 4508.81 1859.49 4514.02 1859.1 4519.22 1858.7 4524.43 1858.28 4529.63 1857.85 4534.84 1857.41 4540.05 1856.95 4545.25 1856.5 4550.46 1856.02 4555.66 1855.52 4560.87 1855.02 4566.07 1854.51 4571.28 1853.97 4576.48 1853.43 4581.69 1852.87 4586.89 1852.29 4592.1 1851.71 4597.3 1851.11 4602.51 1850.48 4607.72 1849.86 4612.92 1849.21 4618.13 1848.54 4623.33 1847.87 4628.54 1847.18 4633.74 1846.47 4638.95 1845.76 4644.15 1845.02 4649.36 1844.26 4654.56 1843.5 4659.77 1842.72 4664.97 1841.92 4670.18 1841.12 4675.39 1840.3 4680.59 1839.46 4685.8 1838.63 4691 1837.77 4696.21 1836.89 4701.41 1836.02 4706.62 1835.13 4711.82 1834.23 4717.03 1833.32 4722.23 1832.41 4727.44 1831.48 4732.64 1830.56 4737.85 1829.62 4743.06 1828.68 4748.26 1827.74 4753.47 1826.79 4758.67 1825.85 4763.88 1824.9 4769.08 1823.95 4774.29 1823.01 4779.49 1822.07 4784.7 1821.13 4789.9 1820.19 4795.11 1819.26 4800.31 1818.34 4805.52 1817.42 4810.73 1816.51 4815.93 1815.6 4821.14 1814.71 4826.34 1813.82 4831.55 1812.95 4836.75 1812.08 4841.96 1811.22 4847.16 1810.37 4852.37 1809.54 4857.57 1808.7 4862.78 1807.89 4867.98 1807.08 4873.19 1806.27 4878.4 1805.48 4883.6 1804.7 4888.81 1803.92 4894.01 1803.15 4899.22 1802.39 4904.42 1801.63 4909.63 1800.88 4914.83 1800.14 4920.04 1799.39 4925.24 1798.65 4930.45 1797.92 4935.65 1797.18 4940.86 1796.46 4946.07 1795.73 4951.27 1795 4956.48 1794.27 4961.68 1793.55 4966.89 1792.83 4972.09 1792.1 4977.3 1791.38 4982.5 1790.66 4987.71 1789.95 4992.91 1789.24 4998.12 1788.52 5003.32 1787.82 5008.53 1787.12 5013.74 1786.42 5018.94 1785.73 5024.15 1785.06 5029.35 1784.4 5034.56 1783.73 5039.76 1783.11 5044.97 1782.48 5050.17 1781.87 5055.38 1781.31 5060.58 1780.74 5065.79 1780.2 5071 1779.73 5076.2 1779.26 5081.41 1778.82 5086.61 1778.49 5091.82 1778.15 5097.02 1777.86 5102.23 1777.72 5107.43 1777.59 5112.64 1777.5 5117.84 1777.68 5123.05 1777.85 5128.25 1778.07 5133.46 1778.77 5138.67 1779.47 5143.87 1780.16 5149.08 1781.87 5154.28 1783.57 5159.49 1784.93 5164.69 1789.01 5169.64 1792.88 5175.36 1795.77 5180.31 1806.33 5185.51 1817.45 5190.72 1832.59 5195.92 1855.7 5201.13 1878.8 5206.33 1922.61 5211.54 1944.97 5216.75 1967.33 5221.95 1978.83 5227.16 1989.84 5228.39 1992.45 5241.54 1997.94 5242.77 2011.05 5247.98 2066.46 5253.18 2244.6 5258.39 2322.29 5263.59 2399.97 5268.8 2467.77 5274 2477.2 5279.21 2486.64 5284.42 2405.15 5289.62 2378.93 5294.83 2352.7 5300.03 2331.05 5305.24 2319.85 5308.95 2311.86 5317.14 2312.96 5320.85 2311.7 5326.06 2309.94 5331.26 2309.86 5336.47 2309.29 5341.67 2308.72 5346.88 2308.53 5352.09 2308.28 5357.29 2308.02 5362.5 2307.9 5367.7 2307.76 5372.91 2307.63 5378.11 2307.55 5383.32 2307.49 5388.52 2307.42 5393.73 2307.38 5398.93 2307.37 5404.14 2307.35 5409.34 2307.35 5414.55 2307.41 5419.76 2307.47 5424.96 2307.44 5430.17 2307.74 5435.09 2308.02 5440.86 2303.11 5445.78 2309.22 5450.99 2315.68 5456.19 2345.88 5461.4 2346.5 5466.6 2347.12 5471.81 2318.28 5477.02 2312.92 5478.29 2311.61 5491.35 2306.6 5492.63 2314.34 5497.84 2345.82 5503.04 2458.08 5508.25 2501.83 5512.77 2539.86 5519.34 2564.49 5523.86 2576.82 5527.07 2585.56 5536.27 2585.75 5539.48 2586.96 5544.69 2588.94 5549.89 2588.27 5555.1 2588.67 5560.3 2589.07 5565.51 2589.19 5570.71 2589.37 5575.92 2589.55 5581.12 2589.64 5586.33 2589.74 5591.53 2589.83 5596.74 2590.07 5601.94 2589.93 5607.15 2589.78 5612.35 2588.83 5617.56 2588.87 5622.77 2588.9 5627.97 2589.9 5633.18 2590.13 5638.38 2590.37 5643.59 2590.22 5648.79 2590.25 5654 2590.28 5659.2 2590.29 5664.41 2590.31 5669.61 2590.32 5674.82 2590.33 5680.02 2590.34 5685.23 2590.35 5690.44 2590.36 5695.64 2590.37 5700.85 2590.37 5706.05 2590.38 5711.26 2590.39 5716.46 2590.39 5721.67 2590.4 5726.87 2590.4 5732.08 2590.4 5737.28 2590.41 5742.49 2590.41 5747.7 2590.42 5752.9 2590.42 5758.11 2590.42 5763.31 2590.42 5768.52 2590.43 5773.72 2590.43 5778.93 2590.43 5784.13 2590.43 5789.34 2590.44 5794.54 2590.44 5799.75 2590.44 5804.95 2590.44 5810.16 2590.44 5815.37 2590.45 5820.57 2590.45 5825.78 2590.45 5830.98 2590.45 5836.19 2590.45 5841.39 2590.46 5846.6 2590.46 5851.8 2590.46 5857.01 2590.46 5862.21 2590.46 5867.42 2590.46 5872.62 2590.47 5877.83 2590.47 5883.04 2590.47 5888.24 2590.47 5893.45 2590.48 5898.65 2590.48 5903.86 2590.48 5909.06 2590.48 5914.27 2590.48 5919.47 2590.49 5924.68 2590.49 5929.88 2590.49 5935.09 2590.49 5940.29 2590.5 5945.5 2590.5" stroke="#ED7D31" stroke-width="9.16667" stroke-linecap="round" stroke-linejoin="round" stroke-miterlimit="10" fill="none"/></g><g><path d="M4399.5 1864.94C4404.71 1864.72 4409.91 1864.51 4415.12 1864.28 4420.32 1864.05 4425.53 1863.8 4430.73 1863.55 4435.94 1863.29 4441.14 1863.03 4446.35 1862.75 4451.55 1862.47 4456.76 1862.18 4461.96 1861.88 4467.17 1861.58 4472.38 1861.26 4477.58 1860.93 4482.79 1860.59 4487.99 1860.25 4493.2 1859.89 4498.4 1859.52 4503.61 1859.15 4508.81 1858.75 4514.02 1858.35 4519.22 1857.94 4524.43 1857.51 4529.63 1857.08 4534.84 1856.64 4540.05 1856.17 4545.25 1855.7 4550.46 1855.21 4555.66 1854.7 4560.87 1854.2 4566.07 1853.67 4571.28 1853.12 4576.48 1852.57 4581.69 1852 4586.89 1851.41 4592.1 1850.81 4597.3 1850.2 4602.51 1849.56 4607.72 1848.92 4612.92 1848.26 4618.13 1847.57 4623.33 1846.88 4628.54 1846.17 4633.74 1845.44 4638.95 1844.71 4644.15 1843.95 4649.36 1843.17 4654.56 1842.39 4659.77 1841.59 4664.97 1840.77 4670.18 1839.94 4675.39 1839.09 4680.59 1838.23 4685.8 1837.36 4691 1836.47 4696.21 1835.56 4701.41 1834.66 4706.62 1833.73 4711.82 1832.79 4717.03 1831.85 4722.23 1830.9 4727.44 1829.93 4732.64 1828.97 4737.85 1827.99 4743.06 1827 4748.26 1826.02 4753.47 1825.02 4758.67 1824.03 4763.88 1823.03 4769.08 1822.03 4774.29 1821.04 4779.49 1820.04 4784.7 1819.05 4789.9 1818.06 4795.11 1817.07 4800.31 1816.09 4805.52 1815.11 4810.73 1814.14 4815.93 1813.18 4821.14 1812.23 4826.34 1811.28 4831.55 1810.35 4836.75 1809.43 4841.96 1808.51 4847.16 1807.6 4852.37 1806.71 4857.57 1805.82 4862.78 1804.95 4867.98 1804.09 4873.19 1803.23 4878.4 1802.39 4883.6 1801.56 4888.81 1800.74 4894.01 1799.92 4899.22 1799.12 4904.42 1798.32 4909.63 1797.54 4914.83 1796.76 4920.04 1795.98 4925.24 1795.22 4930.45 1794.46 4935.65 1793.69 4940.86 1792.94 4946.07 1792.2 4951.27 1791.45 4956.48 1790.71 4961.68 1789.98 4966.89 1789.24 4972.09 1788.51 4977.3 1787.79 4982.5 1787.06 4987.71 1786.34 4992.91 1785.63 4998.12 1784.91 5003.32 1784.21 5008.53 1783.51 5013.74 1782.82 5018.94 1782.13 5024.15 1781.46 5029.35 1780.79 5034.56 1780.13 5039.76 1779.51 5044.97 1778.88 5050.17 1778.26 5055.38 1777.69 5060.58 1777.12 5065.79 1776.57 5071 1776.09 5076.2 1775.6 5081.41 1775.14 5086.61 1774.77 5091.82 1774.39 5097.02 1774.06 5102.23 1773.86 5107.43 1773.66 5112.64 1773.5 5117.84 1773.56 5123.05 1773.61 5128.25 1773.72 5133.46 1774.19 5138.67 1774.67 5143.87 1775.16 5149.08 1776.41 5154.28 1777.67 5159.49 1778.73 5164.69 1781.7 5169.9 1784.67 5175.1 1786.28 5180.31 1794.22 5184.97 1801.34 5191.26 1810.71 5195.92 1829.36 5201.13 1850.17 5206.33 1893.75 5211.54 1919.1 5216.75 1944.45 5221.95 1966.6 5227.16 1981.45 5228.52 1985.35 5241.41 1992.78 5242.77 2008.22 5247.98 2067 5253.18 2255.73 5258.39 2334.14 5263.2 2406.65 5269.19 2476.03 5274 2478.65 5279.21 2481.49 5284.42 2378.09 5289.62 2351.14 5293.18 2332.71 5301.68 2321.59 5305.24 2317 5310.38 2310.37 5315.71 2312.23 5320.85 2310.89 5326.06 2309.53 5331.26 2309.35 5336.47 2308.86 5341.67 2308.37 5346.88 2308.18 5352.09 2307.95 5357.29 2307.72 5362.5 2307.6 5367.7 2307.48 5372.91 2307.35 5378.11 2307.28 5383.32 2307.22 5388.52 2307.16 5393.73 2307.12 5398.93 2307.11 5404.14 2307.1 5409.34 2307.09 5414.55 2307.18 5419.76 2307.27 5424.96 2307.08 5430.17 2307.65 5434.94 2308.18 5441 2304.25 5445.78 2310.6 5450.99 2317.52 5456.19 2349.15 5461.4 2349.16 5466.6 2349.17 5471.81 2316.58 5477.02 2310.69 5478.31 2309.22 5491.33 2305.91 5492.63 2313.77 5497.84 2345.29 5503.04 2455.86 5508.25 2499.83 5512.91 2539.23 5519.2 2564.64 5523.86 2577.63 5526.93 2586.18 5536.41 2585.81 5539.48 2586.88 5544.69 2588.7 5549.89 2588.16 5555.1 2588.56 5560.3 2588.96 5565.51 2589.08 5570.71 2589.26 5575.92 2589.43 5581.12 2589.53 5586.33 2589.62 5591.53 2589.71 5596.74 2590.19 5601.94 2589.81 5607.15 2589.43 5612.35 2587.29 5617.56 2587.32 5622.77 2587.36 5627.97 2589.56 5633.18 2590.03 5638.38 2590.5 5643.59 2590.11 5648.79 2590.14 5654 2590.17 5659.2 2590.18 5664.41 2590.19 5669.61 2590.21 5674.82 2590.22 5680.02 2590.23 5685.23 2590.24 5690.44 2590.25 5695.64 2590.25 5700.85 2590.26 5706.05 2590.27 5711.26 2590.27 5716.46 2590.28 5721.67 2590.28 5726.87 2590.29 5732.08 2590.29 5737.28 2590.29 5742.49 2590.3 5747.7 2590.3 5752.9 2590.3 5758.11 2590.31 5763.31 2590.31 5768.52 2590.31 5773.72 2590.31 5778.93 2590.32 5784.13 2590.32 5789.34 2590.32 5794.54 2590.32 5799.75 2590.33 5804.95 2590.33 5810.16 2590.33 5815.37 2590.33 5820.57 2590.33 5825.78 2590.34 5830.98 2590.34 5836.19 2590.34 5841.39 2590.34 5846.6 2590.34 5851.8 2590.34 5857.01 2590.35 5862.21 2590.35 5867.42 2590.35 5872.62 2590.35 5877.83 2590.35 5883.04 2590.36 5888.24 2590.36 5893.45 2590.36 5898.65 2590.36 5903.86 2590.37 5909.06 2590.37 5914.27 2590.37 5919.47 2590.37 5924.68 2590.37 5929.88 2590.38 5935.09 2590.38 5940.29 2590.38 5945.5 2590.39" stroke="#A5A5A5" stroke-width="9.16667" stroke-linecap="round" stroke-linejoin="round" stroke-miterlimit="10" fill="none"/></g><g><path d="M4399.5 1865.46C4404.71 1865.24 4409.91 1865.03 4415.12 1864.79 4420.32 1864.56 4425.53 1864.32 4430.73 1864.06 4435.94 1863.81 4441.14 1863.54 4446.35 1863.26 4451.55 1862.98 4456.76 1862.69 4461.96 1862.38 4467.17 1862.08 4472.38 1861.76 4477.58 1861.42 4482.79 1861.09 4487.99 1860.74 4493.2 1860.38 4498.4 1860.01 4503.61 1859.63 4508.81 1859.23 4514.02 1858.83 4519.22 1858.42 4524.43 1857.99 4529.63 1857.55 4534.84 1857.1 4540.05 1856.63 4545.25 1856.16 4550.46 1855.67 4555.66 1855.16 4560.87 1854.65 4566.07 1854.12 4571.28 1853.56 4576.48 1853.01 4581.69 1852.43 4586.89 1851.83 4592.1 1851.23 4597.3 1850.61 4602.51 1849.97 4607.72 1849.32 4612.92 1848.66 4618.13 1847.96 4623.33 1847.27 4628.54 1846.55 4633.74 1845.81 4638.95 1845.07 4644.15 1844.31 4649.36 1843.52 4654.56 1842.73 4659.77 1841.92 4664.97 1841.08 4670.18 1840.25 4675.39 1839.39 4680.59 1838.51 4685.8 1837.63 4691 1836.73 4696.21 1835.81 4701.41 1834.89 4706.62 1833.95 4711.82 1833 4717.03 1832.05 4722.23 1831.07 4727.44 1830.09 4732.64 1829.11 4737.85 1828.11 4743.06 1827.11 4748.26 1826.1 4753.47 1825.09 4758.67 1824.07 4763.88 1823.06 4769.08 1822.03 4774.29 1821.01 4779.49 1820 4784.7 1818.97 4789.9 1817.96 4795.11 1816.95 4800.31 1815.94 4805.52 1814.94 4810.73 1813.94 4815.93 1812.95 4821.14 1811.98 4826.34 1811 4831.55 1810.04 4836.75 1809.09 4841.96 1808.14 4847.16 1807.21 4852.37 1806.29 4857.57 1805.38 4862.78 1804.48 4867.98 1803.6 4873.19 1802.71 4878.4 1801.85 4883.6 1801 4888.81 1800.15 4894.01 1799.31 4899.22 1798.49 4904.42 1797.67 4909.63 1796.87 4914.83 1796.07 4920.04 1795.28 4925.24 1794.49 4930.45 1793.72 4935.65 1792.94 4940.86 1792.18 4946.07 1791.43 4951.27 1790.67 4956.48 1789.92 4961.68 1789.18 4966.89 1788.43 4972.09 1787.7 4977.3 1786.97 4982.5 1786.24 4987.71 1785.52 4992.91 1784.8 4998.12 1784.09 5003.32 1783.38 5008.53 1782.68 5013.74 1781.99 5018.94 1781.3 5024.15 1780.63 5029.35 1779.96 5034.56 1779.3 5039.76 1778.68 5044.97 1778.05 5050.17 1777.43 5055.38 1776.86 5060.58 1776.29 5065.79 1775.73 5071 1775.24 5076.2 1774.74 5081.41 1774.27 5086.61 1773.88 5091.82 1773.5 5097.02 1773.15 5102.23 1772.92 5107.43 1772.69 5112.64 1772.5 5117.84 1772.5 5123.05 1772.51 5128.25 1772.56 5133.46 1772.94 5138.67 1773.33 5143.87 1773.74 5149.08 1774.8 5154.28 1775.86 5159.49 1776.8 5164.69 1779.32 5169.9 1781.85 5175.1 1783.32 5180.31 1789.96 5184.7 1795.56 5191.53 1803.18 5195.92 1819.13 5201.13 1838.03 5206.33 1877.09 5211.54 1903.32 5216.75 1929.55 5221.95 1959.24 5227.16 1976.52 5228.61 1981.33 5241.32 1989.94 5242.77 2007 5247.98 2068.26 5253.18 2266.65 5258.39 2344.06 5262.7 2408.11 5269.7 2471.73 5274 2471.5 5279.21 2471.23 5284.42 2368.32 5289.62 2342.41 5292.64 2327.39 5302.22 2319.1 5305.24 2316.04 5310.44 2310.76 5315.65 2311.91 5320.85 2310.72 5326.06 2309.52 5331.26 2309.31 5336.47 2308.86 5341.67 2308.41 5346.88 2308.23 5352.09 2308.01 5357.29 2307.79 5362.5 2307.67 5367.7 2307.55 5372.91 2307.43 5378.11 2307.36 5383.32 2307.3 5388.52 2307.24 5393.73 2307.2 5398.93 2307.2 5404.14 2307.2 5409.34 2307.18 5414.55 2307.29 5419.76 2307.4 5424.96 2307.02 5430.17 2307.85 5435.37 2308.69 5440.58 2309.41 5445.78 2312.32 5450.99 2315.24 5456.19 2325.68 5461.4 2325.35 5466.6 2325.01 5471.81 2312.26 5477.02 2310.32 5478.32 2309.84 5491.33 2305.86 5492.63 2313.74 5497.84 2345.15 5503.04 2454.81 5508.25 2498.81 5512.97 2538.76 5519.14 2564.44 5523.86 2577.73 5526.88 2586.2 5536.47 2585.64 5539.48 2586.66 5544.69 2588.43 5549.89 2587.94 5555.1 2588.33 5560.3 2588.72 5565.51 2588.85 5570.71 2589.02 5575.92 2589.2 5581.12 2589.3 5586.33 2589.39 5591.53 2589.48 5596.74 2590.19 5601.94 2589.58 5607.15 2588.96 5612.35 2585.68 5617.56 2585.72 5622.77 2585.76 5627.97 2589.1 5633.18 2589.8 5638.38 2590.5 5643.59 2589.88 5648.79 2589.91 5654 2589.93 5659.2 2589.94 5664.41 2589.96 5669.61 2589.97 5674.82 2589.98 5680.02 2589.99 5685.23 2590 5690.44 2590.01 5695.64 2590.02 5700.85 2590.03 5706.05 2590.03 5711.26 2590.04 5716.46 2590.04 5721.67 2590.05 5726.87 2590.05 5732.08 2590.06 5737.28 2590.06 5742.49 2590.06 5747.7 2590.07 5752.9 2590.07 5758.11 2590.07 5763.31 2590.08 5768.52 2590.08 5773.72 2590.08 5778.93 2590.08 5784.13 2590.09 5789.34 2590.09 5794.54 2590.09 5799.75 2590.09 5804.95 2590.09 5810.16 2590.1 5815.37 2590.1 5820.57 2590.1 5825.78 2590.1 5830.98 2590.1 5836.19 2590.11 5841.39 2590.11 5846.6 2590.11 5851.8 2590.11 5857.01 2590.11 5862.21 2590.12 5867.42 2590.12 5872.62 2590.12 5877.83 2590.12 5883.04 2590.12 5888.24 2590.13 5893.45 2590.13 5898.65 2590.13 5903.86 2590.13 5909.06 2590.13 5914.27 2590.14 5919.47 2590.14 5924.68 2590.14 5929.88 2590.14 5935.09 2590.15 5940.29 2590.15 5945.5 2590.15" stroke="#FFC000" stroke-width="9.16667" stroke-linecap="round" stroke-linejoin="round" stroke-miterlimit="10" fill="none"/></g><g><path d="M4399.5 1865.56C4404.71 1865.34 4409.91 1865.12 4415.12 1864.89 4420.32 1864.65 4425.53 1864.41 4430.73 1864.15 4435.94 1863.89 4441.14 1863.63 4446.35 1863.35 4451.55 1863.06 4456.76 1862.77 4461.96 1862.46 4467.17 1862.16 4472.38 1861.84 4477.58 1861.5 4482.79 1861.16 4487.99 1860.81 4493.2 1860.45 4498.4 1860.08 4503.61 1859.7 4508.81 1859.3 4514.02 1858.9 4519.22 1858.48 4524.43 1858.05 4529.63 1857.61 4534.84 1857.16 4540.05 1856.68 4545.25 1856.21 4550.46 1855.72 4555.66 1855.2 4560.87 1854.69 4566.07 1854.15 4571.28 1853.6 4576.48 1853.04 4581.69 1852.46 4586.89 1851.86 4592.1 1851.25 4597.3 1850.63 4602.51 1849.98 4607.72 1849.33 4612.92 1848.66 4618.13 1847.96 4623.33 1847.26 4628.54 1846.54 4633.74 1845.8 4638.95 1845.05 4644.15 1844.28 4649.36 1843.49 4654.56 1842.69 4659.77 1841.87 4664.97 1841.03 4670.18 1840.19 4675.39 1839.32 4680.59 1838.44 4685.8 1837.55 4691 1836.64 4696.21 1835.71 4701.41 1834.78 4706.62 1833.83 4711.82 1832.87 4717.03 1831.9 4722.23 1830.92 4727.44 1829.93 4732.64 1828.93 4737.85 1827.92 4743.06 1826.91 4748.26 1825.89 4753.47 1824.86 4758.67 1823.83 4763.88 1822.8 4769.08 1821.76 4774.29 1820.73 4779.49 1819.7 4784.7 1818.66 4789.9 1817.63 4795.11 1816.6 4800.31 1815.58 4805.52 1814.56 4810.73 1813.55 4815.93 1812.54 4821.14 1811.55 4826.34 1810.55 4831.55 1809.57 4836.75 1808.61 4841.96 1807.64 4847.16 1806.69 4852.37 1805.76 4857.57 1804.83 4862.78 1803.91 4867.98 1803.01 4873.19 1802.11 4878.4 1801.23 4883.6 1800.36 4888.81 1799.5 4894.01 1798.65 4899.22 1797.82 4904.42 1796.98 4909.63 1796.16 4914.83 1795.35 4920.04 1794.55 4925.24 1793.75 4930.45 1792.97 4935.65 1792.18 4940.86 1791.41 4946.07 1790.65 4951.27 1789.88 4956.48 1789.12 4961.68 1788.38 4966.89 1787.63 4972.09 1786.89 4977.3 1786.15 4982.5 1785.42 4987.71 1784.69 4992.91 1783.97 4998.12 1783.25 5003.32 1782.54 5008.53 1781.84 5013.74 1781.15 5018.94 1780.46 5024.15 1779.79 5029.35 1779.12 5034.56 1778.46 5039.76 1777.83 5044.97 1777.2 5050.17 1776.58 5055.38 1776.01 5060.58 1775.43 5065.79 1774.87 5071 1774.37 5076.2 1773.87 5081.41 1773.39 5086.61 1773 5091.82 1772.6 5097.02 1772.24 5102.23 1772 5107.43 1771.75 5112.64 1771.55 5117.84 1771.52 5123.05 1771.5 5128.25 1771.52 5133.46 1771.86 5138.67 1772.19 5143.87 1772.55 5149.08 1773.51 5154.28 1774.47 5159.49 1775.34 5164.69 1777.63 5169.9 1779.93 5175.1 1781.33 5180.31 1787.29 5184.63 1792.23 5191.61 1798.79 5195.92 1813.36 5201.13 1830.93 5206.33 1866.1 5211.54 1892.68 5216.75 1919.27 5221.95 1953.97 5227.16 1972.87 5228.66 1978.33 5241.27 1987.79 5242.77 2006.08 5247.98 2069.34 5253.18 2275.91 5258.39 2352.42 5262.25 2409.18 5270.14 2466.8 5274 2465.12 5279.21 2462.85 5284.42 2363.65 5289.62 2338.8 5292.45 2325.29 5302.41 2318.54 5305.24 2316.03 5310.44 2311.42 5315.65 2312.23 5320.85 2311.12 5326.06 2310 5331.26 2309.78 5336.47 2309.35 5341.67 2308.92 5346.88 2308.74 5352.09 2308.53 5357.29 2308.32 5362.5 2308.2 5367.7 2308.08 5372.91 2307.97 5378.11 2307.89 5383.32 2307.83 5388.52 2307.78 5393.73 2307.74 5398.93 2307.74 5404.14 2307.74 5409.34 2307.72 5414.55 2307.84 5419.76 2307.96 5424.96 2307.38 5430.17 2308.47 5435.37 2309.57 5440.58 2312.52 5445.78 2314.41 5450.99 2316.3 5456.19 2320.47 5461.4 2319.84 5466.6 2319.22 5471.81 2311.6 5477.02 2310.67 5478.33 2310.43 5491.32 2306.33 5492.63 2314.23 5497.84 2345.62 5503.04 2454.93 5508.25 2499.01 5513.01 2539.32 5519.1 2565.2 5523.86 2578.68 5526.85 2587.13 5536.5 2586.47 5539.48 2587.46 5544.69 2589.2 5549.89 2588.73 5555.1 2589.13 5560.3 2589.52 5565.51 2589.65 5570.71 2589.82 5575.92 2590 5581.12 2590.09 5586.33 2590.18 5591.53 2590.28 5596.74 2591.18 5601.94 2590.37 5607.15 2589.56 5612.35 2585.27 5617.56 2585.31 5622.77 2585.35 5627.97 2589.7 5633.18 2590.6 5638.38 2591.5 5643.59 2590.68 5648.79 2590.71 5654 2590.73 5659.2 2590.74 5664.41 2590.76 5669.61 2590.77 5674.82 2590.78 5680.02 2590.79 5685.23 2590.8 5690.44 2590.81 5695.64 2590.82 5700.85 2590.82 5706.05 2590.83 5711.26 2590.84 5716.46 2590.84 5721.67 2590.85 5726.87 2590.85 5732.08 2590.86 5737.28 2590.86 5742.49 2590.86 5747.7 2590.87 5752.9 2590.87 5758.11 2590.87 5763.31 2590.87 5768.52 2590.88 5773.72 2590.88 5778.93 2590.88 5784.13 2590.88 5789.34 2590.89 5794.54 2590.89 5799.75 2590.89 5804.95 2590.89 5810.16 2590.89 5815.37 2590.9 5820.57 2590.9 5825.78 2590.9 5830.98 2590.9 5836.19 2590.9 5841.39 2590.91 5846.6 2590.91 5851.8 2590.91 5857.01 2590.91 5862.21 2590.91 5867.42 2590.92 5872.62 2590.92 5877.83 2590.92 5883.04 2590.92 5888.24 2590.92 5893.45 2590.93 5898.65 2590.93 5903.86 2590.93 5909.06 2590.93 5914.27 2590.93 5919.47 2590.94 5924.68 2590.94 5929.88 2590.94 5935.09 2590.94 5940.29 2590.95 5945.5 2590.95" stroke="#5B9BD5" stroke-width="9.16667" stroke-linecap="round" stroke-linejoin="round" stroke-miterlimit="10" fill="none"/></g><g><text font-family="Calibri,Calibri_MSFontService,sans-serif" font-weight="400" font-size="64" transform="matrix(1 0 0 1 4222.91 2626)">-300</text></g><g><text font-family="Calibri,Calibri_MSFontService,sans-serif" font-weight="400" font-size="64" transform="matrix(1 0 0 1 4222.91 2466)">-200</text></g><g><text font-family="Calibri,Calibri_MSFontService,sans-serif" font-weight="400" font-size="64" transform="matrix(1 0 0 1 4222.91 2307)">-100</text></g><g><text font-family="Calibri,Calibri_MSFontService,sans-serif" font-weight="400" font-size="64" transform="matrix(1 0 0 1 4307.58 2147)">0</text></g><g><text font-family="Calibri,Calibri_MSFontService,sans-serif" font-weight="400" font-size="64" transform="matrix(1 0 0 1 4242.55 1987)">100</text></g><g><text font-family="Calibri,Calibri_MSFontService,sans-serif" font-weight="400" font-size="64" transform="matrix(1 0 0 1 4242.55 1828)">200</text></g><g><text font-family="Calibri,Calibri_MSFontService,sans-serif" font-weight="400" font-size="64" transform="matrix(1 0 0 1 4242.55 1668)">300</text></g><g><text font-family="Calibri,Calibri_MSFontService,sans-serif" font-weight="400" font-size="64" transform="matrix(1 0 0 1 4367.11 2709)">10</text></g><g><text font-family="Calibri,Calibri_MSFontService,sans-serif" font-weight="400" font-size="64" transform="matrix(1 0 0 1 4737.34 2709)">100</text></g><g><text font-family="Calibri,Calibri_MSFontService,sans-serif" font-weight="400" font-size="64" transform="matrix(1 0 0 1 5107.56 2709)">1000</text></g><g><text font-family="Calibri,Calibri_MSFontService,sans-serif" font-weight="400" font-size="64" transform="matrix(1 0 0 1 5477.79 2709)">10000</text></g><g><text font-family="Calibri,Calibri_MSFontService,sans-serif" font-weight="400" font-size="64" transform="matrix(1 0 0 1 5848.01 2709)">100000</text></g><g><text font-family="Calibri,Calibri_MSFontService,sans-serif" font-weight="700" font-size="64" transform="matrix(6.12323e-17 -1 1 6.12323e-17 4191.83 2327)">Phase (degree)</text></g><g><text font-family="Calibri,Calibri_MSFontService,sans-serif" font-weight="700" font-size="64" transform="matrix(1 0 0 1 4974 2801)">Frequency (Hz)</text></g><rect x="4088.5" y="1589.5" width="1983" height="1281" stroke="#D9D9D9" stroke-width="3.4375" stroke-linejoin="round" stroke-miterlimit="10" fill="none"/><g><text fill="#FF0000" font-family="Calibri,Calibri_MSFontService,sans-serif" font-weight="700" font-size="73" transform="matrix(1 0 0 1 5433.92 1757)">Increasing</text></g><g><text fill="#FF0000" font-family="Calibri,Calibri_MSFontService,sans-serif" font-weight="700" font-size="73" transform="matrix(1 0 0 1 5406.3 1846)">Load (Z</text></g><g><text fill="#FF0000" font-family="Calibri,Calibri_MSFontService,sans-serif" font-weight="700" font-size="49" transform="matrix(1 0 0 1 5626.76 1863)">Load3</text></g><g><text fill="#FF0000" font-family="Calibri,Calibri_MSFontService,sans-serif" font-weight="700" font-size="73" transform="matrix(1 0 0 1 5748.86 1846)">)</text></g><g><text fill="#FF0000" font-family="Calibri,Calibri_MSFontService,sans-serif" font-weight="700" font-size="73" transform="matrix(1 0 0 1 5271.85 1936)">Z1</text></g><g><text fill="#FF0000" font-family="Calibri,Calibri_MSFontService,sans-serif" font-weight="700" font-size="73" transform="matrix(1 0 0 1 5355.13 1936)">&lt; </text></g><g><text fill="#FF0000" font-family="Calibri,Calibri_MSFontService,sans-serif" font-weight="700" font-size="73" transform="matrix(1 0 0 1 5408.23 1936)">Z2</text></g><g><text fill="#FF0000" font-family="Calibri,Calibri_MSFontService,sans-serif" font-weight="700" font-size="73" transform="matrix(1 0 0 1 5508.08 1936)">&lt; Z3</text></g><g><text fill="#FF0000" font-family="Calibri,Calibri_MSFontService,sans-serif" font-weight="700" font-size="73" transform="matrix(1 0 0 1 5644.45 1936)">&lt; Z4</text></g><g><text fill="#FF0000" font-family="Calibri,Calibri_MSFontService,sans-serif" font-weight="700" font-size="73" transform="matrix(1 0 0 1 5780.83 1936)">&lt; Z5</text></g><g><path d="M1.60533-3.03963 204.096 103.902 200.885 109.982-1.60533 3.03963ZM204.859 92.6429 222.755 117.644 192.016 116.96Z" fill="#7F7F7F" transform="matrix(1 0 0 -1 5112.5 1927.14)"/></g></g></svg>