<svg width="1983" height="2823" xmlns="http://www.w3.org/2000/svg" xmlns:xlink="http://www.w3.org/1999/xlink" xml:space="preserve" overflow="hidden"><defs><clipPath id="clip0"><rect x="6084" y="48" width="1983" height="2823"/></clipPath></defs><g clip-path="url(#clip0)" transform="translate(-6084 -48)"><rect x="6085" y="1564" width="1980" height="1305" fill="#FFFFFF"/><g><path d="M6372.5 2607.5 7939.5 2607.5M6372.5 2445.5 7939.5 2445.5M6372.5 2283.5 7939.5 2283.5M6372.5 1959.5 7939.5 1959.5M6372.5 1797.5 7939.5 1797.5M6372.5 1635.5 7939.5 1635.5" stroke="#D9D9D9" stroke-width="3.4375" stroke-linejoin="round" stroke-miterlimit="10" fill="none"/></g><g><path d="M6490.5 1635.5 6490.5 2607.5M6559.5 1635.5 6559.5 2607.5M6608.5 1635.5 6608.5 2607.5M6646.5 1635.5 6646.5 2607.5M6677.5 1635.5 6677.5 2607.5M6703.5 1635.5 6703.5 2607.5M6726.5 1635.5 6726.5 2607.5M6746.5 1635.5 6746.5 2607.5M6881.5 1635.5 6881.5 2607.5M6951.5 1635.5 6951.5 2607.5M6999.5 1635.5 6999.5 2607.5M7037.5 1635.5 7037.5 2607.5M7069.5 1635.5 7069.5 2607.5M7095.5 1635.5 7095.5 2607.5M7117.5 1635.5 7117.5 2607.5M7138.5 1635.5 7138.5 2607.5M7273.5 1635.5 7273.5 2607.5M7342.5 1635.5 7342.5 2607.5M7391.5 1635.5 7391.5 2607.5M7429.5 1635.5 7429.5 2607.5M7460.5 1635.5 7460.5 2607.5M7487.5 1635.5 7487.5 2607.5M7509.5 1635.5 7509.5 2607.5M7529.5 1635.5 7529.5 2607.5M7665.5 1635.5 7665.5 2607.5M7734.5 1635.5 7734.5 2607.5M7783.5 1635.5 7783.5 2607.5M7821.5 1635.5 7821.5 2607.5M7852.5 1635.5 7852.5 2607.5M7879.5 1635.5 7879.5 2607.5M7901.5 1635.5 7901.5 2607.5M7921.5 1635.5 7921.5 2607.5" stroke="#F2F2F2" stroke-width="3.4375" stroke-linejoin="round" stroke-miterlimit="10" fill="none"/></g><g><path d="M6764.5 1635.5 6764.5 2607.5M7155.5 1635.5 7155.5 2607.5M7547.5 1635.5 7547.5 2607.5M7939.5 1635.5 7939.5 2607.5" stroke="#D9D9D9" stroke-width="3.4375" stroke-linejoin="round" stroke-miterlimit="10" fill="none"/></g><g><path d="M0 0 0.000360892 972" stroke="#BFBFBF" stroke-width="3.4375" stroke-linejoin="round" stroke-miterlimit="10" fill="none" fill-rule="evenodd" transform="matrix(1 0 0 -1 6372.5 2607.5)"/></g><g><path d="M6372.5 2121.5 7939.5 2121.5" stroke="#BFBFBF" stroke-width="3.4375" stroke-linejoin="round" stroke-miterlimit="10" fill="none" fill-rule="evenodd"/></g><g><path d="M6372.06 1843.37C6377.33 1843.13 6382.61 1842.91 6387.89 1842.67 6393.17 1842.42 6398.45 1842.17 6403.73 1841.9 6409.01 1841.63 6414.29 1841.35 6419.56 1841.06 6424.84 1840.77 6430.12 1840.46 6435.4 1840.14 6440.68 1839.82 6445.96 1839.48 6451.24 1839.13 6456.52 1838.78 6461.79 1838.42 6467.07 1838.03 6472.35 1837.65 6477.63 1837.25 6482.91 1836.83 6488.19 1836.41 6493.47 1835.97 6498.75 1835.51 6504.03 1835.06 6509.3 1834.58 6514.58 1834.08 6519.86 1833.58 6525.14 1833.06 6530.42 1832.52 6535.7 1831.97 6540.98 1831.41 6546.26 1830.81 6551.53 1830.22 6556.81 1829.61 6562.09 1828.96 6567.37 1828.32 6572.65 1827.65 6577.93 1826.95 6583.21 1826.26 6588.49 1825.53 6593.76 1824.78 6599.04 1824.03 6604.32 1823.25 6609.6 1822.43 6614.88 1821.62 6620.16 1820.78 6625.44 1819.91 6630.72 1819.03 6636 1818.13 6641.27 1817.19 6646.55 1816.26 6651.83 1815.29 6657.11 1814.3 6662.39 1813.3 6667.67 1812.27 6672.95 1811.21 6678.23 1810.16 6683.5 1809.07 6688.78 1807.95 6694.06 1806.83 6699.34 1805.69 6704.62 1804.52 6709.9 1803.35 6715.18 1802.14 6720.46 1800.92 6725.73 1799.7 6731.01 1798.46 6736.29 1797.2 6741.57 1795.93 6746.85 1794.65 6752.13 1793.35 6757.41 1792.05 6762.69 1790.74 6767.96 1789.42 6773.24 1788.1 6778.52 1786.76 6783.8 1785.43 6789.08 1784.09 6794.36 1782.75 6799.64 1781.41 6804.92 1780.07 6810.2 1778.73 6815.47 1777.4 6820.75 1776.07 6826.03 1774.75 6831.31 1773.43 6836.59 1772.12 6841.87 1770.82 6847.15 1769.53 6852.43 1768.25 6857.7 1766.97 6862.98 1765.72 6868.26 1764.47 6873.54 1763.24 6878.82 1762.03 6884.1 1760.81 6889.38 1759.62 6894.66 1758.46 6899.94 1757.29 6905.21 1756.14 6910.49 1755.03 6915.77 1753.91 6921.05 1752.81 6926.33 1751.74 6931.61 1750.67 6936.89 1749.63 6942.17 1748.61 6947.44 1747.58 6952.72 1746.59 6958 1745.62 6963.28 1744.65 6968.56 1743.71 6973.84 1742.79 6979.12 1741.87 6984.4 1740.97 6989.67 1740.11 6994.95 1739.24 7000.23 1738.39 7005.51 1737.57 7010.79 1736.75 7016.07 1735.96 7021.35 1735.19 7026.63 1734.42 7031.91 1733.67 7037.18 1732.95 7042.46 1732.23 7047.74 1731.53 7053.02 1730.86 7058.3 1730.18 7063.58 1729.53 7068.86 1728.91 7074.14 1728.28 7079.41 1727.68 7084.69 1727.1 7089.97 1726.52 7095.25 1725.97 7100.53 1725.43 7105.81 1724.9 7111.09 1724.39 7116.37 1723.91 7121.64 1723.42 7126.92 1722.96 7132.2 1722.51 7137.48 1722.07 7142.76 1721.66 7148.04 1721.26 7153.32 1720.87 7158.6 1720.49 7163.88 1720.14 7169.15 1719.8 7174.43 1719.47 7179.71 1719.17 7184.99 1718.88 7190.27 1718.6 7195.55 1718.36 7200.83 1718.12 7206.11 1717.9 7211.38 1717.73 7216.66 1717.56 7221.94 1717.41 7227.22 1717.34 7232.5 1717.27 7237.78 1717.21 7243.06 1717.32 7248.34 1717.42 7253.61 1717.48 7258.89 1717.96 7264.17 1718.45 7269.45 1718.48 7274.73 1720.24 7278.6 1721.53 7286.7 1720.46 7290.57 1728.52 7292.19 1731.91 7304.77 1756.33 7306.4 1786.19 7311.68 1883 7316.96 2224.46 7322.24 2309.36 7322.89 2319.84 7337.42 2295.92 7338.08 2295.58 7343.35 2292.83 7348.63 2293.42 7353.91 2292.84 7359.19 2292.26 7364.47 2292.26 7369.75 2292.09 7375.03 2291.92 7380.31 2291.88 7385.58 2291.84 7390.86 2291.8 7396.14 2291.78 7401.42 2291.84 7406.7 2291.9 7411.98 2291.78 7417.26 2292.19 7421.78 2292.55 7428.57 2287.74 7433.09 2294.33 7438.37 2302.01 7443.65 2338.11 7448.93 2338.29 7454.21 2338.48 7459.49 2302.04 7464.77 2295.42 7466.09 2293.76 7479.28 2290.62 7480.6 2298.58 7485.88 2330.41 7491.16 2441.81 7496.44 2486.37 7501.21 2526.66 7507.5 2552.52 7512.28 2565.96 7515.37 2574.68 7525.01 2574.45 7528.11 2575.55 7533.39 2577.44 7538.67 2576.86 7543.95 2577.27 7549.23 2577.67 7554.51 2577.8 7559.79 2577.98 7565.06 2578.16 7570.34 2578.25 7575.62 2578.35 7580.9 2578.44 7586.18 2578.93 7591.46 2578.54 7596.74 2578.15 7602.02 2575.98 7607.29 2576.02 7612.57 2576.06 7617.85 2578.29 7623.13 2578.77 7628.41 2579.24 7633.69 2578.85 7638.97 2578.88 7644.25 2578.9 7649.52 2578.92 7654.8 2578.93 7660.08 2578.95 7665.36 2578.96 7670.64 2578.97 7675.92 2578.98 7681.2 2578.98 7686.48 2578.99 7691.75 2579 7697.03 2579.01 7702.31 2579.01 7707.59 2579.02 7712.87 2579.02 7718.15 2579.03 7723.43 2579.03 7728.71 2579.03 7733.99 2579.04 7739.26 2579.04 7744.54 2579.04 7749.82 2579.05 7755.1 2579.05 7760.38 2579.05 7765.66 2579.05 7770.94 2579.06 7776.22 2579.06 7781.49 2579.06 7786.77 2579.06 7792.05 2579.07 7797.33 2579.07 7802.61 2579.07 7807.89 2579.07 7813.17 2579.07 7818.45 2579.08 7823.72 2579.08 7829 2579.08 7834.28 2579.08 7839.56 2579.08 7844.84 2579.09 7850.12 2579.09 7855.4 2579.09 7860.68 2579.09 7865.96 2579.09 7871.23 2579.1 7876.51 2579.1 7881.79 2579.1 7887.07 2579.1 7892.35 2579.1 7897.63 2579.11 7902.91 2579.11 7908.19 2579.11 7913.46 2579.11 7918.74 2579.12 7924.02 2579.12 7929.3 2579.12 7937.22 2579.12 7939.86 2579.13" stroke="#4472C4" stroke-width="9.16667" stroke-linecap="round" stroke-linejoin="round" stroke-miterlimit="10" fill="none"/></g><g><path d="M6372.06 1843.48C6377.33 1843.25 6382.61 1843.03 6387.89 1842.79 6393.17 1842.55 6398.45 1842.3 6403.73 1842.04 6409.01 1841.77 6414.29 1841.5 6419.56 1841.21 6424.84 1840.92 6430.12 1840.62 6435.4 1840.31 6440.68 1839.99 6445.96 1839.66 6451.24 1839.32 6456.52 1838.97 6461.79 1838.62 6467.07 1838.24 6472.35 1837.86 6477.63 1837.47 6482.91 1837.06 6488.19 1836.65 6493.47 1836.22 6498.75 1835.77 6504.03 1835.32 6509.3 1834.86 6514.58 1834.37 6519.86 1833.88 6525.14 1833.37 6530.42 1832.84 6535.7 1832.31 6540.98 1831.76 6546.26 1831.18 6551.53 1830.6 6556.81 1830 6562.09 1829.38 6567.37 1828.75 6572.65 1828.1 6577.93 1827.43 6583.21 1826.75 6588.49 1826.05 6593.76 1825.32 6599.04 1824.59 6604.32 1823.84 6609.6 1823.06 6614.88 1822.27 6620.16 1821.46 6625.44 1820.62 6630.72 1819.79 6636 1818.92 6641.27 1818.03 6646.55 1817.13 6651.83 1816.21 6657.11 1815.26 6662.39 1814.32 6667.67 1813.34 6672.95 1812.34 6678.23 1811.34 6683.5 1810.31 6688.78 1809.27 6694.06 1808.22 6699.34 1807.14 6704.62 1806.05 6709.9 1804.96 6715.18 1803.85 6720.46 1802.72 6725.73 1801.59 6731.01 1800.44 6736.29 1799.28 6741.57 1798.13 6746.85 1796.95 6752.13 1795.78 6757.41 1794.6 6762.69 1793.41 6767.96 1792.22 6773.24 1791.03 6778.52 1789.83 6783.8 1788.64 6789.08 1787.45 6794.36 1786.26 6799.64 1785.08 6804.92 1783.9 6810.2 1782.72 6815.47 1781.55 6820.75 1780.38 6826.03 1779.22 6831.31 1778.08 6836.59 1776.93 6841.87 1775.8 6847.15 1774.68 6852.43 1773.56 6857.7 1772.46 6862.98 1771.37 6868.26 1770.29 6873.54 1769.22 6878.82 1768.16 6884.1 1767.11 6889.38 1766.07 6894.66 1765.05 6899.94 1764.02 6905.21 1763.02 6910.49 1762.03 6915.77 1761.03 6921.05 1760.06 6926.33 1759.1 6931.61 1758.14 6936.89 1757.19 6942.17 1756.26 6947.44 1755.33 6952.72 1754.41 6958 1753.51 6963.28 1752.6 6968.56 1751.71 6973.84 1750.84 6979.12 1749.97 6984.4 1749.11 6989.67 1748.26 6994.95 1747.42 7000.23 1746.59 7005.51 1745.78 7010.79 1744.97 7016.07 1744.18 7021.35 1743.41 7026.63 1742.63 7031.91 1741.88 7037.18 1741.15 7042.46 1740.42 7047.74 1739.7 7053.02 1739.02 7058.3 1738.34 7063.58 1737.68 7068.86 1737.04 7074.14 1736.41 7079.41 1735.81 7084.69 1735.24 7089.97 1734.67 7095.25 1734.13 7100.53 1733.63 7105.81 1733.13 7111.09 1732.66 7116.37 1732.24 7121.64 1731.83 7126.92 1731.45 7132.2 1731.14 7137.48 1730.83 7142.76 1730.56 7148.04 1730.4 7153.32 1730.24 7158.6 1730.11 7163.88 1730.16 7169.15 1730.22 7174.43 1730.29 7179.71 1730.73 7184.99 1731.16 7190.27 1731.51 7195.55 1732.77 7200.83 1734.03 7206.11 1734.37 7211.38 1738.3 7214.28 1740.46 7224.32 1744.69 7227.22 1756.34 7232.5 1777.55 7237.78 1828.83 7243.06 1865.58 7246.2 1887.47 7255.75 1920.72 7258.89 1976.8 7264.17 2070.94 7269.45 2370.38 7274.73 2430.37 7278.89 2477.68 7286.4 2353.89 7290.57 2336.73 7295.3 2317.22 7301.67 2306.12 7306.4 2299.82 7311.41 2293.15 7317.23 2295.66 7322.24 2294.58 7327.52 2293.45 7332.8 2293.38 7338.08 2293.01 7343.35 2292.63 7348.63 2292.51 7353.91 2292.34 7359.19 2292.18 7364.47 2292.1 7369.75 2292.02 7375.03 2291.94 7380.31 2291.9 7385.58 2291.89 7390.86 2291.88 7396.14 2291.86 7401.42 2291.95 7406.7 2292.03 7411.98 2291.86 7417.26 2292.39 7422.01 2292.87 7428.34 2288.65 7433.09 2295.13 7438.37 2302.33 7443.65 2335.51 7448.93 2335.58 7454.21 2335.64 7459.49 2301.66 7464.77 2295.51 7466.08 2293.97 7479.29 2290.68 7480.6 2298.64 7485.88 2330.57 7491.16 2442.48 7496.44 2487.06 7501.18 2527.1 7507.53 2552.89 7512.28 2566.13 7515.38 2574.81 7525.01 2574.47 7528.11 2575.57 7533.39 2577.42 7538.67 2576.87 7543.95 2577.27 7549.23 2577.68 7554.51 2577.8 7559.79 2577.98 7565.06 2578.16 7570.34 2578.26 7575.62 2578.35 7580.9 2578.44 7586.18 2578.93 7591.46 2578.54 7596.74 2578.15 7602.02 2575.98 7607.29 2576.02 7612.57 2576.06 7617.85 2578.29 7623.13 2578.77 7628.41 2579.24 7633.69 2578.85 7638.97 2578.88 7644.25 2578.9 7649.52 2578.92 7654.8 2578.93 7660.08 2578.95 7665.36 2578.96 7670.64 2578.97 7675.92 2578.98 7681.2 2578.98 7686.48 2578.99 7691.75 2579 7697.03 2579.01 7702.31 2579.01 7707.59 2579.02 7712.87 2579.02 7718.15 2579.03 7723.43 2579.03 7728.71 2579.03 7733.99 2579.04 7739.26 2579.04 7744.54 2579.04 7749.82 2579.05 7755.1 2579.05 7760.38 2579.05 7765.66 2579.05 7770.94 2579.06 7776.22 2579.06 7781.49 2579.06 7786.77 2579.06 7792.05 2579.07 7797.33 2579.07 7802.61 2579.07 7807.89 2579.07 7813.17 2579.07 7818.45 2579.08 7823.72 2579.08 7829 2579.08 7834.28 2579.08 7839.56 2579.08 7844.84 2579.08 7850.12 2579.09 7855.4 2579.09 7860.68 2579.09 7865.96 2579.09 7871.23 2579.1 7876.51 2579.1 7881.79 2579.1 7887.07 2579.1 7892.35 2579.1 7897.63 2579.11 7902.91 2579.11 7908.19 2579.11 7913.46 2579.11 7918.74 2579.12 7924.02 2579.12 7929.3 2579.12 7937.22 2579.12 7939.86 2579.13" stroke="#ED7D31" stroke-width="9.16667" stroke-linecap="round" stroke-linejoin="round" stroke-miterlimit="10" fill="none"/></g><g><path d="M6372.06 1843.6C6377.33 1843.37 6382.61 1843.16 6387.89 1842.92 6393.17 1842.69 6398.45 1842.44 6403.73 1842.19 6409.01 1841.93 6414.29 1841.66 6419.56 1841.38 6424.84 1841.09 6430.12 1840.8 6435.4 1840.49 6440.68 1840.18 6445.96 1839.86 6451.24 1839.53 6456.52 1839.19 6461.79 1838.84 6467.07 1838.47 6472.35 1838.1 6477.63 1837.72 6482.91 1837.32 6488.19 1836.92 6493.47 1836.5 6498.75 1836.07 6504.03 1835.63 6509.3 1835.17 6514.58 1834.7 6519.86 1834.23 6525.14 1833.73 6530.42 1833.22 6535.7 1832.7 6540.98 1832.17 6546.26 1831.61 6551.53 1831.05 6556.81 1830.48 6562.09 1829.87 6567.37 1829.27 6572.65 1828.65 6577.93 1828 6583.21 1827.35 6588.49 1826.68 6593.76 1825.98 6599.04 1825.29 6604.32 1824.57 6609.6 1823.83 6614.88 1823.08 6620.16 1822.32 6625.44 1821.53 6630.72 1820.74 6636 1819.92 6641.27 1819.08 6646.55 1818.25 6651.83 1817.39 6657.11 1816.51 6662.39 1815.63 6667.67 1814.73 6672.95 1813.81 6678.23 1812.89 6683.5 1811.95 6688.78 1811 6694.06 1810.05 6699.34 1809.08 6704.62 1808.1 6709.9 1807.12 6715.18 1806.13 6720.46 1805.13 6725.73 1804.13 6731.01 1803.12 6736.29 1802.12 6741.57 1801.11 6746.85 1800.09 6752.13 1799.08 6757.41 1798.07 6762.69 1797.06 6767.96 1796.06 6773.24 1795.06 6778.52 1794.06 6783.8 1793.08 6789.08 1792.09 6794.36 1791.12 6799.64 1790.15 6804.92 1789.19 6810.2 1788.24 6815.47 1787.31 6820.75 1786.38 6826.03 1785.46 6831.31 1784.56 6836.59 1783.65 6841.87 1782.77 6847.15 1781.9 6852.43 1781.03 6857.7 1780.18 6862.98 1779.34 6868.26 1778.5 6873.54 1777.68 6878.82 1776.86 6884.1 1776.05 6889.38 1775.26 6894.66 1774.47 6899.94 1773.68 6905.21 1772.9 6910.49 1772.13 6915.77 1771.36 6921.05 1770.6 6926.33 1769.84 6931.61 1769.08 6936.89 1768.34 6942.17 1767.59 6947.44 1766.84 6952.72 1766.1 6958 1765.37 6963.28 1764.63 6968.56 1763.9 6973.84 1763.18 6979.12 1762.46 6984.4 1761.74 6989.67 1761.04 6994.95 1760.33 7000.23 1759.63 7005.51 1758.96 7010.79 1758.28 7016.07 1757.61 7021.35 1756.97 7026.63 1756.34 7031.91 1755.71 7037.18 1755.14 7042.46 1754.56 7047.74 1754 7053.02 1753.51 7058.3 1753.01 7063.58 1752.54 7068.86 1752.17 7074.14 1751.79 7079.41 1751.45 7084.69 1751.25 7089.97 1751.04 7095.25 1750.88 7100.53 1750.94 7105.81 1751 7111.09 1751.1 7116.37 1751.59 7121.64 1752.07 7126.92 1752.57 7132.2 1753.84 7137.48 1755.11 7142.76 1756.19 7148.04 1759.2 7153.32 1762.21 7158.6 1763.84 7163.88 1771.89 7168.61 1779.11 7174.98 1788.61 7179.71 1807.52 7184.99 1828.62 7190.27 1872.81 7195.55 1898.51 7200.83 1924.21 7206.11 1946.67 7211.38 1961.73 7212.77 1965.68 7225.83 1973.22 7227.22 1988.86 7232.5 2048.46 7237.78 2239.82 7243.06 2319.31 7247.94 2392.84 7254.01 2463.18 7258.89 2465.84 7264.17 2468.71 7269.45 2363.87 7274.73 2336.56 7278.34 2317.87 7286.95 2306.6 7290.57 2301.94 7295.78 2295.22 7301.19 2297.1 7306.4 2295.74 7311.68 2294.36 7316.96 2294.18 7322.24 2293.68 7327.52 2293.19 7332.8 2293 7338.08 2292.77 7343.35 2292.53 7348.63 2292.41 7353.91 2292.28 7359.19 2292.16 7364.47 2292.08 7369.75 2292.02 7375.03 2291.96 7380.31 2291.92 7385.58 2291.91 7390.86 2291.91 7396.14 2291.89 7401.42 2291.99 7406.7 2292.08 7411.98 2291.89 7417.26 2292.46 7422.1 2292.99 7428.25 2289.01 7433.09 2295.45 7438.37 2302.46 7443.65 2334.53 7448.93 2334.55 7454.21 2334.56 7459.49 2301.52 7464.77 2295.54 7466.08 2294.05 7479.29 2290.7 7480.6 2298.66 7485.88 2330.62 7491.16 2442.73 7496.44 2487.32 7501.17 2527.26 7507.55 2553.02 7512.28 2566.2 7515.38 2574.86 7525 2574.48 7528.11 2575.57 7533.39 2577.42 7538.67 2576.87 7543.95 2577.27 7549.23 2577.68 7554.51 2577.8 7559.79 2577.98 7565.06 2578.16 7570.34 2578.26 7575.62 2578.35 7580.9 2578.44 7586.18 2578.93 7591.46 2578.54 7596.74 2578.15 7602.02 2575.98 7607.29 2576.02 7612.57 2576.06 7617.85 2578.29 7623.13 2578.77 7628.41 2579.24 7633.69 2578.85 7638.97 2578.88 7644.25 2578.9 7649.52 2578.92 7654.8 2578.93 7660.08 2578.95 7665.36 2578.96 7670.64 2578.97 7675.92 2578.98 7681.2 2578.98 7686.48 2578.99 7691.75 2579 7697.03 2579 7702.31 2579.01 7707.59 2579.02 7712.87 2579.02 7718.15 2579.03 7723.43 2579.03 7728.71 2579.03 7733.99 2579.04 7739.26 2579.04 7744.54 2579.04 7749.82 2579.05 7755.1 2579.05 7760.38 2579.05 7765.66 2579.05 7770.94 2579.06 7776.22 2579.06 7781.49 2579.06 7786.77 2579.06 7792.05 2579.07 7797.33 2579.07 7802.61 2579.07 7807.89 2579.07 7813.17 2579.07 7818.45 2579.08 7823.72 2579.08 7829 2579.08 7834.28 2579.08 7839.56 2579.08 7844.84 2579.08 7850.12 2579.09 7855.4 2579.09 7860.68 2579.09 7865.96 2579.09 7871.23 2579.1 7876.51 2579.1 7881.79 2579.1 7887.07 2579.1 7892.35 2579.1 7897.63 2579.11 7902.91 2579.11 7908.19 2579.11 7913.46 2579.11 7918.74 2579.12 7924.02 2579.12 7929.3 2579.12 7937.22 2579.12 7939.86 2579.13" stroke="#A5A5A5" stroke-width="9.16667" stroke-linecap="round" stroke-linejoin="round" stroke-miterlimit="10" fill="none"/></g><g><path d="M6372.06 1843.85C6377.33 1843.63 6382.61 1843.43 6387.89 1843.2 6393.17 1842.98 6398.45 1842.74 6403.73 1842.5 6409.01 1842.25 6414.29 1841.99 6419.56 1841.72 6424.84 1841.45 6430.12 1841.17 6435.4 1840.88 6440.68 1840.59 6445.96 1840.28 6451.24 1839.96 6456.52 1839.64 6461.79 1839.31 6467.07 1838.96 6472.35 1838.61 6477.63 1838.25 6482.91 1837.88 6488.19 1837.5 6493.47 1837.11 6498.75 1836.7 6504.03 1836.29 6509.3 1835.86 6514.58 1835.42 6519.86 1834.98 6525.14 1834.52 6530.42 1834.05 6535.7 1833.57 6540.98 1833.08 6546.26 1832.57 6551.53 1832.06 6556.81 1831.53 6562.09 1830.99 6567.37 1830.44 6572.65 1829.88 6577.93 1829.3 6583.21 1828.72 6588.49 1828.12 6593.76 1827.51 6599.04 1826.89 6604.32 1826.26 6609.6 1825.62 6614.88 1824.98 6620.16 1824.32 6625.44 1823.65 6630.72 1822.98 6636 1822.29 6641.27 1821.6 6646.55 1820.91 6651.83 1820.2 6657.11 1819.5 6662.39 1818.79 6667.67 1818.07 6672.95 1817.36 6678.23 1816.65 6683.5 1815.93 6688.78 1815.22 6694.06 1814.5 6699.34 1813.79 6704.62 1813.09 6709.9 1812.39 6715.18 1811.7 6720.46 1811.02 6725.73 1810.35 6731.01 1809.68 6736.29 1809.04 6741.57 1808.4 6746.85 1807.78 6752.13 1807.18 6757.41 1806.59 6762.69 1806.01 6767.96 1805.47 6773.24 1804.93 6778.52 1804.42 6783.8 1803.94 6789.08 1803.46 6794.36 1803.01 6799.64 1802.6 6804.92 1802.18 6810.2 1801.8 6815.47 1801.46 6820.75 1801.11 6826.03 1800.8 6831.31 1800.52 6836.59 1800.24 6841.87 1800 6847.15 1799.79 6852.43 1799.58 6857.7 1799.4 6862.98 1799.25 6868.26 1799.09 6873.54 1798.97 6878.82 1798.88 6884.1 1798.78 6889.38 1798.72 6894.66 1798.67 6899.94 1798.63 6905.21 1798.61 6910.49 1798.62 6915.77 1798.62 6921.05 1798.65 6926.33 1798.71 6931.61 1798.78 6936.89 1798.86 6942.17 1798.98 6947.44 1799.1 6952.72 1799.25 6958 1799.45 6963.28 1799.66 6968.56 1799.89 6973.84 1800.21 6979.12 1800.54 6984.4 1800.9 6989.67 1801.39 6994.95 1801.89 7000.23 1802.43 7005.51 1803.19 7010.79 1803.94 7016.07 1804.77 7021.35 1805.93 7026.63 1807.08 7031.91 1808.34 7037.18 1810.12 7042.46 1811.91 7047.74 1813.85 7053.02 1816.62 7058.3 1819.4 7063.58 1822.43 7068.86 1826.77 7074.14 1831.11 7079.41 1836.03 7084.69 1842.65 7089.97 1849.28 7095.25 1857.33 7100.53 1866.52 7105.81 1875.71 7111.09 1887.28 7116.37 1897.78 7121.64 1908.28 7126.92 1920.05 7132.2 1929.52 7137.48 1938.98 7142.76 1947.45 7148.04 1954.57 7153.32 1961.68 7158.6 1967.05 7163.88 1972.19 7168.44 1976.65 7175.14 1976.19 7179.71 1985.45 7182.29 1990.68 7192.97 2009.85 7195.55 2036.4 7200.83 2090.69 7206.11 2246.36 7211.38 2311.16 7216.06 2368.54 7222.55 2404.06 7227.22 2425.2 7230.81 2441.43 7239.47 2464.65 7243.06 2454.44 7248.34 2439.42 7253.61 2360.12 7258.89 2335.09 7262.47 2318.15 7271.16 2308.57 7274.73 2304.29 7280.01 2297.97 7285.29 2298.78 7290.57 2297.16 7295.84 2295.54 7301.12 2295.19 7306.4 2294.55 7311.68 2293.91 7316.96 2293.64 7322.24 2293.33 7327.52 2293.01 7332.8 2292.83 7338.08 2292.66 7343.35 2292.48 7348.63 2292.36 7353.91 2292.26 7359.19 2292.15 7364.47 2292.08 7369.75 2292.03 7375.03 2291.97 7380.31 2291.93 7385.58 2291.93 7390.86 2291.93 7396.14 2291.92 7401.42 2292.02 7406.7 2292.11 7411.98 2291.91 7417.26 2292.52 7422.18 2293.09 7428.17 2289.3 7433.09 2295.71 7438.37 2302.58 7443.65 2333.77 7448.93 2333.75 7454.21 2333.72 7459.49 2301.41 7464.77 2295.56 7466.08 2294.11 7479.29 2290.71 7480.6 2298.68 7485.88 2330.67 7491.16 2442.92 7496.44 2487.52 7501.16 2527.39 7507.56 2553.12 7512.28 2566.25 7515.39 2574.89 7525 2574.49 7528.11 2575.58 7533.39 2577.41 7538.67 2576.87 7543.95 2577.28 7549.23 2577.68 7554.51 2577.8 7559.79 2577.98 7565.06 2578.16 7570.34 2578.26 7575.62 2578.35 7580.9 2578.44 7586.18 2578.93 7591.46 2578.54 7596.74 2578.15 7602.02 2575.98 7607.29 2576.02 7612.57 2576.06 7617.85 2578.29 7623.13 2578.77 7628.41 2579.24 7633.69 2578.85 7638.97 2578.88 7644.25 2578.9 7649.52 2578.92 7654.8 2578.93 7660.08 2578.95 7665.36 2578.96 7670.64 2578.97 7675.92 2578.98 7681.2 2578.98 7686.48 2578.99 7691.75 2579 7697.03 2579 7702.31 2579.01 7707.59 2579.02 7712.87 2579.02 7718.15 2579.03 7723.43 2579.03 7728.71 2579.03 7733.99 2579.04 7739.26 2579.04 7744.54 2579.04 7749.82 2579.05 7755.1 2579.05 7760.38 2579.05 7765.66 2579.05 7770.94 2579.06 7776.22 2579.06 7781.49 2579.06 7786.77 2579.06 7792.05 2579.07 7797.33 2579.07 7802.61 2579.07 7807.89 2579.07 7813.17 2579.07 7818.45 2579.08 7823.72 2579.08 7829 2579.08 7834.28 2579.08 7839.56 2579.08 7844.84 2579.08 7850.12 2579.09 7855.4 2579.09 7860.68 2579.09 7865.96 2579.09 7871.23 2579.1 7876.51 2579.1 7881.79 2579.1 7887.07 2579.1 7892.35 2579.1 7897.63 2579.11 7902.91 2579.11 7908.19 2579.11 7913.46 2579.11 7918.74 2579.12 7924.02 2579.12 7929.3 2579.12 7937.22 2579.12 7939.86 2579.13" stroke="#FFC000" stroke-width="9.16667" stroke-linecap="round" stroke-linejoin="round" stroke-miterlimit="10" fill="none"/></g><g><path d="M6372.06 1847.19C6377.33 1847.11 6382.61 1847.04 6387.89 1846.96 6393.17 1846.89 6398.45 1846.81 6403.73 1846.74 6409.01 1846.67 6414.29 1846.6 6419.56 1846.54 6424.84 1846.48 6430.12 1846.42 6435.4 1846.37 6440.68 1846.32 6445.96 1846.27 6451.24 1846.24 6456.52 1846.21 6461.79 1846.18 6467.07 1846.18 6472.35 1846.17 6477.63 1846.17 6482.91 1846.2 6488.19 1846.23 6493.47 1846.27 6498.75 1846.34 6504.03 1846.41 6509.3 1846.5 6514.58 1846.62 6519.86 1846.75 6525.14 1846.9 6530.42 1847.1 6535.7 1847.29 6540.98 1847.52 6546.26 1847.8 6551.53 1848.08 6556.81 1848.39 6562.09 1848.77 6567.37 1849.15 6572.65 1849.57 6577.93 1850.06 6583.21 1850.55 6588.49 1851.1 6593.76 1851.72 6599.04 1852.34 6604.32 1853.02 6609.6 1853.78 6614.88 1854.55 6620.16 1855.38 6625.44 1856.29 6630.72 1857.2 6636 1858.19 6641.27 1859.26 6646.55 1860.33 6651.83 1861.49 6657.11 1862.72 6662.39 1863.95 6667.67 1865.27 6672.95 1866.66 6678.23 1868.05 6683.5 1869.52 6688.78 1871.06 6694.06 1872.6 6699.34 1874.23 6704.62 1875.91 6709.9 1877.59 6715.18 1879.34 6720.46 1881.14 6725.73 1882.95 6731.01 1884.81 6736.29 1886.72 6741.57 1888.62 6746.85 1890.58 6752.13 1892.57 6757.41 1894.55 6762.69 1896.58 6767.96 1898.61 6773.24 1900.65 6778.52 1902.72 6783.8 1904.79 6789.08 1906.85 6794.36 1908.94 6799.64 1911.02 6804.92 1913.09 6810.2 1915.17 6815.47 1917.23 6820.75 1919.3 6826.03 1921.35 6831.31 1923.38 6836.59 1925.41 6841.87 1927.43 6847.15 1929.42 6852.43 1931.4 6857.7 1933.36 6862.98 1935.29 6868.26 1937.22 6873.54 1939.12 6878.82 1940.98 6884.1 1942.84 6889.38 1944.67 6894.66 1946.47 6899.94 1948.26 6905.21 1950.01 6910.49 1951.73 6915.77 1953.45 6921.05 1955.14 6926.33 1956.79 6931.61 1958.43 6936.89 1960.04 6942.17 1961.62 6947.44 1963.2 6952.72 1964.74 6958 1966.26 6963.28 1967.77 6968.56 1969.25 6973.84 1970.7 6979.12 1972.16 6984.4 1973.58 6989.67 1974.99 6994.95 1976.39 7000.23 1977.77 7005.51 1979.14 7010.79 1980.51 7016.07 1981.85 7021.35 1983.21 7026.63 1984.57 7031.91 1985.89 7037.18 1987.29 7042.46 1988.69 7047.74 1989.89 7053.02 1991.62 7053.93 1991.92 7067.95 1989.24 7068.86 1997.67 7074.14 2046.66 7079.41 2236.25 7084.69 2285.57 7085.64 2294.4 7099.58 2293.15 7100.53 2293.6 7105.81 2296.07 7111.09 2297.69 7116.37 2300.43 7121.64 2303.17 7126.92 2305.56 7132.2 2310.03 7137.48 2314.5 7142.76 2318.1 7148.04 2327.23 7153.32 2336.36 7158.6 2347.92 7163.88 2364.83 7169.15 2381.74 7174.43 2412.78 7179.71 2428.69 7184.99 2444.59 7190.27 2460.61 7195.55 2460.26 7200.53 2459.93 7206.41 2444.51 7211.38 2426.58 7216.66 2407.57 7221.94 2365.16 7227.22 2346.2 7232.17 2328.41 7238.1 2319.76 7243.06 2312.83 7248.34 2305.44 7253.61 2304.47 7258.89 2301.89 7264.17 2299.31 7269.45 2298.48 7274.73 2297.35 7280.01 2296.22 7285.29 2295.69 7290.57 2295.1 7295.84 2294.52 7301.12 2294.18 7306.4 2293.85 7311.68 2293.51 7316.96 2293.29 7322.24 2293.08 7327.52 2292.86 7332.8 2292.71 7338.08 2292.57 7343.35 2292.44 7348.63 2292.33 7353.91 2292.24 7359.19 2292.15 7364.47 2292.08 7369.75 2292.04 7375.03 2291.99 7380.31 2291.95 7385.58 2291.96 7390.86 2291.96 7396.14 2291.95 7401.42 2292.05 7406.7 2292.16 7411.98 2291.93 7417.26 2292.6 7422.28 2293.23 7428.07 2289.68 7433.09 2296.05 7438.37 2302.74 7443.65 2332.82 7448.93 2332.75 7454.21 2332.67 7459.49 2301.27 7464.77 2295.59 7466.08 2294.18 7479.29 2290.74 7480.6 2298.7 7485.88 2330.73 7491.16 2443.17 7496.44 2487.77 7501.15 2527.55 7507.57 2553.26 7512.28 2566.31 7515.39 2574.94 7525 2574.5 7528.11 2575.58 7533.39 2577.41 7538.67 2576.88 7543.95 2577.28 7549.23 2577.68 7554.51 2577.8 7559.79 2577.98 7565.06 2578.16 7570.34 2578.26 7575.62 2578.35 7580.9 2578.44 7586.18 2578.93 7591.46 2578.54 7596.74 2578.15 7602.02 2575.98 7607.29 2576.02 7612.57 2576.06 7617.85 2578.29 7623.13 2578.77 7628.41 2579.24 7633.69 2578.85 7638.97 2578.88 7644.25 2578.9 7649.52 2578.92 7654.8 2578.93 7660.08 2578.94 7665.36 2578.96 7670.64 2578.97 7675.92 2578.98 7681.2 2578.98 7686.48 2578.99 7691.75 2579 7697.03 2579 7702.31 2579.01 7707.59 2579.02 7712.87 2579.02 7718.15 2579.03 7723.43 2579.03 7728.71 2579.03 7733.99 2579.04 7739.26 2579.04 7744.54 2579.04 7749.82 2579.05 7755.1 2579.05 7760.38 2579.05 7765.66 2579.05 7770.94 2579.06 7776.22 2579.06 7781.49 2579.06 7786.77 2579.06 7792.05 2579.07 7797.33 2579.07 7802.61 2579.07 7807.89 2579.07 7813.17 2579.07 7818.45 2579.08 7823.72 2579.08 7829 2579.08 7834.28 2579.08 7839.56 2579.08 7844.84 2579.08 7850.12 2579.09 7855.4 2579.09 7860.68 2579.09 7865.96 2579.09 7871.23 2579.09 7876.51 2579.1 7881.79 2579.1 7887.07 2579.1 7892.35 2579.1 7897.63 2579.11 7902.91 2579.11 7908.19 2579.11 7913.46 2579.11 7918.74 2579.12 7924.02 2579.12 7929.3 2579.12 7937.22 2579.12 7939.86 2579.13" stroke="#5B9BD5" stroke-width="9.16667" stroke-linecap="round" stroke-linejoin="round" stroke-miterlimit="10" fill="none"/></g><g><text font-family="Calibri,Calibri_MSFontService,sans-serif" font-weight="400" font-size="64" transform="matrix(1 0 0 1 6195.33 2625)">-300</text></g><g><text font-family="Calibri,Calibri_MSFontService,sans-serif" font-weight="400" font-size="64" transform="matrix(1 0 0 1 6195.33 2464)">-200</text></g><g><text font-family="Calibri,Calibri_MSFontService,sans-serif" font-weight="400" font-size="64" transform="matrix(1 0 0 1 6195.33 2302)">-100</text></g><g><text font-family="Calibri,Calibri_MSFontService,sans-serif" font-weight="400" font-size="64" transform="matrix(1 0 0 1 6280.01 2140)">0</text></g><g><text font-family="Calibri,Calibri_MSFontService,sans-serif" font-weight="400" font-size="64" transform="matrix(1 0 0 1 6214.97 1978)">100</text></g><g><text font-family="Calibri,Calibri_MSFontService,sans-serif" font-weight="400" font-size="64" transform="matrix(1 0 0 1 6214.97 1816)">200</text></g><g><text font-family="Calibri,Calibri_MSFontService,sans-serif" font-weight="400" font-size="64" transform="matrix(1 0 0 1 6214.97 1654)">300</text></g><g><text font-family="Calibri,Calibri_MSFontService,sans-serif" font-weight="400" font-size="64" transform="matrix(1 0 0 1 6339.54 2709)">10</text></g><g><text font-family="Calibri,Calibri_MSFontService,sans-serif" font-weight="400" font-size="64" transform="matrix(1 0 0 1 6715.23 2709)">100</text></g><g><text font-family="Calibri,Calibri_MSFontService,sans-serif" font-weight="400" font-size="64" transform="matrix(1 0 0 1 7090.92 2709)">1000</text></g><g><text font-family="Calibri,Calibri_MSFontService,sans-serif" font-weight="400" font-size="64" transform="matrix(1 0 0 1 7466.61 2709)">10000</text></g><g><text font-family="Calibri,Calibri_MSFontService,sans-serif" font-weight="400" font-size="64" transform="matrix(1 0 0 1 7842.3 2709)">100000</text></g><g><text font-family="Calibri,Calibri_MSFontService,sans-serif" font-weight="700" font-size="64" transform="matrix(6.12323e-17 -1 1 6.12323e-17 6164.25 2320)">Phase (degree)</text></g><g><text font-family="Calibri,Calibri_MSFontService,sans-serif" font-weight="700" font-size="64" transform="matrix(1 0 0 1 6961.43 2801)">Frequenct (Hz)</text></g><rect x="6085.5" y="1564.5" width="1980" height="1305" stroke="#D9D9D9" stroke-width="3.4375" stroke-linejoin="round" stroke-miterlimit="10" fill="none"/><g><path d="M1.46927-3.10768 382.254 176.922 379.315 183.138-1.46927 3.10768ZM382.518 165.64 401.502 189.825 370.764 190.502Z" fill="#7F7F7F" transform="matrix(-1 0 0 1 7381 1988.5)"/></g><g><text fill="#FF0000" font-family="Calibri,Calibri_MSFontService,sans-serif" font-weight="700" font-size="73" transform="matrix(1 0 0 1 6469.63 2119)">Increasing Power </text></g><g><text fill="#FF0000" font-family="Calibri,Calibri_MSFontService,sans-serif" font-weight="700" font-size="73" transform="matrix(1 0 0 1 6541.61 2208)">at</text></g><g><text fill="#FF0000" font-family="Calibri,Calibri_MSFontService,sans-serif" font-weight="700" font-size="73" transform="matrix(1 0 0 1 6619.8 2208)">PV source</text></g><g><text fill="#FF0000" font-family="Calibri,Calibri_MSFontService,sans-serif" font-weight="700" font-size="73" transform="matrix(1 0 0 1 6467.48 2298)">P1&lt;P2&lt;P3&lt;P4&lt;P5</text></g><rect x="6087" y="49.0002" width="1978" height="1538" fill="#FFFFFF"/><g><path d="M6388.5 1518.5 7954.5 1518.5M6388.5 1375.55 7954.5 1375.55M6388.5 1232.54 7954.5 1232.54M6388.5 1090.54 7954.5 1090.54M6388.5 947.531 7954.5 947.531M6388.5 804.527 7954.5 804.527M6388.5 662.522 7954.5 662.522M6388.5 519.517 7954.5 519.517M6388.5 377.513 7954.5 377.513M6388.5 234.5 7954.5 234.5" stroke="#D9D9D9" stroke-width="3.4375" stroke-linejoin="round" stroke-miterlimit="10" fill="none"/></g><g><path d="M6505.71 234.5 6505.71 1518.5M6574.72 234.5 6574.72 1518.5M6623.72 234.5 6623.72 1518.5M6661.72 234.5 6661.72 1518.5M6692.72 234.5 6692.72 1518.5M6718.72 234.5 6718.72 1518.5M6741.72 234.5 6741.72 1518.5M6761.72 234.5 6761.72 1518.5M6897.73 234.5 6897.73 1518.5M6966.73 234.5 6966.73 1518.5M7015.73 234.5 7015.73 1518.5M7053.73 234.5 7053.73 1518.5M7084.73 234.5 7084.73 1518.5M7110.73 234.5 7110.73 1518.5M7133.73 234.5 7133.73 1518.5M7153.73 234.5 7153.73 1518.5M7288.74 234.5 7288.74 1518.5M7357.74 234.5 7357.74 1518.5M7406.74 234.5 7406.74 1518.5M7444.74 234.5 7444.74 1518.5M7475.75 234.5 7475.75 1518.5M7501.75 234.5 7501.75 1518.5M7524.75 234.5 7524.75 1518.5M7544.75 234.5 7544.75 1518.5M7680.75 234.5 7680.75 1518.5M7749.75 234.5 7749.75 1518.5M7798.76 234.5 7798.76 1518.5M7836.76 234.5 7836.76 1518.5M7867.76 234.5 7867.76 1518.5M7893.76 234.5 7893.76 1518.5M7916.76 234.5 7916.76 1518.5M7936.76 234.5 7936.76 1518.5" stroke="#F2F2F2" stroke-width="3.4375" stroke-linejoin="round" stroke-miterlimit="10" fill="none"/></g><g><path d="M6779.72 234.5 6779.72 1518.5M7171.74 234.5 7171.74 1518.5M7562.75 234.5 7562.75 1518.5M7954.5 234.5 7954.5 1518.5" stroke="#D9D9D9" stroke-width="3.4375" stroke-linejoin="round" stroke-miterlimit="10" fill="none"/></g><g><path d="M0 0 0.000360892 1284" stroke="#BFBFBF" stroke-width="3.4375" stroke-linejoin="round" stroke-miterlimit="10" fill="none" fill-rule="evenodd" transform="matrix(1 0 0 -1 6388.5 1518.5)"/></g><g><path d="M6388.5 1304.5 7954.5 1304.5" stroke="#BFBFBF" stroke-width="3.4375" stroke-linejoin="round" stroke-miterlimit="10" fill="none" fill-rule="evenodd"/></g><g><path d="M6388.5 1491.5C6393.77 1491.47 6399.05 1491.44 6404.32 1491.41 6409.59 1491.37 6414.86 1491.33 6420.14 1491.29 6425.41 1491.25 6430.68 1491.21 6435.95 1491.16 6441.23 1491.11 6446.5 1491.05 6451.77 1490.99 6457.05 1490.93 6462.32 1490.87 6467.59 1490.8 6472.86 1490.72 6478.14 1490.65 6483.41 1490.56 6488.68 1490.47 6493.95 1490.38 6499.23 1490.28 6504.5 1490.17 6509.77 1490.06 6515.05 1489.94 6520.32 1489.81 6525.59 1489.68 6530.86 1489.53 6536.14 1489.38 6541.41 1489.22 6546.68 1489.04 6551.95 1488.86 6557.23 1488.67 6562.5 1488.46 6567.77 1488.25 6573.05 1488.02 6578.32 1487.76 6583.59 1487.51 6588.86 1487.24 6594.14 1486.94 6599.41 1486.64 6604.68 1486.31 6609.95 1485.96 6615.23 1485.6 6620.5 1485.21 6625.77 1484.79 6631.05 1484.37 6636.32 1483.92 6641.59 1483.42 6646.86 1482.92 6652.14 1482.38 6657.41 1481.8 6662.68 1481.21 6667.95 1480.58 6673.23 1479.9 6678.5 1479.21 6683.77 1478.48 6689.05 1477.68 6694.32 1476.88 6699.59 1476.03 6704.86 1475.11 6710.14 1474.18 6715.41 1473.2 6720.68 1472.13 6725.95 1471.07 6731.23 1469.94 6736.5 1468.72 6741.77 1467.51 6747.05 1466.22 6752.32 1464.84 6757.59 1463.46 6762.86 1462 6768.14 1460.45 6773.41 1458.89 6778.68 1457.26 6783.95 1455.52 6789.23 1453.79 6794.5 1451.97 6799.77 1450.05 6805.05 1448.13 6810.32 1446.12 6815.59 1444.01 6820.86 1441.9 6826.14 1439.7 6831.41 1437.41 6836.68 1435.12 6841.95 1432.74 6847.23 1430.26 6852.5 1427.79 6857.77 1425.23 6863.05 1422.58 6868.32 1419.94 6873.59 1417.21 6878.86 1414.4 6884.14 1411.59 6889.41 1408.7 6894.68 1405.73 6899.95 1402.77 6905.23 1399.73 6910.5 1396.62 6915.77 1393.52 6921.05 1390.34 6926.32 1387.1 6931.59 1383.87 6936.86 1380.56 6942.14 1377.2 6947.41 1373.84 6952.68 1370.42 6957.95 1366.95 6963.23 1363.48 6968.5 1359.95 6973.77 1356.37 6979.05 1352.79 6984.32 1349.16 6989.59 1345.49 6994.86 1341.81 7000.14 1338.09 7005.41 1334.33 7010.68 1330.56 7015.95 1326.75 7021.23 1322.9 7026.5 1319.05 7031.77 1315.16 7037.05 1311.23 7042.32 1307.3 7047.59 1303.33 7052.86 1299.32 7058.14 1295.31 7063.41 1291.27 7068.68 1287.19 7073.95 1283.11 7079.23 1279 7084.5 1274.85 7089.77 1270.71 7095.05 1266.53 7100.32 1262.31 7105.59 1258.1 7110.86 1253.86 7116.14 1249.58 7121.41 1245.3 7126.68 1241 7131.95 1236.65 7137.23 1232.31 7142.5 1227.94 7147.77 1223.53 7153.05 1219.13 7158.32 1214.69 7163.59 1210.21 7168.86 1205.73 7174.14 1201.22 7179.41 1196.67 7184.68 1192.11 7189.95 1187.52 7195.23 1182.87 7200.5 1178.23 7205.77 1173.54 7211.05 1168.78 7216.32 1164.02 7221.59 1159.22 7226.86 1154.31 7232.14 1149.4 7237.41 1144.45 7242.68 1139.32 7247.95 1134.18 7253.23 1129.03 7258.5 1123.51 7263.77 1118 7269.05 1112.57 7274.32 1106.24 7279.59 1099.9 7284.86 1094.55 7290.14 1085.51 7293.07 1080.49 7303.02 1070.3 7305.95 1052.01 7311.23 1019.11 7316.5 902.974 7321.77 888.122 7327.04 873.269 7332.32 940.167 7337.59 962.9 7342.86 985.632 7348.14 1016.05 7353.41 1024.51 7358.48 1032.66 7364.15 1018.41 7369.23 1013.67 7374.5 1008.75 7379.77 1001.78 7385.05 994.986 7390.32 988.189 7395.59 980.838 7400.86 972.891 7406.14 964.944 7411.41 956.715 7416.68 947.302 7421.95 937.89 7427.23 928.753 7432.5 916.417 7437.77 904.08 7443.05 876.618 7448.32 873.284 7453.59 869.949 7458.86 906.83 7464.14 896.411 7469.41 885.992 7474.68 842.246 7479.95 810.77 7485.23 779.295 7490.5 758.619 7495.77 707.558 7501.04 656.496 7506.32 515.304 7511.59 504.402 7516.86 493.5 7522.14 597.211 7527.41 642.147 7532.68 687.082 7537.95 741.184 7543.23 774.016 7548.5 806.849 7553.77 820.788 7559.05 839.142 7564.32 857.496 7569.59 870.789 7574.86 884.14 7580.14 897.491 7585.41 908.47 7590.68 919.248 7595.95 930.026 7601.23 938.243 7606.5 948.807 7611.77 959.371 7617.05 975.225 7622.32 982.633 7627.59 990.04 7632.86 987.939 7638.14 993.255 7643.41 998.569 7648.68 1007.78 7653.95 1014.52 7659.23 1021.26 7664.5 1027.52 7669.77 1033.7 7675.04 1039.88 7680.32 1045.8 7685.59 1051.62 7690.86 1057.43 7696.14 1063.06 7701.41 1068.61 7706.68 1074.15 7711.95 1079.55 7717.23 1084.88 7722.5 1090.21 7727.77 1095.43 7733.04 1100.59 7738.32 1105.75 7743.59 1110.82 7748.86 1115.85 7754.14 1120.88 7759.41 1125.83 7764.68 1130.75 7769.95 1135.67 7775.23 1140.53 7780.5 1145.36 7785.77 1150.2 7791.05 1154.98 7796.32 1159.74 7801.59 1164.5 7806.86 1169.22 7812.14 1173.92 7817.41 1178.62 7822.68 1183.29 7827.95 1187.94 7833.23 1192.59 7838.5 1197.22 7843.77 1201.83 7849.04 1206.45 7854.32 1211.04 7859.59 1215.62 7864.86 1220.2 7870.14 1224.76 7875.41 1229.31 7880.68 1233.87 7885.95 1238.41 7891.23 1242.94 7896.5 1247.47 7901.77 1251.99 7907.04 1256.5 7912.32 1261.02 7917.59 1265.52 7922.86 1270.02 7928.14 1274.52 7933.41 1279.01 7938.68 1283.49 7943.95 1287.98 7949.23 1292.45 7954.5 1296.93" stroke="#4472C4" stroke-width="9.16667" stroke-linecap="round" stroke-linejoin="round" stroke-miterlimit="10" fill="none"/></g><g><path d="M6388.5 1491.5C6393.77 1491.47 6399.05 1491.44 6404.32 1491.4 6409.59 1491.36 6414.86 1491.32 6420.14 1491.28 6425.41 1491.23 6430.68 1491.18 6435.95 1491.13 6441.23 1491.07 6446.5 1491.02 6451.77 1490.95 6457.05 1490.89 6462.32 1490.82 6467.59 1490.74 6472.86 1490.66 6478.14 1490.58 6483.41 1490.49 6488.68 1490.39 6493.95 1490.29 6499.23 1490.18 6504.5 1490.07 6509.77 1489.95 6515.05 1489.82 6520.32 1489.68 6525.59 1489.54 6530.86 1489.38 6536.14 1489.22 6541.41 1489.05 6546.68 1488.86 6551.95 1488.67 6557.23 1488.46 6562.5 1488.24 6567.77 1488.01 6573.05 1487.77 6578.32 1487.49 6583.59 1487.22 6588.86 1486.93 6594.14 1486.61 6599.41 1486.29 6604.68 1485.95 6609.95 1485.57 6615.23 1485.19 6620.5 1484.78 6625.77 1484.34 6631.05 1483.89 6636.32 1483.41 6641.59 1482.89 6646.86 1482.36 6652.14 1481.8 6657.41 1481.18 6662.68 1480.57 6667.95 1479.91 6673.23 1479.2 6678.5 1478.48 6683.77 1477.72 6689.05 1476.89 6694.32 1476.06 6699.59 1475.18 6704.86 1474.23 6710.14 1473.28 6715.41 1472.26 6720.68 1471.18 6725.95 1470.09 6731.23 1468.93 6736.5 1467.7 6741.77 1466.47 6747.05 1465.16 6752.32 1463.78 6757.59 1462.39 6762.86 1460.93 6768.14 1459.39 6773.41 1457.84 6778.68 1456.22 6783.95 1454.51 6789.23 1452.8 6794.5 1451.01 6799.77 1449.15 6805.05 1447.28 6810.32 1445.33 6815.59 1443.3 6820.86 1441.28 6826.14 1439.17 6831.41 1436.99 6836.68 1434.81 6841.95 1432.56 6847.23 1430.24 6852.5 1427.91 6857.77 1425.52 6863.05 1423.06 6868.32 1420.6 6873.59 1418.08 6878.86 1415.5 6884.14 1412.92 6889.41 1410.27 6894.68 1407.58 6899.95 1404.89 6905.23 1402.13 6910.5 1399.33 6915.77 1396.53 6921.05 1393.68 6926.32 1390.78 6931.59 1387.88 6936.86 1384.93 6942.14 1381.94 6947.41 1378.95 6952.68 1375.91 6957.95 1372.83 6963.23 1369.75 6968.5 1366.62 6973.77 1363.45 6979.05 1360.28 6984.32 1357.07 6989.59 1353.81 6994.86 1350.56 7000.14 1347.26 7005.41 1343.92 7010.68 1340.58 7015.95 1337.2 7021.23 1333.78 7026.5 1330.36 7031.77 1326.9 7037.05 1323.4 7042.32 1319.91 7047.59 1316.37 7052.86 1312.8 7058.14 1309.23 7063.41 1305.62 7068.68 1301.99 7073.95 1298.36 7079.23 1294.7 7084.5 1291.02 7089.77 1287.34 7095.05 1283.63 7100.32 1279.92 7105.59 1276.21 7110.86 1272.47 7116.14 1268.75 7121.41 1265.03 7126.68 1261.3 7131.95 1257.6 7137.23 1253.91 7142.5 1250.21 7147.77 1246.6 7153.05 1242.99 7158.32 1239.37 7163.59 1235.93 7168.86 1232.49 7174.14 1229.05 7179.41 1225.94 7184.68 1222.83 7189.95 1219.7 7195.23 1217.25 7200.5 1214.8 7205.77 1212.22 7211.05 1211.24 7216.32 1210.26 7221.59 1208.46 7226.86 1211.38 7232.14 1214.31 7237.41 1222.95 7242.68 1228.8 7243.74 1229.98 7257.44 1258.27 7258.5 1246.46 7263.77 1187.9 7269.05 950.968 7274.32 877.455 7276.96 840.655 7287.5 785.105 7290.14 805.382 7295.41 845.888 7300.68 1075.51 7305.95 1120.49 7308.74 1144.29 7318.98 1081.34 7321.77 1075.25 7327.04 1063.76 7332.32 1058.69 7337.59 1051.5 7342.86 1044.31 7348.14 1038.54 7353.41 1032.11 7358.68 1025.68 7363.95 1019.5 7369.23 1012.91 7374.5 1006.31 7379.77 999.666 7385.05 992.525 7390.32 985.383 7395.59 978.085 7400.86 970.057 7406.14 962.029 7411.41 953.842 7416.68 944.356 7421.95 934.871 7427.23 925.841 7432.5 913.142 7437.77 900.444 7443.05 869.489 7448.32 868.165 7453.59 866.841 7458.86 914.66 7464.14 905.199 7469.41 895.739 7474.68 844.339 7479.95 811.402 7485.23 778.464 7490.5 758.626 7495.77 707.575 7501.04 656.524 7506.32 515.687 7511.59 505.094 7516.86 494.5 7522.14 599.061 7527.41 644.014 7532.68 688.967 7537.95 742.194 7543.23 774.811 7548.5 807.427 7553.77 821.411 7559.05 839.713 7564.32 858.013 7569.59 871.289 7574.86 884.617 7580.14 897.944 7585.41 908.912 7590.68 919.677 7595.95 930.442 7601.23 938.653 7606.5 949.207 7611.77 959.761 7617.05 975.599 7622.32 983.002 7627.59 990.405 7632.86 988.314 7638.14 993.627 7643.41 998.94 7648.68 1008.14 7653.95 1014.88 7659.23 1021.62 7664.5 1027.87 7669.77 1034.05 7675.04 1040.23 7680.32 1046.14 7685.59 1051.96 7690.86 1057.77 7696.14 1063.4 7701.41 1068.94 7706.68 1074.48 7711.95 1079.87 7717.23 1085.2 7722.5 1090.53 7727.77 1095.74 7733.04 1100.9 7738.32 1106.06 7743.59 1111.13 7748.86 1116.16 7754.14 1121.18 7759.41 1126.13 7764.68 1131.05 7769.95 1135.96 7775.23 1140.82 7780.5 1145.65 7785.77 1150.48 7791.05 1155.26 7796.32 1160.01 7801.59 1164.77 7806.86 1169.49 7812.14 1174.18 7817.41 1178.88 7822.68 1183.54 7827.95 1188.19 7833.23 1192.84 7838.5 1197.47 7843.77 1202.08 7849.04 1206.68 7854.32 1211.27 7859.59 1215.85 7864.86 1220.43 7870.14 1224.99 7875.41 1229.54 7880.68 1234.08 7885.95 1238.62 7891.23 1243.15 7896.5 1247.68 7901.77 1252.19 7907.04 1256.7 7912.32 1261.21 7917.59 1265.71 7922.86 1270.2 7928.14 1274.7 7933.41 1279.19 7938.68 1283.67 7943.95 1288.15 7949.23 1292.62 7954.5 1297.1" stroke="#ED7D31" stroke-width="9.16667" stroke-linecap="round" stroke-linejoin="round" stroke-miterlimit="10" fill="none"/></g><g><path d="M6388.5 1491.5C6393.77 1491.46 6399.05 1491.43 6404.32 1491.39 6409.59 1491.34 6414.86 1491.3 6420.14 1491.25 6425.41 1491.2 6430.68 1491.15 6435.95 1491.09 6441.23 1491.02 6446.5 1490.96 6451.77 1490.89 6457.05 1490.82 6462.32 1490.74 6467.59 1490.65 6472.86 1490.56 6478.14 1490.47 6483.41 1490.37 6488.68 1490.26 6493.95 1490.15 6499.23 1490.03 6504.5 1489.9 6509.77 1489.77 6515.05 1489.62 6520.32 1489.47 6525.59 1489.31 6530.86 1489.14 6536.14 1488.96 6541.41 1488.77 6546.68 1488.56 6551.95 1488.35 6557.23 1488.12 6562.5 1487.87 6567.77 1487.62 6573.05 1487.35 6578.32 1487.05 6583.59 1486.75 6588.86 1486.43 6594.14 1486.08 6599.41 1485.73 6604.68 1485.35 6609.95 1484.94 6615.23 1484.52 6620.5 1484.08 6625.77 1483.59 6631.05 1483.1 6636.32 1482.58 6641.59 1482.01 6646.86 1481.44 6652.14 1480.84 6657.41 1480.18 6662.68 1479.51 6667.95 1478.81 6673.23 1478.05 6678.5 1477.28 6683.77 1476.47 6689.05 1475.59 6694.32 1474.71 6699.59 1473.78 6704.86 1472.78 6710.14 1471.78 6715.41 1470.72 6720.68 1469.59 6725.95 1468.46 6731.23 1467.27 6736.5 1466 6741.77 1464.74 6747.05 1463.41 6752.32 1462 6757.59 1460.6 6762.86 1459.12 6768.14 1457.58 6773.41 1456.03 6778.68 1454.42 6783.95 1452.74 6789.23 1451.06 6794.5 1449.31 6799.77 1447.5 6805.05 1445.69 6810.32 1443.82 6815.59 1441.89 6820.86 1439.96 6826.14 1437.97 6831.41 1435.93 6836.68 1433.9 6841.95 1431.8 6847.23 1429.67 6852.5 1427.54 6857.77 1425.36 6863.05 1423.15 6868.32 1420.93 6873.59 1418.68 6878.86 1416.39 6884.14 1414.11 6889.41 1411.79 6894.68 1409.45 6899.95 1407.11 6905.23 1404.74 6910.5 1402.35 6915.77 1399.96 6921.05 1397.54 6926.32 1395.1 6931.59 1392.66 6936.86 1390.2 6942.14 1387.72 6947.41 1385.24 6952.68 1382.74 6957.95 1380.22 6963.23 1377.69 6968.5 1375.15 6973.77 1372.58 6979.05 1370.01 6984.32 1367.42 6989.59 1364.81 6994.86 1362.2 7000.14 1359.57 7005.41 1356.91 7010.68 1354.26 7015.95 1351.58 7021.23 1348.89 7026.5 1346.2 7031.77 1343.49 7037.05 1340.78 7042.32 1338.07 7047.59 1335.33 7052.86 1332.62 7058.14 1329.91 7063.41 1327.19 7068.68 1324.52 7073.95 1321.85 7079.23 1319.18 7084.5 1316.61 7089.77 1314.04 7095.05 1311.48 7100.32 1309.11 7105.59 1306.74 7110.86 1304.4 7116.14 1302.39 7121.41 1300.37 7126.68 1298.41 7131.95 1297.03 7137.23 1295.64 7142.5 1294.33 7147.77 1294.08 7153.05 1293.82 7158.32 1293.66 7163.59 1295.48 7168.86 1297.3 7174.14 1300.02 7179.41 1305 7184.68 1309.97 7189.95 1328.25 7195.23 1325.32 7198.2 1323.67 7208.07 1307.74 7211.05 1287.43 7216.32 1251.46 7221.59 1185.88 7226.86 1109.52 7232.14 1033.15 7237.41 891.734 7242.68 829.222 7246.72 781.347 7254.46 714.332 7258.5 734.444 7263.77 760.704 7269.05 917.417 7274.32 986.786 7279.59 1056.15 7284.86 1132.24 7290.14 1150.65 7295.41 1169.07 7300.68 1110.73 7305.95 1097.27 7311.23 1083.81 7316.5 1077.86 7321.77 1069.91 7327.04 1061.96 7332.32 1056.09 7337.59 1049.57 7342.86 1043.05 7348.14 1037.1 7353.41 1030.79 7358.68 1024.48 7363.95 1018.28 7369.23 1011.71 7374.5 1005.13 7379.77 998.489 7385.05 991.354 7390.32 984.219 7395.59 976.928 7400.86 968.897 7406.14 960.865 7411.41 952.682 7416.68 943.168 7421.95 933.653 7427.23 924.653 7432.5 911.806 7437.77 898.959 7443.05 866.802 7448.32 866.085 7453.59 865.367 7458.86 916.615 7464.14 907.499 7469.41 898.383 7474.68 844.756 7479.95 811.39 7485.23 778.024 7490.5 758.37 7495.77 707.303 7501.04 656.236 7506.32 515.472 7511.59 504.986 7516.86 494.5 7522.14 599.411 7527.41 644.387 7532.68 689.363 7537.95 742.294 7543.23 774.844 7548.5 807.394 7553.77 821.399 7559.05 839.688 7564.32 857.976 7569.59 871.251 7574.86 884.575 7580.14 897.899 7585.41 908.866 7590.68 919.631 7595.95 930.395 7601.23 938.606 7606.5 949.161 7611.77 959.716 7617.05 975.554 7622.32 982.959 7627.59 990.363 7632.86 988.274 7638.14 993.589 7643.41 998.903 7648.68 1008.11 7653.95 1014.85 7659.23 1021.59 7664.5 1027.84 7669.77 1034.02 7675.04 1040.2 7680.32 1046.12 7685.59 1051.93 7690.86 1057.75 7696.14 1063.37 7701.41 1068.91 7706.68 1074.46 7711.95 1079.85 7717.23 1085.18 7722.5 1090.51 7727.77 1095.73 7733.04 1100.89 7738.32 1106.05 7743.59 1111.12 7748.86 1116.14 7754.14 1121.17 7759.41 1126.12 7764.68 1131.04 7769.95 1135.95 7775.23 1140.81 7780.5 1145.64 7785.77 1150.47 7791.05 1155.25 7796.32 1160 7801.59 1164.76 7806.86 1169.48 7812.14 1174.18 7817.41 1178.87 7822.68 1183.54 7827.95 1188.19 7833.23 1192.84 7838.5 1197.46 7843.77 1202.07 7849.04 1206.68 7854.32 1211.27 7859.59 1215.85 7864.86 1220.42 7870.14 1224.98 7875.41 1229.53 7880.68 1234.08 7885.95 1238.62 7891.23 1243.15 7896.5 1247.68 7901.77 1252.19 7907.04 1256.7 7912.32 1261.21 7917.59 1265.71 7922.86 1270.21 7928.14 1274.7 7933.41 1279.19 7938.68 1283.67 7943.95 1288.15 7949.23 1292.62 7954.5 1297.1" stroke="#A5A5A5" stroke-width="9.16667" stroke-linecap="round" stroke-linejoin="round" stroke-miterlimit="10" fill="none"/></g><g><path d="M6388.5 1491.5C6393.77 1491.45 6399.05 1491.41 6404.32 1491.35 6409.59 1491.3 6414.86 1491.24 6420.14 1491.17 6425.41 1491.11 6430.68 1491.04 6435.95 1490.96 6441.23 1490.88 6446.5 1490.8 6451.77 1490.7 6457.05 1490.61 6462.32 1490.51 6467.59 1490.4 6472.86 1490.29 6478.14 1490.16 6483.41 1490.03 6488.68 1489.9 6493.95 1489.75 6499.23 1489.59 6504.5 1489.43 6509.77 1489.26 6515.05 1489.07 6520.32 1488.88 6525.59 1488.67 6530.86 1488.45 6536.14 1488.22 6541.41 1487.98 6546.68 1487.71 6551.95 1487.44 6557.23 1487.15 6562.5 1486.84 6567.77 1486.52 6573.05 1486.18 6578.32 1485.8 6583.59 1485.43 6588.86 1485.03 6594.14 1484.59 6599.41 1484.15 6604.68 1483.68 6609.95 1483.17 6615.23 1482.65 6620.5 1482.11 6625.77 1481.51 6631.05 1480.92 6636.32 1480.28 6641.59 1479.59 6646.86 1478.91 6652.14 1478.17 6657.41 1477.39 6662.68 1476.6 6667.95 1475.76 6673.23 1474.86 6678.5 1473.97 6683.77 1473.02 6689.05 1472.01 6694.32 1471 6699.59 1469.93 6704.86 1468.8 6710.14 1467.67 6715.41 1466.48 6720.68 1465.23 6725.95 1463.99 6731.23 1462.68 6736.5 1461.32 6741.77 1459.95 6747.05 1458.53 6752.32 1457.06 6757.59 1455.58 6762.86 1454.05 6768.14 1452.48 6773.41 1450.91 6778.68 1449.29 6783.95 1447.64 6789.23 1445.98 6794.5 1444.28 6799.77 1442.56 6805.05 1440.84 6810.32 1439.09 6815.59 1437.32 6820.86 1435.56 6826.14 1433.76 6831.41 1431.98 6836.68 1430.19 6841.95 1428.38 6847.23 1426.59 6852.5 1424.8 6857.77 1423.01 6863.05 1421.23 6868.32 1419.46 6873.59 1417.7 6878.86 1415.96 6884.14 1414.23 6889.41 1412.51 6894.68 1410.83 6899.95 1409.15 6905.23 1407.49 6910.5 1405.87 6915.77 1404.26 6921.05 1402.67 6926.32 1401.13 6931.59 1399.59 6936.86 1398.08 6942.14 1396.62 6947.41 1395.16 6952.68 1393.74 6957.95 1392.37 6963.23 1391 6968.5 1389.67 6973.77 1388.39 6979.05 1387.11 6984.32 1385.88 6989.59 1384.71 6994.86 1383.54 7000.14 1382.42 7005.41 1381.37 7010.68 1380.32 7015.95 1379.32 7021.23 1378.42 7026.5 1377.51 7031.77 1376.67 7037.05 1375.92 7042.32 1375.17 7047.59 1374.52 7052.86 1373.92 7058.14 1373.33 7063.41 1372.9 7068.68 1372.36 7073.95 1371.82 7079.23 1371.59 7084.5 1370.68 7089.77 1369.78 7095.05 1369.45 7100.32 1366.92 7105.59 1364.39 7110.86 1362.34 7116.14 1355.5 7121.41 1348.65 7126.68 1340.18 7131.95 1325.85 7137.23 1311.51 7142.5 1292.42 7147.77 1269.49 7153.05 1246.57 7158.32 1219.32 7163.59 1188.28 7168.86 1157.25 7174.14 1125.64 7179.41 1083.28 7182.7 1056.83 7191.93 1009.06 7195.23 934.137 7200.5 814.158 7205.77 388.319 7211.05 363.41 7216.32 338.5 7221.59 705.794 7226.86 784.679 7228.68 811.814 7240.87 818.562 7242.68 836.718 7247.95 889.499 7253.23 1046.02 7258.5 1101.36 7261.78 1135.84 7271.03 1167.14 7274.32 1168.81 7279.59 1171.47 7284.86 1130.84 7290.14 1117.38 7295.41 1103.92 7300.68 1096.51 7305.95 1088.07 7311.23 1079.63 7316.5 1073.43 7321.77 1066.74 7327.04 1060.05 7332.32 1054.14 7337.59 1047.95 7342.86 1041.76 7348.14 1035.82 7353.41 1029.6 7358.68 1023.39 7363.95 1017.19 7369.23 1010.65 7374.5 1004.1 7379.77 997.463 7385.05 990.336 7390.32 983.208 7395.59 975.917 7400.86 967.88 7406.14 959.843 7411.41 951.658 7416.68 942.114 7421.95 932.569 7427.23 923.589 7432.5 910.615 7437.77 897.64 7443.05 864.547 7448.32 864.267 7453.59 863.988 7458.86 917.787 7464.14 908.938 7469.41 900.09 7474.68 844.859 7479.95 811.177 7485.23 777.494 7490.5 757.944 7495.77 706.843 7501.04 655.742 7506.32 514.977 7511.59 504.571 7516.86 494.166 7522.14 599.395 7527.41 644.409 7532.68 689.422 7537.95 742.14 7543.23 774.651 7548.5 807.163 7553.77 821.19 7559.05 839.476 7564.32 857.762 7569.59 871.042 7574.86 884.368 7580.14 897.694 7585.41 908.666 7590.68 919.435 7595.95 930.203 7601.23 938.419 7606.5 948.978 7611.77 959.538 7617.05 975.383 7622.32 982.791 7627.59 990.2 7632.86 988.112 7638.14 993.43 7643.41 998.748 7648.68 1007.96 7653.95 1014.7 7659.23 1021.44 7664.5 1027.7 7669.77 1033.89 7675.04 1040.07 7680.32 1045.99 7685.59 1051.81 7690.86 1057.63 7696.14 1063.25 7701.41 1068.8 7706.68 1074.34 7711.95 1079.74 7717.23 1085.07 7722.5 1090.41 7727.77 1095.62 7733.04 1100.79 7738.32 1105.95 7743.59 1111.02 7748.86 1116.05 7754.14 1121.08 7759.41 1126.04 7764.68 1130.95 7769.95 1135.87 7775.23 1140.73 7780.5 1145.57 7785.77 1150.4 7791.05 1155.18 7796.32 1159.94 7801.59 1164.7 7806.86 1169.42 7812.14 1174.12 7817.41 1178.82 7822.68 1183.49 7827.95 1188.14 7833.23 1192.79 7838.5 1197.41 7843.77 1202.03 7849.04 1206.64 7854.32 1211.23 7859.59 1215.81 7864.86 1220.39 7870.14 1224.95 7875.41 1229.5 7880.68 1234.06 7885.95 1238.59 7891.23 1243.12 7896.5 1247.65 7901.77 1252.17 7907.04 1256.69 7912.32 1261.2 7917.59 1265.7 7922.86 1270.2 7928.14 1274.69 7933.41 1279.18 7938.68 1283.67 7943.95 1288.15 7949.23 1292.62 7954.5 1297.1" stroke="#FFC000" stroke-width="9.16667" stroke-linecap="round" stroke-linejoin="round" stroke-miterlimit="10" fill="none"/></g><g><path d="M6388.5 1487.5C6393.77 1487.17 6399.05 1486.87 6404.32 1486.51 6409.59 1486.15 6414.86 1485.77 6420.14 1485.34 6425.41 1484.91 6430.68 1484.46 6435.95 1483.95 6441.23 1483.45 6446.5 1482.91 6451.77 1482.32 6457.05 1481.72 6462.32 1481.09 6467.59 1480.39 6472.86 1479.69 6478.14 1478.95 6483.41 1478.14 6488.68 1477.32 6493.95 1476.45 6499.23 1475.51 6504.5 1474.56 6509.77 1473.55 6515.05 1472.46 6520.32 1471.37 6525.59 1470.21 6530.86 1468.95 6536.14 1467.7 6541.41 1466.36 6546.68 1464.93 6551.95 1463.5 6557.23 1461.98 6562.5 1460.36 6567.77 1458.74 6573.05 1457.03 6578.32 1455.2 6583.59 1453.38 6588.86 1451.46 6594.14 1449.43 6599.41 1447.4 6604.68 1445.26 6609.95 1443.02 6615.23 1440.77 6620.5 1438.42 6625.77 1435.95 6631.05 1433.49 6636.32 1430.92 6641.59 1428.24 6646.86 1425.56 6652.14 1422.77 6657.41 1419.88 6662.68 1416.98 6667.95 1413.98 6673.23 1410.88 6678.5 1407.79 6683.77 1404.58 6689.05 1401.28 6694.32 1397.98 6699.59 1394.59 6704.86 1391.1 6710.14 1387.61 6715.41 1384.03 6720.68 1380.36 6725.95 1376.69 6731.23 1372.94 6736.5 1369.1 6741.77 1365.26 6747.05 1361.34 6752.32 1357.33 6757.59 1353.33 6762.86 1349.25 6768.14 1345.09 6773.41 1340.93 6778.68 1336.69 6783.95 1332.38 6789.23 1328.06 6794.5 1323.67 6799.77 1319.2 6805.05 1314.73 6810.32 1310.18 6815.59 1305.55 6820.86 1300.91 6826.14 1296.2 6831.41 1291.4 6836.68 1286.59 6841.95 1281.71 6847.23 1276.72 6852.5 1271.73 6857.77 1266.65 6863.05 1261.45 6868.32 1256.24 6873.59 1250.95 6878.86 1245.5 6884.14 1240.06 6889.41 1234.51 6894.68 1228.78 6899.95 1223.05 6905.23 1217.2 6910.5 1211.13 6915.77 1205.06 6921.05 1198.85 6926.32 1192.36 6931.59 1185.88 6936.86 1179.23 6942.14 1172.23 6947.41 1165.24 6952.68 1158.04 6957.95 1150.4 6963.23 1142.76 6968.5 1134.87 6973.77 1126.41 6979.05 1117.95 6984.32 1109.18 6989.59 1099.63 6994.86 1090.08 7000.14 1080.15 7005.41 1069.11 7010.68 1058.08 7015.95 1046.59 7021.23 1033.42 7026.5 1020.24 7031.77 1006.59 7037.05 990.06 7042.32 973.526 7047.59 956.898 7052.86 934.211 7058.14 911.523 7063.41 893.176 7068.68 853.933 7073.95 814.69 7079.23 734.11 7084.5 698.753 7088.86 669.519 7095.96 628.129 7100.32 641.794 7105.59 658.319 7110.86 762.586 7116.14 797.908 7120.42 826.594 7127.67 842.925 7131.95 853.72 7137.23 867.01 7142.5 872.974 7147.77 877.653 7153.05 882.332 7158.32 881.749 7163.59 881.793 7168.44 881.835 7174.56 871.384 7179.41 877.922 7183.91 883.98 7190.73 900.276 7195.23 924.417 7200.5 952.724 7205.77 1005.16 7211.05 1047.76 7216.32 1090.36 7221.59 1154.39 7226.86 1180.02 7229.55 1193.09 7239.99 1203.34 7242.68 1201.51 7247.95 1197.93 7253.23 1171.09 7258.5 1158.52 7263.77 1145.94 7269.05 1135.48 7274.32 1126.06 7279.59 1116.64 7284.86 1109.33 7290.14 1101.99 7295.41 1094.65 7300.68 1088.36 7305.95 1082 7311.23 1075.63 7316.5 1069.77 7321.77 1063.8 7327.04 1057.82 7332.32 1052.06 7337.59 1046.13 7342.86 1040.2 7348.14 1034.32 7353.41 1028.2 7358.68 1022.08 7363.95 1015.92 7369.23 1009.41 7374.5 1002.91 7379.77 996.287 7385.05 989.176 7390.32 982.065 7395.59 974.784 7400.86 966.748 7406.14 958.711 7411.41 950.531 7416.68 940.959 7421.95 931.386 7427.23 922.441 7432.5 909.315 7437.77 896.189 7443.05 861.964 7448.32 862.203 7453.59 862.442 7458.86 919.243 7464.14 910.749 7469.41 902.254 7474.68 845.24 7479.95 811.237 7485.23 777.234 7490.5 757.805 7495.77 706.73 7501.04 655.655 7506.32 515.078 7511.59 504.789 7516.86 494.5 7522.14 599.996 7527.41 644.995 7532.68 689.995 7537.95 742.369 7543.23 774.786 7548.5 807.204 7553.77 821.24 7559.05 839.498 7564.32 857.756 7569.59 871.023 7574.86 884.335 7580.14 897.647 7585.41 908.609 7590.68 919.368 7595.95 930.126 7601.23 938.337 7606.5 948.888 7611.77 959.439 7617.05 975.271 7622.32 982.674 7627.59 990.078 7632.86 987.994 7638.14 993.31 7643.41 998.625 7648.68 1007.83 7653.95 1014.57 7659.23 1021.3 7664.5 1027.56 7669.77 1033.74 7675.04 1039.92 7680.32 1045.84 7685.59 1051.65 7690.86 1057.47 7696.14 1063.09 7701.41 1068.63 7706.68 1074.17 7711.95 1079.57 7717.23 1084.9 7722.5 1090.23 7727.77 1095.44 7733.04 1100.6 7738.32 1105.76 7743.59 1110.83 7748.86 1115.85 7754.14 1120.88 7759.41 1125.83 7764.68 1130.75 7769.95 1135.66 7775.23 1140.52 7780.5 1145.35 7785.77 1150.18 7791.05 1154.96 7796.32 1159.71 7801.59 1164.47 7806.86 1169.18 7812.14 1173.88 7817.41 1178.58 7822.68 1183.24 7827.95 1187.89 7833.23 1192.54 7838.5 1197.16 7843.77 1201.77 7849.04 1206.38 7854.32 1210.97 7859.59 1215.54 7864.86 1220.12 7870.14 1224.68 7875.41 1229.23 7880.68 1233.78 7885.95 1238.31 7891.23 1242.84 7896.5 1247.36 7901.77 1251.88 7907.04 1256.39 7912.32 1260.9 7917.59 1265.4 7922.86 1269.89 7928.14 1274.38 7933.41 1278.87 7938.68 1283.35 7943.95 1287.83 7949.23 1292.3 7954.5 1296.78" stroke="#5B9BD5" stroke-width="9.16667" stroke-linecap="round" stroke-linejoin="round" stroke-miterlimit="10" fill="none"/></g><g><text font-family="Calibri,Calibri_MSFontService,sans-serif" font-weight="400" font-size="64" transform="matrix(1 0 0 1 6243.89 1536)">-30</text></g><g><text font-family="Calibri,Calibri_MSFontService,sans-serif" font-weight="400" font-size="64" transform="matrix(1 0 0 1 6243.89 1394)">-10</text></g><g><text font-family="Calibri,Calibri_MSFontService,sans-serif" font-weight="400" font-size="64" transform="matrix(1 0 0 1 6263.53 1251)">10</text></g><g><text font-family="Calibri,Calibri_MSFontService,sans-serif" font-weight="400" font-size="64" transform="matrix(1 0 0 1 6263.53 1109)">30</text></g><g><text font-family="Calibri,Calibri_MSFontService,sans-serif" font-weight="400" font-size="64" transform="matrix(1 0 0 1 6263.53 966)">50</text></g><g><text font-family="Calibri,Calibri_MSFontService,sans-serif" font-weight="400" font-size="64" transform="matrix(1 0 0 1 6263.53 823)">70</text></g><g><text font-family="Calibri,Calibri_MSFontService,sans-serif" font-weight="400" font-size="64" transform="matrix(1 0 0 1 6263.53 681)">90</text></g><g><text font-family="Calibri,Calibri_MSFontService,sans-serif" font-weight="400" font-size="64" transform="matrix(1 0 0 1 6231.02 538)">110</text></g><g><text font-family="Calibri,Calibri_MSFontService,sans-serif" font-weight="400" font-size="64" transform="matrix(1 0 0 1 6231.02 396)">130</text></g><g><text font-family="Calibri,Calibri_MSFontService,sans-serif" font-weight="400" font-size="64" transform="matrix(1 0 0 1 6231.02 253)">150</text></g><g><text font-family="Calibri,Calibri_MSFontService,sans-serif" font-weight="700" font-size="64" transform="matrix(6.12323e-17 -1 1 6.12323e-17 6199.94 1085)">Magnitude (dB)</text></g><g><path d="M6504.5 155.5 6592.5 155.5" stroke="#4472C4" stroke-width="9.16667" stroke-linecap="round" stroke-linejoin="round" stroke-miterlimit="10" fill="none" fill-rule="evenodd"/></g><g><text font-family="Calibri,Calibri_MSFontService,sans-serif" font-weight="700" font-size="73" transform="matrix(1 0 0 1 6601.43 176)">P1</text></g><g><path d="M6796.5 155.5 6884.5 155.5" stroke="#ED7D31" stroke-width="9.16667" stroke-linecap="round" stroke-linejoin="round" stroke-miterlimit="10" fill="none" fill-rule="evenodd"/></g><g><text font-family="Calibri,Calibri_MSFontService,sans-serif" font-weight="700" font-size="73" transform="matrix(1 0 0 1 6894.1 176)">P2</text></g><g><path d="M7089.5 155.5 7177.5 155.5" stroke="#A5A5A5" stroke-width="9.16667" stroke-linecap="round" stroke-linejoin="round" stroke-miterlimit="10" fill="none" fill-rule="evenodd"/></g><g><text font-family="Calibri,Calibri_MSFontService,sans-serif" font-weight="700" font-size="73" transform="matrix(1 0 0 1 7186.77 176)">P3</text></g><g><path d="M7382.5 155.5 7470.5 155.5" stroke="#FFC000" stroke-width="9.16667" stroke-linecap="round" stroke-linejoin="round" stroke-miterlimit="10" fill="none" fill-rule="evenodd"/></g><g><text font-family="Calibri,Calibri_MSFontService,sans-serif" font-weight="700" font-size="73" transform="matrix(1 0 0 1 7479.44 176)">P4</text></g><g><path d="M7674.5 155.5 7762.5 155.5" stroke="#5B9BD5" stroke-width="9.16667" stroke-linecap="round" stroke-linejoin="round" stroke-miterlimit="10" fill="none" fill-rule="evenodd"/></g><g><text font-family="Calibri,Calibri_MSFontService,sans-serif" font-weight="700" font-size="73" transform="matrix(1 0 0 1 7772.11 176)">P5</text></g><rect x="6087.5" y="49.5" width="1978" height="1538" stroke="#D9D9D9" stroke-width="3.4375" stroke-linejoin="round" stroke-miterlimit="10" fill="none"/><g><text fill="#FF0000" font-family="Calibri,Calibri_MSFontService,sans-serif" font-weight="700" font-size="73" transform="matrix(1 0 0 1 6434.13 881)">Increasing Power </text></g><g><text fill="#FF0000" font-family="Calibri,Calibri_MSFontService,sans-serif" font-weight="700" font-size="73" transform="matrix(1 0 0 1 6506.11 970)">at</text></g><g><text fill="#FF0000" font-family="Calibri,Calibri_MSFontService,sans-serif" font-weight="700" font-size="73" transform="matrix(1 0 0 1 6584.3 970)">PV source</text></g><g><text fill="#FF0000" font-family="Calibri,Calibri_MSFontService,sans-serif" font-weight="700" font-size="73" transform="matrix(1 0 0 1 6431.98 1060)">P1&lt;P2&lt;P3&lt;P4&lt;P5</text></g><g><path d="M0.0123938-3.43748 719.6-0.843004 719.575 6.03195-0.0123938 3.43748ZM715.054-11.172 742.504 2.6771 714.955 16.3279Z" fill="#7F7F7F" transform="matrix(-1 0 0 1 7676 945.5)"/></g></g></svg>