<svg width="1983" height="2822" xmlns="http://www.w3.org/2000/svg" xmlns:xlink="http://www.w3.org/1999/xlink" xml:space="preserve" overflow="hidden"><defs><clipPath id="clip0"><rect x="8131" y="49" width="1983" height="2822"/></clipPath></defs><g clip-path="url(#clip0)" transform="translate(-8131 -49)"><rect x="8132" y="49.9998" width="1980" height="1563" fill="#FFFFFF"/><g><path d="M8385.5 1542.5 10017.5 1542.5M8385.5 1341.54 10017.5 1341.54M8385.5 939.531 10017.5 939.531M8385.5 738.524 10017.5 738.524M8385.5 536.518 10017.5 536.518M8385.5 335.5 10017.5 335.5" stroke="#D9D9D9" stroke-width="3.4375" stroke-linejoin="round" stroke-miterlimit="10" fill="none"/></g><g><path d="M8508.78 335.5 8508.78 1542.5M8580.78 335.5 8580.78 1542.5M8631.78 335.5 8631.78 1542.5M8670.79 335.5 8670.79 1542.5M8702.79 335.5 8702.79 1542.5M8730.79 335.5 8730.79 1542.5M8753.79 335.5 8753.79 1542.5M8774.79 335.5 8774.79 1542.5M8916.79 335.5 8916.79 1542.5M8988.79 335.5 8988.79 1542.5M9039.8 335.5 9039.8 1542.5M9078.8 335.5 9078.8 1542.5M9110.8 335.5 9110.8 1542.5M9138.8 335.5 9138.8 1542.5M9161.8 335.5 9161.8 1542.5M9182.8 335.5 9182.8 1542.5M9324.81 335.5 9324.81 1542.5M9396.81 335.5 9396.81 1542.5M9447.81 335.5 9447.81 1542.5M9486.81 335.5 9486.81 1542.5M9518.81 335.5 9518.81 1542.5M9546.81 335.5 9546.81 1542.5M9569.81 335.5 9569.81 1542.5M9590.81 335.5 9590.81 1542.5M9732.82 335.5 9732.82 1542.5M9804.82 335.5 9804.82 1542.5M9855.82 335.5 9855.82 1542.5M9894.83 335.5 9894.83 1542.5M9926.83 335.5 9926.83 1542.5M9954.83 335.5 9954.83 1542.5M9977.83 335.5 9977.83 1542.5M9998.83 335.5 9998.83 1542.5" stroke="#F2F2F2" stroke-width="3.4375" stroke-linejoin="round" stroke-miterlimit="10" fill="none"/></g><g><path d="M8793.79 335.5 8793.79 1542.5M9201.8 335.5 9201.8 1542.5M9609.82 335.5 9609.82 1542.5M10017.5 335.5 10017.5 1542.5" stroke="#D9D9D9" stroke-width="3.4375" stroke-linejoin="round" stroke-miterlimit="10" fill="none"/></g><g><path d="M0 0 0.000360892 1207" stroke="#BFBFBF" stroke-width="3.4375" stroke-linejoin="round" stroke-miterlimit="10" fill="none" fill-rule="evenodd" transform="matrix(1 0 0 -1 8385.5 1542.5)"/></g><g><path d="M8385.5 1140.5 10017.5 1140.5" stroke="#BFBFBF" stroke-width="3.4375" stroke-linejoin="round" stroke-miterlimit="10" fill="none" fill-rule="evenodd"/></g><g><path d="M8385.5 1214.5C8391 1214.5 8396.49 1214.5 8401.99 1214.5 8407.48 1214.5 8412.97 1214.5 8418.47 1214.5 8423.96 1214.5 8429.46 1214.5 8434.96 1214.5 8440.45 1214.5 8445.94 1214.5 8451.44 1214.5 8456.93 1214.5 8462.43 1214.5 8467.92 1214.5 8473.42 1214.5 8478.91 1214.5 8484.41 1214.5 8489.9 1214.5 8495.4 1214.5 8500.89 1214.5 8506.39 1214.5 8511.88 1214.5 8517.38 1214.5 8522.87 1214.5 8528.37 1214.5 8533.86 1214.5 8539.36 1214.5 8544.85 1214.5 8550.35 1214.5 8555.84 1214.5 8561.34 1214.5 8566.83 1214.5 8572.33 1214.5 8577.82 1214.5 8583.32 1214.5 8588.81 1214.5 8594.31 1214.5 8599.8 1214.5 8605.3 1214.5 8610.79 1214.5 8616.29 1214.5 8621.78 1214.5 8627.28 1214.5 8632.77 1214.5 8638.27 1214.5 8643.76 1214.5 8649.26 1214.5 8654.75 1214.5 8660.25 1214.5 8665.74 1214.5 8671.24 1214.5 8676.73 1214.5 8682.23 1214.5 8687.72 1214.5 8693.22 1214.5 8698.71 1214.5 8704.21 1214.5 8709.7 1214.5 8715.2 1214.5 8720.69 1214.5 8726.19 1214.5 8731.68 1214.5 8737.18 1214.49 8742.67 1214.49 8748.17 1214.49 8753.66 1214.49 8759.16 1214.49 8764.65 1214.49 8770.15 1214.49 8775.64 1214.49 8781.14 1214.49 8786.63 1214.49 8792.13 1214.49 8797.62 1214.49 8803.12 1214.49 8808.61 1214.49 8814.11 1214.49 8819.6 1214.49 8825.1 1214.49 8830.59 1214.49 8836.09 1214.48 8841.58 1214.48 8847.08 1214.48 8852.57 1214.48 8858.07 1214.48 8863.56 1214.48 8869.06 1214.48 8874.55 1214.48 8880.05 1214.47 8885.54 1214.47 8891.04 1214.47 8896.53 1214.47 8902.02 1214.47 8907.52 1214.47 8913.02 1214.46 8918.51 1214.46 8924 1214.46 8929.5 1214.46 8935 1214.45 8940.49 1214.45 8945.98 1214.45 8951.48 1214.44 8956.97 1214.44 8962.47 1214.44 8967.96 1214.43 8973.46 1214.43 8978.95 1214.42 8984.45 1214.42 8989.94 1214.41 8995.44 1214.41 9000.93 1214.4 9006.43 1214.4 9011.92 1214.39 9017.42 1214.38 9022.91 1214.38 9028.41 1214.37 9033.9 1214.36 9039.4 1214.35 9044.89 1214.34 9050.39 1214.33 9055.88 1214.32 9061.38 1214.31 9066.87 1214.29 9072.37 1214.28 9077.86 1214.27 9083.36 1214.25 9088.85 1214.24 9094.35 1214.22 9099.84 1214.2 9105.34 1214.18 9110.83 1214.16 9116.33 1214.14 9121.82 1214.12 9127.32 1214.09 9132.81 1214.07 9138.31 1214.04 9143.8 1214.01 9149.3 1213.98 9154.79 1213.95 9160.29 1213.91 9165.78 1213.88 9171.28 1213.84 9176.77 1213.79 9182.27 1213.75 9187.76 1213.7 9193.26 1213.65 9198.75 1213.6 9204.25 1213.54 9209.74 1213.48 9215.24 1213.41 9220.73 1213.35 9226.23 1213.27 9231.72 1213.19 9237.22 1213.11 9242.71 1213.02 9248.21 1212.93 9253.7 1212.83 9259.2 1212.72 9264.69 1212.61 9270.19 1212.49 9275.68 1212.36 9281.18 1212.23 9286.67 1212.09 9292.17 1211.93 9297.66 1211.77 9303.16 1211.6 9308.65 1211.41 9314.15 1211.22 9319.64 1211.02 9325.14 1210.79 9330.63 1210.57 9336.13 1210.32 9341.62 1210.05 9347.12 1209.78 9352.61 1209.49 9358.11 1209.17 9363.6 1208.85 9369.1 1208.5 9374.59 1208.12 9380.09 1207.74 9385.58 1207.32 9391.08 1206.87 9396.57 1206.41 9402.07 1205.92 9407.56 1205.38 9413.06 1204.84 9418.55 1204.27 9424.05 1203.63 9429.54 1202.99 9435.04 1202.31 9440.53 1201.56 9446.03 1200.81 9451.52 1200.01 9457.02 1199.13 9462.51 1198.25 9468 1197.31 9473.5 1196.29 9478.99 1195.26 9484.49 1194.17 9489.99 1192.98 9495.48 1191.79 9500.97 1190.53 9506.47 1189.16 9511.96 1187.79 9517.46 1186.33 9522.96 1184.76 9528.45 1183.19 9533.94 1181.52 9539.44 1179.74 9544.93 1177.95 9550.43 1176.06 9555.92 1174.04 9561.42 1172.03 9566.91 1169.9 9572.41 1167.64 9577.9 1165.38 9583.4 1163 9588.89 1160.5 9594.39 1157.99 9599.88 1155.36 9605.38 1152.6 9610.87 1149.84 9616.37 1146.96 9621.86 1143.95 9627.36 1140.94 9632.85 1137.8 9638.35 1134.54 9643.84 1131.29 9649.34 1127.9 9654.83 1124.41 9660.33 1120.91 9665.82 1117.3 9671.32 1113.57 9676.81 1109.85 9682.31 1106.01 9687.8 1102.07 9693.3 1098.13 9698.79 1094.08 9704.29 1089.94 9709.78 1085.8 9715.28 1081.56 9720.77 1077.23 9726.27 1072.9 9731.76 1068.47 9737.26 1063.97 9742.75 1059.46 9748.25 1054.87 9753.74 1050.2 9759.24 1045.53 9764.73 1040.78 9770.23 1035.95 9775.72 1031.13 9781.22 1026.23 9786.71 1021.26 9792.21 1016.29 9797.7 1011.25 9803.2 1006.14 9808.69 1001.04 9814.19 995.868 9819.68 990.639 9825.18 985.409 9830.67 980.114 9836.17 974.767 9841.66 969.42 9847.16 964.012 9852.65 958.556 9858.15 953.1 9863.64 947.587 9869.14 942.031 9874.63 936.475 9880.13 930.867 9885.62 925.221 9891.12 919.574 9896.61 913.88 9902.11 908.151 9907.6 902.423 9913.1 896.651 9918.59 890.849 9924.09 885.048 9929.58 879.208 9935.08 873.341 9940.57 867.475 9946.07 861.574 9951.56 855.651 9957.06 849.728 9962.55 843.775 9968.04 837.802 9973.54 831.829 9979.04 825.83 9984.53 819.815 9990.03 813.799 9995.52 807.76 10001 801.708 10006.5 795.656 10012 789.569 10017.5 783.5" stroke="#4472C4" stroke-width="9.16667" stroke-linecap="round" stroke-linejoin="round" stroke-miterlimit="10" fill="none"/></g><g><path d="M8385.5 1464.5C8391 1464.5 8396.49 1464.5 8401.99 1464.5 8407.48 1464.5 8412.97 1464.5 8418.47 1464.5 8423.96 1464.5 8429.46 1464.5 8434.96 1464.5 8440.45 1464.5 8445.94 1464.5 8451.44 1464.5 8456.93 1464.5 8462.43 1464.5 8467.92 1464.5 8473.42 1464.5 8478.91 1464.5 8484.41 1464.5 8489.9 1464.5 8495.4 1464.5 8500.89 1464.5 8506.39 1464.5 8511.88 1464.5 8517.38 1464.5 8522.87 1464.5 8528.37 1464.5 8533.86 1464.5 8539.36 1464.5 8544.85 1464.5 8550.35 1464.5 8555.84 1464.5 8561.34 1464.5 8566.83 1464.5 8572.33 1464.5 8577.82 1464.5 8583.32 1464.5 8588.81 1464.5 8594.31 1464.5 8599.8 1464.5 8605.3 1464.5 8610.79 1464.5 8616.29 1464.5 8621.78 1464.5 8627.28 1464.5 8632.77 1464.5 8638.27 1464.5 8643.76 1464.5 8649.26 1464.5 8654.75 1464.5 8660.25 1464.5 8665.74 1464.5 8671.24 1464.5 8676.73 1464.5 8682.23 1464.5 8687.72 1464.5 8693.22 1464.5 8698.71 1464.5 8704.21 1464.5 8709.7 1464.5 8715.2 1464.5 8720.69 1464.5 8726.19 1464.5 8731.68 1464.5 8737.18 1464.49 8742.67 1464.49 8748.17 1464.49 8753.66 1464.49 8759.16 1464.49 8764.65 1464.49 8770.15 1464.49 8775.64 1464.49 8781.14 1464.49 8786.63 1464.49 8792.13 1464.49 8797.62 1464.49 8803.12 1464.49 8808.61 1464.49 8814.11 1464.49 8819.6 1464.49 8825.1 1464.49 8830.59 1464.48 8836.09 1464.48 8841.58 1464.48 8847.08 1464.48 8852.57 1464.48 8858.07 1464.48 8863.56 1464.48 8869.06 1464.48 8874.55 1464.47 8880.05 1464.47 8885.54 1464.47 8891.04 1464.47 8896.53 1464.47 8902.02 1464.47 8907.52 1464.46 8913.02 1464.46 8918.51 1464.46 8924 1464.46 8929.5 1464.45 8935 1464.45 8940.49 1464.45 8945.98 1464.44 8951.48 1464.44 8956.97 1464.44 8962.47 1464.43 8967.96 1464.43 8973.46 1464.42 8978.95 1464.42 8984.45 1464.41 8989.94 1464.41 8995.44 1464.4 9000.93 1464.4 9006.43 1464.39 9011.92 1464.38 9017.42 1464.37 9022.91 1464.37 9028.41 1464.36 9033.9 1464.35 9039.4 1464.34 9044.89 1464.33 9050.39 1464.32 9055.88 1464.31 9061.38 1464.29 9066.87 1464.28 9072.37 1464.27 9077.86 1464.25 9083.36 1464.24 9088.85 1464.22 9094.35 1464.2 9099.84 1464.18 9105.34 1464.16 9110.83 1464.14 9116.33 1464.12 9121.82 1464.09 9127.32 1464.07 9132.81 1464.04 9138.31 1464.01 9143.8 1463.98 9149.3 1463.94 9154.79 1463.91 9160.29 1463.87 9165.78 1463.83 9171.28 1463.79 9176.77 1463.74 9182.27 1463.7 9187.76 1463.64 9193.26 1463.59 9198.75 1463.53 9204.25 1463.47 9209.74 1463.4 9215.24 1463.33 9220.73 1463.26 9226.23 1463.18 9231.72 1463.1 9237.22 1463.01 9242.71 1462.91 9248.21 1462.81 9253.7 1462.71 9259.2 1462.59 9264.69 1462.47 9270.19 1462.35 9275.68 1462.2 9281.18 1462.06 9286.67 1461.91 9292.17 1461.74 9297.66 1461.57 9303.16 1461.39 9308.65 1461.19 9314.15 1460.98 9319.64 1460.76 9325.14 1460.52 9330.63 1460.28 9336.13 1460.02 9341.62 1459.73 9347.12 1459.44 9352.61 1459.12 9358.11 1458.78 9363.6 1458.43 9369.1 1458.06 9374.59 1457.65 9380.09 1457.23 9385.58 1456.79 9391.08 1456.3 9396.57 1455.81 9402.07 1455.28 9407.56 1454.7 9413.06 1454.12 9418.55 1453.5 9424.05 1452.81 9429.54 1452.12 9435.04 1451.39 9440.53 1450.58 9446.03 1449.77 9451.52 1448.91 9457.02 1447.96 9462.51 1447.01 9468 1445.99 9473.5 1444.88 9478.99 1443.78 9484.49 1442.59 9489.99 1441.3 9495.48 1440.02 9500.97 1438.64 9506.47 1437.15 9511.96 1435.67 9517.46 1434.08 9522.96 1432.37 9528.45 1430.66 9533.94 1428.85 9539.44 1426.9 9544.93 1424.95 9550.43 1422.89 9555.92 1420.68 9561.42 1418.48 9566.91 1416.15 9572.41 1413.67 9577.9 1411.19 9583.4 1408.58 9588.89 1405.83 9594.39 1403.07 9599.88 1400.17 9605.38 1397.12 9610.87 1394.08 9616.37 1390.89 9621.86 1387.55 9627.36 1384.22 9632.85 1380.74 9638.35 1377.12 9643.84 1373.5 9649.34 1369.73 9654.83 1365.83 9660.33 1361.94 9665.82 1357.9 9671.32 1353.74 9676.81 1349.58 9682.31 1345.28 9687.8 1340.87 9693.3 1336.46 9698.79 1331.92 9704.29 1327.28 9709.78 1322.64 9715.28 1317.88 9720.77 1313.03 9726.27 1308.18 9731.76 1303.22 9737.26 1298.18 9742.75 1293.14 9748.25 1288 9753.74 1282.79 9759.24 1277.58 9764.73 1272.29 9770.23 1266.93 9775.72 1261.57 9781.22 1256.13 9786.71 1250.64 9792.21 1245.15 9797.7 1239.59 9803.2 1233.99 9808.69 1228.39 9814.19 1222.72 9819.68 1217.02 9825.18 1211.32 9830.67 1205.57 9836.17 1199.78 9841.66 1193.99 9847.16 1188.16 9852.65 1182.31 9858.15 1176.45 9863.64 1170.55 9869.14 1164.64 9874.63 1158.72 9880.13 1152.77 9885.62 1146.8 9891.12 1140.83 9896.61 1134.83 9902.11 1128.82 9907.6 1122.8 9913.1 1116.77 9918.59 1110.72 9924.09 1104.67 9929.58 1098.6 9935.08 1092.52 9940.57 1086.44 9946.07 1080.34 9951.56 1074.23 9957.06 1068.13 9962.55 1062.01 9968.04 1055.88 9973.54 1049.75 9979.04 1043.61 9984.53 1037.47 9990.03 1031.32 9995.52 1025.16 10001 1019 10006.5 1012.84 10012 1006.67 10017.5 1000.5" stroke="#ED7D31" stroke-width="6.875" stroke-linecap="round" stroke-linejoin="round" stroke-miterlimit="10" fill="none"/></g><g><path d="M8385.5 1309.5C8391 1309.5 8396.49 1309.5 8401.99 1309.49 8407.48 1309.49 8412.97 1309.49 8418.47 1309.48 8423.96 1309.48 8429.46 1309.48 8434.96 1309.47 8440.45 1309.47 8445.94 1309.47 8451.44 1309.46 8456.93 1309.46 8462.43 1309.45 8467.92 1309.45 8473.42 1309.44 8478.91 1309.44 8484.41 1309.43 8489.9 1309.42 8495.4 1309.42 8500.89 1309.41 8506.39 1309.4 8511.88 1309.39 8517.38 1309.38 8522.87 1309.37 8528.37 1309.36 8533.86 1309.35 8539.36 1309.34 8544.85 1309.33 8550.35 1309.32 8555.84 1309.3 8561.34 1309.29 8566.83 1309.27 8572.33 1309.26 8577.82 1309.24 8583.32 1309.22 8588.81 1309.2 8594.31 1309.18 8599.8 1309.16 8605.3 1309.13 8610.79 1309.11 8616.29 1309.08 8621.78 1309.05 8627.28 1309.02 8632.77 1308.99 8638.27 1308.95 8643.76 1308.92 8649.26 1308.88 8654.75 1308.83 8660.25 1308.79 8665.74 1308.74 8671.24 1308.69 8676.73 1308.64 8682.23 1308.58 8687.72 1308.52 8693.22 1308.46 8698.71 1308.39 8704.21 1308.32 8709.7 1308.25 8715.2 1308.16 8720.69 1308.08 8726.19 1307.99 8731.68 1307.89 8737.18 1307.79 8742.67 1307.68 8748.17 1307.56 8753.66 1307.45 8759.16 1307.32 8764.65 1307.18 8770.15 1307.04 8775.64 1306.88 8781.14 1306.72 8786.63 1306.55 8792.13 1306.37 8797.62 1306.17 8803.12 1305.97 8808.61 1305.76 8814.11 1305.53 8819.6 1305.3 8825.1 1305.05 8830.59 1304.77 8836.09 1304.5 8841.58 1304.21 8847.08 1303.89 8852.57 1303.57 8858.07 1303.23 8863.56 1302.86 8869.06 1302.49 8874.55 1302.09 8880.05 1301.66 8885.54 1301.24 8891.04 1300.78 8896.53 1300.29 8902.02 1299.8 8907.52 1299.28 8913.02 1298.73 8918.51 1298.17 8924 1297.59 8929.5 1296.96 8935 1296.34 8940.49 1295.68 8945.98 1294.99 8951.48 1294.29 8956.97 1293.57 8962.47 1292.8 8967.96 1292.04 8973.46 1291.25 8978.95 1290.42 8984.45 1289.6 8989.94 1288.74 8995.44 1287.85 9000.93 1286.97 9006.43 1286.06 9011.92 1285.13 9017.42 1284.2 9022.91 1283.25 9028.41 1282.29 9033.9 1281.33 9039.4 1280.34 9044.89 1279.36 9050.39 1278.38 9055.88 1277.39 9061.38 1276.41 9066.87 1275.42 9072.37 1274.43 9077.86 1273.47 9083.36 1272.5 9088.85 1271.53 9094.35 1270.59 9099.84 1269.65 9105.34 1268.72 9110.83 1267.82 9116.33 1266.92 9121.82 1266.04 9127.32 1265.2 9132.81 1264.35 9138.31 1263.53 9143.8 1262.74 9149.3 1261.96 9154.79 1261.2 9160.29 1260.48 9165.78 1259.76 9171.28 1259.07 9176.77 1258.42 9182.27 1257.77 9187.76 1257.15 9193.26 1256.56 9198.75 1255.97 9204.25 1255.42 9209.74 1254.9 9215.24 1254.38 9220.73 1253.89 9226.23 1253.43 9231.72 1252.96 9237.22 1252.53 9242.71 1252.13 9248.21 1251.72 9253.7 1251.34 9259.2 1250.98 9264.69 1250.63 9270.19 1250.3 9275.68 1249.98 9281.18 1249.67 9286.67 1249.38 9292.17 1249.11 9297.66 1248.84 9303.16 1248.59 9308.65 1248.36 9314.15 1248.12 9319.64 1247.91 9325.14 1247.71 9330.63 1247.51 9336.13 1247.33 9341.62 1247.16 9347.12 1247 9352.61 1246.85 9358.11 1246.73 9363.6 1246.6 9369.1 1246.49 9374.59 1246.41 9380.09 1246.33 9385.58 1246.27 9391.08 1246.25 9396.57 1246.23 9402.07 1246.23 9407.56 1246.28 9413.06 1246.34 9418.55 1246.42 9424.05 1246.57 9429.54 1246.73 9435.04 1246.92 9440.53 1247.21 9446.03 1247.49 9451.52 1247.83 9457.02 1248.28 9462.51 1248.73 9468 1249.26 9473.5 1249.89 9478.99 1250.53 9484.49 1251.27 9489.99 1252.09 9495.48 1252.91 9500.97 1253.86 9506.47 1254.82 9511.96 1255.77 9517.46 1256.86 9522.96 1257.83 9528.45 1258.8 9533.94 1259.85 9539.44 1260.63 9544.93 1261.4 9550.43 1262.15 9555.92 1262.47 9561.42 1262.79 9566.91 1262.93 9572.41 1262.55 9577.9 1262.17 9583.4 1261.44 9588.89 1260.22 9594.39 1258.99 9599.88 1257.29 9605.38 1255.18 9610.87 1253.07 9616.37 1250.47 9621.86 1247.56 9627.36 1244.65 9632.85 1241.3 9638.35 1237.73 9643.84 1234.15 9649.34 1230.22 9654.83 1226.13 9660.33 1222.04 9665.82 1217.67 9671.32 1213.19 9676.81 1208.71 9682.31 1204.02 9687.8 1199.25 9693.3 1194.47 9698.79 1189.54 9704.29 1184.54 9709.78 1179.53 9715.28 1174.41 9720.77 1169.23 9726.27 1164.04 9731.76 1158.77 9737.26 1153.44 9742.75 1148.11 9748.25 1142.71 9753.74 1137.26 9759.24 1131.81 9764.73 1126.29 9770.23 1120.74 9775.72 1115.18 9781.22 1109.58 9786.71 1103.93 9792.21 1098.29 9797.7 1092.6 9803.2 1086.88 9808.69 1081.16 9814.19 1075.4 9819.68 1069.61 9825.18 1063.82 9830.67 1057.99 9836.17 1052.14 9841.66 1046.29 9847.16 1040.41 9852.65 1034.51 9858.15 1028.61 9863.64 1022.68 9869.14 1016.73 9874.63 1010.78 9880.13 1004.81 9885.62 998.82 9891.12 992.831 9896.61 986.82 9902.11 980.796 9907.6 974.771 9913.1 968.728 9918.59 962.672 9924.09 956.617 9929.58 950.545 9935.08 944.463 9940.57 938.381 9946.07 932.285 9951.56 926.18 9957.06 920.075 9962.55 913.958 9968.04 907.834 9973.54 901.709 9979.04 895.574 9984.53 889.433 9990.03 883.292 9995.52 877.141 10001 870.986 10006.5 864.83 10012 858.662 10017.5 852.5" stroke="#264478" stroke-width="9.16667" stroke-linecap="round" stroke-linejoin="round" stroke-miterlimit="10" fill="none"/></g><g><path d="M8385.5 1464.5C8391 1464.5 8396.49 1464.5 8401.99 1464.5 8407.48 1464.5 8412.97 1464.5 8418.47 1464.5 8423.96 1464.5 8429.46 1464.5 8434.96 1464.5 8440.45 1464.5 8445.94 1464.5 8451.44 1464.5 8456.93 1464.5 8462.43 1464.5 8467.92 1464.5 8473.42 1464.5 8478.91 1464.5 8484.41 1464.5 8489.9 1464.5 8495.4 1464.5 8500.89 1464.5 8506.39 1464.5 8511.88 1464.5 8517.38 1464.5 8522.87 1464.5 8528.37 1464.5 8533.86 1464.5 8539.36 1464.5 8544.85 1464.5 8550.35 1464.5 8555.84 1464.5 8561.34 1464.5 8566.83 1464.5 8572.33 1464.5 8577.82 1464.5 8583.32 1464.5 8588.81 1464.5 8594.31 1464.5 8599.8 1464.5 8605.3 1464.5 8610.79 1464.5 8616.29 1464.5 8621.78 1464.5 8627.28 1464.5 8632.77 1464.5 8638.27 1464.5 8643.76 1464.5 8649.26 1464.5 8654.75 1464.5 8660.25 1464.5 8665.74 1464.5 8671.24 1464.5 8676.73 1464.5 8682.23 1464.5 8687.72 1464.5 8693.22 1464.5 8698.71 1464.5 8704.21 1464.5 8709.7 1464.5 8715.2 1464.5 8720.69 1464.5 8726.19 1464.5 8731.68 1464.5 8737.18 1464.49 8742.67 1464.49 8748.17 1464.49 8753.66 1464.49 8759.16 1464.49 8764.65 1464.49 8770.15 1464.49 8775.64 1464.49 8781.14 1464.49 8786.63 1464.49 8792.13 1464.49 8797.62 1464.49 8803.12 1464.49 8808.61 1464.49 8814.11 1464.49 8819.6 1464.49 8825.1 1464.49 8830.59 1464.48 8836.09 1464.48 8841.58 1464.48 8847.08 1464.48 8852.57 1464.48 8858.07 1464.48 8863.56 1464.48 8869.06 1464.48 8874.55 1464.47 8880.05 1464.47 8885.54 1464.47 8891.04 1464.47 8896.53 1464.47 8902.02 1464.47 8907.52 1464.46 8913.02 1464.46 8918.51 1464.46 8924 1464.46 8929.5 1464.45 8935 1464.45 8940.49 1464.45 8945.98 1464.44 8951.48 1464.44 8956.97 1464.44 8962.47 1464.43 8967.96 1464.43 8973.46 1464.42 8978.95 1464.42 8984.45 1464.41 8989.94 1464.41 8995.44 1464.4 9000.93 1464.4 9006.43 1464.39 9011.92 1464.38 9017.42 1464.37 9022.91 1464.37 9028.41 1464.36 9033.9 1464.35 9039.4 1464.34 9044.89 1464.33 9050.39 1464.32 9055.88 1464.31 9061.38 1464.29 9066.87 1464.28 9072.37 1464.27 9077.86 1464.25 9083.36 1464.24 9088.85 1464.22 9094.35 1464.2 9099.84 1464.18 9105.34 1464.16 9110.83 1464.14 9116.33 1464.12 9121.82 1464.09 9127.32 1464.07 9132.81 1464.04 9138.31 1464.01 9143.8 1463.98 9149.3 1463.94 9154.79 1463.91 9160.29 1463.87 9165.78 1463.83 9171.28 1463.79 9176.77 1463.74 9182.27 1463.7 9187.76 1463.64 9193.26 1463.59 9198.75 1463.53 9204.25 1463.47 9209.74 1463.4 9215.24 1463.33 9220.73 1463.26 9226.23 1463.18 9231.72 1463.1 9237.22 1463.01 9242.71 1462.91 9248.21 1462.81 9253.7 1462.71 9259.2 1462.59 9264.69 1462.47 9270.19 1462.35 9275.68 1462.2 9281.18 1462.06 9286.67 1461.91 9292.17 1461.74 9297.66 1461.57 9303.16 1461.39 9308.65 1461.19 9314.15 1460.98 9319.64 1460.76 9325.14 1460.52 9330.63 1460.28 9336.13 1460.02 9341.62 1459.73 9347.12 1459.44 9352.61 1459.12 9358.11 1458.78 9363.6 1458.43 9369.1 1458.06 9374.59 1457.65 9380.09 1457.23 9385.58 1456.79 9391.08 1456.3 9396.57 1455.81 9402.07 1455.28 9407.56 1454.7 9413.06 1454.12 9418.55 1453.5 9424.05 1452.81 9429.54 1452.12 9435.04 1451.39 9440.53 1450.58 9446.03 1449.77 9451.52 1448.91 9457.02 1447.96 9462.51 1447.01 9468 1445.99 9473.5 1444.88 9478.99 1443.78 9484.49 1442.59 9489.99 1441.3 9495.48 1440.02 9500.97 1438.64 9506.47 1437.15 9511.96 1435.67 9517.46 1434.08 9522.96 1432.37 9528.45 1430.66 9533.94 1428.85 9539.44 1426.9 9544.93 1424.95 9550.43 1422.89 9555.92 1420.68 9561.42 1418.48 9566.91 1416.15 9572.41 1413.67 9577.9 1411.19 9583.4 1408.58 9588.89 1405.83 9594.39 1403.07 9599.88 1400.17 9605.38 1397.12 9610.87 1394.08 9616.37 1390.89 9621.86 1387.55 9627.36 1384.22 9632.85 1380.74 9638.35 1377.12 9643.84 1373.5 9649.34 1369.73 9654.83 1365.83 9660.33 1361.94 9665.82 1357.9 9671.32 1353.74 9676.81 1349.58 9682.31 1345.28 9687.8 1340.87 9693.3 1336.46 9698.79 1331.92 9704.29 1327.28 9709.78 1322.64 9715.28 1317.88 9720.77 1313.03 9726.27 1308.18 9731.76 1303.22 9737.26 1298.18 9742.75 1293.14 9748.25 1288 9753.74 1282.79 9759.24 1277.58 9764.73 1272.29 9770.23 1266.93 9775.72 1261.57 9781.22 1256.13 9786.71 1250.64 9792.21 1245.15 9797.7 1239.59 9803.2 1233.99 9808.69 1228.39 9814.19 1222.72 9819.68 1217.02 9825.18 1211.32 9830.67 1205.57 9836.17 1199.78 9841.66 1193.99 9847.16 1188.16 9852.65 1182.31 9858.15 1176.45 9863.64 1170.55 9869.14 1164.64 9874.63 1158.72 9880.13 1152.77 9885.62 1146.8 9891.12 1140.83 9896.61 1134.83 9902.11 1128.82 9907.6 1122.8 9913.1 1116.77 9918.59 1110.72 9924.09 1104.67 9929.58 1098.6 9935.08 1092.52 9940.57 1086.44 9946.07 1080.34 9951.56 1074.23 9957.06 1068.13 9962.55 1062.01 9968.04 1055.88 9973.54 1049.75 9979.04 1043.61 9984.53 1037.47 9990.03 1031.32 9995.52 1025.16 10001 1019 10006.5 1012.84 10012 1006.67 10017.5 1000.5" stroke="#FFC000" stroke-width="6.875" stroke-linecap="round" stroke-linejoin="round" stroke-miterlimit="10" fill="none"/></g><g><path d="M8385.5 1270.5C8391 1270.5 8396.49 1270.49 8401.99 1270.49 8407.48 1270.49 8412.97 1270.48 8418.47 1270.48 8423.96 1270.47 8429.46 1270.47 8434.96 1270.46 8440.45 1270.46 8445.94 1270.45 8451.44 1270.45 8456.93 1270.44 8462.43 1270.43 8467.92 1270.43 8473.42 1270.42 8478.91 1270.41 8484.41 1270.4 8489.9 1270.39 8495.4 1270.38 8500.89 1270.37 8506.39 1270.36 8511.88 1270.35 8517.38 1270.33 8522.87 1270.32 8528.37 1270.31 8533.86 1270.29 8539.36 1270.28 8544.85 1270.26 8550.35 1270.24 8555.84 1270.22 8561.34 1270.2 8566.83 1270.18 8572.33 1270.15 8577.82 1270.13 8583.32 1270.1 8588.81 1270.07 8594.31 1270.04 8599.8 1270.01 8605.3 1269.98 8610.79 1269.94 8616.29 1269.9 8621.78 1269.86 8627.28 1269.82 8632.77 1269.77 8638.27 1269.72 8643.76 1269.67 8649.26 1269.61 8654.75 1269.55 8660.25 1269.49 8665.74 1269.42 8671.24 1269.35 8676.73 1269.27 8682.23 1269.19 8687.72 1269.11 8693.22 1269.02 8698.71 1268.92 8704.21 1268.82 8709.7 1268.71 8715.2 1268.59 8720.69 1268.47 8726.19 1268.34 8731.68 1268.2 8737.18 1268.05 8742.67 1267.9 8748.17 1267.73 8753.66 1267.56 8759.16 1267.37 8764.65 1267.17 8770.15 1266.96 8775.64 1266.74 8781.14 1266.5 8786.63 1266.26 8792.13 1266 8797.62 1265.71 8803.12 1265.42 8808.61 1265.11 8814.11 1264.77 8819.6 1264.43 8825.1 1264.06 8830.59 1263.66 8836.09 1263.26 8841.58 1262.82 8847.08 1262.35 8852.57 1261.88 8858.07 1261.37 8863.56 1260.82 8869.06 1260.26 8874.55 1259.67 8880.05 1259.03 8885.54 1258.38 8891.04 1257.69 8896.53 1256.95 8902.02 1256.2 8907.52 1255.41 8913.02 1254.55 8918.51 1253.69 8924 1252.78 8929.5 1251.81 8935 1250.83 8940.49 1249.79 8945.98 1248.69 8951.48 1247.59 8956.97 1246.42 8962.47 1245.19 8967.96 1243.95 8973.46 1242.65 8978.95 1241.29 8984.45 1239.92 8989.94 1238.49 8995.44 1237 9000.93 1235.5 9006.43 1233.94 9011.92 1232.33 9017.42 1230.72 9022.91 1229.04 9028.41 1227.33 9033.9 1225.61 9039.4 1223.84 9044.89 1222.04 9050.39 1220.24 9055.88 1218.39 9061.38 1216.53 9066.87 1214.67 9072.37 1212.77 9077.86 1210.88 9083.36 1208.99 9088.85 1207.07 9094.35 1205.18 9099.84 1203.29 9105.34 1201.39 9110.83 1199.52 9116.33 1197.66 9121.82 1195.8 9127.32 1194 9132.81 1192.19 9138.31 1190.41 9143.8 1188.69 9149.3 1186.97 9154.79 1185.29 9160.29 1183.69 9165.78 1182.08 9171.28 1180.52 9176.77 1179.04 9182.27 1177.56 9187.76 1176.15 9193.26 1174.81 9198.75 1173.48 9204.25 1172.21 9209.74 1171.03 9215.24 1169.85 9220.73 1168.75 9226.23 1167.73 9231.72 1166.71 9237.22 1165.77 9242.71 1164.92 9248.21 1164.06 9253.7 1163.29 9259.2 1162.6 9264.69 1161.91 9270.19 1161.31 9275.68 1160.78 9281.18 1160.26 9286.67 1159.83 9292.17 1159.48 9297.66 1159.13 9303.16 1158.86 9308.65 1158.69 9314.15 1158.52 9319.64 1158.43 9325.14 1158.44 9330.63 1158.46 9336.13 1158.56 9341.62 1158.77 9347.12 1158.98 9352.61 1159.29 9358.11 1159.72 9363.6 1160.15 9369.1 1160.68 9374.59 1161.35 9380.09 1162.03 9385.58 1162.82 9391.08 1163.77 9396.57 1164.72 9402.07 1165.8 9407.56 1167.06 9413.06 1168.33 9418.55 1169.74 9424.05 1171.35 9429.54 1172.95 9435.04 1174.73 9440.53 1176.71 9446.03 1178.69 9451.52 1180.87 9457.02 1183.22 9462.51 1185.57 9468 1188.14 9473.5 1190.83 9478.99 1193.51 9484.49 1196.42 9489.99 1199.34 9495.48 1202.25 9500.97 1205.36 9506.47 1208.33 9511.96 1211.29 9517.46 1214.38 9522.96 1217.13 9528.45 1219.87 9533.94 1222.6 9539.44 1224.81 9544.93 1227.02 9550.43 1229.02 9555.92 1230.37 9561.42 1231.72 9566.91 1232.65 9572.41 1232.91 9577.9 1233.17 9583.4 1232.85 9588.89 1231.92 9594.39 1231 9599.88 1229.41 9605.38 1227.36 9610.87 1225.31 9616.37 1222.62 9621.86 1219.61 9627.36 1216.59 9632.85 1213.04 9638.35 1209.26 9643.84 1205.49 9649.34 1201.3 9654.83 1196.96 9660.33 1192.63 9665.82 1187.98 9671.32 1183.25 9676.81 1178.51 9682.31 1173.55 9687.8 1168.53 9693.3 1163.51 9698.79 1158.34 9704.29 1153.11 9709.78 1147.89 9715.28 1142.56 9720.77 1137.19 9726.27 1131.82 9731.76 1126.37 9737.26 1120.89 9742.75 1115.41 9748.25 1109.87 9753.74 1104.3 9759.24 1098.74 9764.73 1093.13 9770.23 1087.49 9775.72 1081.85 9781.22 1076.18 9786.71 1070.48 9792.21 1064.78 9797.7 1059.05 9803.2 1053.3 9808.69 1047.55 9814.19 1041.77 9819.68 1035.96 9825.18 1030.16 9830.67 1024.34 9836.17 1018.49 9841.66 1012.64 9847.16 1006.77 9852.65 1000.88 9858.15 994.993 9863.64 989.082 9869.14 983.153 9874.63 977.225 9880.13 971.275 9885.62 965.31 9891.12 959.345 9896.61 953.36 9902.11 947.361 9907.6 941.362 9913.1 935.345 9918.59 929.315 9924.09 923.285 9929.58 917.24 9935.08 911.182 9940.57 905.124 9946.07 899.052 9951.56 892.97 9957.06 886.887 9962.55 880.792 9968.04 874.688 9973.54 868.583 9979.04 862.467 9984.53 856.343 9990.03 850.219 9995.52 844.085 10001 837.945 10006.5 831.804 10012 825.648 10017.5 819.5" stroke="#5B9BD5" stroke-width="9.16667" stroke-linecap="round" stroke-linejoin="round" stroke-miterlimit="10" fill="none"/></g><g><path d="M8385.5 1464.5C8391 1464.5 8396.49 1464.5 8401.99 1464.5 8407.48 1464.5 8412.97 1464.5 8418.47 1464.5 8423.96 1464.5 8429.46 1464.5 8434.96 1464.5 8440.45 1464.5 8445.94 1464.5 8451.44 1464.5 8456.93 1464.5 8462.43 1464.5 8467.92 1464.5 8473.42 1464.5 8478.91 1464.5 8484.41 1464.5 8489.9 1464.5 8495.4 1464.5 8500.89 1464.5 8506.39 1464.5 8511.88 1464.5 8517.38 1464.5 8522.87 1464.5 8528.37 1464.5 8533.86 1464.5 8539.36 1464.5 8544.85 1464.5 8550.35 1464.5 8555.84 1464.5 8561.34 1464.5 8566.83 1464.5 8572.33 1464.5 8577.82 1464.5 8583.32 1464.5 8588.81 1464.5 8594.31 1464.5 8599.8 1464.5 8605.3 1464.5 8610.79 1464.5 8616.29 1464.5 8621.78 1464.5 8627.28 1464.5 8632.77 1464.5 8638.27 1464.5 8643.76 1464.5 8649.26 1464.5 8654.75 1464.5 8660.25 1464.5 8665.74 1464.5 8671.24 1464.5 8676.73 1464.5 8682.23 1464.5 8687.72 1464.5 8693.22 1464.5 8698.71 1464.5 8704.21 1464.5 8709.7 1464.5 8715.2 1464.5 8720.69 1464.5 8726.19 1464.5 8731.68 1464.5 8737.18 1464.49 8742.67 1464.49 8748.17 1464.49 8753.66 1464.49 8759.16 1464.49 8764.65 1464.49 8770.15 1464.49 8775.64 1464.49 8781.14 1464.49 8786.63 1464.49 8792.13 1464.49 8797.62 1464.49 8803.12 1464.49 8808.61 1464.49 8814.11 1464.49 8819.6 1464.49 8825.1 1464.49 8830.59 1464.48 8836.09 1464.48 8841.58 1464.48 8847.08 1464.48 8852.57 1464.48 8858.07 1464.48 8863.56 1464.48 8869.06 1464.48 8874.55 1464.47 8880.05 1464.47 8885.54 1464.47 8891.04 1464.47 8896.53 1464.47 8902.02 1464.47 8907.52 1464.46 8913.02 1464.46 8918.51 1464.46 8924 1464.46 8929.5 1464.45 8935 1464.45 8940.49 1464.45 8945.98 1464.44 8951.48 1464.44 8956.97 1464.44 8962.47 1464.43 8967.96 1464.43 8973.46 1464.42 8978.95 1464.42 8984.45 1464.41 8989.94 1464.41 8995.44 1464.4 9000.93 1464.4 9006.43 1464.39 9011.92 1464.38 9017.42 1464.37 9022.91 1464.37 9028.41 1464.36 9033.9 1464.35 9039.4 1464.34 9044.89 1464.33 9050.39 1464.32 9055.88 1464.31 9061.38 1464.29 9066.87 1464.28 9072.37 1464.27 9077.86 1464.25 9083.36 1464.24 9088.85 1464.22 9094.35 1464.2 9099.84 1464.18 9105.34 1464.16 9110.83 1464.14 9116.33 1464.12 9121.82 1464.09 9127.32 1464.07 9132.81 1464.04 9138.31 1464.01 9143.8 1463.98 9149.3 1463.94 9154.79 1463.91 9160.29 1463.87 9165.78 1463.83 9171.28 1463.79 9176.77 1463.74 9182.27 1463.7 9187.76 1463.64 9193.26 1463.59 9198.75 1463.53 9204.25 1463.47 9209.74 1463.4 9215.24 1463.33 9220.73 1463.26 9226.23 1463.18 9231.72 1463.1 9237.22 1463.01 9242.71 1462.91 9248.21 1462.81 9253.7 1462.71 9259.2 1462.59 9264.69 1462.47 9270.19 1462.35 9275.68 1462.2 9281.18 1462.06 9286.67 1461.91 9292.17 1461.74 9297.66 1461.57 9303.16 1461.39 9308.65 1461.19 9314.15 1460.98 9319.64 1460.76 9325.14 1460.52 9330.63 1460.28 9336.13 1460.02 9341.62 1459.73 9347.12 1459.44 9352.61 1459.12 9358.11 1458.78 9363.6 1458.43 9369.1 1458.06 9374.59 1457.65 9380.09 1457.23 9385.58 1456.79 9391.08 1456.3 9396.57 1455.81 9402.07 1455.28 9407.56 1454.7 9413.06 1454.12 9418.55 1453.5 9424.05 1452.81 9429.54 1452.12 9435.04 1451.39 9440.53 1450.58 9446.03 1449.77 9451.52 1448.91 9457.02 1447.96 9462.51 1447.01 9468 1445.99 9473.5 1444.88 9478.99 1443.78 9484.49 1442.59 9489.99 1441.3 9495.48 1440.02 9500.97 1438.64 9506.47 1437.15 9511.96 1435.67 9517.46 1434.08 9522.96 1432.37 9528.45 1430.66 9533.94 1428.85 9539.44 1426.9 9544.93 1424.95 9550.43 1422.89 9555.92 1420.68 9561.42 1418.48 9566.91 1416.15 9572.41 1413.67 9577.9 1411.19 9583.4 1408.58 9588.89 1405.83 9594.39 1403.07 9599.88 1400.17 9605.38 1397.12 9610.87 1394.08 9616.37 1390.89 9621.86 1387.55 9627.36 1384.22 9632.85 1380.74 9638.35 1377.12 9643.84 1373.5 9649.34 1369.73 9654.83 1365.83 9660.33 1361.94 9665.82 1357.9 9671.32 1353.74 9676.81 1349.58 9682.31 1345.28 9687.8 1340.87 9693.3 1336.46 9698.79 1331.92 9704.29 1327.28 9709.78 1322.64 9715.28 1317.88 9720.77 1313.03 9726.27 1308.18 9731.76 1303.22 9737.26 1298.18 9742.75 1293.14 9748.25 1288 9753.74 1282.79 9759.24 1277.58 9764.73 1272.29 9770.23 1266.93 9775.72 1261.57 9781.22 1256.13 9786.71 1250.64 9792.21 1245.15 9797.7 1239.59 9803.2 1233.99 9808.69 1228.39 9814.19 1222.72 9819.68 1217.02 9825.18 1211.32 9830.67 1205.57 9836.17 1199.78 9841.66 1193.99 9847.16 1188.16 9852.65 1182.31 9858.15 1176.45 9863.64 1170.55 9869.14 1164.64 9874.63 1158.72 9880.13 1152.77 9885.62 1146.8 9891.12 1140.83 9896.61 1134.83 9902.11 1128.82 9907.6 1122.8 9913.1 1116.77 9918.59 1110.72 9924.09 1104.67 9929.58 1098.6 9935.08 1092.52 9940.57 1086.44 9946.07 1080.34 9951.56 1074.23 9957.06 1068.13 9962.55 1062.01 9968.04 1055.88 9973.54 1049.75 9979.04 1043.61 9984.53 1037.47 9990.03 1031.32 9995.52 1025.16 10001 1019 10006.5 1012.84 10012 1006.67 10017.5 1000.5" stroke="#70AD47" stroke-width="6.875" stroke-linecap="round" stroke-linejoin="round" stroke-miterlimit="10" fill="none"/></g><g><path d="M8385.5 1464.5C8391 1464.5 8396.49 1464.5 8401.99 1464.5 8407.48 1464.5 8412.97 1464.5 8418.47 1464.5 8423.96 1464.5 8429.46 1464.5 8434.96 1464.5 8440.45 1464.5 8445.94 1464.5 8451.44 1464.5 8456.93 1464.5 8462.43 1464.5 8467.92 1464.5 8473.42 1464.5 8478.91 1464.5 8484.41 1464.5 8489.9 1464.5 8495.4 1464.5 8500.89 1464.5 8506.39 1464.5 8511.88 1464.5 8517.38 1464.5 8522.87 1464.5 8528.37 1464.5 8533.86 1464.5 8539.36 1464.5 8544.85 1464.5 8550.35 1464.5 8555.84 1464.5 8561.34 1464.5 8566.83 1464.5 8572.33 1464.5 8577.82 1464.5 8583.32 1464.5 8588.81 1464.5 8594.31 1464.5 8599.8 1464.5 8605.3 1464.5 8610.79 1464.5 8616.29 1464.5 8621.78 1464.5 8627.28 1464.5 8632.77 1464.5 8638.27 1464.5 8643.76 1464.5 8649.26 1464.5 8654.75 1464.5 8660.25 1464.5 8665.74 1464.5 8671.24 1464.5 8676.73 1464.5 8682.23 1464.5 8687.72 1464.5 8693.22 1464.5 8698.71 1464.5 8704.21 1464.5 8709.7 1464.5 8715.2 1464.5 8720.69 1464.5 8726.19 1464.5 8731.68 1464.5 8737.18 1464.49 8742.67 1464.49 8748.17 1464.49 8753.66 1464.49 8759.16 1464.49 8764.65 1464.49 8770.15 1464.49 8775.64 1464.49 8781.14 1464.49 8786.63 1464.49 8792.13 1464.49 8797.62 1464.49 8803.12 1464.49 8808.61 1464.49 8814.11 1464.49 8819.6 1464.49 8825.1 1464.49 8830.59 1464.48 8836.09 1464.48 8841.58 1464.48 8847.08 1464.48 8852.57 1464.48 8858.07 1464.48 8863.56 1464.48 8869.06 1464.48 8874.55 1464.47 8880.05 1464.47 8885.54 1464.47 8891.04 1464.47 8896.53 1464.47 8902.02 1464.47 8907.52 1464.46 8913.02 1464.46 8918.51 1464.46 8924 1464.46 8929.5 1464.45 8935 1464.45 8940.49 1464.45 8945.98 1464.44 8951.48 1464.44 8956.97 1464.44 8962.47 1464.43 8967.96 1464.43 8973.46 1464.42 8978.95 1464.42 8984.45 1464.41 8989.94 1464.41 8995.44 1464.4 9000.93 1464.4 9006.43 1464.39 9011.92 1464.38 9017.42 1464.37 9022.91 1464.37 9028.41 1464.36 9033.9 1464.35 9039.4 1464.34 9044.89 1464.33 9050.39 1464.32 9055.88 1464.31 9061.38 1464.29 9066.87 1464.28 9072.37 1464.27 9077.86 1464.25 9083.36 1464.24 9088.85 1464.22 9094.35 1464.2 9099.84 1464.18 9105.34 1464.16 9110.83 1464.14 9116.33 1464.12 9121.82 1464.09 9127.32 1464.07 9132.81 1464.04 9138.31 1464.01 9143.8 1463.98 9149.3 1463.94 9154.79 1463.91 9160.29 1463.87 9165.78 1463.83 9171.28 1463.79 9176.77 1463.74 9182.27 1463.7 9187.76 1463.64 9193.26 1463.59 9198.75 1463.53 9204.25 1463.47 9209.74 1463.4 9215.24 1463.33 9220.73 1463.26 9226.23 1463.18 9231.72 1463.1 9237.22 1463.01 9242.71 1462.91 9248.21 1462.81 9253.7 1462.71 9259.2 1462.59 9264.69 1462.47 9270.19 1462.35 9275.68 1462.2 9281.18 1462.06 9286.67 1461.91 9292.17 1461.74 9297.66 1461.57 9303.16 1461.39 9308.65 1461.19 9314.15 1460.98 9319.64 1460.76 9325.14 1460.52 9330.63 1460.28 9336.13 1460.02 9341.62 1459.73 9347.12 1459.44 9352.61 1459.12 9358.11 1458.78 9363.6 1458.43 9369.1 1458.06 9374.59 1457.65 9380.09 1457.23 9385.58 1456.79 9391.08 1456.3 9396.57 1455.81 9402.07 1455.28 9407.56 1454.7 9413.06 1454.12 9418.55 1453.5 9424.05 1452.81 9429.54 1452.12 9435.04 1451.39 9440.53 1450.58 9446.03 1449.77 9451.52 1448.91 9457.02 1447.96 9462.51 1447.01 9468 1445.99 9473.5 1444.88 9478.99 1443.78 9484.49 1442.59 9489.99 1441.3 9495.48 1440.02 9500.97 1438.64 9506.47 1437.15 9511.96 1435.67 9517.46 1434.08 9522.96 1432.37 9528.45 1430.66 9533.94 1428.85 9539.44 1426.9 9544.93 1424.95 9550.43 1422.89 9555.92 1420.68 9561.42 1418.48 9566.91 1416.15 9572.41 1413.67 9577.9 1411.19 9583.4 1408.58 9588.89 1405.83 9594.39 1403.07 9599.88 1400.17 9605.38 1397.12 9610.87 1394.08 9616.37 1390.89 9621.86 1387.55 9627.36 1384.22 9632.85 1380.74 9638.35 1377.12 9643.84 1373.5 9649.34 1369.73 9654.83 1365.83 9660.33 1361.94 9665.82 1357.9 9671.32 1353.74 9676.81 1349.58 9682.31 1345.28 9687.8 1340.87 9693.3 1336.46 9698.79 1331.92 9704.29 1327.28 9709.78 1322.64 9715.28 1317.88 9720.77 1313.03 9726.27 1308.18 9731.76 1303.22 9737.26 1298.18 9742.75 1293.14 9748.25 1288 9753.74 1282.79 9759.24 1277.58 9764.73 1272.29 9770.23 1266.93 9775.72 1261.57 9781.22 1256.13 9786.71 1250.64 9792.21 1245.15 9797.7 1239.59 9803.2 1233.99 9808.69 1228.39 9814.19 1222.72 9819.68 1217.02 9825.18 1211.32 9830.67 1205.57 9836.17 1199.78 9841.66 1193.99 9847.16 1188.16 9852.65 1182.31 9858.15 1176.45 9863.64 1170.55 9869.14 1164.64 9874.63 1158.72 9880.13 1152.77 9885.62 1146.8 9891.12 1140.83 9896.61 1134.83 9902.11 1128.82 9907.6 1122.8 9913.1 1116.77 9918.59 1110.72 9924.09 1104.67 9929.58 1098.6 9935.08 1092.52 9940.57 1086.44 9946.07 1080.34 9951.56 1074.23 9957.06 1068.13 9962.55 1062.01 9968.04 1055.88 9973.54 1049.75 9979.04 1043.61 9984.53 1037.47 9990.03 1031.32 9995.52 1025.16 10001 1019 10006.5 1012.84 10012 1006.67 10017.5 1000.5" stroke="#264478" stroke-width="9.16667" stroke-linecap="round" stroke-linejoin="round" stroke-miterlimit="10" fill="none"/></g><g><path d="M8385.5 793.5C8391 793.5 8396.49 793.5 8401.99 793.5 8407.48 793.5 8412.97 793.5 8418.47 793.5 8423.96 793.5 8429.46 793.5 8434.96 793.5 8440.45 793.5 8445.94 793.5 8451.44 793.5 8456.93 793.5 8462.43 793.5 8467.92 793.5 8473.42 793.5 8478.91 793.5 8484.41 793.5 8489.9 793.5 8495.4 793.5 8500.89 793.5 8506.39 793.5 8511.88 793.5 8517.38 793.5 8522.87 793.5 8528.37 793.5 8533.86 793.5 8539.36 793.5 8544.85 793.5 8550.35 793.5 8555.84 793.5 8561.34 793.5 8566.83 793.5 8572.33 793.5 8577.82 793.5 8583.32 793.5 8588.81 793.5 8594.31 793.5 8599.8 793.5 8605.3 793.5 8610.79 793.5 8616.29 793.5 8621.78 793.5 8627.28 793.5 8632.77 793.5 8638.27 793.5 8643.76 793.5 8649.26 793.5 8654.75 793.5 8660.25 793.5 8665.74 793.5 8671.24 793.5 8676.73 793.5 8682.23 793.5 8687.72 793.499 8693.22 793.5 8698.71 793.5 8704.21 793.5 8709.7 793.5 8715.2 793.5 8720.69 793.5 8726.19 793.5 8731.68 793.5 8737.18 793.499 8742.67 793.499 8748.17 793.499 8753.66 793.499 8759.16 793.499 8764.65 793.499 8770.15 793.499 8775.64 793.499 8781.14 793.499 8786.63 793.498 8792.13 793.498 8797.62 793.498 8803.12 793.498 8808.61 793.498 8814.11 793.498 8819.6 793.498 8825.1 793.498 8830.59 793.498 8836.09 793.498 8841.58 793.497 8847.08 793.497 8852.57 793.497 8858.07 793.497 8863.56 793.497 8869.06 793.497 8874.55 793.496 8880.05 793.496 8885.54 793.496 8891.04 793.496 8896.53 793.496 8902.02 793.495 8907.52 793.495 8913.02 793.494 8918.51 793.494 8924 793.494 8929.5 793.493 8935 793.493 8940.49 793.493 8945.98 793.492 8951.48 793.492 8956.97 793.491 8962.47 793.49 8967.96 793.49 8973.46 793.489 8978.95 793.489 8984.45 793.488 8989.94 793.487 8995.44 793.486 9000.93 793.485 9006.43 793.484 9011.92 793.483 9017.42 793.482 9022.91 793.481 9028.41 793.48 9033.9 793.479 9039.4 793.478 9044.89 793.476 9050.39 793.474 9055.88 793.473 9061.38 793.471 9066.87 793.469 9072.37 793.467 9077.86 793.465 9083.36 793.463 9088.85 793.461 9094.35 793.458 9099.84 793.455 9105.34 793.452 9110.83 793.449 9116.33 793.446 9121.82 793.443 9127.32 793.439 9132.81 793.435 9138.31 793.431 9143.8 793.426 9149.3 793.422 9154.79 793.417 9160.29 793.411 9165.78 793.405 9171.28 793.4 9176.77 793.393 9182.27 793.386 9187.76 793.379 9193.26 793.371 9198.75 793.363 9204.25 793.354 9209.74 793.345 9215.24 793.335 9220.73 793.325 9226.23 793.313 9231.72 793.301 9237.22 793.289 9242.71 793.275 9248.21 793.261 9253.7 793.246 9259.2 793.229 9264.69 793.212 9270.19 793.194 9275.68 793.173 9281.18 793.153 9286.67 793.131 9292.17 793.107 9297.66 793.083 9303.16 793.056 9308.65 793.027 9314.15 792.997 9319.64 792.966 9325.14 792.93 9330.63 792.894 9336.13 792.857 9341.62 792.814 9347.12 792.772 9352.61 792.726 9358.11 792.674 9363.6 792.623 9369.1 792.568 9374.59 792.506 9380.09 792.445 9385.58 792.378 9391.08 792.304 9396.57 792.23 9402.07 792.15 9407.56 792.061 9413.06 791.972 9418.55 791.877 9424.05 791.77 9429.54 791.663 9435.04 791.548 9440.53 791.42 9446.03 791.291 9451.52 791.153 9457.02 791 9462.51 790.845 9468 790.68 9473.5 790.496 9478.99 790.311 9484.49 790.113 9489.99 789.892 9495.48 789.671 9500.97 789.434 9506.47 789.17 9511.96 788.906 9517.46 788.622 9522.96 788.307 9528.45 787.992 9533.94 787.653 9539.44 787.278 9544.93 786.901 9550.43 786.498 9555.92 786.051 9561.42 785.603 9566.91 785.124 9572.41 784.593 9577.9 784.062 9583.4 783.493 9588.89 782.865 9594.39 782.236 9599.88 781.563 9605.38 780.822 9610.87 780.08 9616.37 779.286 9621.86 778.414 9627.36 777.542 9632.85 776.61 9638.35 775.59 9643.84 774.569 9649.34 773.478 9654.83 772.289 9660.33 771.099 9665.82 769.831 9671.32 768.452 9676.81 767.073 9682.31 765.604 9687.8 764.016 9693.3 762.428 9698.79 760.739 9704.29 758.921 9709.78 757.102 9715.28 755.173 9720.77 753.107 9726.27 751.041 9731.76 748.853 9737.26 746.523 9742.75 744.192 9748.25 741.732 9753.74 739.125 9759.24 736.518 9764.73 733.773 9770.23 730.88 9775.72 727.988 9781.22 724.952 9786.71 721.771 9792.21 718.589 9797.7 715.261 9803.2 711.792 9808.69 708.322 9814.19 704.705 9819.68 700.953 9825.18 697.201 9830.67 693.304 9836.17 689.28 9841.66 685.256 9847.16 681.092 9852.65 676.81 9858.15 672.529 9863.64 668.113 9869.14 663.591 9874.63 659.068 9880.13 654.421 9885.62 649.677 9891.12 644.933 9896.61 640.073 9902.11 635.128 9907.6 630.183 9913.1 625.132 9918.59 620.006 9924.09 614.881 9929.58 609.659 9935.08 604.374 9940.57 599.088 9946.07 593.717 9951.56 588.29 9957.06 582.863 9962.55 577.361 9968.04 571.811 9973.54 566.26 9979.04 560.646 9984.53 554.989 9990.03 549.332 9995.52 543.619 10001 537.871 10006.5 532.123 10012 526.29 10017.5 520.5" stroke="#9E480E" stroke-width="9.16667" stroke-linecap="round" stroke-linejoin="round" stroke-miterlimit="10" fill="none"/></g><g><text font-family="Calibri,Calibri_MSFontService,sans-serif" font-weight="400" font-size="64" transform="matrix(1 0 0 1 8241.42 1561)">-40</text></g><g><text font-family="Calibri,Calibri_MSFontService,sans-serif" font-weight="400" font-size="64" transform="matrix(1 0 0 1 8241.42 1360)">-20</text></g><g><text font-family="Calibri,Calibri_MSFontService,sans-serif" font-weight="400" font-size="64" transform="matrix(1 0 0 1 8293.58 1159)">0</text></g><g><text font-family="Calibri,Calibri_MSFontService,sans-serif" font-weight="400" font-size="64" transform="matrix(1 0 0 1 8261.06 958)">20</text></g><g><text font-family="Calibri,Calibri_MSFontService,sans-serif" font-weight="400" font-size="64" transform="matrix(1 0 0 1 8261.06 756)">40</text></g><g><text font-family="Calibri,Calibri_MSFontService,sans-serif" font-weight="400" font-size="64" transform="matrix(1 0 0 1 8261.06 555)">60</text></g><g><text font-family="Calibri,Calibri_MSFontService,sans-serif" font-weight="400" font-size="64" transform="matrix(1 0 0 1 8261.06 354)">80</text></g><g><text font-family="Calibri,Calibri_MSFontService,sans-serif" font-weight="700" font-size="64" transform="matrix(6.12323e-17 -1 1 6.12323e-17 8210.35 1148)">Magnitude (dB)</text></g><g><path d="M8414.5 165.5 8502.5 165.5" stroke="#4472C4" stroke-width="9.16667" stroke-linecap="round" stroke-linejoin="round" stroke-miterlimit="10" fill="none" fill-rule="evenodd"/></g><g><text font-family="Calibri,Calibri_MSFontService,sans-serif" font-weight="700" font-size="64" transform="matrix(1 0 0 1 8512.11 184)">PV_SC</text></g><g><path d="M8824.5 165.5 8912.5 165.5" stroke="#ED7D31" stroke-width="6.875" stroke-linecap="round" stroke-linejoin="round" stroke-miterlimit="10" fill="none" fill-rule="evenodd"/></g><g><text font-family="Calibri,Calibri_MSFontService,sans-serif" font-weight="700" font-size="64" transform="matrix(1 0 0 1 8921.33 184)">PV_OC</text></g><g><path d="M9233.5 165.5 9321.5 165.5" stroke="#264478" stroke-width="9.16667" stroke-linecap="round" stroke-linejoin="round" stroke-miterlimit="10" fill="none" fill-rule="evenodd"/></g><g><text font-family="Calibri,Calibri_MSFontService,sans-serif" font-weight="700" font-size="64" transform="matrix(1 0 0 1 9330.55 184)">Load1_SC</text></g><g><path d="M9642.5 165.5 9730.5 165.5" stroke="#FFC000" stroke-width="6.875" stroke-linecap="round" stroke-linejoin="round" stroke-miterlimit="10" fill="none" fill-rule="evenodd"/></g><g><text font-family="Calibri,Calibri_MSFontService,sans-serif" font-weight="700" font-size="64" transform="matrix(1 0 0 1 9739.78 184)">Load1_OC</text></g><g><path d="M8414.5 261.5 8502.5 261.5" stroke="#5B9BD5" stroke-width="9.16667" stroke-linecap="round" stroke-linejoin="round" stroke-miterlimit="10" fill="none" fill-rule="evenodd"/></g><g><text font-family="Calibri,Calibri_MSFontService,sans-serif" font-weight="700" font-size="64" transform="matrix(1 0 0 1 8512.11 280)">Load2_SC</text></g><g><path d="M8824.5 261.5 8912.5 261.5" stroke="#70AD47" stroke-width="6.875" stroke-linecap="round" stroke-linejoin="round" stroke-miterlimit="10" fill="none" fill-rule="evenodd"/></g><g><text font-family="Calibri,Calibri_MSFontService,sans-serif" font-weight="700" font-size="64" transform="matrix(1 0 0 1 8921.33 280)">Load2_OC</text></g><g><path d="M9233.5 261.5 9321.5 261.5" stroke="#264478" stroke-width="9.16667" stroke-linecap="round" stroke-linejoin="round" stroke-miterlimit="10" fill="none" fill-rule="evenodd"/></g><g><text font-family="Calibri,Calibri_MSFontService,sans-serif" font-weight="700" font-size="64" transform="matrix(1 0 0 1 9330.55 280)">Bus_SC</text></g><g><path d="M9642.5 261.5 9730.5 261.5" stroke="#9E480E" stroke-width="9.16667" stroke-linecap="round" stroke-linejoin="round" stroke-miterlimit="10" fill="none" fill-rule="evenodd"/></g><g><text font-family="Calibri,Calibri_MSFontService,sans-serif" font-weight="700" font-size="64" transform="matrix(1 0 0 1 9739.78 280)">Bus_OC</text></g><rect x="8132.5" y="50.5" width="1980" height="1563" stroke="#D9D9D9" stroke-width="3.4375" stroke-linejoin="round" stroke-miterlimit="10" fill="none"/><g><text fill="#FF0000" font-family="Calibri,Calibri_MSFontService,sans-serif" font-weight="700" font-size="73" transform="matrix(1 0 0 1 8403.6 877)">All</text></g><g><text fill="#FF0000" font-family="Calibri,Calibri_MSFontService,sans-serif" font-weight="700" font-size="73" transform="matrix(1 0 0 1 8500.63 877)">open circuit faults</text></g><g><text fill="#FF0000" font-family="Calibri,Calibri_MSFontService,sans-serif" font-weight="700" font-size="73" transform="matrix(1 0 0 1 8487.09 966)">are overlapping</text></g><g><path d="M0.105818-3.43587 9.9561-3.1325 19.8273-2.23934 29.538-0.799279 39.0149 1.14895 48.185 3.56745 56.9752 6.41922 65.3131 9.66843 73.1266 13.2808 80.3438 17.2241 86.8935 21.4698 92.7036 25.9937 97.6998 30.7789 101.8 35.817 104.905 41.1054 106.884 46.6315 107.552 52.1095 107.611 62.0685 107.61 62.0296 107.773 71.4834 107.769 71.3665 108.296 81.6361 101.43 81.9885 100.9 71.6604 100.736 62.1286 100.678 52.3487 100.703 52.7444 100.106 47.845 100.282 48.5881 98.5409 43.7271 98.8126 44.3082 96.0039 39.5238 96.3021 39.9533 92.502 35.2838 92.7904 35.5965 88.0752 31.0804 88.3411 31.3102 82.7871 26.9857 83.0292 27.1579 76.7126 23.0633 76.9342 23.1954 69.9313 19.3692 70.1369 19.4728 62.524 15.9531 62.7184 16.0359 54.5716 12.8611 54.759 12.928 46.1547 10.1365 46.3389 10.1907 37.3533 7.8208 37.5377 7.86405 28.2472 5.95412 28.4351 5.98734 18.9157 4.57566 19.1102 4.59886 9.43836 3.72374 9.64231 3.73609-0.105818 3.43587ZM118.206 76.152 106.682 104.657 90.7928 78.3348Z" fill="#7F7F7F" transform="matrix(1 0 0 -1 9038.5 896.157)"/></g><g><rect x="9488.5" y="344.5" width="515" height="172" stroke="#7F7F7F" stroke-width="3.4375" stroke-linejoin="round" stroke-miterlimit="10" fill="none"/></g><g><text font-family="Calibri,Calibri_MSFontService,sans-serif" font-weight="700" font-size="64" transform="matrix(1 0 0 1 9520.51 421)">SC:</text></g><g><text font-family="Calibri,Calibri_MSFontService,sans-serif" font-weight="700" font-size="64" transform="matrix(1 0 0 1 9616.99 421)">Short Circuit</text></g><g><text font-family="Calibri,Calibri_MSFontService,sans-serif" font-weight="700" font-size="64" transform="matrix(1 0 0 1 9520.51 499)">OC: Open Circuit</text></g><rect x="8133" y="1611" width="1979" height="1258" fill="#FFFFFF"/><g><path d="M8407.5 2497.58 9964.5 2497.58M8407.5 2394.58 9964.5 2394.58M8407.5 2291.58 9964.5 2291.58M8407.5 2188.57 9964.5 2188.57M8407.5 2085.57 9964.5 2085.57M8407.5 1982.57 9964.5 1982.57M8407.5 1879.56 9964.5 1879.56M8407.5 1776.56 9964.5 1776.56M8407.5 1673.5 9964.5 1673.5" stroke="#D9D9D9" stroke-width="3.4375" stroke-linejoin="round" stroke-miterlimit="10" fill="none"/></g><g><path d="M8523.78 1673.5 8523.78 2600.5M8592.78 1673.5 8592.78 2600.5M8641.78 1673.5 8641.78 2600.5M8678.79 1673.5 8678.79 2600.5M8709.79 1673.5 8709.79 2600.5M8735.79 1673.5 8735.79 2600.5M8758.79 1673.5 8758.79 2600.5M8778.79 1673.5 8778.79 2600.5M8913.79 1673.5 8913.79 2600.5M8981.79 1673.5 8981.79 2600.5M9030.8 1673.5 9030.8 2600.5M9068.8 1673.5 9068.8 2600.5M9099.8 1673.5 9099.8 2600.5M9125.8 1673.5 9125.8 2600.5M9147.8 1673.5 9147.8 2600.5M9167.8 1673.5 9167.8 2600.5M9302.81 1673.5 9302.81 2600.5M9371.81 1673.5 9371.81 2600.5M9419.81 1673.5 9419.81 2600.5M9457.81 1673.5 9457.81 2600.5M9488.81 1673.5 9488.81 2600.5M9514.81 1673.5 9514.81 2600.5M9537.81 1673.5 9537.81 2600.5M9556.81 1673.5 9556.81 2600.5M9691.82 1673.5 9691.82 2600.5M9760.82 1673.5 9760.82 2600.5M9809.82 1673.5 9809.82 2600.5M9846.82 1673.5 9846.82 2600.5M9877.82 1673.5 9877.82 2600.5M9903.83 1673.5 9903.83 2600.5M9926.83 1673.5 9926.83 2600.5M9946.83 1673.5 9946.83 2600.5" stroke="#F2F2F2" stroke-width="3.4375" stroke-linejoin="round" stroke-miterlimit="10" fill="none"/></g><g><path d="M8796.79 1673.5 8796.79 2600.5M9185.8 1673.5 9185.8 2600.5M9574.81 1673.5 9574.81 2600.5M9964.5 1673.5 9964.5 2600.5" stroke="#D9D9D9" stroke-width="3.4375" stroke-linejoin="round" stroke-miterlimit="10" fill="none"/></g><g><path d="M0 0 0.000360892 927" stroke="#BFBFBF" stroke-width="3.4375" stroke-linejoin="round" stroke-miterlimit="10" fill="none" fill-rule="evenodd" transform="matrix(1 0 0 -1 8407.5 2600.5)"/></g><g><path d="M8407.5 2600.5 9964.5 2600.5" stroke="#BFBFBF" stroke-width="3.4375" stroke-linejoin="round" stroke-miterlimit="10" fill="none" fill-rule="evenodd"/></g><g><path d="M8407.5 2600.5C8412.74 2600.48 8417.98 2600.47 8423.23 2600.45 8428.47 2600.43 8433.71 2600.41 8438.95 2600.39 8444.2 2600.37 8449.44 2600.35 8454.68 2600.32 8459.92 2600.3 8465.17 2600.28 8470.41 2600.25 8475.65 2600.23 8480.89 2600.2 8486.14 2600.18 8491.38 2600.15 8496.62 2600.12 8501.86 2600.09 8507.11 2600.06 8512.35 2600.03 8517.59 2600 8522.83 2599.97 8528.08 2599.93 8533.32 2599.9 8538.56 2599.86 8543.8 2599.83 8549.04 2599.79 8554.29 2599.75 8559.53 2599.71 8564.77 2599.66 8570.01 2599.62 8575.26 2599.58 8580.5 2599.53 8585.74 2599.48 8590.98 2599.43 8596.23 2599.38 8601.47 2599.33 8606.71 2599.28 8611.95 2599.22 8617.2 2599.16 8622.44 2599.1 8627.68 2599.04 8632.92 2598.98 8638.17 2598.91 8643.41 2598.85 8648.65 2598.78 8653.89 2598.71 8659.14 2598.63 8664.38 2598.56 8669.62 2598.48 8674.86 2598.4 8680.11 2598.31 8685.35 2598.23 8690.59 2598.14 8695.83 2598.05 8701.08 2597.95 8706.32 2597.86 8711.56 2597.76 8716.8 2597.65 8722.05 2597.54 8727.29 2597.44 8732.53 2597.32 8737.77 2597.2 8743.02 2597.08 8748.26 2596.96 8753.5 2596.83 8758.74 2596.7 8763.99 2596.56 8769.23 2596.42 8774.47 2596.27 8779.71 2596.12 8784.96 2595.97 8790.2 2595.81 8795.44 2595.65 8800.68 2595.47 8805.92 2595.3 8811.17 2595.12 8816.41 2594.93 8821.65 2594.74 8826.89 2594.54 8832.14 2594.33 8837.38 2594.12 8842.62 2593.91 8847.86 2593.68 8853.11 2593.45 8858.35 2593.21 8863.59 2592.96 8868.83 2592.71 8874.08 2592.45 8879.32 2592.17 8884.56 2591.9 8889.8 2591.61 8895.05 2591.31 8900.29 2591.01 8905.53 2590.69 8910.77 2590.36 8916.02 2590.03 8921.26 2589.68 8926.5 2589.32 8931.74 2588.95 8936.98 2588.57 8942.23 2588.17 8947.47 2587.78 8952.71 2587.36 8957.96 2586.92 8963.2 2586.48 8968.44 2586.02 8973.68 2585.54 8978.92 2585.06 8984.17 2584.56 8989.41 2584.03 8994.65 2583.51 8999.89 2582.96 9005.14 2582.38 9010.38 2581.8 9015.62 2581.19 9020.86 2580.56 9026.11 2579.92 9031.35 2579.26 9036.59 2578.56 9041.83 2577.87 9047.08 2577.14 9052.32 2576.37 9057.56 2575.61 9062.8 2574.81 9068.05 2573.97 9073.29 2573.13 9078.53 2572.26 9083.77 2571.34 9089.02 2570.42 9094.26 2569.46 9099.5 2568.45 9104.74 2567.44 9109.98 2566.39 9115.23 2565.28 9120.47 2564.17 9125.71 2563.02 9130.95 2561.8 9136.2 2560.59 9141.44 2559.33 9146.68 2557.99 9151.92 2556.66 9157.17 2555.28 9162.41 2553.82 9167.65 2552.36 9172.89 2550.84 9178.14 2549.24 9183.38 2547.64 9188.62 2545.98 9193.86 2544.23 9199.11 2542.48 9204.35 2540.65 9209.59 2538.73 9214.83 2536.82 9220.08 2534.82 9225.32 2532.72 9230.56 2530.62 9235.8 2528.44 9241.05 2526.14 9246.29 2523.85 9251.53 2521.46 9256.77 2518.95 9262.02 2516.44 9267.26 2513.83 9272.5 2511.09 9277.74 2508.35 9282.99 2505.5 9288.23 2502.51 9293.47 2499.52 9298.71 2496.41 9303.96 2493.15 9309.2 2489.89 9314.44 2486.5 9319.68 2482.95 9324.92 2479.4 9330.17 2475.72 9335.41 2471.86 9340.65 2468.01 9345.89 2464 9351.14 2459.82 9356.38 2455.64 9361.62 2451.3 9366.86 2446.77 9372.11 2442.24 9377.35 2437.55 9382.59 2432.66 9387.83 2427.78 9393.08 2422.71 9398.32 2417.45 9403.56 2412.19 9408.8 2406.75 9414.05 2401.11 9419.29 2395.47 9424.53 2389.64 9429.77 2383.61 9435.02 2377.59 9440.26 2371.37 9445.5 2364.96 9450.74 2358.55 9455.99 2351.95 9461.23 2345.17 9466.47 2338.4 9471.71 2331.42 9476.96 2324.3 9482.2 2317.17 9487.44 2309.85 9492.68 2302.4 9497.92 2294.94 9503.17 2287.32 9508.41 2279.58 9513.65 2271.84 9518.89 2263.95 9524.14 2255.97 9529.38 2248 9534.62 2239.89 9539.86 2231.73 9545.11 2223.57 9550.35 2215.31 9555.59 2207.03 9560.83 2198.75 9566.08 2190.39 9571.32 2182.05 9576.56 2173.72 9581.8 2165.33 9587.04 2157 9592.29 2148.66 9597.53 2140.32 9602.77 2132.05 9608.02 2123.78 9613.26 2115.53 9618.5 2107.38 9623.74 2099.22 9628.98 2091.12 9634.23 2083.14 9639.47 2075.15 9644.71 2067.24 9649.96 2059.45 9655.2 2051.66 9660.44 2043.97 9665.68 2036.41 9670.92 2028.86 9676.17 2021.41 9681.41 2014.1 9686.65 2006.79 9691.89 1999.6 9697.14 1992.56 9702.38 1985.51 9707.62 1978.59 9712.86 1971.82 9718.11 1965.04 9723.35 1958.4 9728.59 1951.9 9733.83 1945.4 9739.08 1939.04 9744.32 1932.82 9749.56 1926.6 9754.8 1920.52 9760.05 1914.58 9765.29 1908.65 9770.53 1902.85 9775.77 1897.21 9781.02 1891.56 9786.26 1886.05 9791.5 1880.69 9796.74 1875.33 9801.99 1870.12 9807.23 1865.05 9812.47 1859.98 9817.71 1855.06 9822.96 1850.29 9828.2 1845.51 9833.44 1840.88 9838.68 1836.39 9843.92 1831.91 9849.17 1827.56 9854.41 1823.36 9859.65 1819.16 9864.89 1815.11 9870.14 1811.19 9875.38 1807.27 9880.62 1803.49 9885.86 1799.84 9891.11 1796.19 9896.35 1792.68 9901.59 1789.3 9906.83 1785.91 9912.08 1782.66 9917.32 1779.53 9922.56 1776.4 9927.8 1773.39 9933.05 1770.5 9938.29 1767.61 9943.53 1764.84 9948.77 1762.17 9954.02 1759.5 9959.26 1757.06 9964.5 1754.5" stroke="#4472C4" stroke-width="9.16667" stroke-linecap="round" stroke-linejoin="round" stroke-miterlimit="10" fill="none"/></g><g><path d="M8407.5 2600.5C8412.74 2600.48 8417.98 2600.46 8423.23 2600.44 8428.47 2600.42 8433.71 2600.4 8438.95 2600.38 8444.2 2600.36 8449.44 2600.33 8454.68 2600.31 8459.92 2600.29 8465.17 2600.26 8470.41 2600.23 8475.65 2600.21 8480.89 2600.18 8486.14 2600.15 8491.38 2600.12 8496.62 2600.09 8501.86 2600.06 8507.11 2600.03 8512.35 2599.99 8517.59 2599.96 8522.83 2599.92 8528.08 2599.89 8533.32 2599.85 8538.56 2599.81 8543.8 2599.77 8549.04 2599.73 8554.29 2599.68 8559.53 2599.64 8564.77 2599.59 8570.01 2599.55 8575.26 2599.5 8580.5 2599.45 8585.74 2599.4 8590.98 2599.34 8596.23 2599.29 8601.47 2599.23 8606.71 2599.17 8611.95 2599.11 8617.2 2599.05 8622.44 2598.99 8627.68 2598.92 8632.92 2598.85 8638.17 2598.78 8643.41 2598.71 8648.65 2598.63 8653.89 2598.56 8659.14 2598.47 8664.38 2598.39 8669.62 2598.31 8674.86 2598.22 8680.11 2598.13 8685.35 2598.04 8690.59 2597.94 8695.83 2597.84 8701.08 2597.74 8706.32 2597.63 8711.56 2597.52 8716.8 2597.41 8722.05 2597.3 8727.29 2597.18 8732.53 2597.05 8737.77 2596.93 8743.02 2596.8 8748.26 2596.66 8753.5 2596.52 8758.74 2596.38 8763.99 2596.23 8769.23 2596.07 8774.47 2595.92 8779.71 2595.75 8784.96 2595.58 8790.2 2595.41 8795.44 2595.23 8800.68 2595.05 8805.92 2594.86 8811.17 2594.66 8816.41 2594.46 8821.65 2594.25 8826.89 2594.04 8832.14 2593.81 8837.38 2593.59 8842.62 2593.35 8847.86 2593.1 8853.11 2592.85 8858.35 2592.6 8863.59 2592.32 8868.83 2592.05 8874.08 2591.77 8879.32 2591.47 8884.56 2591.17 8889.8 2590.86 8895.05 2590.53 8900.29 2590.2 8905.53 2589.86 8910.77 2589.5 8916.02 2589.14 8921.26 2588.77 8926.5 2588.37 8931.74 2587.98 8936.98 2587.57 8942.23 2587.13 8947.47 2586.7 8952.71 2586.25 8957.96 2585.77 8963.2 2585.3 8968.44 2584.8 8973.68 2584.28 8978.92 2583.76 8984.17 2583.21 8989.41 2582.64 8994.65 2582.07 8999.89 2581.47 9005.14 2580.84 9010.38 2580.22 9015.62 2579.56 9020.86 2578.87 9026.11 2578.18 9031.35 2577.46 9036.59 2576.71 9041.83 2575.95 9047.08 2575.16 9052.32 2574.33 9057.56 2573.5 9062.8 2572.64 9068.05 2571.73 9073.29 2570.82 9078.53 2569.87 9083.77 2568.87 9089.02 2567.87 9094.26 2566.83 9099.5 2565.74 9104.74 2564.64 9109.98 2563.5 9115.23 2562.3 9120.47 2561.1 9125.71 2559.85 9130.95 2558.53 9136.2 2557.21 9141.44 2555.84 9146.68 2554.4 9151.92 2552.95 9157.17 2551.45 9162.41 2549.87 9167.65 2548.28 9172.89 2546.64 9178.14 2544.9 9183.38 2543.17 9188.62 2541.36 9193.86 2539.46 9199.11 2537.56 9204.35 2535.58 9209.59 2533.5 9214.83 2531.42 9220.08 2529.26 9225.32 2526.98 9230.56 2524.7 9235.8 2522.33 9241.05 2519.84 9246.29 2517.35 9251.53 2514.76 9256.77 2512.03 9262.02 2509.31 9267.26 2506.47 9272.5 2503.5 9277.74 2500.52 9282.99 2497.43 9288.23 2494.18 9293.47 2490.94 9298.71 2487.56 9303.96 2484.02 9309.2 2480.48 9314.44 2476.8 9319.68 2472.94 9324.92 2469.09 9330.17 2465.08 9335.41 2460.9 9340.65 2456.71 9345.89 2452.35 9351.14 2447.81 9356.38 2443.26 9361.62 2438.54 9366.86 2433.62 9372.11 2428.7 9377.35 2423.59 9382.59 2418.27 9387.83 2412.96 9393.08 2407.45 9398.32 2401.72 9403.56 2396 9408.8 2390.07 9414.05 2383.92 9419.29 2377.78 9424.53 2371.42 9429.77 2364.85 9435.02 2358.29 9440.26 2351.5 9445.5 2344.51 9450.74 2337.52 9455.99 2330.31 9461.23 2322.91 9466.47 2315.51 9471.71 2307.89 9476.96 2300.1 9482.2 2292.3 9487.44 2284.3 9492.68 2276.15 9497.92 2267.99 9503.17 2259.64 9508.41 2251.17 9513.65 2242.69 9518.89 2234.04 9524.14 2225.3 9529.38 2216.56 9534.62 2207.67 9539.86 2198.72 9545.11 2189.77 9550.35 2180.71 9555.59 2171.63 9560.83 2162.54 9566.08 2153.38 9571.32 2144.24 9576.56 2135.1 9581.8 2125.91 9587.04 2116.79 9592.29 2107.67 9597.53 2098.54 9602.77 2089.52 9608.02 2080.5 9613.26 2071.51 9618.5 2062.65 9623.74 2053.8 9628.98 2045.02 9634.23 2036.41 9639.47 2027.79 9644.71 2019.28 9649.96 2010.96 9655.2 2002.64 9660.44 1994.46 9665.68 1986.48 9670.92 1978.5 9676.17 1970.69 9681.41 1963.09 9686.65 1955.49 9691.89 1948.07 9697.14 1940.88 9702.38 1933.68 9707.62 1926.68 9712.86 1919.9 9718.11 1913.12 9723.35 1906.55 9728.59 1900.2 9733.83 1893.84 9739.08 1887.7 9744.32 1881.76 9749.56 1875.83 9754.8 1870.11 9760.05 1864.59 9765.29 1859.07 9770.53 1853.77 9775.77 1848.65 9781.02 1843.53 9786.26 1838.62 9791.5 1833.89 9796.74 1829.16 9801.99 1824.62 9807.23 1820.26 9812.47 1815.89 9817.71 1811.72 9822.96 1807.7 9828.2 1803.68 9833.44 1799.84 9838.68 1796.14 9843.92 1792.45 9849.17 1788.92 9854.41 1785.53 9859.65 1782.14 9864.89 1778.91 9870.14 1775.8 9875.38 1772.69 9880.62 1769.73 9885.86 1766.88 9891.11 1764.04 9896.35 1761.32 9901.59 1758.72 9906.83 1756.12 9912.08 1753.64 9917.32 1751.25 9922.56 1748.87 9927.8 1746.61 9933.05 1744.43 9938.29 1742.25 9943.53 1740.18 9948.77 1738.19 9954.02 1736.21 9959.26 1734.4 9964.5 1732.5" stroke="#ED7D31" stroke-width="6.875" stroke-linecap="round" stroke-linejoin="round" stroke-miterlimit="10" fill="none"/></g><g><path d="M8407.5 2596.5C8412.74 2596.35 8417.98 2596.21 8423.23 2596.05 8428.47 2595.9 8433.71 2595.74 8438.95 2595.56 8444.2 2595.39 8449.44 2595.21 8454.68 2595.03 8459.92 2594.84 8465.17 2594.64 8470.41 2594.44 8475.65 2594.23 8480.89 2594.02 8486.14 2593.79 8491.38 2593.57 8496.62 2593.33 8501.86 2593.08 8507.11 2592.84 8512.35 2592.58 8517.59 2592.31 8522.83 2592.04 8528.08 2591.75 8533.32 2591.46 8538.56 2591.16 8543.8 2590.85 8549.04 2590.52 8554.29 2590.2 8559.53 2589.86 8564.77 2589.5 8570.01 2589.14 8575.26 2588.77 8580.5 2588.38 8585.74 2587.99 8590.98 2587.58 8596.23 2587.15 8601.47 2586.72 8606.71 2586.28 8611.95 2585.81 8617.2 2585.34 8622.44 2584.85 8627.68 2584.34 8632.92 2583.83 8638.17 2583.29 8643.41 2582.73 8648.65 2582.17 8653.89 2581.59 8659.14 2580.98 8664.38 2580.36 8669.62 2579.73 8674.86 2579.06 8680.11 2578.39 8685.35 2577.7 8690.59 2576.97 8695.83 2576.25 8701.08 2575.49 8706.32 2574.7 8711.56 2573.91 8716.8 2573.09 8722.05 2572.23 8727.29 2571.37 8732.53 2570.48 8737.77 2569.55 8743.02 2568.62 8748.26 2567.65 8753.5 2566.64 8758.74 2565.64 8763.99 2564.59 8769.23 2563.51 8774.47 2562.43 8779.71 2561.3 8784.96 2560.14 8790.2 2558.98 8795.44 2557.77 8800.68 2556.53 8805.92 2555.29 8811.17 2554 8816.41 2552.68 8821.65 2551.36 8826.89 2550 8832.14 2548.6 8837.38 2547.2 8842.62 2545.77 8847.86 2544.3 8853.11 2542.84 8858.35 2541.33 8863.59 2539.81 8868.83 2538.29 8874.08 2536.73 8879.32 2535.16 8884.56 2533.6 8889.8 2532 8895.05 2530.41 8900.29 2528.82 8905.53 2527.2 8910.77 2525.61 8916.02 2524.01 8921.26 2522.41 8926.5 2520.84 8931.74 2519.27 8936.98 2517.71 8942.23 2516.19 8947.47 2514.68 8952.71 2513.18 8957.96 2511.76 8963.2 2510.34 8968.44 2508.95 8973.68 2507.66 8978.92 2506.36 8984.17 2505.12 8989.41 2503.98 8994.65 2502.84 8999.89 2501.77 9005.14 2500.82 9010.38 2499.87 9015.62 2499.01 9020.86 2498.28 9026.11 2497.54 9031.35 2496.9 9036.59 2496.39 9041.83 2495.88 9047.08 2495.48 9052.32 2495.2 9057.56 2494.91 9062.8 2494.75 9068.05 2494.69 9073.29 2494.63 9078.53 2494.69 9083.77 2494.83 9089.02 2494.98 9094.26 2495.23 9099.5 2495.55 9104.74 2495.87 9109.98 2496.29 9115.23 2496.76 9120.47 2497.22 9125.71 2497.77 9130.95 2498.34 9136.2 2498.91 9141.44 2499.54 9146.68 2500.18 9151.92 2500.81 9157.17 2501.48 9162.41 2502.14 9167.65 2502.79 9172.89 2503.47 9178.14 2504.11 9183.38 2504.75 9188.62 2505.39 9193.86 2505.98 9199.11 2506.57 9204.35 2507.14 9209.59 2507.65 9214.83 2508.16 9220.08 2508.64 9225.32 2509.04 9230.56 2509.45 9235.8 2509.8 9241.05 2510.08 9246.29 2510.35 9251.53 2510.57 9256.77 2510.7 9262.02 2510.84 9267.26 2510.9 9272.5 2510.88 9277.74 2510.86 9282.99 2510.76 9288.23 2510.58 9293.47 2510.39 9298.71 2510.12 9303.96 2509.77 9309.2 2509.42 9314.44 2508.98 9319.68 2508.45 9324.92 2507.92 9330.17 2507.31 9335.41 2506.6 9340.65 2505.9 9345.89 2505.11 9351.14 2504.22 9356.38 2503.34 9361.62 2502.37 9366.86 2501.29 9372.11 2500.21 9377.35 2499.05 9382.59 2497.75 9387.83 2496.45 9393.08 2495.07 9398.32 2493.51 9403.56 2491.94 9408.8 2490.29 9414.05 2488.37 9419.29 2486.45 9424.53 2484.41 9429.77 2481.98 9435.02 2479.56 9440.26 2476.97 9445.5 2473.8 9450.74 2470.63 9455.99 2467.21 9461.23 2462.96 9466.47 2458.72 9471.71 2454.06 9476.96 2448.33 9482.2 2442.6 9487.44 2436.21 9492.68 2428.6 9497.92 2420.98 9503.17 2412.4 9508.41 2402.62 9513.65 2392.84 9518.89 2381.84 9524.14 2369.92 9529.38 2358.01 9534.62 2344.78 9539.86 2331.13 9545.11 2317.48 9550.35 2302.7 9555.59 2288 9560.83 2273.3 9566.08 2257.9 9571.32 2242.93 9576.56 2227.96 9581.8 2212.77 9587.04 2198.19 9592.29 2183.61 9597.53 2169.21 9602.77 2155.43 9608.02 2141.66 9613.26 2128.31 9618.5 2115.55 9623.74 2102.78 9628.98 2090.55 9634.23 2078.83 9639.47 2067.11 9644.71 2055.94 9649.96 2045.22 9655.2 2034.49 9660.44 2024.3 9665.68 2014.49 9670.92 2004.68 9676.17 1995.35 9681.41 1986.36 9686.65 1977.38 9691.89 1968.83 9697.14 1960.59 9702.38 1952.34 9707.62 1944.49 9712.86 1936.91 9718.11 1929.34 9723.35 1922.11 9728.59 1915.14 9733.83 1908.18 9739.08 1901.52 9744.32 1895.11 9749.56 1888.69 9754.8 1882.56 9760.05 1876.65 9765.29 1870.74 9770.53 1865.09 9775.77 1859.64 9781.02 1854.2 9786.26 1849 9791.5 1843.98 9796.74 1838.97 9801.99 1834.17 9807.23 1829.56 9812.47 1824.94 9817.71 1820.53 9822.96 1816.28 9828.2 1812.04 9833.44 1807.98 9838.68 1804.07 9843.92 1800.17 9849.17 1796.44 9854.41 1792.85 9859.65 1789.27 9864.89 1785.84 9870.14 1782.55 9875.38 1779.26 9880.62 1776.12 9885.86 1773.1 9891.11 1770.08 9896.35 1767.2 9901.59 1764.43 9906.83 1761.66 9912.08 1759.03 9917.32 1756.49 9922.56 1753.96 9927.8 1751.55 9933.05 1749.23 9938.29 1746.91 9943.53 1744.7 9948.77 1742.58 9954.02 1740.46 9959.26 1738.53 9964.5 1736.5" stroke="#A5A5A5" stroke-width="9.16667" stroke-linecap="round" stroke-linejoin="round" stroke-miterlimit="10" fill="none"/></g><g><path d="M8407.5 2600.5C8412.74 2600.48 8417.98 2600.46 8423.23 2600.44 8428.47 2600.42 8433.71 2600.4 8438.95 2600.38 8444.2 2600.36 8449.44 2600.33 8454.68 2600.31 8459.92 2600.29 8465.17 2600.26 8470.41 2600.23 8475.65 2600.21 8480.89 2600.18 8486.14 2600.15 8491.38 2600.12 8496.62 2600.09 8501.86 2600.06 8507.11 2600.03 8512.35 2599.99 8517.59 2599.96 8522.83 2599.92 8528.08 2599.89 8533.32 2599.85 8538.56 2599.81 8543.8 2599.77 8549.04 2599.73 8554.29 2599.68 8559.53 2599.64 8564.77 2599.59 8570.01 2599.55 8575.26 2599.5 8580.5 2599.45 8585.74 2599.4 8590.98 2599.34 8596.23 2599.29 8601.47 2599.23 8606.71 2599.17 8611.95 2599.11 8617.2 2599.05 8622.44 2598.99 8627.68 2598.92 8632.92 2598.85 8638.17 2598.78 8643.41 2598.71 8648.65 2598.63 8653.89 2598.56 8659.14 2598.47 8664.38 2598.39 8669.62 2598.31 8674.86 2598.22 8680.11 2598.13 8685.35 2598.04 8690.59 2597.94 8695.83 2597.84 8701.08 2597.74 8706.32 2597.63 8711.56 2597.52 8716.8 2597.41 8722.05 2597.3 8727.29 2597.18 8732.53 2597.05 8737.77 2596.93 8743.02 2596.8 8748.26 2596.66 8753.5 2596.52 8758.74 2596.38 8763.99 2596.23 8769.23 2596.07 8774.47 2595.92 8779.71 2595.75 8784.96 2595.58 8790.2 2595.41 8795.44 2595.23 8800.68 2595.05 8805.92 2594.86 8811.17 2594.66 8816.41 2594.46 8821.65 2594.25 8826.89 2594.04 8832.14 2593.81 8837.38 2593.59 8842.62 2593.35 8847.86 2593.1 8853.11 2592.85 8858.35 2592.6 8863.59 2592.32 8868.83 2592.05 8874.08 2591.77 8879.32 2591.47 8884.56 2591.17 8889.8 2590.86 8895.05 2590.53 8900.29 2590.2 8905.53 2589.86 8910.77 2589.5 8916.02 2589.14 8921.26 2588.77 8926.5 2588.37 8931.74 2587.98 8936.98 2587.57 8942.23 2587.13 8947.47 2586.7 8952.71 2586.25 8957.96 2585.77 8963.2 2585.3 8968.44 2584.8 8973.68 2584.28 8978.92 2583.76 8984.17 2583.21 8989.41 2582.64 8994.65 2582.07 8999.89 2581.47 9005.14 2580.84 9010.38 2580.22 9015.62 2579.56 9020.86 2578.87 9026.11 2578.18 9031.35 2577.46 9036.59 2576.71 9041.83 2575.95 9047.08 2575.16 9052.32 2574.33 9057.56 2573.5 9062.8 2572.64 9068.05 2571.73 9073.29 2570.82 9078.53 2569.87 9083.77 2568.87 9089.02 2567.87 9094.26 2566.83 9099.5 2565.74 9104.74 2564.64 9109.98 2563.5 9115.23 2562.3 9120.47 2561.1 9125.71 2559.85 9130.95 2558.53 9136.2 2557.21 9141.44 2555.84 9146.68 2554.4 9151.92 2552.95 9157.17 2551.45 9162.41 2549.87 9167.65 2548.28 9172.89 2546.64 9178.14 2544.9 9183.38 2543.17 9188.62 2541.36 9193.86 2539.46 9199.11 2537.56 9204.35 2535.58 9209.59 2533.5 9214.83 2531.42 9220.08 2529.26 9225.32 2526.98 9230.56 2524.7 9235.8 2522.33 9241.05 2519.84 9246.29 2517.35 9251.53 2514.76 9256.77 2512.03 9262.02 2509.31 9267.26 2506.47 9272.5 2503.5 9277.74 2500.52 9282.99 2497.43 9288.23 2494.18 9293.47 2490.94 9298.71 2487.56 9303.96 2484.02 9309.2 2480.48 9314.44 2476.8 9319.68 2472.94 9324.92 2469.09 9330.17 2465.08 9335.41 2460.9 9340.65 2456.71 9345.89 2452.35 9351.14 2447.81 9356.38 2443.26 9361.62 2438.54 9366.86 2433.62 9372.11 2428.7 9377.35 2423.59 9382.59 2418.27 9387.83 2412.96 9393.08 2407.45 9398.32 2401.72 9403.56 2396 9408.8 2390.07 9414.05 2383.92 9419.29 2377.78 9424.53 2371.42 9429.77 2364.85 9435.02 2358.29 9440.26 2351.5 9445.5 2344.51 9450.74 2337.52 9455.99 2330.31 9461.23 2322.91 9466.47 2315.51 9471.71 2307.89 9476.96 2300.1 9482.2 2292.3 9487.44 2284.3 9492.68 2276.15 9497.92 2267.99 9503.17 2259.64 9508.41 2251.17 9513.65 2242.69 9518.89 2234.04 9524.14 2225.3 9529.38 2216.56 9534.62 2207.67 9539.86 2198.72 9545.11 2189.77 9550.35 2180.71 9555.59 2171.63 9560.83 2162.54 9566.08 2153.38 9571.32 2144.24 9576.56 2135.1 9581.8 2125.91 9587.04 2116.79 9592.29 2107.67 9597.53 2098.54 9602.77 2089.52 9608.02 2080.5 9613.26 2071.51 9618.5 2062.65 9623.74 2053.8 9628.98 2045.02 9634.23 2036.41 9639.47 2027.79 9644.71 2019.28 9649.96 2010.96 9655.2 2002.64 9660.44 1994.46 9665.68 1986.48 9670.92 1978.5 9676.17 1970.69 9681.41 1963.09 9686.65 1955.49 9691.89 1948.07 9697.14 1940.88 9702.38 1933.68 9707.62 1926.68 9712.86 1919.9 9718.11 1913.12 9723.35 1906.55 9728.59 1900.2 9733.83 1893.84 9739.08 1887.7 9744.32 1881.76 9749.56 1875.83 9754.8 1870.11 9760.05 1864.59 9765.29 1859.07 9770.53 1853.77 9775.77 1848.65 9781.02 1843.53 9786.26 1838.62 9791.5 1833.89 9796.74 1829.16 9801.99 1824.62 9807.23 1820.26 9812.47 1815.89 9817.71 1811.72 9822.96 1807.7 9828.2 1803.68 9833.44 1799.84 9838.68 1796.14 9843.92 1792.45 9849.17 1788.92 9854.41 1785.53 9859.65 1782.14 9864.89 1778.91 9870.14 1775.8 9875.38 1772.69 9880.62 1769.73 9885.86 1766.88 9891.11 1764.04 9896.35 1761.32 9901.59 1758.72 9906.83 1756.12 9912.08 1753.64 9917.32 1751.25 9922.56 1748.87 9927.8 1746.61 9933.05 1744.43 9938.29 1742.25 9943.53 1740.18 9948.77 1738.19 9954.02 1736.21 9959.26 1734.4 9964.5 1732.5" stroke="#FFC000" stroke-width="6.875" stroke-linecap="round" stroke-linejoin="round" stroke-miterlimit="10" fill="none"/></g><g><path d="M8407.5 2593.71C8412.74 2593.48 8417.98 2593.27 8423.23 2593.03 8428.47 2592.79 8433.71 2592.54 8438.95 2592.28 8444.2 2592.01 8449.44 2591.74 8454.68 2591.45 8459.92 2591.16 8465.17 2590.86 8470.41 2590.55 8475.65 2590.23 8480.89 2589.9 8486.14 2589.56 8491.38 2589.21 8496.62 2588.85 8501.86 2588.47 8507.11 2588.09 8512.35 2587.69 8517.59 2587.27 8522.83 2586.86 8528.08 2586.42 8533.32 2585.97 8538.56 2585.51 8543.8 2585.03 8549.04 2584.53 8554.29 2584.03 8559.53 2583.51 8564.77 2582.96 8570.01 2582.41 8575.26 2581.84 8580.5 2581.24 8585.74 2580.63 8590.98 2580.01 8596.23 2579.35 8601.47 2578.69 8606.71 2578 8611.95 2577.28 8617.2 2576.56 8622.44 2575.81 8627.68 2575.02 8632.92 2574.23 8638.17 2573.4 8643.41 2572.54 8648.65 2571.68 8653.89 2570.78 8659.14 2569.83 8664.38 2568.89 8669.62 2567.91 8674.86 2566.87 8680.11 2565.84 8685.35 2564.77 8690.59 2563.65 8695.83 2562.52 8701.08 2561.35 8706.32 2560.12 8711.56 2558.9 8716.8 2557.62 8722.05 2556.29 8727.29 2554.96 8732.53 2553.57 8737.77 2552.12 8743.02 2550.67 8748.26 2549.17 8753.5 2547.6 8758.74 2546.03 8763.99 2544.4 8769.23 2542.7 8774.47 2541 8779.71 2539.24 8784.96 2537.41 8790.2 2535.58 8795.44 2533.69 8800.68 2531.72 8805.92 2529.76 8811.17 2527.73 8816.41 2525.62 8821.65 2523.52 8826.89 2521.35 8832.14 2519.12 8837.38 2516.88 8842.62 2514.57 8847.86 2512.21 8853.11 2509.85 8858.35 2507.42 8863.59 2504.93 8868.83 2502.45 8874.08 2499.91 8879.32 2497.33 8884.56 2494.74 8889.8 2492.1 8895.05 2489.45 8900.29 2486.79 8905.53 2484.08 8910.77 2481.38 8916.02 2478.68 8921.26 2475.94 8926.5 2473.23 8931.74 2470.52 8936.98 2467.8 8942.23 2465.13 8947.47 2462.47 8952.71 2459.81 8957.96 2457.25 8963.2 2454.68 8968.44 2452.15 8973.68 2449.75 8978.92 2447.35 8984.17 2445.02 8989.41 2442.85 8994.65 2440.68 8999.89 2438.61 9005.14 2436.75 9010.38 2434.88 9015.62 2433.15 9020.86 2431.65 9026.11 2430.15 9031.35 2428.82 9036.59 2427.75 9041.83 2426.67 9047.08 2425.8 9052.32 2425.2 9057.56 2424.61 9062.8 2424.24 9068.05 2424.15 9073.29 2424.06 9078.53 2424.23 9083.77 2424.66 9089.02 2425.1 9094.26 2425.8 9099.5 2426.76 9104.74 2427.71 9109.98 2428.94 9115.23 2430.4 9120.47 2431.86 9125.71 2433.59 9130.95 2435.52 9136.2 2437.44 9141.44 2439.62 9146.68 2441.96 9151.92 2444.31 9157.17 2446.88 9162.41 2449.58 9167.65 2452.28 9172.89 2455.18 9178.14 2458.18 9183.38 2461.18 9188.62 2464.35 9193.86 2467.58 9199.11 2470.81 9204.35 2474.18 9209.59 2477.59 9214.83 2480.99 9220.08 2484.5 9225.32 2488.03 9230.56 2491.55 9235.8 2495.15 9241.05 2498.74 9246.29 2502.34 9251.53 2505.98 9256.77 2509.6 9262.02 2513.23 9267.26 2516.87 9272.5 2520.49 9277.74 2524.11 9282.99 2527.73 9288.23 2531.31 9293.47 2534.9 9298.71 2538.47 9303.96 2541.98 9309.2 2545.5 9314.44 2548.99 9319.68 2552.41 9324.92 2555.82 9330.17 2559.2 9335.41 2562.47 9340.65 2565.74 9345.89 2568.96 9351.14 2572.02 9356.38 2575.08 9361.62 2578.08 9366.86 2580.83 9372.11 2583.59 9377.35 2586.24 9382.59 2588.55 9387.83 2590.86 9393.08 2593.02 9398.32 2594.67 9403.56 2596.31 9408.8 2597.74 9414.05 2598.44 9419.29 2599.14 9424.53 2599.5 9429.77 2598.87 9435.02 2598.25 9440.26 2597.1 9445.5 2594.69 9450.74 2592.27 9455.99 2589.09 9461.23 2584.38 9466.47 2579.67 9471.71 2573.9 9476.96 2566.43 9482.2 2558.96 9487.44 2550.1 9492.68 2539.58 9497.92 2529.07 9503.17 2516.88 9508.41 2503.35 9513.65 2489.82 9518.89 2474.51 9524.14 2458.41 9529.38 2442.3 9534.62 2424.58 9539.86 2406.71 9545.11 2388.85 9550.35 2369.82 9555.59 2351.21 9560.83 2332.61 9566.08 2313.45 9571.32 2295.07 9576.56 2276.68 9581.8 2258.35 9587.04 2240.9 9592.29 2223.46 9597.53 2206.5 9602.77 2190.4 9608.02 2174.3 9613.26 2158.93 9618.5 2144.32 9623.74 2129.72 9628.98 2115.91 9634.23 2102.77 9639.47 2089.62 9644.71 2077.25 9649.96 2065.45 9655.2 2053.64 9660.44 2042.55 9665.68 2031.93 9670.92 2021.32 9676.17 2011.33 9681.41 2001.75 9686.65 1992.17 9691.89 1983.13 9697.14 1974.45 9702.38 1965.77 9707.62 1957.56 9712.86 1949.67 9718.11 1941.77 9723.35 1934.28 9728.59 1927.07 9733.83 1919.86 9739.08 1913.01 9744.32 1906.4 9749.56 1899.79 9754.8 1893.49 9760.05 1887.42 9765.29 1881.35 9770.53 1875.56 9775.77 1869.96 9781.02 1864.37 9786.26 1859.03 9791.5 1853.88 9796.74 1848.72 9801.99 1843.79 9807.23 1839.03 9812.47 1834.27 9817.71 1829.72 9822.96 1825.33 9828.2 1820.94 9833.44 1816.73 9838.68 1812.68 9843.92 1808.62 9849.17 1804.74 9854.41 1801 9859.65 1797.26 9864.89 1793.68 9870.14 1790.24 9875.38 1786.79 9880.62 1783.49 9885.86 1780.32 9891.11 1777.14 9896.35 1774.1 9901.59 1771.18 9906.83 1768.26 9912.08 1765.47 9917.32 1762.79 9922.56 1760.1 9927.8 1757.54 9933.05 1755.07 9938.29 1752.6 9943.53 1750.25 9948.77 1747.99 9954.02 1745.73 9959.26 1743.66 9964.5 1741.5" stroke="#5B9BD5" stroke-width="9.16667" stroke-linecap="round" stroke-linejoin="round" stroke-miterlimit="10" fill="none"/></g><g><path d="M8407.5 2600.5C8412.74 2600.48 8417.98 2600.46 8423.23 2600.44 8428.47 2600.42 8433.71 2600.4 8438.95 2600.38 8444.2 2600.36 8449.44 2600.33 8454.68 2600.31 8459.92 2600.29 8465.17 2600.26 8470.41 2600.23 8475.65 2600.21 8480.89 2600.18 8486.14 2600.15 8491.38 2600.12 8496.62 2600.09 8501.86 2600.06 8507.11 2600.03 8512.35 2599.99 8517.59 2599.96 8522.83 2599.92 8528.08 2599.89 8533.32 2599.85 8538.56 2599.81 8543.8 2599.77 8549.04 2599.73 8554.29 2599.68 8559.53 2599.64 8564.77 2599.59 8570.01 2599.55 8575.26 2599.5 8580.5 2599.45 8585.74 2599.4 8590.98 2599.34 8596.23 2599.29 8601.47 2599.23 8606.71 2599.17 8611.95 2599.11 8617.2 2599.05 8622.44 2598.99 8627.68 2598.92 8632.92 2598.85 8638.17 2598.78 8643.41 2598.71 8648.65 2598.63 8653.89 2598.56 8659.14 2598.47 8664.38 2598.39 8669.62 2598.31 8674.86 2598.22 8680.11 2598.13 8685.35 2598.04 8690.59 2597.94 8695.83 2597.84 8701.08 2597.74 8706.32 2597.63 8711.56 2597.52 8716.8 2597.41 8722.05 2597.3 8727.29 2597.18 8732.53 2597.05 8737.77 2596.93 8743.02 2596.8 8748.26 2596.66 8753.5 2596.52 8758.74 2596.38 8763.99 2596.23 8769.23 2596.07 8774.47 2595.92 8779.71 2595.75 8784.96 2595.58 8790.2 2595.41 8795.44 2595.23 8800.68 2595.05 8805.92 2594.86 8811.17 2594.66 8816.41 2594.46 8821.65 2594.25 8826.89 2594.04 8832.14 2593.81 8837.38 2593.59 8842.62 2593.35 8847.86 2593.1 8853.11 2592.85 8858.35 2592.6 8863.59 2592.32 8868.83 2592.05 8874.08 2591.77 8879.32 2591.47 8884.56 2591.17 8889.8 2590.86 8895.05 2590.53 8900.29 2590.2 8905.53 2589.86 8910.77 2589.5 8916.02 2589.14 8921.26 2588.77 8926.5 2588.37 8931.74 2587.98 8936.98 2587.57 8942.23 2587.13 8947.47 2586.7 8952.71 2586.25 8957.96 2585.77 8963.2 2585.3 8968.44 2584.8 8973.68 2584.28 8978.92 2583.76 8984.17 2583.21 8989.41 2582.64 8994.65 2582.07 8999.89 2581.47 9005.14 2580.84 9010.38 2580.22 9015.62 2579.56 9020.86 2578.87 9026.11 2578.18 9031.35 2577.46 9036.59 2576.71 9041.83 2575.95 9047.08 2575.16 9052.32 2574.33 9057.56 2573.5 9062.8 2572.64 9068.05 2571.73 9073.29 2570.82 9078.53 2569.87 9083.77 2568.87 9089.02 2567.87 9094.26 2566.83 9099.5 2565.74 9104.74 2564.64 9109.98 2563.5 9115.23 2562.3 9120.47 2561.1 9125.71 2559.85 9130.95 2558.53 9136.2 2557.21 9141.44 2555.84 9146.68 2554.4 9151.92 2552.95 9157.17 2551.45 9162.41 2549.87 9167.65 2548.28 9172.89 2546.64 9178.14 2544.9 9183.38 2543.17 9188.62 2541.36 9193.86 2539.46 9199.11 2537.56 9204.35 2535.58 9209.59 2533.5 9214.83 2531.42 9220.08 2529.26 9225.32 2526.98 9230.56 2524.7 9235.8 2522.33 9241.05 2519.84 9246.29 2517.35 9251.53 2514.76 9256.77 2512.03 9262.02 2509.31 9267.26 2506.47 9272.5 2503.5 9277.74 2500.52 9282.99 2497.43 9288.23 2494.18 9293.47 2490.94 9298.71 2487.56 9303.96 2484.02 9309.2 2480.48 9314.44 2476.8 9319.68 2472.94 9324.92 2469.09 9330.17 2465.08 9335.41 2460.9 9340.65 2456.71 9345.89 2452.35 9351.14 2447.81 9356.38 2443.26 9361.62 2438.54 9366.86 2433.62 9372.11 2428.7 9377.35 2423.59 9382.59 2418.27 9387.83 2412.96 9393.08 2407.45 9398.32 2401.72 9403.56 2396 9408.8 2390.07 9414.05 2383.92 9419.29 2377.78 9424.53 2371.42 9429.77 2364.85 9435.02 2358.29 9440.26 2351.5 9445.5 2344.51 9450.74 2337.52 9455.99 2330.31 9461.23 2322.91 9466.47 2315.51 9471.71 2307.89 9476.96 2300.1 9482.2 2292.3 9487.44 2284.3 9492.68 2276.15 9497.92 2267.99 9503.17 2259.64 9508.41 2251.17 9513.65 2242.69 9518.89 2234.04 9524.14 2225.3 9529.38 2216.56 9534.62 2207.67 9539.86 2198.72 9545.11 2189.77 9550.35 2180.71 9555.59 2171.63 9560.83 2162.54 9566.08 2153.38 9571.32 2144.24 9576.56 2135.1 9581.8 2125.91 9587.04 2116.79 9592.29 2107.67 9597.53 2098.54 9602.77 2089.52 9608.02 2080.5 9613.26 2071.51 9618.5 2062.65 9623.74 2053.8 9628.98 2045.02 9634.23 2036.41 9639.47 2027.79 9644.71 2019.28 9649.96 2010.96 9655.2 2002.64 9660.44 1994.46 9665.68 1986.48 9670.92 1978.5 9676.17 1970.69 9681.41 1963.09 9686.65 1955.49 9691.89 1948.07 9697.14 1940.88 9702.38 1933.68 9707.62 1926.68 9712.86 1919.9 9718.11 1913.12 9723.35 1906.55 9728.59 1900.2 9733.83 1893.84 9739.08 1887.7 9744.32 1881.76 9749.56 1875.83 9754.8 1870.11 9760.05 1864.59 9765.29 1859.07 9770.53 1853.77 9775.77 1848.65 9781.02 1843.53 9786.26 1838.62 9791.5 1833.89 9796.74 1829.16 9801.99 1824.62 9807.23 1820.26 9812.47 1815.89 9817.71 1811.72 9822.96 1807.7 9828.2 1803.68 9833.44 1799.84 9838.68 1796.14 9843.92 1792.45 9849.17 1788.92 9854.41 1785.53 9859.65 1782.14 9864.89 1778.91 9870.14 1775.8 9875.38 1772.69 9880.62 1769.73 9885.86 1766.88 9891.11 1764.04 9896.35 1761.32 9901.59 1758.72 9906.83 1756.12 9912.08 1753.64 9917.32 1751.25 9922.56 1748.87 9927.8 1746.61 9933.05 1744.43 9938.29 1742.25 9943.53 1740.18 9948.77 1738.19 9954.02 1736.21 9959.26 1734.4 9964.5 1732.5" stroke="#70AD47" stroke-width="6.875" stroke-linecap="round" stroke-linejoin="round" stroke-miterlimit="10" fill="none"/></g><g><path d="M8407.5 2600.5C8412.74 2600.48 8417.98 2600.46 8423.23 2600.44 8428.47 2600.42 8433.71 2600.4 8438.95 2600.38 8444.2 2600.36 8449.44 2600.33 8454.68 2600.31 8459.92 2600.29 8465.17 2600.26 8470.41 2600.23 8475.65 2600.21 8480.89 2600.18 8486.14 2600.15 8491.38 2600.12 8496.62 2600.09 8501.86 2600.06 8507.11 2600.03 8512.35 2599.99 8517.59 2599.96 8522.83 2599.92 8528.08 2599.89 8533.32 2599.85 8538.56 2599.81 8543.8 2599.77 8549.04 2599.73 8554.29 2599.68 8559.53 2599.64 8564.77 2599.59 8570.01 2599.55 8575.26 2599.5 8580.5 2599.45 8585.74 2599.4 8590.98 2599.34 8596.23 2599.29 8601.47 2599.23 8606.71 2599.17 8611.95 2599.11 8617.2 2599.05 8622.44 2598.99 8627.68 2598.92 8632.92 2598.85 8638.17 2598.78 8643.41 2598.71 8648.65 2598.63 8653.89 2598.56 8659.14 2598.47 8664.38 2598.39 8669.62 2598.31 8674.86 2598.22 8680.11 2598.13 8685.35 2598.04 8690.59 2597.94 8695.83 2597.84 8701.08 2597.74 8706.32 2597.63 8711.56 2597.52 8716.8 2597.41 8722.05 2597.3 8727.29 2597.18 8732.53 2597.05 8737.77 2596.93 8743.02 2596.8 8748.26 2596.66 8753.5 2596.52 8758.74 2596.38 8763.99 2596.23 8769.23 2596.07 8774.47 2595.92 8779.71 2595.75 8784.96 2595.58 8790.2 2595.41 8795.44 2595.23 8800.68 2595.05 8805.92 2594.86 8811.17 2594.66 8816.41 2594.46 8821.65 2594.25 8826.89 2594.04 8832.14 2593.81 8837.38 2593.59 8842.62 2593.35 8847.86 2593.1 8853.11 2592.85 8858.35 2592.6 8863.59 2592.32 8868.83 2592.05 8874.08 2591.77 8879.32 2591.47 8884.56 2591.17 8889.8 2590.86 8895.05 2590.53 8900.29 2590.2 8905.53 2589.86 8910.77 2589.5 8916.02 2589.14 8921.26 2588.77 8926.5 2588.37 8931.74 2587.98 8936.98 2587.57 8942.23 2587.13 8947.47 2586.7 8952.71 2586.25 8957.96 2585.77 8963.2 2585.3 8968.44 2584.8 8973.68 2584.28 8978.92 2583.76 8984.17 2583.21 8989.41 2582.64 8994.65 2582.07 8999.89 2581.47 9005.14 2580.84 9010.38 2580.22 9015.62 2579.56 9020.86 2578.87 9026.11 2578.18 9031.35 2577.46 9036.59 2576.71 9041.83 2575.95 9047.08 2575.16 9052.32 2574.33 9057.56 2573.5 9062.8 2572.64 9068.05 2571.73 9073.29 2570.82 9078.53 2569.87 9083.77 2568.87 9089.02 2567.87 9094.26 2566.83 9099.5 2565.74 9104.74 2564.64 9109.98 2563.5 9115.23 2562.3 9120.47 2561.1 9125.71 2559.85 9130.95 2558.53 9136.2 2557.21 9141.44 2555.84 9146.68 2554.4 9151.92 2552.95 9157.17 2551.45 9162.41 2549.87 9167.65 2548.28 9172.89 2546.64 9178.14 2544.9 9183.38 2543.17 9188.62 2541.36 9193.86 2539.46 9199.11 2537.56 9204.35 2535.58 9209.59 2533.5 9214.83 2531.42 9220.08 2529.26 9225.32 2526.98 9230.56 2524.7 9235.8 2522.33 9241.05 2519.84 9246.29 2517.35 9251.53 2514.76 9256.77 2512.03 9262.02 2509.31 9267.26 2506.47 9272.5 2503.5 9277.74 2500.52 9282.99 2497.43 9288.23 2494.18 9293.47 2490.94 9298.71 2487.56 9303.96 2484.02 9309.2 2480.48 9314.44 2476.8 9319.68 2472.94 9324.92 2469.09 9330.17 2465.08 9335.41 2460.9 9340.65 2456.71 9345.89 2452.35 9351.14 2447.81 9356.38 2443.26 9361.62 2438.54 9366.86 2433.62 9372.11 2428.7 9377.35 2423.59 9382.59 2418.27 9387.83 2412.96 9393.08 2407.45 9398.32 2401.72 9403.56 2396 9408.8 2390.07 9414.05 2383.92 9419.29 2377.78 9424.53 2371.42 9429.77 2364.85 9435.02 2358.29 9440.26 2351.5 9445.5 2344.51 9450.74 2337.52 9455.99 2330.31 9461.23 2322.91 9466.47 2315.51 9471.71 2307.89 9476.96 2300.1 9482.2 2292.3 9487.44 2284.3 9492.68 2276.15 9497.92 2267.99 9503.17 2259.64 9508.41 2251.17 9513.65 2242.69 9518.89 2234.04 9524.14 2225.3 9529.38 2216.56 9534.62 2207.67 9539.86 2198.72 9545.11 2189.77 9550.35 2180.71 9555.59 2171.63 9560.83 2162.54 9566.08 2153.38 9571.32 2144.24 9576.56 2135.1 9581.8 2125.91 9587.04 2116.79 9592.29 2107.67 9597.53 2098.54 9602.77 2089.52 9608.02 2080.5 9613.26 2071.51 9618.5 2062.65 9623.74 2053.8 9628.98 2045.02 9634.23 2036.41 9639.47 2027.79 9644.71 2019.28 9649.96 2010.96 9655.2 2002.64 9660.44 1994.46 9665.68 1986.48 9670.92 1978.5 9676.17 1970.69 9681.41 1963.09 9686.65 1955.49 9691.89 1948.07 9697.14 1940.88 9702.38 1933.68 9707.62 1926.68 9712.86 1919.9 9718.11 1913.12 9723.35 1906.55 9728.59 1900.2 9733.83 1893.84 9739.08 1887.7 9744.32 1881.76 9749.56 1875.83 9754.8 1870.11 9760.05 1864.59 9765.29 1859.07 9770.53 1853.77 9775.77 1848.65 9781.02 1843.53 9786.26 1838.62 9791.5 1833.89 9796.74 1829.16 9801.99 1824.62 9807.23 1820.26 9812.47 1815.89 9817.71 1811.72 9822.96 1807.7 9828.2 1803.68 9833.44 1799.84 9838.68 1796.14 9843.92 1792.45 9849.17 1788.92 9854.41 1785.53 9859.65 1782.14 9864.89 1778.91 9870.14 1775.8 9875.38 1772.69 9880.62 1769.73 9885.86 1766.88 9891.11 1764.04 9896.35 1761.32 9901.59 1758.72 9906.83 1756.12 9912.08 1753.64 9917.32 1751.25 9922.56 1748.87 9927.8 1746.61 9933.05 1744.43 9938.29 1742.25 9943.53 1740.18 9948.77 1738.19 9954.02 1736.21 9959.26 1734.4 9964.5 1732.5" stroke="#264478" stroke-width="9.16667" stroke-linecap="round" stroke-linejoin="round" stroke-miterlimit="10" fill="none"/></g><g><path d="M8407.5 2600.5C8412.74 2600.49 8417.98 2600.49 8423.23 2600.48 8428.47 2600.47 8433.71 2600.46 8438.95 2600.45 8444.2 2600.45 8449.44 2600.44 8454.68 2600.43 8459.92 2600.42 8465.17 2600.41 8470.41 2600.4 8475.65 2600.39 8480.89 2600.38 8486.14 2600.37 8491.38 2600.36 8496.62 2600.35 8501.86 2600.33 8507.11 2600.32 8512.35 2600.31 8517.59 2600.3 8522.83 2600.28 8528.08 2600.27 8533.32 2600.26 8538.56 2600.24 8543.8 2600.23 8549.04 2600.21 8554.29 2600.19 8559.53 2600.18 8564.77 2600.16 8570.01 2600.14 8575.26 2600.12 8580.5 2600.11 8585.74 2600.09 8590.98 2600.07 8596.23 2600.05 8601.47 2600.02 8606.71 2600 8611.95 2599.98 8617.2 2599.96 8622.44 2599.93 8627.68 2599.91 8632.92 2599.88 8638.17 2599.85 8643.41 2599.83 8648.65 2599.8 8653.89 2599.77 8659.14 2599.74 8664.38 2599.71 8669.62 2599.68 8674.86 2599.65 8680.11 2599.61 8685.35 2599.58 8690.59 2599.54 8695.83 2599.5 8701.08 2599.47 8706.32 2599.43 8711.56 2599.38 8716.8 2599.34 8722.05 2599.3 8727.29 2599.25 8732.53 2599.21 8737.77 2599.16 8743.02 2599.11 8748.26 2599.06 8753.5 2599.01 8758.74 2598.95 8763.99 2598.9 8769.23 2598.84 8774.47 2598.78 8779.71 2598.72 8784.96 2598.66 8790.2 2598.59 8795.44 2598.53 8800.68 2598.46 8805.92 2598.39 8811.17 2598.31 8816.41 2598.24 8821.65 2598.16 8826.89 2598.08 8832.14 2597.99 8837.38 2597.91 8842.62 2597.82 8847.86 2597.73 8853.11 2597.63 8858.35 2597.54 8863.59 2597.43 8868.83 2597.33 8874.08 2597.23 8879.32 2597.11 8884.56 2597 8889.8 2596.89 8895.05 2596.76 8900.29 2596.64 8905.53 2596.51 8910.77 2596.38 8916.02 2596.24 8921.26 2596.1 8926.5 2595.95 8931.74 2595.8 8936.98 2595.65 8942.23 2595.49 8947.47 2595.33 8952.71 2595.16 8957.96 2594.98 8963.2 2594.8 8968.44 2594.61 8973.68 2594.42 8978.92 2594.22 8984.17 2594.02 8989.41 2593.8 8994.65 2593.59 8999.89 2593.37 9005.14 2593.13 9010.38 2592.89 9015.62 2592.65 9020.86 2592.39 9026.11 2592.13 9031.35 2591.86 9036.59 2591.58 9041.83 2591.29 9047.08 2591 9052.32 2590.69 9057.56 2590.37 9062.8 2590.05 9068.05 2589.71 9073.29 2589.37 9078.53 2589.01 9083.77 2588.63 9089.02 2588.26 9094.26 2587.87 9099.5 2587.46 9104.74 2587.04 9109.98 2586.61 9115.23 2586.16 9120.47 2585.71 9125.71 2585.24 9130.95 2584.74 9136.2 2584.25 9141.44 2583.73 9146.68 2583.19 9151.92 2582.64 9157.17 2582.08 9162.41 2581.48 9167.65 2580.88 9172.89 2580.26 9178.14 2579.6 9183.38 2578.95 9188.62 2578.27 9193.86 2577.55 9199.11 2576.83 9204.35 2576.08 9209.59 2575.29 9214.83 2574.5 9220.08 2573.68 9225.32 2572.82 9230.56 2571.95 9235.8 2571.05 9241.05 2570.1 9246.29 2569.15 9251.53 2568.16 9256.77 2567.12 9262.02 2566.08 9267.26 2564.99 9272.5 2563.85 9277.74 2562.71 9282.99 2561.52 9288.23 2560.27 9293.47 2559.02 9298.71 2557.71 9303.96 2556.34 9309.2 2554.97 9314.44 2553.54 9319.68 2552.03 9324.92 2550.52 9330.17 2548.96 9335.41 2547.31 9340.65 2545.66 9345.89 2543.94 9351.14 2542.13 9356.38 2540.33 9361.62 2538.44 9366.86 2536.46 9372.11 2534.48 9377.35 2532.42 9382.59 2530.26 9387.83 2528.09 9393.08 2525.83 9398.32 2523.46 9403.56 2521.09 9408.8 2518.62 9414.05 2516.03 9419.29 2513.43 9424.53 2510.73 9429.77 2507.9 9435.02 2505.06 9440.26 2502.11 9445.5 2499.02 9450.74 2495.92 9455.99 2492.7 9461.23 2489.33 9466.47 2485.95 9471.71 2482.44 9476.96 2478.76 9482.2 2475.08 9487.44 2471.25 9492.68 2467.25 9497.92 2463.25 9503.17 2459.09 9508.41 2454.74 9513.65 2450.39 9518.89 2445.88 9524.14 2441.16 9529.38 2436.45 9534.62 2431.56 9539.86 2426.46 9545.11 2421.36 9550.35 2416.07 9555.59 2410.57 9560.83 2405.07 9566.08 2399.38 9571.32 2393.46 9576.56 2387.55 9581.8 2381.43 9587.04 2375.09 9592.29 2368.76 9597.53 2362.21 9602.77 2355.45 9608.02 2348.69 9613.26 2341.72 9618.5 2334.54 9623.74 2327.36 9628.98 2319.97 9634.23 2312.39 9639.47 2304.81 9644.71 2297.01 9649.96 2289.05 9655.2 2281.09 9660.44 2272.93 9665.68 2264.63 9670.92 2256.33 9676.17 2247.84 9681.41 2239.24 9686.65 2230.64 9691.89 2221.87 9697.14 2213.03 9702.38 2204.19 9707.62 2195.21 9712.86 2186.2 9718.11 2177.19 9723.35 2168.07 9728.59 2158.95 9733.83 2149.84 9739.08 2140.66 9744.32 2131.52 9749.56 2122.39 9754.8 2113.22 9760.05 2104.14 9765.29 2095.06 9770.53 2085.99 9775.77 2077.04 9781.02 2068.09 9786.26 2059.19 9791.5 2050.44 9796.74 2041.7 9801.99 2033.04 9807.23 2024.55 9812.47 2016.07 9817.71 2007.71 9822.96 1999.54 9828.2 1991.38 9833.44 1983.37 9838.68 1975.56 9843.92 1967.75 9849.17 1960.12 9854.41 1952.71 9859.65 1945.29 9864.89 1938.07 9870.14 1931.06 9875.38 1924.06 9880.62 1917.26 9885.86 1910.67 9891.11 1904.09 9896.35 1897.72 9901.59 1891.56 9906.83 1885.4 9912.08 1879.46 9917.32 1873.72 9922.56 1867.98 9927.8 1862.45 9933.05 1857.12 9938.29 1851.79 9943.53 1846.67 9948.77 1841.73 9954.02 1836.79 9959.26 1832.24 9964.5 1827.5" stroke="#9E480E" stroke-width="9.16667" stroke-linecap="round" stroke-linejoin="round" stroke-miterlimit="10" fill="none"/></g><g><text font-family="Calibri,Calibri_MSFontService,sans-serif" font-weight="400" font-size="64" transform="matrix(1 0 0 1 8314.96 2619)">0</text></g><g><text font-family="Calibri,Calibri_MSFontService,sans-serif" font-weight="400" font-size="64" transform="matrix(1 0 0 1 8282.44 2516)">10</text></g><g><text font-family="Calibri,Calibri_MSFontService,sans-serif" font-weight="400" font-size="64" transform="matrix(1 0 0 1 8282.44 2413)">20</text></g><g><text font-family="Calibri,Calibri_MSFontService,sans-serif" font-weight="400" font-size="64" transform="matrix(1 0 0 1 8282.44 2310)">30</text></g><g><text font-family="Calibri,Calibri_MSFontService,sans-serif" font-weight="400" font-size="64" transform="matrix(1 0 0 1 8282.44 2207)">40</text></g><g><text font-family="Calibri,Calibri_MSFontService,sans-serif" font-weight="400" font-size="64" transform="matrix(1 0 0 1 8282.44 2104)">50</text></g><g><text font-family="Calibri,Calibri_MSFontService,sans-serif" font-weight="400" font-size="64" transform="matrix(1 0 0 1 8282.44 2001)">60</text></g><g><text font-family="Calibri,Calibri_MSFontService,sans-serif" font-weight="400" font-size="64" transform="matrix(1 0 0 1 8282.44 1898)">70</text></g><g><text font-family="Calibri,Calibri_MSFontService,sans-serif" font-weight="400" font-size="64" transform="matrix(1 0 0 1 8282.44 1795)">80</text></g><g><text font-family="Calibri,Calibri_MSFontService,sans-serif" font-weight="400" font-size="64" transform="matrix(1 0 0 1 8282.44 1692)">90</text></g><g><text font-family="Calibri,Calibri_MSFontService,sans-serif" font-weight="400" font-size="64" transform="matrix(1 0 0 1 8374.49 2702)">10</text></g><g><text font-family="Calibri,Calibri_MSFontService,sans-serif" font-weight="400" font-size="64" transform="matrix(1 0 0 1 8747.58 2702)">100</text></g><g><text font-family="Calibri,Calibri_MSFontService,sans-serif" font-weight="400" font-size="64" transform="matrix(1 0 0 1 9120.67 2702)">1000</text></g><g><text font-family="Calibri,Calibri_MSFontService,sans-serif" font-weight="400" font-size="64" transform="matrix(1 0 0 1 9493.76 2702)">10000</text></g><g><text font-family="Calibri,Calibri_MSFontService,sans-serif" font-weight="400" font-size="64" transform="matrix(1 0 0 1 9866.85 2702)">100000</text></g><g><text font-family="Calibri,Calibri_MSFontService,sans-serif" font-weight="700" font-size="64" transform="matrix(6.12323e-17 -1 1 6.12323e-17 8251.37 2335)">Phase (degree)</text></g><g><text font-family="Calibri,Calibri_MSFontService,sans-serif" font-weight="700" font-size="64" transform="matrix(1 0 0 1 8987.11 2795)">Frequency (Hz)</text></g><rect x="8133.5" y="1611.5" width="1979" height="1258" stroke="#D9D9D9" stroke-width="3.4375" stroke-linejoin="round" stroke-miterlimit="10" fill="none"/><g><text fill="#FF0000" font-family="Calibri,Calibri_MSFontService,sans-serif" font-weight="700" font-size="73" transform="matrix(1 0 0 1 9601.29 2406)">All</text></g><g><text fill="#FF0000" font-family="Calibri,Calibri_MSFontService,sans-serif" font-weight="700" font-size="73" transform="matrix(1 0 0 1 9698.32 2406)">open circuit </text></g><g><text fill="#FF0000" font-family="Calibri,Calibri_MSFontService,sans-serif" font-weight="700" font-size="73" transform="matrix(1 0 0 1 9686.11 2495)">faults are </text></g><g><text fill="#FF0000" font-family="Calibri,Calibri_MSFontService,sans-serif" font-weight="700" font-size="73" transform="matrix(1 0 0 1 9648.66 2585)">overlapping</text></g><g><path d="M9773.49 2362.62 9707.46 2253.87 9713.33 2250.3 9779.36 2359.05ZM9701.02 2263.14 9698.5 2232.5 9724.53 2248.87Z" fill="#7F7F7F"/></g></g></svg>