<svg width="1986" height="2825" xmlns="http://www.w3.org/2000/svg" xmlns:xlink="http://www.w3.org/1999/xlink" xml:space="preserve" overflow="hidden"><defs><clipPath id="clip0"><rect x="4087" y="47" width="1986" height="2825"/></clipPath><clipPath id="clip1"><rect x="4408" y="253" width="1548" height="1273"/></clipPath><clipPath id="clip2"><rect x="4408" y="253" width="1548" height="1273"/></clipPath><clipPath id="clip3"><rect x="4408" y="253" width="1548" height="1273"/></clipPath><clipPath id="clip4"><rect x="4408" y="253" width="1548" height="1273"/></clipPath><clipPath id="clip5"><rect x="4408" y="253" width="1548" height="1273"/></clipPath><clipPath id="clip6"><rect x="4411" y="1649" width="1549" height="962"/></clipPath><clipPath id="clip7"><rect x="4411" y="1649" width="1549" height="962"/></clipPath><clipPath id="clip8"><rect x="4411" y="1649" width="1549" height="962"/></clipPath><clipPath id="clip9"><rect x="4411" y="1649" width="1549" height="962"/></clipPath><clipPath id="clip10"><rect x="4411" y="1649" width="1549" height="962"/></clipPath></defs><g clip-path="url(#clip0)" transform="translate(-4087 -47)"><rect x="4088" y="48.0001" width="1981" height="1542" fill="#FFFFFF"/><g><path d="M4408.5 1523.5 5953.5 1523.5M4408.5 1381.55 5953.5 1381.55M4408.5 1240.54 5953.5 1240.54M4408.5 958.532 5953.5 958.532M4408.5 817.527 5953.5 817.527M4408.5 676.522 5953.5 676.522M4408.5 535.518 5953.5 535.518M4408.5 394.513 5953.5 394.513M4408.5 253.5 5953.5 253.5" stroke="#D9D9D9" stroke-width="3.4375" stroke-linejoin="round" stroke-miterlimit="10" fill="none"/></g><g><path d="M4563.65 253.5 4563.65 1523.5M4654.65 253.5 4654.65 1523.5M4718.65 253.5 4718.65 1523.5M4768.66 253.5 4768.66 1523.5M4809.66 253.5 4809.66 1523.5M4843.66 253.5 4843.66 1523.5M4873.66 253.5 4873.66 1523.5M4899.66 253.5 4899.66 1523.5M5078.67 253.5 5078.67 1523.5M5169.67 253.5 5169.67 1523.5M5233.67 253.5 5233.67 1523.5M5283.67 253.5 5283.67 1523.5M5324.67 253.5 5324.67 1523.5M5358.68 253.5 5358.68 1523.5M5388.68 253.5 5388.68 1523.5M5414.68 253.5 5414.68 1523.5M5593.68 253.5 5593.68 1523.5M5684.69 253.5 5684.69 1523.5M5748.69 253.5 5748.69 1523.5M5798.69 253.5 5798.69 1523.5M5839.69 253.5 5839.69 1523.5M5873.69 253.5 5873.69 1523.5M5903.69 253.5 5903.69 1523.5M5929.69 253.5 5929.69 1523.5" stroke="#F2F2F2" stroke-width="3.4375" stroke-linejoin="round" stroke-miterlimit="10" fill="none"/></g><g><path d="M4923.66 253.5 4923.66 1523.5M5438.68 253.5 5438.68 1523.5M5953.5 253.5 5953.5 1523.5" stroke="#D9D9D9" stroke-width="3.4375" stroke-linejoin="round" stroke-miterlimit="10" fill="none"/></g><g><path d="M0 0 0.000360892 1270" stroke="#BFBFBF" stroke-width="3.4375" stroke-linejoin="round" stroke-miterlimit="10" fill="none" fill-rule="evenodd" transform="matrix(1 0 0 -1 4408.5 1523.5)"/></g><g><path d="M4408.5 1099.5 5953.5 1099.5" stroke="#BFBFBF" stroke-width="3.4375" stroke-linejoin="round" stroke-miterlimit="10" fill="none" fill-rule="evenodd"/></g><g clip-path="url(#clip1)"><path d="M4408.5 1337.5C4415.44 1337.49 4422.37 1337.48 4429.31 1337.46 4436.24 1337.45 4443.18 1337.44 4450.12 1337.42 4457.05 1337.4 4463.99 1337.39 4470.92 1337.37 4477.86 1337.35 4484.8 1337.33 4491.73 1337.31 4498.67 1337.28 4505.6 1337.26 4512.54 1337.23 4519.48 1337.2 4526.41 1337.17 4533.35 1337.14 4540.28 1337.11 4547.22 1337.07 4554.16 1337.03 4561.09 1336.99 4568.03 1336.95 4574.96 1336.9 4581.9 1336.85 4588.84 1336.8 4595.77 1336.74 4602.71 1336.68 4609.64 1336.62 4616.58 1336.55 4623.52 1336.48 4630.45 1336.4 4637.39 1336.32 4644.32 1336.23 4651.26 1336.14 4658.2 1336.04 4665.13 1335.94 4672.07 1335.83 4679 1335.71 4685.94 1335.59 4692.88 1335.46 4699.81 1335.31 4706.75 1335.16 4713.69 1335 4720.62 1334.83 4727.56 1334.65 4734.49 1334.46 4741.43 1334.25 4748.36 1334.04 4755.3 1333.81 4762.24 1333.55 4769.17 1333.3 4776.11 1333.02 4783.05 1332.72 4789.98 1332.41 4796.92 1332.08 4803.85 1331.72 4810.79 1331.35 4817.73 1330.95 4824.66 1330.51 4831.6 1330.07 4838.53 1329.6 4845.47 1329.07 4852.41 1328.54 4859.34 1327.97 4866.28 1327.34 4873.21 1326.71 4880.15 1326.03 4887.09 1325.27 4894.02 1324.52 4900.96 1323.71 4907.89 1322.8 4914.83 1321.9 4921.77 1320.93 4928.7 1319.86 4935.64 1318.78 4942.57 1317.63 4949.51 1316.35 4956.45 1315.07 4963.38 1313.69 4970.32 1312.18 4977.25 1310.66 4984.19 1309.03 4991.13 1307.23 4998.06 1305.44 5005 1303.51 5011.93 1301.4 5018.87 1299.28 5025.81 1297.01 5032.74 1294.52 5039.68 1292.03 5046.61 1289.37 5053.55 1286.46 5060.49 1283.54 5067.42 1280.43 5074.36 1277.04 5081.29 1273.65 5088.23 1270.03 5095.17 1266.11 5102.1 1262.18 5109.04 1258 5115.97 1253.48 5122.91 1248.96 5129.85 1244.15 5136.78 1238.99 5143.72 1233.82 5150.65 1228.34 5157.59 1222.48 5164.53 1216.62 5171.46 1210.42 5178.4 1203.82 5185.33 1197.22 5192.27 1190.26 5199.21 1182.89 5206.14 1175.53 5213.08 1167.78 5220.01 1159.63 5226.95 1151.49 5233.89 1142.94 5240.82 1134.02 5247.76 1125.09 5254.69 1115.76 5261.63 1106.07 5268.57 1096.39 5275.5 1086.3 5282.44 1075.89 5289.38 1065.48 5296.31 1054.68 5303.25 1043.61 5310.18 1032.54 5317.12 1021.11 5324.06 1009.47 5330.99 997.832 5337.93 985.864 5344.86 973.768 5351.8 961.671 5358.74 949.295 5365.67 936.893 5372.61 924.491 5379.54 911.871 5386.48 899.357 5393.42 886.844 5400.35 874.19 5407.29 861.81 5414.22 849.43 5421.16 837.013 5428.1 825.077 5435.03 813.14 5441.97 801.301 5448.9 790.192 5455.84 779.084 5462.78 768.248 5469.71 758.426 5476.65 748.604 5483.58 739.28 5490.52 731.26 5497.46 723.239 5504.39 715.993 5511.33 710.304 5518.26 704.614 5525.2 700.009 5532.14 697.121 5539.07 694.232 5546.01 692.732 5552.94 692.974 5559.88 693.216 5566.82 695.082 5573.75 698.571 5580.69 702.06 5587.62 707.286 5594.56 713.909 5601.5 720.531 5608.43 728.858 5615.37 738.303 5622.3 747.748 5629.24 758.742 5636.18 770.577 5643.11 782.413 5650.05 795.563 5656.98 809.317 5663.92 823.069 5670.86 837.88 5677.79 853.094 5684.73 868.307 5691.66 884.335 5698.6 900.597 5705.54 916.858 5712.47 933.723 5719.41 950.662 5726.34 967.6 5733.28 984.964 5740.22 1002.23 5747.15 1019.49 5754.09 1037.03 5761.03 1054.25 5767.96 1071.47 5774.9 1088.81 5781.83 1105.56 5788.77 1122.32 5795.71 1139.01 5802.64 1154.78 5809.58 1170.54 5816.51 1186.01 5823.45 1200.15 5830.39 1214.28 5837.32 1227.81 5844.26 1239.57 5851.19 1251.34 5858.13 1262.09 5865.07 1270.72 5872 1279.36 5878.94 1286.51 5885.87 1291.41 5892.81 1296.3 5899.75 1299.26 5906.68 1300.1 5913.62 1300.94 5920.55 1299.57 5927.49 1296.43 5934.43 1293.29 5941.36 1287.93 5948.3 1281.26 5955.23 1274.59 5962.17 1265.94 5969.11 1256.4 5976.04 1246.87 5982.98 1235.74 5989.91 1224.06 5996.85 1212.38 6003.79 1199.52 6010.72 1186.33 6017.66 1173.15 6024.59 1159.14 6031.53 1144.95 6038.47 1130.76 6045.4 1116.03 6052.34 1101.2 6059.27 1086.36 6066.21 1071.18 6073.15 1055.94 6080.08 1040.7 6087.02 1025.25 6093.95 1009.75 6100.89 994.252 6107.83 978.622 6114.76 962.953 6121.7 947.283 6128.63 931.529 6135.57 915.734 6142.51 899.939 6149.44 884.083 6156.38 868.183 6163.31 852.283 6170.25 836.332 6177.19 820.334 6184.12 804.335 6191.06 788.289 6198 772.191 6204.93 756.093 6211.87 739.946 6218.8 723.745 6225.74 707.544 6232.67 691.292 6239.61 674.984 6246.55 658.677 6253.48 642.316 6260.42 625.901 6267.35 609.485 6274.29 593.014 6281.23 576.491 6288.16 559.967 6295.1 543.389 6302.04 526.76 6308.97 510.131 6315.91 493.449 6322.84 476.72 6329.78 459.991 6336.72 443.209 6343.65 426.386 6350.59 409.562 6357.52 392.689 6364.46 375.779 6371.4 358.869 6378.33 341.913 6385.27 324.924 6392.2 307.935 6399.14 290.904 6406.08 273.844 6413.01 256.784 6419.95 239.687 6426.88 222.565 6433.82 205.442 6440.76 188.287 6447.69 171.109 6454.63 153.932 6461.56 136.703 6468.5 119.5" stroke="#4472C4" stroke-width="9.16667" stroke-linecap="round" stroke-linejoin="round" stroke-miterlimit="10" fill="none"/></g><g clip-path="url(#clip2)"><path d="M4408.5 1314.5C4415.44 1314.49 4422.37 1314.48 4429.31 1314.46 4436.24 1314.45 4443.18 1314.43 4450.12 1314.42 4457.05 1314.4 4463.99 1314.38 4470.92 1314.36 4477.86 1314.34 4484.8 1314.32 4491.73 1314.3 4498.67 1314.28 4505.6 1314.25 4512.54 1314.22 4519.48 1314.19 4526.41 1314.16 4533.35 1314.13 4540.28 1314.09 4547.22 1314.06 4554.16 1314.02 4561.09 1313.97 4568.03 1313.93 4574.96 1313.88 4581.9 1313.83 4588.84 1313.78 4595.77 1313.72 4602.71 1313.66 4609.64 1313.59 4616.58 1313.52 4623.52 1313.45 4630.45 1313.37 4637.39 1313.28 4644.32 1313.2 4651.26 1313.1 4658.2 1313 4665.13 1312.89 4672.07 1312.78 4679 1312.65 4685.94 1312.53 4692.88 1312.39 4699.81 1312.24 4706.75 1312.09 4713.69 1311.93 4720.62 1311.75 4727.56 1311.56 4734.49 1311.37 4741.43 1311.15 4748.36 1310.93 4755.3 1310.7 4762.24 1310.43 4769.17 1310.17 4776.11 1309.89 4783.05 1309.57 4789.98 1309.25 4796.92 1308.91 4803.85 1308.54 4810.79 1308.16 4817.73 1307.75 4824.66 1307.29 4831.6 1306.84 4838.53 1306.35 4845.47 1305.81 4852.41 1305.26 4859.34 1304.67 4866.28 1304.02 4873.21 1303.37 4880.15 1302.67 4887.09 1301.89 4894.02 1301.11 4900.96 1300.27 4907.89 1299.33 4914.83 1298.4 4921.77 1297.4 4928.7 1296.29 4935.64 1295.18 4942.57 1293.98 4949.51 1292.66 4956.45 1291.34 4963.38 1289.92 4970.32 1288.34 4977.25 1286.77 4984.19 1285.09 4991.13 1283.23 4998.06 1281.36 5005 1279.37 5011.93 1277.17 5018.87 1274.97 5025.81 1272.62 5032.74 1270.03 5039.68 1267.44 5046.61 1264.68 5053.55 1261.65 5060.49 1258.61 5067.42 1255.37 5074.36 1251.84 5081.29 1248.3 5088.23 1244.53 5095.17 1240.42 5102.1 1236.31 5109.04 1231.94 5115.97 1227.2 5122.91 1222.46 5129.85 1217.42 5136.78 1211.99 5143.72 1206.55 5150.65 1200.78 5157.59 1194.59 5164.53 1188.4 5171.46 1181.84 5178.4 1174.84 5185.33 1167.83 5192.27 1160.43 5199.21 1152.57 5206.14 1144.71 5213.08 1136.42 5220.01 1127.67 5226.95 1118.92 5233.89 1109.72 5240.82 1100.05 5247.76 1090.37 5254.69 1080.24 5261.63 1069.64 5268.57 1059.05 5275.5 1047.98 5282.44 1036.46 5289.38 1024.94 5296.31 1012.95 5303.25 1000.54 5310.18 988.129 5317.12 975.248 5324.06 961.982 5330.99 948.716 5337.93 934.996 5344.86 920.947 5351.8 906.898 5358.74 892.415 5365.67 877.688 5372.61 862.96 5379.54 847.83 5386.48 832.581 5393.42 817.331 5400.35 801.726 5407.29 786.192 5414.22 770.656 5421.16 754.838 5428.1 739.371 5435.03 723.904 5441.97 708.269 5448.9 693.39 5455.84 678.51 5462.78 663.656 5469.71 650.095 5476.65 636.533 5483.58 623.316 5490.52 612.023 5497.46 600.729 5504.39 590.273 5511.33 582.332 5518.26 574.391 5525.2 567.957 5532.14 564.378 5539.07 560.799 5546.01 559.443 5552.94 560.858 5559.88 562.274 5566.82 566.432 5573.75 572.871 5580.69 579.31 5587.62 588.601 5594.56 599.489 5601.5 610.377 5608.43 623.806 5615.37 638.196 5622.3 652.586 5629.24 668.959 5636.18 685.832 5643.11 702.703 5650.05 720.964 5656.98 739.427 5663.92 757.891 5670.86 777.242 5677.79 796.614 5684.73 815.986 5691.66 835.874 5698.6 855.659 5705.54 875.444 5712.47 895.492 5719.41 915.325 5726.34 935.158 5733.28 955.08 5740.22 974.659 5747.15 994.238 5754.09 1013.78 5761.03 1032.8 5767.96 1051.82 5774.9 1070.68 5781.83 1088.79 5788.77 1106.89 5795.71 1124.69 5802.64 1141.42 5809.58 1158.14 5816.51 1174.36 5823.45 1189.12 5830.39 1203.88 5837.32 1217.85 5844.26 1229.95 5851.19 1242.05 5858.13 1252.98 5865.07 1261.73 5872 1270.48 5878.94 1277.6 5885.87 1282.43 5892.81 1287.26 5899.75 1290.05 5906.68 1290.7 5913.62 1291.35 5920.55 1289.72 5927.49 1286.31 5934.43 1282.91 5941.36 1277.24 5948.3 1270.27 5955.23 1263.3 5962.17 1254.33 5969.11 1244.49 5976.04 1234.65 5982.98 1223.21 5989.91 1211.24 5996.85 1199.27 6003.79 1186.12 6010.72 1172.68 6017.66 1159.24 6024.59 1145 6031.53 1130.6 6038.47 1116.2 6045.4 1101.28 6052.34 1086.3 6059.27 1071.31 6066.21 1056.01 6073.15 1040.68 6080.08 1025.35 6087.02 1009.84 6093.95 994.31 6100.89 978.782 6107.83 963.157 6114.76 947.516 6121.7 931.874 6128.63 916.178 6135.57 900.459 6142.51 884.74 6149.44 868.988 6156.38 853.202 6163.31 837.415 6170.25 821.6 6177.19 805.742 6184.12 789.883 6191.06 773.992 6198 758.05 6204.93 742.107 6211.87 726.125 6218.8 710.086 6225.74 694.046 6232.67 677.959 6239.61 661.812 6246.55 645.664 6253.48 629.463 6260.42 613.2 6267.35 596.937 6274.29 580.615 6281.23 564.233 6288.16 547.851 6295.1 531.408 6302.04 514.908 6308.97 498.407 6315.91 481.846 6322.84 465.231 6329.78 448.617 6336.72 431.942 6343.65 415.219 6350.59 398.495 6357.52 381.715 6364.46 364.892 6371.4 348.068 6378.33 331.193 6385.27 314.278 6392.2 297.363 6399.14 280.4 6406.08 263.403 6413.01 246.406 6419.95 229.367 6426.88 212.298 6433.82 195.228 6440.76 178.121 6447.69 160.988 6454.63 143.855 6461.56 126.663 6468.5 109.5" stroke="#ED7D31" stroke-width="9.16667" stroke-linecap="round" stroke-linejoin="round" stroke-miterlimit="10" fill="none"/></g><g clip-path="url(#clip3)"><path d="M4408.5 1302.5C4415.44 1302.49 4422.37 1302.48 4429.31 1302.46 4436.24 1302.45 4443.18 1302.43 4450.12 1302.42 4457.05 1302.4 4463.99 1302.38 4470.92 1302.36 4477.86 1302.34 4484.8 1302.32 4491.73 1302.3 4498.67 1302.27 4505.6 1302.25 4512.54 1302.22 4519.48 1302.19 4526.41 1302.16 4533.35 1302.12 4540.28 1302.09 4547.22 1302.05 4554.16 1302.01 4561.09 1301.97 4568.03 1301.92 4574.96 1301.87 4581.9 1301.82 4588.84 1301.77 4595.77 1301.71 4602.71 1301.65 4609.64 1301.58 4616.58 1301.51 4623.52 1301.43 4630.45 1301.36 4637.39 1301.27 4644.32 1301.18 4651.26 1301.09 4658.2 1300.98 4665.13 1300.87 4672.07 1300.76 4679 1300.63 4685.94 1300.5 4692.88 1300.37 4699.81 1300.21 4706.75 1300.06 4713.69 1299.9 4720.62 1299.71 4727.56 1299.53 4734.49 1299.33 4741.43 1299.11 4748.36 1298.89 4755.3 1298.65 4762.24 1298.38 4769.17 1298.12 4776.11 1297.83 4783.05 1297.51 4789.98 1297.19 4796.92 1296.85 4803.85 1296.46 4810.79 1296.08 4817.73 1295.66 4824.66 1295.2 4831.6 1294.74 4838.53 1294.25 4845.47 1293.7 4852.41 1293.14 4859.34 1292.55 4866.28 1291.89 4873.21 1291.23 4880.15 1290.52 4887.09 1289.73 4894.02 1288.93 4900.96 1288.08 4907.89 1287.14 4914.83 1286.19 4921.77 1285.18 4928.7 1284.05 4935.64 1282.92 4942.57 1281.71 4949.51 1280.37 4956.45 1279.03 4963.38 1277.59 4970.32 1275.99 4977.25 1274.4 4984.19 1272.69 4991.13 1270.8 4998.06 1268.91 5005 1266.89 5011.93 1264.65 5018.87 1262.42 5025.81 1260.03 5032.74 1257.4 5039.68 1254.77 5046.61 1251.96 5053.55 1248.88 5060.49 1245.79 5067.42 1242.5 5074.36 1238.9 5081.29 1235.3 5088.23 1231.46 5095.17 1227.27 5102.1 1223.09 5109.04 1218.63 5115.97 1213.79 5122.91 1208.96 5129.85 1203.81 5136.78 1198.26 5143.72 1192.7 5150.65 1186.81 5157.59 1180.47 5164.53 1174.13 5171.46 1167.41 5178.4 1160.22 5185.33 1153.04 5192.27 1145.44 5199.21 1137.35 5206.14 1129.26 5213.08 1120.73 5220.01 1111.7 5226.95 1102.66 5233.89 1093.16 5240.82 1083.14 5247.76 1073.12 5254.69 1062.61 5261.63 1051.58 5268.57 1040.55 5275.5 1029.01 5282.44 1016.96 5289.38 1004.9 5296.31 992.332 5303.25 979.252 5310.18 966.171 5317.12 952.568 5324.06 938.474 5330.99 924.38 5337.93 909.762 5344.86 894.686 5351.8 879.609 5358.74 864.012 5365.67 848.014 5372.61 832.014 5379.54 815.504 5386.48 798.692 5393.42 781.88 5400.35 764.573 5407.29 747.139 5414.22 729.704 5421.16 711.81 5428.1 694.085 5435.03 676.359 5441.97 658.247 5448.9 640.788 5455.84 623.328 5462.78 605.638 5469.71 589.329 5476.65 573.02 5483.58 556.81 5490.52 542.934 5497.46 529.058 5504.39 515.913 5511.33 506.073 5518.26 496.233 5525.2 488.132 5532.14 483.895 5539.07 479.657 5546.01 478.339 5552.94 480.647 5559.88 482.954 5566.82 489.011 5573.75 497.74 5580.69 506.467 5587.62 518.977 5594.56 533.016 5601.5 547.055 5608.43 564.186 5615.37 581.973 5622.3 599.759 5629.24 619.673 5636.18 639.734 5643.11 659.796 5650.05 681.119 5656.98 702.342 5663.92 723.564 5670.86 745.426 5677.79 767.069 5684.73 788.712 5691.66 810.6 5698.6 832.2 5705.54 853.8 5712.47 875.413 5719.41 896.668 5726.34 917.923 5733.28 939.056 5740.22 959.732 5747.15 980.407 5754.09 1000.87 5761.03 1020.72 5767.96 1040.57 5774.9 1060.13 5781.83 1078.84 5788.77 1097.56 5795.71 1115.86 5802.64 1133.01 5809.58 1150.17 5816.51 1166.73 5823.45 1181.76 5830.39 1196.8 5837.32 1210.97 5844.26 1223.22 5851.19 1235.48 5858.13 1246.49 5865.07 1255.29 5872 1264.08 5878.94 1271.2 5885.87 1275.99 5892.81 1280.78 5899.75 1283.49 5906.68 1284.04 5913.62 1284.59 5920.55 1282.82 5927.49 1279.28 5934.43 1275.73 5941.36 1269.9 5948.3 1262.77 5955.23 1255.63 5962.17 1246.48 5969.11 1236.46 5976.04 1226.44 5982.98 1214.8 5989.91 1202.65 5996.85 1190.5 6003.79 1177.16 6010.72 1163.54 6017.66 1149.92 6024.59 1135.49 6031.53 1120.92 6038.47 1106.35 6045.4 1091.27 6052.34 1076.14 6059.27 1061 6066.21 1045.56 6073.15 1030.1 6080.08 1014.65 6087.02 999.029 6093.95 983.411 6100.89 967.793 6107.83 952.094 6114.76 936.397 6121.7 920.7 6128.63 904.968 6135.57 889.229 6142.51 873.49 6149.44 857.738 6156.38 841.965 6163.31 826.192 6170.25 810.409 6177.19 794.592 6184.12 778.776 6191.06 762.944 6198 747.067 6204.93 731.189 6211.87 715.285 6218.8 699.328 6225.74 683.37 6232.67 667.376 6239.61 651.321 6246.55 635.266 6253.48 619.163 6260.42 602.997 6267.35 586.832 6274.29 570.611 6281.23 554.328 6288.16 538.043 6295.1 521.699 6302.04 505.294 6308.97 488.889 6315.91 472.421 6322.84 455.896 6329.78 439.371 6336.72 422.784 6343.65 406.143 6350.59 389.503 6357.52 372.802 6364.46 356.053 6371.4 339.305 6378.33 322.499 6385.27 305.652 6392.2 288.804 6399.14 271.904 6406.08 254.966 6413.01 238.029 6419.95 221.044 6426.88 204.027 6433.82 187.009 6440.76 169.949 6447.69 152.862 6454.63 135.773 6461.56 118.62 6468.5 101.5" stroke="#A5A5A5" stroke-width="9.16667" stroke-linecap="round" stroke-linejoin="round" stroke-miterlimit="10" fill="none"/></g><g clip-path="url(#clip4)"><path d="M4408.5 1295.5C4415.44 1295.49 4422.37 1295.48 4429.31 1295.46 4436.24 1295.45 4443.18 1295.43 4450.12 1295.42 4457.05 1295.4 4463.99 1295.38 4470.92 1295.36 4477.86 1295.34 4484.8 1295.32 4491.73 1295.3 4498.67 1295.27 4505.6 1295.25 4512.54 1295.22 4519.48 1295.19 4526.41 1295.16 4533.35 1295.12 4540.28 1295.09 4547.22 1295.05 4554.16 1295.01 4561.09 1294.96 4568.03 1294.92 4574.96 1294.87 4581.9 1294.82 4588.84 1294.76 4595.77 1294.7 4602.71 1294.64 4609.64 1294.57 4616.58 1294.5 4623.52 1294.43 4630.45 1294.35 4637.39 1294.26 4644.32 1294.17 4651.26 1294.08 4658.2 1293.97 4665.13 1293.86 4672.07 1293.75 4679 1293.62 4685.94 1293.49 4692.88 1293.35 4699.81 1293.2 4706.75 1293.04 4713.69 1292.88 4720.62 1292.69 4727.56 1292.51 4734.49 1292.31 4741.43 1292.08 4748.36 1291.86 4755.3 1291.62 4762.24 1291.35 4769.17 1291.08 4776.11 1290.8 4783.05 1290.47 4789.98 1290.15 4796.92 1289.81 4803.85 1289.42 4810.79 1289.03 4817.73 1288.62 4824.66 1288.15 4831.6 1287.69 4838.53 1287.19 4845.47 1286.63 4852.41 1286.08 4859.34 1285.48 4866.28 1284.81 4873.21 1284.14 4880.15 1283.43 4887.09 1282.63 4894.02 1281.83 4900.96 1280.98 4907.89 1280.03 4914.83 1279.07 4921.77 1278.05 4928.7 1276.91 4935.64 1275.78 4942.57 1274.56 4949.51 1273.2 4956.45 1271.85 4963.38 1270.4 4970.32 1268.79 4977.25 1267.18 4984.19 1265.46 4991.13 1263.55 4998.06 1261.65 5005 1259.61 5011.93 1257.35 5018.87 1255.1 5025.81 1252.69 5032.74 1250.04 5039.68 1247.38 5046.61 1244.55 5053.55 1241.43 5060.49 1238.32 5067.42 1234.99 5074.36 1231.35 5081.29 1227.72 5088.23 1223.84 5095.17 1219.61 5102.1 1215.38 5109.04 1210.87 5115.97 1205.98 5122.91 1201.09 5129.85 1195.88 5136.78 1190.26 5143.72 1184.64 5150.65 1178.66 5157.59 1172.24 5164.53 1165.81 5171.46 1159 5178.4 1151.71 5185.33 1144.42 5192.27 1136.7 5199.21 1128.49 5206.14 1120.27 5213.08 1111.59 5220.01 1102.4 5226.95 1093.2 5233.89 1083.51 5240.82 1073.29 5247.76 1063.07 5254.69 1052.33 5261.63 1041.05 5268.57 1029.77 5275.5 1017.95 5282.44 1005.58 5289.38 993.208 5296.31 980.293 5303.25 966.814 5310.18 953.335 5317.12 939.301 5324.06 924.706 5330.99 910.111 5337.93 894.953 5344.86 879.246 5351.8 863.539 5358.74 847.26 5365.67 830.468 5372.61 813.675 5379.54 796.302 5386.48 778.49 5393.42 760.677 5400.35 742.28 5407.29 723.593 5414.22 704.906 5421.16 685.638 5428.1 666.368 5435.03 647.098 5441.97 627.276 5448.9 607.973 5455.84 588.669 5462.78 568.919 5469.71 550.546 5476.65 532.172 5483.58 513.651 5490.52 497.734 5497.46 481.817 5504.39 466.456 5511.33 455.042 5518.26 443.627 5525.2 434.067 5532.14 429.247 5539.07 424.427 5546.01 423.107 5552.94 426.122 5559.88 429.136 5566.82 436.783 5573.75 447.333 5580.69 457.883 5587.62 472.972 5594.56 489.42 5601.5 505.868 5608.43 525.773 5615.37 546.021 5622.3 566.268 5629.24 588.656 5636.18 610.906 5643.11 633.157 5650.05 656.498 5656.98 679.524 5663.92 702.549 5670.86 725.991 5677.79 749.06 5684.73 772.129 5691.66 795.234 5698.6 817.94 5705.54 840.645 5712.47 863.188 5719.41 885.291 5726.34 907.393 5733.28 929.235 5740.22 950.555 5747.15 971.874 5754.09 992.873 5761.03 1013.21 5767.96 1033.54 5774.9 1053.5 5781.83 1072.57 5788.77 1091.64 5795.71 1110.23 5802.64 1127.64 5809.58 1145.05 5816.51 1161.81 5823.45 1177.01 5830.39 1192.21 5837.32 1206.5 5844.26 1218.85 5851.19 1231.19 5858.13 1242.26 5865.07 1251.09 5872 1259.91 5878.94 1267.02 5885.87 1271.8 5892.81 1276.57 5899.75 1279.23 5906.68 1279.72 5913.62 1280.21 5920.55 1278.37 5927.49 1274.74 5934.43 1271.1 5941.36 1265.17 5948.3 1257.93 5955.23 1250.68 5962.17 1241.41 5969.11 1231.27 5976.04 1221.12 5982.98 1209.36 5989.91 1197.08 5996.85 1184.79 6003.79 1171.32 6010.72 1157.56 6017.66 1143.8 6024.59 1129.23 6031.53 1114.52 6038.47 1099.82 6045.4 1084.6 6052.34 1069.33 6059.27 1054.06 6066.21 1038.49 6073.15 1022.91 6080.08 1007.34 6087.02 991.597 6093.95 975.872 6100.89 960.146 6107.83 944.347 6114.76 928.562 6121.7 912.776 6128.63 896.965 6135.57 881.16 6142.51 865.355 6149.44 849.547 6156.38 833.73 6163.31 817.913 6170.25 802.099 6177.19 786.261 6184.12 770.423 6191.06 754.581 6198 738.702 6204.93 722.823 6211.87 706.93 6218.8 690.988 6225.74 675.046 6232.67 659.077 6239.61 643.052 6246.55 627.026 6253.48 610.96 6260.42 594.834 6267.35 578.707 6274.29 562.531 6281.23 546.293 6288.16 530.054 6295.1 513.758 6302.04 497.4 6308.97 481.043 6315.91 464.625 6322.84 448.147 6329.78 431.67 6336.72 415.13 6343.65 398.536 6350.59 381.941 6357.52 365.285 6364.46 348.58 6371.4 331.874 6378.33 315.109 6385.27 298.3 6392.2 281.49 6399.14 264.627 6406.08 247.723 6413.01 230.82 6419.95 213.866 6426.88 196.879 6433.82 179.89 6440.76 162.857 6447.69 145.794 6454.63 128.731 6461.56 111.598 6468.5 94.5" stroke="#FFC000" stroke-width="9.16667" stroke-linecap="round" stroke-linejoin="round" stroke-miterlimit="10" fill="none"/></g><g clip-path="url(#clip5)"><path d="M4408.5 1290.5C4415.44 1290.49 4422.37 1290.48 4429.31 1290.46 4436.24 1290.45 4443.18 1290.43 4450.12 1290.42 4457.05 1290.4 4463.99 1290.38 4470.92 1290.36 4477.86 1290.34 4484.8 1290.32 4491.73 1290.3 4498.67 1290.27 4505.6 1290.25 4512.54 1290.22 4519.48 1290.19 4526.41 1290.16 4533.35 1290.12 4540.28 1290.09 4547.22 1290.05 4554.16 1290.01 4561.09 1289.96 4568.03 1289.92 4574.96 1289.87 4581.9 1289.82 4588.84 1289.76 4595.77 1289.7 4602.71 1289.64 4609.64 1289.57 4616.58 1289.5 4623.52 1289.42 4630.45 1289.34 4637.39 1289.26 4644.32 1289.17 4651.26 1289.07 4658.2 1288.96 4665.13 1288.86 4672.07 1288.74 4679 1288.61 4685.94 1288.48 4692.88 1288.35 4699.81 1288.19 4706.75 1288.04 4713.69 1287.87 4720.62 1287.68 4727.56 1287.5 4734.49 1287.3 4741.43 1287.07 4748.36 1286.85 4755.3 1286.61 4762.24 1286.34 4769.17 1286.07 4776.11 1285.78 4783.05 1285.46 4789.98 1285.13 4796.92 1284.79 4803.85 1284.4 4810.79 1284.01 4817.73 1283.59 4824.66 1283.13 4831.6 1282.66 4838.53 1282.16 4845.47 1281.6 4852.41 1281.04 4859.34 1280.44 4866.28 1279.77 4873.21 1279.1 4880.15 1278.39 4887.09 1277.59 4894.02 1276.79 4900.96 1275.93 4907.89 1274.97 4914.83 1274.01 4921.77 1272.99 4928.7 1271.85 4935.64 1270.7 4942.57 1269.48 4949.51 1268.12 4956.45 1266.76 4963.38 1265.31 4970.32 1263.69 4977.25 1262.08 4984.19 1260.34 4991.13 1258.43 4998.06 1256.52 5005 1254.47 5011.93 1252.2 5018.87 1249.94 5025.81 1247.52 5032.74 1244.85 5039.68 1242.18 5046.61 1239.33 5053.55 1236.2 5060.49 1233.07 5067.42 1229.73 5074.36 1226.07 5081.29 1222.42 5088.23 1218.51 5095.17 1214.26 5102.1 1210.01 5109.04 1205.47 5115.97 1200.55 5122.91 1195.63 5129.85 1190.39 5136.78 1184.73 5143.72 1179.07 5150.65 1173.05 5157.59 1166.58 5164.53 1160.11 5171.46 1153.25 5178.4 1145.89 5185.33 1138.54 5192.27 1130.76 5199.21 1122.47 5206.14 1114.17 5213.08 1105.42 5220.01 1096.12 5226.95 1086.83 5233.89 1077.04 5240.82 1066.69 5247.76 1056.35 5254.69 1045.49 5261.63 1034.05 5268.57 1022.61 5275.5 1010.63 5282.44 998.066 5289.38 985.499 5296.31 972.373 5303.25 958.647 5310.18 944.921 5317.12 930.62 5324.06 915.71 5330.99 900.801 5337.93 885.3 5344.86 869.19 5351.8 853.08 5358.74 836.363 5365.67 819.053 5372.61 801.742 5379.54 783.805 5386.48 765.327 5393.42 746.848 5400.35 727.722 5407.29 708.179 5414.22 688.636 5421.16 668.426 5428.1 648.068 5435.03 627.709 5441.97 606.678 5448.9 586.03 5455.84 565.38 5462.78 544.113 5469.71 524.174 5476.65 504.235 5483.58 483.926 5490.52 466.395 5497.46 448.864 5504.39 431.695 5511.33 418.988 5518.26 406.281 5525.2 395.471 5532.14 390.154 5539.07 384.836 5546.01 383.498 5552.94 387.083 5559.88 390.666 5566.82 399.646 5573.75 411.658 5580.69 423.67 5587.62 440.836 5594.56 459.153 5601.5 477.47 5608.43 499.483 5615.37 521.56 5622.3 543.637 5629.24 567.805 5636.18 591.614 5643.11 615.422 5650.05 640.151 5656.98 664.412 5663.92 688.673 5670.86 713.164 5677.79 737.18 5684.73 761.195 5691.66 785.085 5698.6 808.503 5705.54 831.921 5712.47 855.052 5719.41 877.688 5726.34 900.324 5733.28 922.604 5740.22 944.321 5747.15 966.037 5754.09 987.361 5761.03 1007.99 5767.96 1028.62 5774.9 1048.81 5781.83 1068.09 5788.77 1087.37 5795.71 1106.13 5802.64 1123.69 5809.58 1141.24 5816.51 1158.11 5823.45 1173.4 5830.39 1188.7 5837.32 1203.05 5844.26 1215.45 5851.19 1227.84 5858.13 1238.94 5865.07 1247.77 5872 1256.61 5878.94 1263.71 5885.87 1268.47 5892.81 1273.23 5899.75 1275.86 5906.68 1276.31 5913.62 1276.76 5920.55 1274.87 5927.49 1271.18 5934.43 1267.49 5941.36 1261.5 5948.3 1254.19 5955.23 1246.87 5962.17 1237.53 5969.11 1227.31 5976.04 1217.1 5982.98 1205.25 5989.91 1192.89 5996.85 1180.52 6003.79 1166.96 6010.72 1153.12 6017.66 1139.27 6024.59 1124.61 6031.53 1109.82 6038.47 1095.02 6045.4 1079.71 6052.34 1064.36 6059.27 1049 6066.21 1033.33 6073.15 1017.67 6080.08 1002.01 6087.02 986.186 6093.95 970.382 6100.89 954.577 6107.83 938.7 6114.76 922.845 6121.7 906.99 6128.63 891.114 6135.57 875.252 6142.51 859.39 6149.44 843.53 6156.38 827.671 6163.31 811.812 6170.25 795.962 6177.19 780.097 6184.12 764.232 6191.06 748.372 6198 732.481 6204.93 716.591 6211.87 700.694 6218.8 684.755 6225.74 668.816 6232.67 652.857 6239.61 636.847 6246.55 620.836 6253.48 604.794 6260.42 588.693 6267.35 572.591 6274.29 556.447 6281.23 540.241 6288.16 524.035 6295.1 507.777 6302.04 491.458 6308.97 475.139 6315.91 458.763 6322.84 442.327 6329.78 425.891 6336.72 409.395 6343.65 392.844 6350.59 376.292 6357.52 359.68 6364.46 343.016 6371.4 326.353 6378.33 309.631 6385.27 292.863 6392.2 276.094 6399.14 259.271 6406.08 242.407 6413.01 225.542 6419.95 208.627 6426.88 191.675 6433.82 174.724 6440.76 157.726 6447.69 140.697 6454.63 123.668 6461.56 106.565 6468.5 89.4999" stroke="#5B9BD5" stroke-width="9.16667" stroke-linecap="round" stroke-linejoin="round" stroke-miterlimit="10" fill="none"/></g><g><text font-family="Calibri,Calibri_MSFontService,sans-serif" font-weight="400" font-size="64" transform="matrix(1 0 0 1 4264.53 1541)">-15</text></g><g><text font-family="Calibri,Calibri_MSFontService,sans-serif" font-weight="400" font-size="64" transform="matrix(1 0 0 1 4264.53 1400)">-10</text></g><g><text font-family="Calibri,Calibri_MSFontService,sans-serif" font-weight="400" font-size="64" transform="matrix(1 0 0 1 4297.05 1259)">-5</text></g><g><text font-family="Calibri,Calibri_MSFontService,sans-serif" font-weight="400" font-size="64" transform="matrix(1 0 0 1 4316.69 1118)">0</text></g><g><text font-family="Calibri,Calibri_MSFontService,sans-serif" font-weight="400" font-size="64" transform="matrix(1 0 0 1 4316.69 977)">5</text></g><g><text font-family="Calibri,Calibri_MSFontService,sans-serif" font-weight="400" font-size="64" transform="matrix(1 0 0 1 4284.17 836)">10</text></g><g><text font-family="Calibri,Calibri_MSFontService,sans-serif" font-weight="400" font-size="64" transform="matrix(1 0 0 1 4284.17 695)">15</text></g><g><text font-family="Calibri,Calibri_MSFontService,sans-serif" font-weight="400" font-size="64" transform="matrix(1 0 0 1 4284.17 554)">20</text></g><g><text font-family="Calibri,Calibri_MSFontService,sans-serif" font-weight="400" font-size="64" transform="matrix(1 0 0 1 4284.17 413)">25</text></g><g><text font-family="Calibri,Calibri_MSFontService,sans-serif" font-weight="400" font-size="64" transform="matrix(1 0 0 1 4284.17 271)">30</text></g><g><text font-family="Calibri,Calibri_MSFontService,sans-serif" font-weight="700" font-size="64" transform="matrix(6.12323e-17 -1 1 6.12323e-17 4185.94 1025)">Magnitude (dB)</text></g><g><path d="M4541.5 188.5 4629.5 188.5" stroke="#4472C4" stroke-width="9.16667" stroke-linecap="round" stroke-linejoin="round" stroke-miterlimit="10" fill="none" fill-rule="evenodd"/></g><g><text font-family="Calibri,Calibri_MSFontService,sans-serif" font-weight="700" font-size="73" transform="matrix(1 0 0 1 4639.01 210)">Z1</text></g><g><path d="M4825.5 188.5 4913.5 188.5" stroke="#ED7D31" stroke-width="9.16667" stroke-linecap="round" stroke-linejoin="round" stroke-miterlimit="10" fill="none" fill-rule="evenodd"/></g><g><text font-family="Calibri,Calibri_MSFontService,sans-serif" font-weight="700" font-size="73" transform="matrix(1 0 0 1 4923.13 210)">Z2</text></g><g><path d="M5109.5 188.5 5197.5 188.5" stroke="#A5A5A5" stroke-width="9.16667" stroke-linecap="round" stroke-linejoin="round" stroke-miterlimit="10" fill="none" fill-rule="evenodd"/></g><g><text font-family="Calibri,Calibri_MSFontService,sans-serif" font-weight="700" font-size="73" transform="matrix(1 0 0 1 5207.25 210)">Z3</text></g><g><path d="M5394.5 188.5 5482.5 188.5" stroke="#FFC000" stroke-width="9.16667" stroke-linecap="round" stroke-linejoin="round" stroke-miterlimit="10" fill="none" fill-rule="evenodd"/></g><g><text font-family="Calibri,Calibri_MSFontService,sans-serif" font-weight="700" font-size="73" transform="matrix(1 0 0 1 5491.38 210)">Z4</text></g><g><path d="M5678.5 188.5 5766.5 188.5" stroke="#5B9BD5" stroke-width="9.16667" stroke-linecap="round" stroke-linejoin="round" stroke-miterlimit="10" fill="none" fill-rule="evenodd"/></g><g><text font-family="Calibri,Calibri_MSFontService,sans-serif" font-weight="700" font-size="73" transform="matrix(1 0 0 1 5775.5 210)">Z5</text></g><rect x="4088.5" y="48.5" width="1981" height="1542" stroke="#D9D9D9" stroke-width="3.4375" stroke-linejoin="round" stroke-miterlimit="10" fill="none"/><g><path d="M3.43714-0.0495274 13.2679 682.193 6.3936 682.292-3.43714 0.0495274ZM23.5133 677.461 10.1609 705.157-3.98387 677.858Z" fill="#7F7F7F" transform="matrix(1 0 0 -1 5535.5 1017.66)"/></g><g><text fill="#FF0000" font-family="Calibri,Calibri_MSFontService,sans-serif" font-weight="700" font-size="73" transform="matrix(1 0 0 1 5349.21 1070)">Increasing</text></g><g><text fill="#FF0000" font-family="Calibri,Calibri_MSFontService,sans-serif" font-weight="700" font-size="73" transform="matrix(1 0 0 1 5321.6 1159)">Load (Z</text></g><g><text fill="#FF0000" font-family="Calibri,Calibri_MSFontService,sans-serif" font-weight="700" font-size="49" transform="matrix(1 0 0 1 5542.05 1176)">Load2</text></g><g><text fill="#FF0000" font-family="Calibri,Calibri_MSFontService,sans-serif" font-weight="700" font-size="73" transform="matrix(1 0 0 1 5664.15 1159)">)</text></g><g><text fill="#FF0000" font-family="Calibri,Calibri_MSFontService,sans-serif" font-weight="700" font-size="73" transform="matrix(1 0 0 1 5187.14 1249)">Z1</text></g><g><text fill="#FF0000" font-family="Calibri,Calibri_MSFontService,sans-serif" font-weight="700" font-size="73" transform="matrix(1 0 0 1 5270.42 1249)">&lt; </text></g><g><text fill="#FF0000" font-family="Calibri,Calibri_MSFontService,sans-serif" font-weight="700" font-size="73" transform="matrix(1 0 0 1 5323.52 1249)">Z2</text></g><g><text fill="#FF0000" font-family="Calibri,Calibri_MSFontService,sans-serif" font-weight="700" font-size="73" transform="matrix(1 0 0 1 5423.37 1249)">&lt; Z3</text></g><g><text fill="#FF0000" font-family="Calibri,Calibri_MSFontService,sans-serif" font-weight="700" font-size="73" transform="matrix(1 0 0 1 5559.75 1249)">&lt; Z4</text></g><g><text fill="#FF0000" font-family="Calibri,Calibri_MSFontService,sans-serif" font-weight="700" font-size="73" transform="matrix(1 0 0 1 5696.12 1249)">&lt; Z5</text></g><rect x="4088" y="1589" width="1983" height="1281" fill="#FFFFFF"/><g><path d="M4411.5 2607.5 5957.5 2607.5M4411.5 2511.58 5957.5 2511.58M4411.5 2415.58 5957.5 2415.58M4411.5 2320.58 5957.5 2320.58M4411.5 2224.57 5957.5 2224.57M4411.5 2032.57 5957.5 2032.57M4411.5 1937.56 5957.5 1937.56M4411.5 1841.56 5957.5 1841.56M4411.5 1745.56 5957.5 1745.56M4411.5 1649.5 5957.5 1649.5" stroke="#D9D9D9" stroke-width="3.4375" stroke-linejoin="round" stroke-miterlimit="10" fill="none"/></g><g><path d="M4566.65 1649.5 4566.65 2607.5M4656.65 1649.5 4656.65 2607.5M4721.66 1649.5 4721.66 2607.5M4771.66 1649.5 4771.66 2607.5M4812.66 1649.5 4812.66 2607.5M4846.66 1649.5 4846.66 2607.5M4876.66 1649.5 4876.66 2607.5M4902.66 1649.5 4902.66 2607.5M5081.67 1649.5 5081.67 2607.5M5172.67 1649.5 5172.67 2607.5M5236.67 1649.5 5236.67 2607.5M5286.67 1649.5 5286.67 2607.5M5327.68 1649.5 5327.68 2607.5M5361.68 1649.5 5361.68 2607.5M5391.68 1649.5 5391.68 2607.5M5418.68 1649.5 5418.68 2607.5M5596.68 1649.5 5596.68 2607.5M5687.69 1649.5 5687.69 2607.5M5751.69 1649.5 5751.69 2607.5M5801.69 1649.5 5801.69 2607.5M5842.69 1649.5 5842.69 2607.5M5877.69 1649.5 5877.69 2607.5M5907.69 1649.5 5907.69 2607.5M5933.7 1649.5 5933.7 2607.5" stroke="#F2F2F2" stroke-width="3.4375" stroke-linejoin="round" stroke-miterlimit="10" fill="none"/></g><g><path d="M4926.66 1649.5 4926.66 2607.5M5441.68 1649.5 5441.68 2607.5M5957.5 1649.5 5957.5 2607.5" stroke="#D9D9D9" stroke-width="3.4375" stroke-linejoin="round" stroke-miterlimit="10" fill="none"/></g><g><path d="M0 0 0.000360892 958" stroke="#BFBFBF" stroke-width="3.4375" stroke-linejoin="round" stroke-miterlimit="10" fill="none" fill-rule="evenodd" transform="matrix(1 0 0 -1 4411.5 2607.5)"/></g><g><path d="M4411.5 2128.5 5957.5 2128.5" stroke="#BFBFBF" stroke-width="3.4375" stroke-linejoin="round" stroke-miterlimit="10" fill="none" fill-rule="evenodd"/></g><g clip-path="url(#clip6)"><path d="M4411.5 2118.77C4418.44 2118.44 4425.38 2118.14 4432.32 2117.8 4439.26 2117.45 4446.2 2117.1 4453.14 2116.73 4460.08 2116.35 4467.02 2115.97 4473.95 2115.56 4480.89 2115.15 4487.83 2114.72 4494.77 2114.27 4501.71 2113.82 4508.65 2113.35 4515.59 2112.86 4522.53 2112.37 4529.47 2111.85 4536.41 2111.31 4543.35 2110.77 4550.29 2110.21 4557.23 2109.61 4564.17 2109.02 4571.11 2108.4 4578.05 2107.75 4584.98 2107.1 4591.92 2106.42 4598.86 2105.71 4605.8 2105 4612.74 2104.25 4619.68 2103.47 4626.62 2102.69 4633.56 2101.87 4640.5 2101.02 4647.44 2100.16 4654.38 2099.27 4661.32 2098.33 4668.26 2097.39 4675.2 2096.41 4682.14 2095.38 4689.08 2094.35 4696.02 2093.27 4702.95 2092.15 4709.89 2091.02 4716.83 2089.84 4723.77 2088.61 4730.71 2087.37 4737.65 2086.09 4744.59 2084.74 4751.53 2083.38 4758.47 2081.98 4765.41 2080.5 4772.35 2079.02 4779.29 2077.48 4786.23 2075.87 4793.17 2074.25 4800.11 2072.57 4807.05 2070.81 4813.98 2069.04 4820.92 2067.21 4827.86 2065.28 4834.8 2063.36 4841.74 2061.36 4848.68 2059.26 4855.62 2057.17 4862.56 2054.99 4869.5 2052.7 4876.44 2050.42 4883.38 2048.05 4890.32 2045.58 4897.26 2043.1 4904.2 2040.53 4911.14 2037.84 4918.08 2035.16 4925.02 2032.37 4931.95 2029.47 4938.89 2026.57 4945.83 2023.55 4952.77 2020.43 4959.71 2017.3 4966.65 2014.06 4973.59 2010.7 4980.53 2007.34 4987.47 2003.86 4994.41 2000.26 5001.35 1996.67 5008.29 1992.96 5015.23 1989.13 5022.17 1985.31 5029.11 1981.36 5036.05 1977.31 5042.98 1973.27 5049.92 1969.1 5056.86 1964.85 5063.8 1960.59 5070.74 1956.23 5077.68 1951.8 5084.62 1947.36 5091.56 1942.83 5098.5 1938.25 5105.44 1933.68 5112.38 1929.02 5119.32 1924.35 5126.26 1919.68 5133.2 1914.95 5140.14 1910.25 5147.08 1905.55 5154.02 1900.81 5160.95 1896.16 5167.89 1891.5 5174.83 1886.85 5181.77 1882.33 5188.71 1877.81 5195.65 1873.33 5202.59 1869.06 5209.53 1864.78 5216.47 1860.59 5223.41 1856.67 5230.35 1852.75 5237.29 1848.97 5244.23 1845.54 5251.17 1842.1 5258.11 1838.87 5265.05 1836.05 5271.98 1833.24 5278.92 1830.7 5285.86 1828.65 5292.8 1826.59 5299.74 1824.89 5306.68 1823.75 5313.62 1822.61 5320.56 1821.9 5327.5 1821.83 5334.44 1821.76 5341.38 1822.19 5348.32 1823.36 5355.26 1824.52 5362.2 1826.26 5369.14 1828.81 5376.08 1831.37 5383.02 1834.58 5389.95 1838.68 5396.89 1842.79 5403.83 1847.64 5410.77 1853.46 5417.71 1859.27 5424.65 1865.91 5431.59 1873.56 5438.53 1881.21 5445.47 1889.78 5452.41 1899.35 5459.35 1908.92 5466.29 1919.48 5473.23 1930.98 5480.17 1942.48 5487.11 1955.02 5494.05 1968.33 5500.98 1981.64 5507.92 1995.99 5514.86 2010.83 5521.8 2025.67 5528.74 2041.46 5535.68 2057.37 5542.62 2073.29 5549.56 2089.95 5556.5 2106.32 5563.44 2122.69 5570.38 2139.49 5577.32 2155.6 5584.26 2171.72 5591.2 2187.86 5598.14 2203.02 5605.08 2218.17 5612.02 2232.95 5618.95 2246.53 5625.89 2260.1 5632.83 2272.95 5639.77 2284.49 5646.71 2296.02 5653.65 2306.56 5660.59 2315.75 5667.53 2324.92 5674.47 2332.94 5681.41 2339.57 5688.35 2346.2 5695.29 2351.56 5702.23 2355.52 5709.17 2359.47 5716.11 2362.11 5723.05 2363.31 5729.98 2364.5 5736.92 2364.34 5743.86 2362.68 5750.8 2361.02 5757.74 2357.96 5764.68 2353.34 5771.62 2348.72 5778.56 2342.65 5785.5 2334.95 5792.44 2327.26 5799.38 2318.03 5806.32 2307.18 5813.26 2296.33 5820.2 2283.85 5827.14 2269.85 5834.08 2255.85 5841.02 2240.15 5847.95 2223.18 5854.89 2206.22 5861.83 2187.55 5868.77 2168.07 5875.71 2148.59 5882.65 2127.56 5889.59 2106.31 5896.53 2085.05 5903.47 2062.62 5910.41 2040.55 5917.35 2018.48 5924.29 1995.78 5931.23 1973.9 5938.17 1952.03 5945.11 1930.13 5952.05 1909.31 5958.98 1888.48 5965.92 1868.16 5972.86 1848.96 5979.8 1829.75 5986.74 1811.4 5993.68 1794.07 6000.62 1776.75 6007.56 1760.44 6014.5 1745.01 6021.44 1729.59 6028.38 1715.19 6035.32 1701.54 6042.26 1687.89 6049.2 1675.18 6056.14 1663.09 6063.08 1651.01 6070.02 1639.76 6076.95 1629.01 6083.89 1618.27 6090.83 1608.24 6097.77 1598.64 6104.71 1589.03 6111.65 1580.03 6118.59 1571.39 6125.53 1562.74 6132.47 1554.6 6139.41 1546.76 6146.35 1538.93 6153.29 1531.52 6160.23 1524.37 6167.17 1517.22 6174.11 1510.43 6181.05 1503.88 6187.98 1497.33 6194.92 1491.08 6201.86 1485.05 6208.8 1479.02 6215.74 1473.25 6222.68 1467.68 6229.62 1462.11 6236.56 1456.77 6243.5 1451.61 6250.44 1446.46 6257.38 1441.51 6264.32 1436.74 6271.26 1431.96 6278.2 1427.38 6285.14 1422.95 6292.08 1418.52 6299.02 1414.28 6305.96 1410.18 6312.89 1406.08 6319.83 1402.14 6326.77 1398.35 6333.71 1394.55 6340.65 1390.91 6347.59 1387.4 6354.53 1383.89 6361.47 1380.53 6368.41 1377.29 6375.35 1374.05 6382.29 1370.95 6389.23 1367.96 6396.17 1364.97 6403.11 1362.11 6410.05 1359.36 6416.98 1356.61 6423.92 1353.98 6430.86 1351.45 6437.8 1348.92 6444.74 1346.5 6451.68 1344.18 6458.62 1341.85 6465.56 1339.73 6472.5 1337.5" stroke="#4472C4" stroke-width="9.16667" stroke-linecap="round" stroke-linejoin="round" stroke-miterlimit="10" fill="none"/></g><g clip-path="url(#clip7)"><path d="M4411.5 2117.78C4418.44 2117.43 4425.38 2117.1 4432.32 2116.73 4439.26 2116.37 4446.2 2115.98 4453.14 2115.58 4460.08 2115.18 4467.02 2114.76 4473.95 2114.32 4480.89 2113.88 4487.83 2113.42 4494.77 2112.94 4501.71 2112.46 4508.65 2111.96 4515.59 2111.43 4522.53 2110.9 4529.47 2110.34 4536.41 2109.76 4543.35 2109.18 4550.29 2108.57 4557.23 2107.94 4564.17 2107.3 4571.11 2106.63 4578.05 2105.93 4584.98 2105.23 4591.92 2104.51 4598.86 2103.74 4605.8 2102.97 4612.74 2102.17 4619.68 2101.33 4626.62 2100.49 4633.56 2099.61 4640.5 2098.69 4647.44 2097.77 4654.38 2096.81 4661.32 2095.8 4668.26 2094.79 4675.2 2093.73 4682.14 2092.63 4689.08 2091.52 4696.02 2090.36 4702.95 2089.15 4709.89 2087.94 4716.83 2086.67 4723.77 2085.34 4730.71 2084.02 4737.65 2082.63 4744.59 2081.18 4751.53 2079.72 4758.47 2078.21 4765.41 2076.62 4772.35 2075.02 4779.29 2073.37 4786.23 2071.63 4793.17 2069.89 4800.11 2068.08 4807.05 2066.18 4813.98 2064.28 4820.92 2062.3 4827.86 2060.23 4834.8 2058.15 4841.74 2055.99 4848.68 2053.73 4855.62 2051.47 4862.56 2049.12 4869.5 2046.66 4876.44 2044.2 4883.38 2041.64 4890.32 2038.96 4897.26 2036.29 4904.2 2033.51 4911.14 2030.6 4918.08 2027.7 4925.02 2024.69 4931.95 2021.55 4938.89 2018.4 4945.83 2015.14 4952.77 2011.75 4959.71 2008.36 4966.65 2004.84 4973.59 2001.19 4980.53 1997.54 4987.47 1993.77 4994.41 1989.85 5001.35 1985.94 5008.29 1981.9 5015.23 1977.72 5022.17 1973.55 5029.11 1969.24 5036.05 1964.81 5042.98 1960.38 5049.92 1955.81 5056.86 1951.14 5063.8 1946.46 5070.74 1941.66 5077.68 1936.77 5084.62 1931.87 5091.56 1926.85 5098.5 1921.77 5105.44 1916.69 5112.38 1911.5 5119.32 1906.28 5126.26 1901.06 5133.2 1895.75 5140.14 1890.45 5147.08 1885.14 5154.02 1879.78 5160.95 1874.46 5167.89 1869.15 5174.83 1863.81 5181.77 1858.58 5188.71 1853.35 5195.65 1848.13 5202.59 1843.09 5209.53 1838.04 5216.47 1833.05 5223.41 1828.31 5230.35 1823.57 5237.29 1818.94 5244.23 1814.63 5251.17 1810.33 5258.11 1806.19 5265.05 1802.47 5271.98 1798.74 5278.92 1795.26 5285.86 1792.27 5292.8 1789.28 5299.74 1786.61 5306.68 1784.54 5313.62 1782.46 5320.56 1780.79 5327.5 1779.82 5334.44 1778.85 5341.38 1778.37 5348.32 1778.73 5355.26 1779.08 5362.2 1780.02 5369.14 1781.94 5376.08 1783.86 5383.02 1786.47 5389.95 1790.23 5396.89 1793.99 5403.83 1798.58 5410.77 1804.49 5417.71 1810.4 5424.65 1817.29 5431.59 1825.68 5438.53 1834.07 5445.47 1843.63 5452.41 1854.82 5459.35 1866 5466.29 1878.58 5473.23 1892.8 5480.17 1907.01 5487.11 1922.85 5494.05 1940.11 5500.98 1957.37 5507.92 1976.41 5514.86 1996.37 5521.8 2016.32 5528.74 2038.03 5535.68 2059.84 5542.62 2081.65 5549.56 2104.85 5556.5 2127.24 5563.44 2149.63 5570.38 2172.68 5577.32 2194.19 5584.26 2215.7 5591.2 2236.96 5598.14 2256.3 5605.08 2275.64 5612.02 2293.93 5618.95 2310.23 5625.89 2326.53 5632.83 2341.26 5639.77 2354.11 5646.71 2366.96 5653.65 2378 5660.59 2387.33 5667.53 2396.66 5674.47 2404.16 5681.41 2410.07 5688.35 2415.99 5695.29 2420.16 5702.23 2422.82 5709.17 2425.48 5716.11 2426.5 5723.05 2426.04 5729.98 2425.58 5736.92 2423.57 5743.86 2420.07 5750.8 2416.57 5757.74 2411.56 5764.68 2405.02 5771.62 2398.49 5778.56 2390.45 5785.5 2380.85 5792.44 2371.24 5799.38 2360.1 5806.32 2347.41 5813.26 2334.71 5820.2 2320.42 5827.14 2304.68 5834.08 2288.95 5841.02 2271.56 5847.95 2253.01 5854.89 2234.46 5861.83 2214.27 5868.77 2193.37 5875.71 2172.48 5882.65 2150.12 5889.59 2127.64 5896.53 2105.16 5903.47 2081.59 5910.41 2058.5 5917.35 2035.4 5924.29 2011.77 5931.23 1989.05 5938.17 1966.33 5945.11 1943.69 5952.05 1922.2 5958.98 1900.7 5965.92 1879.8 5972.86 1860.08 5979.8 1840.35 5986.74 1821.56 5993.68 1803.85 6000.62 1786.14 6007.56 1769.52 6014.5 1753.82 6021.44 1738.13 6028.38 1723.52 6035.32 1709.69 6042.26 1695.86 6049.2 1683.03 6056.14 1670.84 6063.08 1658.65 6070.02 1647.34 6076.95 1636.54 6083.89 1625.75 6090.83 1615.7 6097.77 1606.08 6104.71 1596.46 6111.65 1587.46 6118.59 1578.81 6125.53 1570.16 6132.47 1562.02 6139.41 1554.18 6146.35 1546.34 6153.29 1538.93 6160.23 1531.77 6167.17 1524.61 6174.11 1517.8 6181.05 1511.22 6187.98 1504.63 6194.92 1498.35 6201.86 1492.26 6208.8 1486.18 6215.74 1480.35 6222.68 1474.71 6229.62 1469.06 6236.56 1463.65 6243.5 1458.4 6250.44 1453.16 6257.38 1448.11 6264.32 1443.23 6271.26 1438.35 6278.2 1433.66 6285.14 1429.12 6292.08 1424.58 6299.02 1420.21 6305.96 1415.99 6312.89 1411.77 6319.83 1407.71 6326.77 1403.79 6333.71 1399.87 6340.65 1396.1 6347.59 1392.47 6354.53 1388.83 6361.47 1385.34 6368.41 1381.98 6375.35 1378.61 6382.29 1375.39 6389.23 1372.28 6396.17 1369.17 6403.11 1366.19 6410.05 1363.33 6416.98 1360.46 6423.92 1357.71 6430.86 1355.07 6437.8 1352.43 6444.74 1349.91 6451.68 1347.48 6458.62 1345.05 6465.56 1342.83 6472.5 1340.5" stroke="#ED7D31" stroke-width="9.16667" stroke-linecap="round" stroke-linejoin="round" stroke-miterlimit="10" fill="none"/></g><g clip-path="url(#clip8)"><path d="M4411.5 2117.51C4418.44 2117.15 4425.38 2116.81 4432.32 2116.43 4439.26 2116.05 4446.2 2115.65 4453.14 2115.24 4460.08 2114.82 4467.02 2114.39 4473.95 2113.93 4480.89 2113.47 4487.83 2113 4494.77 2112.5 4501.71 2112 4508.65 2111.47 4515.59 2110.92 4522.53 2110.37 4529.47 2109.8 4536.41 2109.2 4543.35 2108.6 4550.29 2107.97 4557.23 2107.31 4564.17 2106.64 4571.11 2105.95 4578.05 2105.23 4584.98 2104.5 4591.92 2103.75 4598.86 2102.95 4605.8 2102.15 4612.74 2101.32 4619.68 2100.45 4626.62 2099.58 4633.56 2098.67 4640.5 2097.71 4647.44 2096.76 4654.38 2095.76 4661.32 2094.71 4668.26 2093.66 4675.2 2092.57 4682.14 2091.42 4689.08 2090.27 4696.02 2089.07 4702.95 2087.81 4709.89 2086.55 4716.83 2085.24 4723.77 2083.86 4730.71 2082.48 4737.65 2081.04 4744.59 2079.54 4751.53 2078.02 4758.47 2076.45 4765.41 2074.8 4772.35 2073.15 4779.29 2071.43 4786.23 2069.62 4793.17 2067.82 4800.11 2065.94 4807.05 2063.96 4813.98 2061.99 4820.92 2059.93 4827.86 2057.78 4834.8 2055.62 4841.74 2053.38 4848.68 2051.03 4855.62 2048.68 4862.56 2046.24 4869.5 2043.68 4876.44 2041.12 4883.38 2038.46 4890.32 2035.68 4897.26 2032.9 4904.2 2030 4911.14 2026.98 4918.08 2023.96 4925.02 2020.83 4931.95 2017.56 4938.89 2014.28 4945.83 2010.89 4952.77 2007.36 4959.71 2003.82 4966.65 2000.16 4973.59 1996.35 4980.53 1992.55 4987.47 1988.6 4994.41 1984.52 5001.35 1980.44 5008.29 1976.21 5015.23 1971.85 5022.17 1967.48 5029.11 1962.98 5036.05 1958.34 5042.98 1953.7 5049.92 1948.91 5056.86 1944.01 5063.8 1939.11 5070.74 1934.06 5077.68 1928.92 5084.62 1923.77 5091.56 1918.49 5098.5 1913.13 5105.44 1907.77 5112.38 1902.29 5119.32 1896.76 5126.26 1891.24 5133.2 1885.6 5140.14 1879.97 5147.08 1874.33 5154.02 1868.61 5160.95 1862.93 5167.89 1857.25 5174.83 1851.52 5181.77 1845.89 5188.71 1840.25 5195.65 1834.61 5202.59 1829.12 5209.53 1823.64 5216.47 1818.19 5223.41 1812.97 5230.35 1807.74 5237.29 1802.61 5244.23 1797.78 5251.17 1792.96 5258.11 1788.28 5265.05 1784 5271.98 1779.71 5278.92 1775.64 5285.86 1772.06 5292.8 1768.47 5299.74 1765.19 5306.68 1762.49 5313.62 1759.79 5320.56 1757.47 5327.5 1755.86 5334.44 1754.25 5341.38 1753.11 5348.32 1752.83 5355.26 1752.54 5362.2 1752.84 5369.14 1754.17 5376.08 1755.49 5383.02 1757.52 5389.95 1760.79 5396.89 1764.06 5403.83 1768.18 5410.77 1773.81 5417.71 1779.44 5424.65 1786.1 5431.59 1794.56 5438.53 1803.02 5445.47 1812.75 5452.41 1824.56 5459.35 1836.37 5466.29 1849.78 5473.23 1865.41 5480.17 1881.05 5487.11 1898.67 5494.05 1918.35 5500.98 1938.03 5507.92 1960.09 5514.86 1983.49 5521.8 2006.9 5528.74 2032.79 5535.68 2058.78 5542.62 2084.76 5549.56 2112.76 5556.5 2139.4 5563.44 2166.05 5570.38 2193.53 5577.32 2218.65 5584.26 2243.78 5591.2 2268.29 5598.14 2290.14 5605.08 2311.98 5612.02 2332.09 5618.95 2349.71 5625.89 2367.33 5632.83 2382.66 5639.77 2395.85 5646.71 2409.04 5653.65 2419.87 5660.59 2428.86 5667.53 2437.85 5674.47 2444.63 5681.41 2449.79 5688.35 2454.95 5695.29 2458.13 5702.23 2459.82 5709.17 2461.5 5716.11 2461.42 5723.05 2459.89 5729.98 2458.35 5736.92 2455.21 5743.86 2450.6 5750.8 2445.99 5757.74 2439.87 5764.68 2432.25 5771.62 2424.63 5778.56 2415.52 5785.5 2404.88 5792.44 2394.23 5799.38 2382.08 5806.32 2368.4 5813.26 2354.73 5820.2 2339.48 5827.14 2322.84 5834.08 2306.19 5841.02 2287.93 5847.95 2268.54 5854.89 2249.15 5861.83 2228.17 5868.77 2206.52 5875.71 2184.88 5882.65 2161.81 5889.59 2138.67 5896.53 2115.53 5903.47 2091.35 5910.41 2067.68 5917.35 2044.02 5924.29 2019.86 5931.23 1996.66 5938.17 1973.47 5945.11 1950.39 5952.05 1928.49 5958.98 1906.6 5965.92 1885.34 5972.86 1865.29 5979.8 1845.25 5986.74 1826.17 5993.68 1808.21 6000.62 1790.25 6007.56 1773.4 6014.5 1757.52 6021.44 1741.64 6028.38 1726.87 6035.32 1712.91 6042.26 1698.95 6049.2 1686.03 6056.14 1673.76 6063.08 1661.49 6070.02 1650.13 6076.95 1639.3 6083.89 1628.48 6090.83 1618.42 6097.77 1608.8 6104.71 1599.18 6111.65 1590.2 6118.59 1581.58 6125.53 1572.95 6132.47 1564.86 6139.41 1557.06 6146.35 1549.26 6153.29 1541.89 6160.23 1534.78 6167.17 1527.66 6174.11 1520.9 6181.05 1514.36 6187.98 1507.82 6194.92 1501.58 6201.86 1495.52 6208.8 1489.47 6215.74 1483.67 6222.68 1478.05 6229.62 1472.43 6236.56 1467.02 6243.5 1461.78 6250.44 1456.54 6257.38 1451.5 6264.32 1446.61 6271.26 1441.72 6278.2 1437.01 6285.14 1432.45 6292.08 1427.89 6299.02 1423.49 6305.96 1419.24 6312.89 1414.98 6319.83 1410.88 6326.77 1406.92 6333.71 1402.96 6340.65 1399.15 6347.59 1395.46 6354.53 1391.78 6361.47 1388.24 6368.41 1384.82 6375.35 1381.4 6382.29 1378.12 6389.23 1374.96 6396.17 1371.79 6403.11 1368.76 6410.05 1365.83 6416.98 1362.91 6423.92 1360.11 6430.86 1357.41 6437.8 1354.71 6444.74 1352.13 6451.68 1349.64 6458.62 1347.16 6465.56 1344.88 6472.5 1342.5" stroke="#A5A5A5" stroke-width="9.16667" stroke-linecap="round" stroke-linejoin="round" stroke-miterlimit="10" fill="none"/></g><g clip-path="url(#clip9)"><path d="M4411.5 2117.22C4418.44 2116.85 4425.38 2116.5 4432.32 2116.11 4439.26 2115.72 4446.2 2115.32 4453.14 2114.89 4460.08 2114.47 4467.02 2114.03 4473.95 2113.56 4480.89 2113.09 4487.83 2112.61 4494.77 2112.09 4501.71 2111.58 4508.65 2111.05 4515.59 2110.49 4522.53 2109.93 4529.47 2109.34 4536.41 2108.73 4543.35 2108.11 4550.29 2107.47 4557.23 2106.79 4564.17 2106.12 4571.11 2105.41 4578.05 2104.67 4584.98 2103.93 4591.92 2103.16 4598.86 2102.34 4605.8 2101.53 4612.74 2100.68 4619.68 2099.79 4626.62 2098.9 4633.56 2097.97 4640.5 2096.99 4647.44 2096.02 4654.38 2095 4661.32 2093.93 4668.26 2092.86 4675.2 2091.74 4682.14 2090.57 4689.08 2089.39 4696.02 2088.17 4702.95 2086.88 4709.89 2085.59 4716.83 2084.25 4723.77 2082.85 4730.71 2081.44 4737.65 2079.97 4744.59 2078.43 4751.53 2076.88 4758.47 2075.28 4765.41 2073.59 4772.35 2071.9 4779.29 2070.14 4786.23 2068.3 4793.17 2066.45 4800.11 2064.53 4807.05 2062.51 4813.98 2060.5 4820.92 2058.4 4827.86 2056.2 4834.8 2053.99 4841.74 2051.7 4848.68 2049.3 4855.62 2046.9 4862.56 2044.4 4869.5 2041.78 4876.44 2039.17 4883.38 2036.45 4890.32 2033.6 4897.26 2030.75 4904.2 2027.8 4911.14 2024.71 4918.08 2021.62 4925.02 2018.41 4931.95 2015.06 4938.89 2011.71 4945.83 2008.24 4952.77 2004.62 4959.71 2001 4966.65 1997.25 4973.59 1993.35 4980.53 1989.45 4987.47 1985.41 4994.41 1981.23 5001.35 1977.04 5008.29 1972.71 5015.23 1968.23 5022.17 1963.75 5029.11 1959.13 5036.05 1954.36 5042.98 1949.6 5049.92 1944.69 5056.86 1939.64 5063.8 1934.6 5070.74 1929.41 5077.68 1924.11 5084.62 1918.82 5091.56 1913.38 5098.5 1907.85 5105.44 1902.32 5112.38 1896.66 5119.32 1890.95 5126.26 1885.24 5133.2 1879.41 5140.14 1873.56 5147.08 1867.72 5154.02 1861.78 5160.95 1855.88 5167.89 1849.97 5174.83 1844 5181.77 1838.12 5188.71 1832.23 5195.65 1826.33 5202.59 1820.56 5209.53 1814.8 5216.47 1809.06 5223.41 1803.53 5230.35 1798.01 5237.29 1792.56 5244.23 1787.39 5251.17 1782.23 5258.11 1777.21 5265.05 1772.55 5271.98 1767.9 5278.92 1763.45 5285.86 1759.47 5292.8 1755.49 5299.74 1751.79 5306.68 1748.66 5313.62 1745.53 5320.56 1742.77 5327.5 1740.7 5334.44 1738.64 5341.38 1737.03 5348.32 1736.28 5355.26 1735.53 5362.2 1735.33 5369.14 1736.19 5376.08 1737.05 5383.02 1738.59 5389.95 1741.44 5396.89 1744.28 5403.83 1747.96 5410.77 1753.26 5417.71 1758.55 5424.65 1764.89 5431.59 1773.21 5438.53 1781.54 5445.47 1791.17 5452.41 1803.2 5459.35 1815.23 5466.29 1828.96 5473.23 1845.38 5480.17 1861.79 5487.11 1880.45 5494.05 1901.7 5500.98 1922.94 5507.92 1947.02 5514.86 1972.87 5521.8 1998.71 5528.74 2027.7 5535.68 2056.77 5542.62 2085.84 5549.56 2117.49 5556.5 2147.27 5563.44 2177.06 5570.38 2207.83 5577.32 2235.5 5584.26 2263.17 5591.2 2289.87 5598.14 2313.32 5605.08 2336.76 5612.02 2357.86 5618.95 2376.17 5625.89 2394.47 5632.83 2409.93 5639.77 2423.12 5646.71 2436.32 5653.65 2446.76 5660.59 2455.34 5667.53 2463.92 5674.47 2470.06 5681.41 2474.59 5688.35 2479.13 5695.29 2481.57 5702.23 2482.54 5709.17 2483.5 5716.11 2482.65 5723.05 2480.38 5729.98 2478.1 5736.92 2474.21 5743.86 2468.89 5750.8 2463.56 5757.74 2456.72 5764.68 2448.42 5771.62 2440.11 5778.56 2430.33 5785.5 2419.05 5792.44 2407.77 5799.38 2394.99 5806.32 2380.72 5813.26 2366.45 5820.2 2350.64 5827.14 2333.45 5834.08 2316.26 5841.02 2297.47 5847.95 2277.59 5854.89 2257.72 5861.83 2236.26 5868.77 2214.18 5875.71 2192.09 5882.65 2168.61 5889.59 2145.08 5896.53 2121.56 5903.47 2097.01 5910.41 2073.01 5917.35 2049.01 5924.29 2024.54 5931.23 2001.06 5938.17 1977.58 5945.11 1954.24 5952.05 1932.1 5958.98 1909.97 5965.92 1888.49 5972.86 1868.24 5979.8 1847.99 5986.74 1828.74 5993.68 1810.62 6000.62 1792.49 6007.56 1775.5 6014.5 1759.5 6021.44 1743.49 6028.38 1728.62 6035.32 1714.57 6042.26 1700.51 6049.2 1687.51 6056.14 1675.19 6063.08 1662.86 6070.02 1651.46 6076.95 1640.61 6083.89 1629.75 6090.83 1619.69 6097.77 1610.06 6104.71 1600.44 6111.65 1591.48 6118.59 1582.88 6125.53 1574.28 6132.47 1566.22 6139.41 1558.45 6146.35 1550.69 6153.29 1543.37 6160.23 1536.31 6167.17 1529.24 6174.11 1522.54 6181.05 1516.05 6187.98 1509.56 6194.92 1503.37 6201.86 1497.37 6208.8 1491.37 6215.74 1485.62 6222.68 1480.05 6229.62 1474.47 6236.56 1469.11 6243.5 1463.91 6250.44 1458.71 6257.38 1453.7 6264.32 1448.85 6271.26 1443.99 6278.2 1439.3 6285.14 1434.76 6292.08 1430.22 6299.02 1425.84 6305.96 1421.59 6312.89 1417.35 6319.83 1413.25 6326.77 1409.29 6333.71 1405.33 6340.65 1401.51 6347.59 1397.82 6354.53 1394.13 6361.47 1390.58 6368.41 1387.15 6375.35 1383.72 6382.29 1380.42 6389.23 1377.24 6396.17 1374.06 6403.11 1371 6410.05 1368.05 6416.98 1365.11 6423.92 1362.28 6430.86 1359.56 6437.8 1356.84 6444.74 1354.23 6451.68 1351.72 6458.62 1349.21 6465.56 1346.91 6472.5 1344.5" stroke="#FFC000" stroke-width="9.16667" stroke-linecap="round" stroke-linejoin="round" stroke-miterlimit="10" fill="none"/></g><g clip-path="url(#clip10)"><path d="M4411.5 2117.24C4418.44 2116.86 4425.38 2116.51 4432.32 2116.11 4439.26 2115.72 4446.2 2115.31 4453.14 2114.88 4460.08 2114.45 4467.02 2114 4473.95 2113.52 4480.89 2113.05 4487.83 2112.55 4494.77 2112.03 4501.71 2111.51 4508.65 2110.97 4515.59 2110.4 4522.53 2109.83 4529.47 2109.24 4536.41 2108.61 4543.35 2107.98 4550.29 2107.33 4557.23 2106.65 4564.17 2105.96 4571.11 2105.24 4578.05 2104.49 4584.98 2103.74 4591.92 2102.95 4598.86 2102.13 4605.8 2101.3 4612.74 2100.44 4619.68 2099.53 4626.62 2098.63 4633.56 2097.68 4640.5 2096.69 4647.44 2095.7 4654.38 2094.66 4661.32 2093.57 4668.26 2092.48 4675.2 2091.35 4682.14 2090.16 4689.08 2088.96 4696.02 2087.72 4702.95 2086.41 4709.89 2085.11 4716.83 2083.74 4723.77 2082.31 4730.71 2080.88 4737.65 2079.39 4744.59 2077.82 4751.53 2076.25 4758.47 2074.62 4765.41 2072.9 4772.35 2071.19 4779.29 2069.4 4786.23 2067.53 4793.17 2065.65 4800.11 2063.7 4807.05 2061.65 4813.98 2059.6 4820.92 2057.46 4827.86 2055.22 4834.8 2052.98 4841.74 2050.65 4848.68 2048.21 4855.62 2045.77 4862.56 2043.23 4869.5 2040.57 4876.44 2037.91 4883.38 2035.14 4890.32 2032.25 4897.26 2029.35 4904.2 2026.34 4911.14 2023.2 4918.08 2020.06 4925.02 2016.79 4931.95 2013.39 4938.89 2009.98 4945.83 2006.44 4952.77 2002.76 4959.71 1999.08 4966.65 1995.26 4973.59 1991.29 4980.53 1987.32 4987.47 1983.2 4994.41 1978.94 5001.35 1974.68 5008.29 1970.26 5015.23 1965.7 5022.17 1961.14 5029.11 1956.42 5036.05 1951.56 5042.98 1946.7 5049.92 1941.69 5056.86 1936.54 5063.8 1931.4 5070.74 1926.1 5077.68 1920.69 5084.62 1915.27 5091.56 1909.71 5098.5 1904.06 5105.44 1898.41 5112.38 1892.62 5119.32 1886.77 5126.26 1880.91 5133.2 1874.94 5140.14 1868.94 5147.08 1862.94 5154.02 1856.85 5160.95 1850.77 5167.89 1844.7 5174.83 1838.55 5181.77 1832.48 5188.71 1826.41 5195.65 1820.31 5202.59 1814.35 5209.53 1808.38 5216.47 1802.43 5223.41 1796.67 5230.35 1790.92 5237.29 1785.24 5244.23 1779.83 5251.17 1774.42 5258.11 1769.14 5265.05 1764.22 5271.98 1759.3 5278.92 1754.57 5285.86 1750.3 5292.8 1746.02 5299.74 1742.02 5306.68 1738.57 5313.62 1735.13 5320.56 1732.04 5327.5 1729.64 5334.44 1727.23 5341.38 1725.27 5348.32 1724.17 5355.26 1723.06 5362.2 1722.49 5369.14 1722.99 5376.08 1723.49 5383.02 1724.66 5389.95 1727.16 5396.89 1729.65 5403.83 1732.97 5410.77 1737.98 5417.71 1742.98 5424.65 1749.01 5431.59 1757.17 5438.53 1765.32 5445.47 1774.81 5452.41 1786.91 5459.35 1799.02 5466.29 1812.89 5473.23 1829.81 5480.17 1846.72 5487.11 1866.04 5494.05 1888.43 5500.98 1910.81 5507.92 1936.39 5514.86 1964.11 5521.8 1991.84 5528.74 2023.27 5535.68 2054.79 5542.62 2086.31 5549.56 2120.93 5556.5 2153.22 5563.44 2185.51 5570.38 2218.88 5577.32 2248.52 5584.26 2278.16 5591.2 2306.47 5598.14 2331.07 5605.08 2355.67 5612.02 2377.4 5618.95 2396.12 5625.89 2414.85 5632.83 2430.29 5639.77 2443.4 5646.71 2456.52 5653.65 2466.6 5660.59 2474.82 5667.53 2483.04 5674.47 2488.68 5681.41 2492.72 5688.35 2496.76 5695.29 2498.65 5702.23 2499.07 5709.17 2499.5 5716.11 2498.09 5723.05 2495.28 5729.98 2492.47 5736.92 2488.03 5743.86 2482.19 5750.8 2476.34 5757.74 2468.99 5764.68 2460.19 5771.62 2451.39 5778.56 2441.14 5785.5 2429.39 5792.44 2417.64 5799.38 2404.42 5806.32 2389.72 5813.26 2375.02 5820.2 2358.78 5827.14 2341.19 5834.08 2323.6 5841.02 2304.42 5847.95 2284.17 5854.89 2263.91 5861.83 2242.1 5868.77 2219.67 5875.71 2197.24 5882.65 2173.43 5889.59 2149.59 5896.53 2125.75 5903.47 2100.91 5910.41 2076.63 5917.35 2052.34 5924.29 2027.62 5931.23 2003.89 5938.17 1980.16 5945.11 1956.59 5952.05 1934.23 5958.98 1911.88 5965.92 1890.2 5972.86 1869.77 5979.8 1849.33 5986.74 1829.9 5993.68 1811.62 6000.62 1793.34 6007.56 1776.2 6014.5 1760.06 6021.44 1743.92 6028.38 1728.93 6035.32 1714.78 6042.26 1700.62 6049.2 1687.53 6056.14 1675.12 6063.08 1662.72 6070.02 1651.25 6076.95 1640.34 6083.89 1629.43 6090.83 1619.32 6097.77 1609.67 6104.71 1600.01 6111.65 1591.03 6118.59 1582.41 6125.53 1573.8 6132.47 1565.74 6139.41 1557.98 6146.35 1550.23 6153.29 1542.92 6160.23 1535.87 6167.17 1528.82 6174.11 1522.14 6181.05 1515.68 6187.98 1509.22 6194.92 1503.06 6201.86 1497.09 6208.8 1491.12 6215.74 1485.41 6222.68 1479.87 6229.62 1474.33 6236.56 1469 6243.5 1463.83 6250.44 1458.66 6257.38 1453.68 6264.32 1448.85 6271.26 1444.02 6278.2 1439.36 6285.14 1434.84 6292.08 1430.31 6299.02 1425.95 6305.96 1421.72 6312.89 1417.49 6319.83 1413.41 6326.77 1409.45 6333.71 1405.5 6340.65 1401.69 6347.59 1398 6354.53 1394.31 6361.47 1390.76 6368.41 1387.33 6375.35 1383.89 6382.29 1380.59 6389.23 1377.4 6396.17 1374.21 6403.11 1371.14 6410.05 1368.18 6416.98 1365.23 6423.92 1362.39 6430.86 1359.65 6437.8 1356.92 6444.74 1354.3 6451.68 1351.77 6458.62 1349.24 6465.56 1346.92 6472.5 1344.5" stroke="#5B9BD5" stroke-width="9.16667" stroke-linecap="round" stroke-linejoin="round" stroke-miterlimit="10" fill="none"/></g><g><text font-family="Calibri,Calibri_MSFontService,sans-serif" font-weight="400" font-size="64" transform="matrix(1 0 0 1 4267.05 2626)">-50</text></g><g><text font-family="Calibri,Calibri_MSFontService,sans-serif" font-weight="400" font-size="64" transform="matrix(1 0 0 1 4267.05 2530)">-40</text></g><g><text font-family="Calibri,Calibri_MSFontService,sans-serif" font-weight="400" font-size="64" transform="matrix(1 0 0 1 4267.05 2434)">-30</text></g><g><text font-family="Calibri,Calibri_MSFontService,sans-serif" font-weight="400" font-size="64" transform="matrix(1 0 0 1 4267.05 2339)">-20</text></g><g><text font-family="Calibri,Calibri_MSFontService,sans-serif" font-weight="400" font-size="64" transform="matrix(1 0 0 1 4267.05 2243)">-10</text></g><g><text font-family="Calibri,Calibri_MSFontService,sans-serif" font-weight="400" font-size="64" transform="matrix(1 0 0 1 4319.21 2147)">0</text></g><g><text font-family="Calibri,Calibri_MSFontService,sans-serif" font-weight="400" font-size="64" transform="matrix(1 0 0 1 4286.69 2051)">10</text></g><g><text font-family="Calibri,Calibri_MSFontService,sans-serif" font-weight="400" font-size="64" transform="matrix(1 0 0 1 4286.69 1956)">20</text></g><g><text font-family="Calibri,Calibri_MSFontService,sans-serif" font-weight="400" font-size="64" transform="matrix(1 0 0 1 4286.69 1860)">30</text></g><g><text font-family="Calibri,Calibri_MSFontService,sans-serif" font-weight="400" font-size="64" transform="matrix(1 0 0 1 4286.69 1764)">40</text></g><g><text font-family="Calibri,Calibri_MSFontService,sans-serif" font-weight="400" font-size="64" transform="matrix(1 0 0 1 4286.69 1668)">50</text></g><g><text font-family="Calibri,Calibri_MSFontService,sans-serif" font-weight="400" font-size="64" transform="matrix(1 0 0 1 4378.74 2709)">10</text></g><g><text font-family="Calibri,Calibri_MSFontService,sans-serif" font-weight="400" font-size="64" transform="matrix(1 0 0 1 4877.79 2709)">100</text></g><g><text font-family="Calibri,Calibri_MSFontService,sans-serif" font-weight="400" font-size="64" transform="matrix(1 0 0 1 5376.85 2709)">1000</text></g><g><text font-family="Calibri,Calibri_MSFontService,sans-serif" font-weight="400" font-size="64" transform="matrix(1 0 0 1 5875.9 2709)">10000</text></g><g><text font-family="Calibri,Calibri_MSFontService,sans-serif" font-weight="700" font-size="64" transform="matrix(6.12323e-17 -1 1 6.12323e-17 4235.98 2327)">Phase (degree)</text></g><g><text font-family="Calibri,Calibri_MSFontService,sans-serif" font-weight="700" font-size="64" transform="matrix(1 0 0 1 4985.63 2801)">Frequency (Hz)</text></g><rect x="4088.5" y="1589.5" width="1983" height="1281" stroke="#D9D9D9" stroke-width="3.4375" stroke-linejoin="round" stroke-miterlimit="10" fill="none"/><g><text fill="#FF0000" font-family="Calibri,Calibri_MSFontService,sans-serif" font-weight="700" font-size="73" transform="matrix(1 0 0 1 5080.22 2032)">Increasing</text></g><g><text fill="#FF0000" font-family="Calibri,Calibri_MSFontService,sans-serif" font-weight="700" font-size="73" transform="matrix(1 0 0 1 5052.61 2121)">Load (Z</text></g><g><text fill="#FF0000" font-family="Calibri,Calibri_MSFontService,sans-serif" font-weight="700" font-size="49" transform="matrix(1 0 0 1 5273.06 2138)">Load2</text></g><g><text fill="#FF0000" font-family="Calibri,Calibri_MSFontService,sans-serif" font-weight="700" font-size="73" transform="matrix(1 0 0 1 5395.17 2121)">)</text></g><g><text fill="#FF0000" font-family="Calibri,Calibri_MSFontService,sans-serif" font-weight="700" font-size="73" transform="matrix(1 0 0 1 4918.15 2211)">Z1</text></g><g><text fill="#FF0000" font-family="Calibri,Calibri_MSFontService,sans-serif" font-weight="700" font-size="73" transform="matrix(1 0 0 1 5001.43 2211)">&lt; </text></g><g><text fill="#FF0000" font-family="Calibri,Calibri_MSFontService,sans-serif" font-weight="700" font-size="73" transform="matrix(1 0 0 1 5054.53 2211)">Z2</text></g><g><text fill="#FF0000" font-family="Calibri,Calibri_MSFontService,sans-serif" font-weight="700" font-size="73" transform="matrix(1 0 0 1 5154.38 2211)">&lt; Z3</text></g><g><text fill="#FF0000" font-family="Calibri,Calibri_MSFontService,sans-serif" font-weight="700" font-size="73" transform="matrix(1 0 0 1 5290.76 2211)">&lt; Z4</text></g><g><text fill="#FF0000" font-family="Calibri,Calibri_MSFontService,sans-serif" font-weight="700" font-size="73" transform="matrix(1 0 0 1 5427.13 2211)">&lt; Z5</text></g><g><path d="M5376.64 1976.47 5372.4 1686.46 5379.27 1686.36 5383.52 1976.37ZM5362.15 1691.2 5375.5 1663.5 5389.65 1690.8Z" fill="#7F7F7F"/></g></g></svg>