<svg width="1983" height="2819" xmlns="http://www.w3.org/2000/svg" xmlns:xlink="http://www.w3.org/1999/xlink" xml:space="preserve" overflow="hidden"><defs><clipPath id="clip0"><rect x="2089" y="47" width="1983" height="2819"/></clipPath><clipPath id="clip1"><rect x="2400" y="277" width="1568" height="1237"/></clipPath><clipPath id="clip2"><rect x="2400" y="277" width="1568" height="1237"/></clipPath><clipPath id="clip3"><rect x="2400" y="277" width="1568" height="1237"/></clipPath><clipPath id="clip4"><rect x="2400" y="277" width="1568" height="1237"/></clipPath><clipPath id="clip5"><rect x="2400" y="277" width="1568" height="1237"/></clipPath><clipPath id="clip6"><rect x="2397" y="1652" width="1566" height="937"/></clipPath><clipPath id="clip7"><rect x="2397" y="1652" width="1566" height="937"/></clipPath><clipPath id="clip8"><rect x="2397" y="1652" width="1566" height="937"/></clipPath><clipPath id="clip9"><rect x="2397" y="1652" width="1566" height="937"/></clipPath><clipPath id="clip10"><rect x="2397" y="1652" width="1566" height="937"/></clipPath></defs><g clip-path="url(#clip0)" transform="translate(-2089 -47)"><rect x="2090" y="48.0001" width="1980" height="1543" fill="#FFFFFF"/><g><path d="M2400.5 1510.5 3964.5 1510.5M2400.5 1373.55 3964.5 1373.55M2400.5 1236.54 3964.5 1236.54M2400.5 1099.54 3964.5 1099.54M2400.5 962.532 3964.5 962.532M2400.5 825.527 3964.5 825.527M2400.5 688.523 3964.5 688.523M2400.5 551.518 3964.5 551.518M2400.5 414.514 3964.5 414.514M2400.5 277.5 3964.5 277.5" stroke="#D9D9D9" stroke-width="3.4375" stroke-linejoin="round" stroke-miterlimit="10" fill="none"/></g><g><path d="M2557.58 277.5 2557.58 1510.5M2648.59 277.5 2648.59 1510.5M2714.59 277.5 2714.59 1510.5M2764.59 277.5 2764.59 1510.5M2805.59 277.5 2805.59 1510.5M2840.59 277.5 2840.59 1510.5M2871.59 277.5 2871.59 1510.5M2897.6 277.5 2897.6 1510.5M3078.6 277.5 3078.6 1510.5M3170.6 277.5 3170.6 1510.5M3235.61 277.5 3235.61 1510.5M3286.61 277.5 3286.61 1510.5M3327.61 277.5 3327.61 1510.5M3362.61 277.5 3362.61 1510.5M3392.61 277.5 3392.61 1510.5M3419.61 277.5 3419.61 1510.5M3600.62 277.5 3600.62 1510.5M3692.62 277.5 3692.62 1510.5M3757.62 277.5 3757.62 1510.5M3807.63 277.5 3807.63 1510.5M3849.63 277.5 3849.63 1510.5M3883.63 277.5 3883.63 1510.5M3914.63 277.5 3914.63 1510.5M3940.63 277.5 3940.63 1510.5" stroke="#F2F2F2" stroke-width="3.4375" stroke-linejoin="round" stroke-miterlimit="10" fill="none"/></g><g><path d="M2921.6 277.5 2921.6 1510.5M3443.61 277.5 3443.61 1510.5M3964.5 277.5 3964.5 1510.5" stroke="#D9D9D9" stroke-width="3.4375" stroke-linejoin="round" stroke-miterlimit="10" fill="none"/></g><g><path d="M0 0 0.000360892 1233" stroke="#BFBFBF" stroke-width="3.4375" stroke-linejoin="round" stroke-miterlimit="10" fill="none" fill-rule="evenodd" transform="matrix(1 0 0 -1 2400.5 1510.5)"/></g><g clip-path="url(#clip1)"><path d="M2400.5 1338.5C2407.52 1338.49 2414.55 1338.48 2421.57 1338.47 2428.59 1338.45 2435.62 1338.44 2442.64 1338.42 2449.66 1338.41 2456.69 1338.39 2463.71 1338.37 2470.74 1338.36 2477.76 1338.34 2484.78 1338.31 2491.81 1338.29 2498.83 1338.27 2505.85 1338.24 2512.88 1338.21 2519.9 1338.19 2526.92 1338.15 2533.95 1338.12 2540.97 1338.09 2548 1338.05 2555.02 1338.01 2562.04 1337.97 2569.07 1337.92 2576.09 1337.88 2583.11 1337.83 2590.14 1337.77 2597.16 1337.71 2604.18 1337.65 2611.21 1337.59 2618.23 1337.52 2625.25 1337.45 2632.28 1337.37 2639.3 1337.28 2646.32 1337.2 2653.35 1337.1 2660.37 1337 2667.4 1336.9 2674.42 1336.78 2681.44 1336.66 2688.47 1336.54 2695.49 1336.4 2702.51 1336.25 2709.54 1336.1 2716.56 1335.93 2723.58 1335.76 2730.61 1335.58 2737.63 1335.38 2744.66 1335.17 2751.68 1334.95 2758.7 1334.71 2765.73 1334.46 2772.75 1334.2 2779.77 1333.91 2786.8 1333.61 2793.82 1333.3 2800.84 1332.94 2807.87 1332.59 2814.89 1332.21 2821.91 1331.79 2828.94 1331.36 2835.96 1330.91 2842.98 1330.4 2850.01 1329.89 2857.03 1329.35 2864.06 1328.74 2871.08 1328.14 2878.1 1327.48 2885.13 1326.76 2892.15 1326.03 2899.17 1325.25 2906.2 1324.39 2913.22 1323.52 2920.24 1322.59 2927.27 1321.56 2934.29 1320.53 2941.31 1319.42 2948.34 1318.19 2955.36 1316.96 2962.39 1315.65 2969.41 1314.19 2976.43 1312.73 2983.46 1311.17 2990.48 1309.45 2997.5 1307.73 3004.53 1305.89 3011.55 1303.86 3018.57 1301.83 3025.6 1299.65 3032.62 1297.27 3039.64 1294.88 3046.67 1292.33 3053.69 1289.55 3060.72 1286.76 3067.74 1283.78 3074.76 1280.54 3081.79 1277.29 3088.81 1273.83 3095.83 1270.08 3102.86 1266.33 3109.88 1262.33 3116.9 1258.02 3123.93 1253.7 3130.95 1249.12 3137.97 1244.19 3145 1239.27 3152.02 1234.04 3159.05 1228.46 3166.07 1222.88 3173.09 1216.98 3180.12 1210.71 3187.14 1204.43 3194.16 1197.82 3201.19 1190.83 3208.21 1183.85 3215.23 1176.5 3222.26 1168.8 3229.28 1161.09 3236.3 1153.01 3243.33 1144.59 3250.35 1136.16 3257.38 1127.37 3264.4 1118.26 3271.42 1109.15 3278.45 1099.67 3285.47 1089.92 3292.49 1080.17 3299.52 1070.07 3306.54 1059.75 3313.56 1049.43 3320.59 1038.8 3327.61 1028 3334.63 1017.21 3341.66 1006.14 3348.68 994.994 3355.71 983.85 3362.73 972.479 3369.75 961.139 3376.78 949.798 3383.8 938.296 3390.82 926.949 3397.85 915.602 3404.87 904.177 3411.89 893.057 3418.92 881.937 3425.94 870.841 3432.96 860.231 3439.99 849.62 3447.01 839.161 3454.04 829.394 3461.06 819.625 3468.08 810.168 3475.11 801.624 3482.13 793.08 3489.15 785.038 3496.18 778.128 3503.2 771.219 3510.22 765.034 3517.25 760.168 3524.27 755.302 3531.29 751.397 3538.32 748.931 3545.34 746.465 3552.37 745.185 3559.39 745.371 3566.41 745.556 3573.44 747.102 3580.46 750.042 3587.48 752.982 3594.51 757.375 3601.53 763.009 3608.55 768.643 3615.58 775.723 3622.6 783.846 3629.62 791.969 3636.65 801.442 3643.67 811.749 3650.7 822.056 3657.72 833.553 3664.74 845.689 3671.77 857.825 3678.79 870.963 3685.81 884.563 3692.84 898.164 3699.86 912.577 3706.88 927.292 3713.91 942.008 3720.93 957.36 3727.95 972.859 3734.98 988.356 3742 1004.33 3749.03 1020.28 3756.05 1036.23 3763.07 1052.51 3770.1 1068.55 3777.12 1084.59 3784.14 1100.81 3791.17 1116.52 3798.19 1132.23 3805.21 1147.95 3812.24 1162.82 3819.26 1177.69 3826.28 1192.34 3833.31 1205.73 3840.33 1219.12 3847.35 1231.99 3854.38 1243.18 3861.4 1254.36 3868.43 1264.62 3875.45 1272.86 3882.47 1281.11 3889.5 1287.95 3896.52 1292.63 3903.54 1297.32 3910.57 1300.17 3917.59 1300.98 3924.61 1301.78 3931.64 1300.48 3938.66 1297.48 3945.69 1294.47 3952.71 1289.34 3959.73 1282.95 3966.76 1276.55 3973.78 1268.25 3980.8 1259.11 3987.83 1249.97 3994.85 1239.29 4001.87 1228.08 4008.9 1216.88 4015.92 1204.54 4022.94 1191.89 4029.97 1179.24 4036.99 1165.8 4044.02 1152.18 4051.04 1138.56 4058.06 1124.42 4065.09 1110.18 4072.11 1095.93 4079.13 1081.36 4086.16 1066.71 4093.18 1052.07 4100.2 1037.21 4107.23 1022.3 4114.25 1007.39 4121.27 992.343 4128.3 977.242 4135.32 962.141 4142.35 946.947 4149.37 931.697 4156.39 916.447 4163.42 901.124 4170.44 885.741 4177.46 870.359 4184.49 854.912 4191.51 839.403 4198.53 823.895 4205.56 808.324 4212.58 792.691 4219.6 777.057 4226.63 761.36 4233.65 745.602 4240.68 729.843 4247.7 714.021 4254.72 698.139 4261.75 682.257 4268.77 666.311 4275.79 650.309 4282.82 634.307 4289.84 618.242 4296.86 602.125 4303.89 586.008 4310.91 569.831 4317.93 553.606 4324.96 537.381 4331.98 521.1 4339.01 504.775 4346.03 488.451 4353.05 472.074 4360.08 455.659 4367.1 439.244 4374.12 422.782 4381.15 406.286 4388.17 389.79 4395.19 373.251 4402.22 356.683 4409.24 340.115 4416.26 323.51 4423.29 306.879 4430.31 290.248 4437.33 273.584 4444.36 256.899 4451.38 240.213 4458.41 223.498 4465.43 206.765 4472.45 190.032 4479.48 173.255 4486.5 156.5" stroke="#4472C4" stroke-width="9.16667" stroke-linecap="round" stroke-linejoin="round" stroke-miterlimit="10" fill="none"/></g><g clip-path="url(#clip2)"><path d="M2400.5 1310.5C2407.52 1310.49 2414.55 1310.48 2421.57 1310.46 2428.59 1310.45 2435.62 1310.44 2442.64 1310.42 2449.66 1310.4 2456.69 1310.39 2463.71 1310.37 2470.74 1310.35 2477.76 1310.33 2484.78 1310.31 2491.81 1310.28 2498.83 1310.26 2505.85 1310.23 2512.88 1310.2 2519.9 1310.17 2526.92 1310.14 2533.95 1310.11 2540.97 1310.07 2548 1310.03 2555.02 1309.99 2562.04 1309.95 2569.07 1309.9 2576.09 1309.85 2583.11 1309.8 2590.14 1309.74 2597.16 1309.68 2604.18 1309.62 2611.21 1309.55 2618.23 1309.48 2625.25 1309.41 2632.28 1309.32 2639.3 1309.24 2646.32 1309.15 2653.35 1309.04 2660.37 1308.94 2667.4 1308.83 2674.42 1308.71 2681.44 1308.59 2688.47 1308.46 2695.49 1308.31 2702.51 1308.17 2709.54 1308.01 2716.56 1307.83 2723.58 1307.66 2730.61 1307.47 2737.63 1307.25 2744.66 1307.04 2751.68 1306.81 2758.7 1306.56 2765.73 1306.3 2772.75 1306.03 2779.77 1305.73 2786.8 1305.42 2793.82 1305.09 2800.84 1304.72 2807.87 1304.36 2814.89 1303.96 2821.91 1303.52 2828.94 1303.08 2835.96 1302.61 2842.98 1302.08 2850.01 1301.55 2857.03 1300.98 2864.06 1300.35 2871.08 1299.72 2878.1 1299.04 2885.13 1298.28 2892.15 1297.53 2899.17 1296.71 2906.2 1295.81 2913.22 1294.91 2920.24 1293.94 2927.27 1292.86 2934.29 1291.78 2941.31 1290.63 2948.34 1289.35 2955.36 1288.06 2962.39 1286.69 2969.41 1285.17 2976.43 1283.65 2983.46 1282.01 2990.48 1280.21 2997.5 1278.41 3004.53 1276.48 3011.55 1274.35 3018.57 1272.22 3025.6 1269.94 3032.62 1267.44 3039.64 1264.93 3046.67 1262.26 3053.69 1259.32 3060.72 1256.39 3067.74 1253.25 3074.76 1249.83 3081.79 1246.4 3088.81 1242.75 3095.83 1238.78 3102.86 1234.81 3109.88 1230.58 3116.9 1225.99 3123.93 1221.41 3130.95 1216.53 3137.97 1211.28 3145 1206.02 3152.02 1200.44 3159.05 1194.45 3166.07 1188.47 3173.09 1182.13 3180.12 1175.36 3187.14 1168.59 3194.16 1161.44 3201.19 1153.85 3208.21 1146.26 3215.23 1138.26 3222.26 1129.8 3229.28 1121.35 3236.3 1112.47 3243.33 1103.14 3250.35 1093.81 3257.38 1084.04 3264.4 1073.83 3271.42 1063.61 3278.45 1052.94 3285.47 1041.85 3292.49 1030.76 3299.52 1019.22 3306.54 1007.28 3313.56 995.342 3320.59 982.958 3327.61 970.217 3334.63 957.476 3341.66 944.305 3348.68 930.835 3355.71 917.365 3362.73 903.489 3369.75 889.399 3376.78 875.308 3383.8 860.845 3390.82 846.294 3397.85 831.742 3404.87 816.868 3411.89 802.09 3418.92 787.312 3425.94 772.286 3432.96 757.627 3439.99 742.968 3447.01 728.179 3454.04 714.137 3461.06 700.095 3468.08 686.114 3475.11 673.376 3482.13 660.637 3489.15 648.265 3496.18 637.708 3503.2 627.15 3510.22 617.42 3517.25 610.031 3524.27 602.643 3531.29 596.688 3538.32 593.376 3545.34 590.064 3552.37 588.827 3559.39 590.161 3566.41 591.494 3573.44 595.366 3580.46 601.377 3587.48 607.388 3594.51 616.043 3601.53 626.229 3608.55 636.414 3615.58 648.975 3622.6 662.491 3629.62 676.007 3636.65 691.404 3643.67 707.324 3650.7 723.244 3657.72 740.508 3664.74 758.01 3671.77 775.511 3678.79 793.894 3685.81 812.332 3692.84 830.769 3699.86 849.74 3706.88 868.638 3713.91 887.535 3720.93 906.72 3727.95 925.719 3734.98 944.719 3742 963.833 3749.03 982.634 3756.05 1001.43 3763.07 1020.22 3770.1 1038.52 3777.12 1056.82 3784.14 1074.99 3791.17 1092.43 3798.19 1109.87 3805.21 1127.04 3812.24 1143.18 3819.26 1159.31 3826.28 1174.97 3833.31 1189.22 3840.33 1203.47 3847.35 1216.97 3854.38 1228.66 3861.4 1240.36 3868.43 1250.93 3875.45 1259.39 3882.47 1267.84 3889.5 1274.74 3896.52 1279.41 3903.54 1284.08 3910.57 1286.78 3917.59 1287.41 3924.61 1288.04 3931.64 1286.46 3938.66 1283.17 3945.69 1279.88 3952.71 1274.39 3959.73 1267.65 3966.76 1260.91 3973.78 1252.23 3980.8 1242.71 3987.83 1233.19 3994.85 1222.12 4001.87 1210.55 4008.9 1198.98 4015.92 1186.26 4022.94 1173.27 4029.97 1160.28 4036.99 1146.5 4044.02 1132.59 4051.04 1118.67 4058.06 1104.26 4065.09 1089.78 4072.11 1075.3 4079.13 1060.52 4086.16 1045.7 4093.18 1030.89 4100.2 1015.91 4107.23 1000.91 4114.25 985.909 4121.27 970.815 4128.3 955.701 4135.32 940.587 4142.35 925.42 4149.37 910.226 4156.39 895.031 4163.42 879.801 4170.44 864.532 4177.46 849.263 4184.49 833.963 4191.51 818.613 4198.53 803.263 4205.56 787.877 4212.58 772.434 4219.6 756.991 4226.63 741.503 4233.65 725.954 4240.68 710.405 4247.7 694.803 4254.72 679.138 4261.75 663.473 4268.77 647.749 4275.79 631.962 4282.82 616.175 4289.84 600.326 4296.86 584.416 4303.89 568.505 4310.91 552.531 4317.93 536.5 4324.96 520.469 4331.98 504.375 4339.01 488.228 4346.03 472.082 4353.05 455.875 4360.08 439.622 4367.1 423.367 4374.12 407.057 4381.15 390.705 4388.17 374.353 4395.19 357.949 4402.22 341.508 4409.24 325.067 4416.26 308.58 4423.29 292.061 4430.31 275.541 4437.33 258.981 4444.36 242.392 4451.38 225.804 4458.41 209.178 4465.43 192.53 4472.45 175.881 4479.48 159.177 4486.5 142.5" stroke="#ED7D31" stroke-width="9.16667" stroke-linecap="round" stroke-linejoin="round" stroke-miterlimit="10" fill="none"/></g><g clip-path="url(#clip3)"><path d="M2400.5 1297.5C2407.52 1297.49 2414.55 1297.48 2421.57 1297.46 2428.59 1297.45 2435.62 1297.44 2442.64 1297.42 2449.66 1297.4 2456.69 1297.39 2463.71 1297.37 2470.74 1297.35 2477.76 1297.33 2484.78 1297.3 2491.81 1297.28 2498.83 1297.26 2505.85 1297.23 2512.88 1297.2 2519.9 1297.17 2526.92 1297.13 2533.95 1297.1 2540.97 1297.06 2548 1297.02 2555.02 1296.98 2562.04 1296.94 2569.07 1296.89 2576.09 1296.84 2583.11 1296.79 2590.14 1296.73 2597.16 1296.67 2604.18 1296.61 2611.21 1296.54 2618.23 1296.47 2625.25 1296.39 2632.28 1296.3 2639.3 1296.22 2646.32 1296.13 2653.35 1296.02 2660.37 1295.92 2667.4 1295.81 2674.42 1295.69 2681.44 1295.56 2688.47 1295.43 2695.49 1295.28 2702.51 1295.13 2709.54 1294.97 2716.56 1294.79 2723.58 1294.61 2730.61 1294.42 2737.63 1294.2 2744.66 1293.99 2751.68 1293.76 2758.7 1293.5 2765.73 1293.24 2772.75 1292.96 2779.77 1292.65 2786.8 1292.34 2793.82 1292.01 2800.84 1291.63 2807.87 1291.26 2814.89 1290.86 2821.91 1290.41 2828.94 1289.96 2835.96 1289.48 2842.98 1288.95 2850.01 1288.41 2857.03 1287.83 2864.06 1287.19 2871.08 1286.55 2878.1 1285.86 2885.13 1285.09 2892.15 1284.32 2899.17 1283.49 2906.2 1282.57 2913.22 1281.65 2920.24 1280.67 2927.27 1279.57 2934.29 1278.48 2941.31 1277.3 2948.34 1276 2955.36 1274.69 2962.39 1273.29 2969.41 1271.74 2976.43 1270.19 2983.46 1268.53 2990.48 1266.7 2997.5 1264.86 3004.53 1262.89 3011.55 1260.72 3018.57 1258.55 3025.6 1256.23 3032.62 1253.68 3039.64 1251.12 3046.67 1248.39 3053.69 1245.4 3060.72 1242.4 3067.74 1239.2 3074.76 1235.7 3081.79 1232.2 3088.81 1228.47 3095.83 1224.4 3102.86 1220.33 3109.88 1216 3116.9 1211.3 3123.93 1206.61 3130.95 1201.61 3137.97 1196.21 3145 1190.81 3152.02 1185.08 3159.05 1178.92 3166.07 1172.76 3173.09 1166.23 3180.12 1159.25 3187.14 1152.27 3194.16 1144.89 3201.19 1137.03 3208.21 1129.17 3215.23 1120.88 3222.26 1112.1 3229.28 1103.32 3236.3 1094.09 3243.33 1084.35 3250.35 1074.61 3257.38 1064.4 3264.4 1053.68 3271.42 1042.96 3278.45 1031.75 3285.47 1020.04 3292.49 1008.33 3299.52 996.113 3306.54 983.403 3313.56 970.692 3320.59 957.475 3327.61 943.779 3334.63 930.084 3341.66 915.88 3348.68 901.231 3355.71 886.581 3362.73 871.426 3369.75 855.88 3376.78 840.334 3383.8 824.291 3390.82 807.955 3397.85 791.619 3404.87 774.802 3411.89 757.861 3418.92 740.92 3425.94 723.532 3432.96 706.309 3439.99 689.085 3447.01 671.485 3454.04 654.521 3461.06 637.555 3468.08 620.366 3475.11 604.519 3482.13 588.672 3489.15 572.92 3496.18 559.437 3503.2 545.954 3510.22 533.181 3517.25 523.62 3524.27 514.059 3531.29 506.187 3538.32 502.07 3545.34 497.952 3552.37 496.671 3559.39 498.914 3566.41 501.156 3573.44 507.041 3580.46 515.522 3587.48 524.003 3594.51 536.158 3601.53 549.8 3608.55 563.441 3615.58 580.088 3622.6 597.371 3629.62 614.654 3636.65 634.004 3643.67 653.497 3650.7 672.991 3657.72 693.711 3664.74 714.332 3671.77 734.954 3678.79 756.196 3685.81 777.227 3692.84 798.257 3699.86 819.526 3706.88 840.514 3713.91 861.502 3720.93 882.503 3727.95 903.157 3734.98 923.811 3742 944.345 3749.03 964.436 3756.05 984.526 3763.07 1004.41 3770.1 1023.7 3777.12 1042.99 3784.14 1061.99 3791.17 1080.17 3798.19 1098.36 3805.21 1116.14 3812.24 1132.81 3819.26 1149.48 3826.28 1165.57 3833.31 1180.18 3840.33 1194.79 3847.35 1208.56 3854.38 1220.47 3861.4 1232.38 3868.43 1243.08 3875.45 1251.62 3882.47 1260.17 3889.5 1267.08 3896.52 1271.74 3903.54 1276.39 3910.57 1279.03 3917.59 1279.56 3924.61 1280.09 3931.64 1278.38 3938.66 1274.94 3945.69 1271.49 3952.71 1265.83 3959.73 1258.89 3966.76 1251.96 3973.78 1243.06 3980.8 1233.33 3987.83 1223.59 3994.85 1212.29 4001.87 1200.48 4008.9 1188.67 4015.92 1175.71 4022.94 1162.47 4029.97 1149.24 4036.99 1135.22 4044.02 1121.06 4051.04 1106.91 4058.06 1092.25 4065.09 1077.54 4072.11 1062.84 4079.13 1047.83 4086.16 1032.81 4093.18 1017.8 4100.2 1002.62 4107.23 987.444 4114.25 972.269 4121.27 957.014 4128.3 941.761 4135.32 926.508 4142.35 911.222 4149.37 895.929 4156.39 880.636 4163.42 865.329 4170.44 850.003 4177.46 834.676 4184.49 819.34 4191.51 803.971 4198.53 788.602 4205.56 773.218 4212.58 757.791 4219.6 742.363 4226.63 726.91 4233.65 711.404 4240.68 695.898 4247.7 680.356 4254.72 664.755 4261.75 649.155 4268.77 633.508 4275.79 617.8 4282.82 602.092 4289.84 586.331 4296.86 570.508 4303.89 554.685 4310.91 538.804 4317.93 522.863 4324.96 506.922 4331.98 490.921 4339.01 474.864 4346.03 458.806 4353.05 442.688 4360.08 426.519 4367.1 410.349 4374.12 394.121 4381.15 377.847 4388.17 361.573 4395.19 345.243 4402.22 328.873 4409.24 312.502 4416.26 296.08 4423.29 279.622 4430.31 263.163 4437.33 246.66 4444.36 230.124 4451.38 213.589 4458.41 197.012 4465.43 180.408 4472.45 163.804 4479.48 147.136 4486.5 130.5" stroke="#A5A5A5" stroke-width="9.16667" stroke-linecap="round" stroke-linejoin="round" stroke-miterlimit="10" fill="none"/></g><g clip-path="url(#clip4)"><path d="M2400.5 1289.5C2407.52 1289.49 2414.55 1289.48 2421.57 1289.46 2428.59 1289.45 2435.62 1289.43 2442.64 1289.42 2449.66 1289.4 2456.69 1289.39 2463.71 1289.37 2470.74 1289.35 2477.76 1289.33 2484.78 1289.3 2491.81 1289.28 2498.83 1289.25 2505.85 1289.22 2512.88 1289.2 2519.9 1289.17 2526.92 1289.13 2533.95 1289.1 2540.97 1289.06 2548 1289.02 2555.02 1288.98 2562.04 1288.94 2569.07 1288.89 2576.09 1288.84 2583.11 1288.78 2590.14 1288.72 2597.16 1288.66 2604.18 1288.6 2611.21 1288.53 2618.23 1288.46 2625.25 1288.38 2632.28 1288.29 2639.3 1288.21 2646.32 1288.12 2653.35 1288.01 2660.37 1287.91 2667.4 1287.8 2674.42 1287.67 2681.44 1287.55 2688.47 1287.41 2695.49 1287.26 2702.51 1287.11 2709.54 1286.95 2716.56 1286.77 2723.58 1286.59 2730.61 1286.4 2737.63 1286.18 2744.66 1285.96 2751.68 1285.73 2758.7 1285.47 2765.73 1285.21 2772.75 1284.93 2779.77 1284.62 2786.8 1284.3 2793.82 1283.97 2800.84 1283.59 2807.87 1283.21 2814.89 1282.81 2821.91 1282.36 2828.94 1281.91 2835.96 1281.42 2842.98 1280.88 2850.01 1280.34 2857.03 1279.76 2864.06 1279.11 2871.08 1278.47 2878.1 1277.77 2885.13 1277 2892.15 1276.22 2899.17 1275.39 2906.2 1274.46 2913.22 1273.54 2920.24 1272.54 2927.27 1271.44 2934.29 1270.33 2941.31 1269.15 2948.34 1267.83 2955.36 1266.52 2962.39 1265.11 2969.41 1263.54 2976.43 1261.98 2983.46 1260.31 2990.48 1258.45 2997.5 1256.6 3004.53 1254.62 3011.55 1252.43 3018.57 1250.24 3025.6 1247.9 3032.62 1245.32 3039.64 1242.74 3046.67 1239.98 3053.69 1236.95 3060.72 1233.93 3067.74 1230.69 3074.76 1227.16 3081.79 1223.62 3088.81 1219.85 3095.83 1215.74 3102.86 1211.62 3109.88 1207.24 3116.9 1202.49 3123.93 1197.73 3130.95 1192.67 3137.97 1187.2 3145 1181.74 3152.02 1175.93 3159.05 1169.68 3166.07 1163.43 3173.09 1156.81 3180.12 1149.71 3187.14 1142.62 3194.16 1135.12 3201.19 1127.12 3208.21 1119.13 3215.23 1110.69 3222.26 1101.74 3229.28 1092.79 3236.3 1083.37 3243.33 1073.42 3250.35 1063.46 3257.38 1053.02 3264.4 1042.03 3271.42 1031.05 3278.45 1019.54 3285.47 1007.49 3292.49 995.442 3299.52 982.861 3306.54 969.725 3313.56 956.589 3320.59 942.911 3327.61 928.679 3334.63 914.447 3341.66 899.662 3348.68 884.334 3355.71 869.005 3362.73 853.115 3369.75 836.71 3376.78 820.305 3383.8 803.328 3390.82 785.905 3397.85 768.481 3404.87 750.478 3411.89 732.169 3418.92 713.86 3425.94 694.97 3432.96 676.05 3439.99 657.13 3447.01 637.651 3454.04 618.648 3461.06 599.645 3468.08 580.175 3475.11 562.03 3482.13 543.885 3489.15 525.554 3496.18 509.777 3503.2 494 3510.22 478.724 3517.25 467.367 3524.27 456.01 3531.29 446.454 3538.32 441.634 3545.34 436.813 3552.37 435.468 3559.39 438.445 3566.41 441.421 3573.44 449.029 3580.46 459.494 3587.48 469.96 3594.51 484.95 3601.53 501.237 3608.55 517.523 3615.58 537.223 3622.6 557.211 3629.62 577.199 3636.65 599.269 3643.67 621.167 3650.7 643.064 3657.72 665.997 3664.74 688.596 3671.77 711.194 3678.79 734.167 3685.81 756.758 3692.84 779.349 3699.86 801.947 3706.88 824.143 3713.91 846.338 3720.93 868.354 3727.95 889.931 3734.98 911.508 3742 932.814 3749.03 953.606 3756.05 974.397 3763.07 994.863 3770.1 1014.68 3777.12 1034.5 3784.14 1053.93 3791.17 1072.5 3798.19 1091.08 3805.21 1109.17 3812.24 1126.12 3819.26 1143.06 3826.28 1159.37 3833.31 1174.16 3840.33 1188.95 3847.35 1202.86 3854.38 1214.87 3861.4 1226.88 3868.43 1237.64 3875.45 1246.23 3882.47 1254.81 3889.5 1261.73 3896.52 1266.37 3903.54 1271.01 3910.57 1273.6 3917.59 1274.08 3924.61 1274.56 3931.64 1272.76 3938.66 1269.23 3945.69 1265.7 3952.71 1259.93 3959.73 1252.89 3966.76 1245.84 3973.78 1236.83 3980.8 1226.96 3987.83 1217.1 3994.85 1205.66 4001.87 1193.71 4008.9 1181.77 4015.92 1168.66 4022.94 1155.27 4029.97 1141.89 4036.99 1127.71 4044.02 1113.4 4051.04 1099.09 4058.06 1084.28 4065.09 1069.41 4072.11 1054.55 4079.13 1039.39 4086.16 1024.22 4093.18 1009.05 4100.2 993.72 4107.23 978.403 4114.25 963.086 4121.27 947.693 4128.3 932.314 4135.32 916.935 4142.35 901.529 4149.37 886.13 4156.39 870.73 4163.42 855.326 4170.44 839.916 4177.46 824.507 4184.49 809.099 4191.51 793.671 4198.53 778.244 4205.56 762.814 4212.58 747.352 4219.6 731.89 4226.63 716.416 4233.65 700.899 4240.68 685.382 4247.7 669.842 4254.72 654.25 4261.75 638.659 4268.77 623.033 4275.79 607.352 4282.82 591.67 4289.84 575.944 4296.86 560.16 4303.89 544.376 4310.91 528.541 4317.93 512.649 4324.96 496.756 4331.98 480.808 4339.01 464.804 4346.03 448.8 4353.05 432.739 4360.08 416.625 4367.1 400.511 4374.12 384.341 4381.15 368.122 4388.17 351.903 4395.19 335.63 4402.22 319.313 4409.24 302.996 4416.26 286.627 4423.29 270.22 4430.31 253.813 4437.33 237.357 4444.36 220.869 4451.38 204.38 4458.41 187.848 4465.43 171.287 4472.45 154.725 4479.48 138.095 4486.5 121.5" stroke="#FFC000" stroke-width="9.16667" stroke-linecap="round" stroke-linejoin="round" stroke-miterlimit="10" fill="none"/></g><g clip-path="url(#clip5)"><path d="M2400.5 1283.5C2407.52 1283.49 2414.55 1283.48 2421.57 1283.46 2428.59 1283.45 2435.62 1283.44 2442.64 1283.42 2449.66 1283.4 2456.69 1283.39 2463.71 1283.37 2470.74 1283.35 2477.76 1283.32 2484.78 1283.3 2491.81 1283.28 2498.83 1283.25 2505.85 1283.22 2512.88 1283.2 2519.9 1283.16 2526.92 1283.13 2533.95 1283.1 2540.97 1283.06 2548 1283.02 2555.02 1282.98 2562.04 1282.93 2569.07 1282.88 2576.09 1282.83 2583.11 1282.78 2590.14 1282.72 2597.16 1282.66 2604.18 1282.6 2611.21 1282.53 2618.23 1282.45 2625.25 1282.38 2632.28 1282.29 2639.3 1282.2 2646.32 1282.11 2653.35 1282.01 2660.37 1281.9 2667.4 1281.79 2674.42 1281.66 2681.44 1281.54 2688.47 1281.4 2695.49 1281.25 2702.51 1281.1 2709.54 1280.94 2716.56 1280.76 2723.58 1280.58 2730.61 1280.38 2737.63 1280.17 2744.66 1279.95 2751.68 1279.71 2758.7 1279.45 2765.73 1279.19 2772.75 1278.91 2779.77 1278.6 2786.8 1278.28 2793.82 1277.94 2800.84 1277.57 2807.87 1277.19 2814.89 1276.78 2821.91 1276.33 2828.94 1275.88 2835.96 1275.39 2842.98 1274.85 2850.01 1274.3 2857.03 1273.72 2864.06 1273.07 2871.08 1272.42 2878.1 1271.72 2885.13 1270.94 2892.15 1270.16 2899.17 1269.33 2906.2 1268.4 2913.22 1267.47 2920.24 1266.47 2927.27 1265.36 2934.29 1264.25 2941.31 1263.06 2948.34 1261.74 2955.36 1260.42 2962.39 1259 2969.41 1257.43 2976.43 1255.86 2983.46 1254.17 2990.48 1252.31 2997.5 1250.45 3004.53 1248.45 3011.55 1246.25 3018.57 1244.05 3025.6 1241.7 3032.62 1239.1 3039.64 1236.51 3046.67 1233.74 3053.69 1230.69 3060.72 1227.65 3067.74 1224.39 3074.76 1220.84 3081.79 1217.28 3088.81 1213.48 3095.83 1209.34 3102.86 1205.2 3109.88 1200.79 3116.9 1196 3123.93 1191.21 3130.95 1186.11 3137.97 1180.6 3145 1175.09 3152.02 1169.24 3159.05 1162.94 3166.07 1156.63 3173.09 1149.95 3180.12 1142.79 3187.14 1135.63 3194.16 1128.06 3201.19 1119.98 3208.21 1111.9 3215.23 1103.37 3222.26 1094.32 3229.28 1085.26 3236.3 1075.72 3243.33 1065.64 3250.35 1055.56 3257.38 1044.97 3264.4 1033.81 3271.42 1022.66 3278.45 1010.98 3285.47 998.712 3292.49 986.449 3299.52 973.639 3306.54 960.235 3313.56 946.83 3320.59 932.861 3327.61 918.287 3334.63 903.713 3341.66 888.558 3348.68 872.792 3355.71 857.026 3362.73 840.66 3369.75 823.693 3376.78 806.725 3383.8 789.137 3390.82 770.988 3397.85 752.839 3404.87 734.044 3411.89 714.8 3418.92 695.556 3425.94 675.639 3432.96 655.525 3439.99 635.41 3447.01 614.604 3454.04 594.114 3461.06 573.623 3468.08 552.474 3475.11 532.581 3482.13 512.686 3489.15 492.352 3496.18 474.749 3503.2 457.147 3510.22 439.81 3517.25 426.964 3524.27 414.118 3531.29 403.099 3538.32 397.674 3545.34 392.249 3552.37 390.833 3559.39 394.415 3566.41 397.996 3573.44 407.079 3580.46 419.162 3587.48 431.245 3594.51 448.553 3601.53 466.914 3608.55 485.275 3615.58 507.315 3622.6 529.327 3629.62 551.339 3636.65 575.372 3643.67 598.986 3650.7 622.599 3657.72 647.055 3664.74 671.01 3671.77 694.965 3678.79 719.086 3685.81 742.715 3692.84 766.343 3699.86 789.801 3706.88 812.779 3713.91 835.757 3720.93 858.417 3727.95 880.582 3734.98 902.747 3742 924.535 3749.03 945.767 3756.05 966.998 3763.07 987.826 3770.1 1007.97 3777.12 1028.11 3784.14 1047.81 3791.17 1066.63 3798.19 1085.44 3805.21 1103.73 3812.24 1120.84 3819.26 1137.95 3826.28 1154.4 3833.31 1169.3 3840.33 1184.2 3847.35 1198.19 3854.38 1210.26 3861.4 1222.33 3868.43 1233.14 3875.45 1241.74 3882.47 1250.35 3889.5 1257.27 3896.52 1261.9 3903.54 1266.53 3910.57 1269.09 3917.59 1269.53 3924.61 1269.97 3931.64 1268.13 3938.66 1264.54 3945.69 1260.95 3952.71 1255.12 3959.73 1248.01 3966.76 1240.89 3973.78 1231.79 3980.8 1221.85 3987.83 1211.9 3994.85 1200.37 4001.87 1188.33 4008.9 1176.29 4015.92 1163.08 4022.94 1149.6 4029.97 1136.11 4036.99 1121.82 4044.02 1107.41 4051.04 1092.99 4058.06 1078.06 4065.09 1063.08 4072.11 1048.1 4079.13 1032.82 4086.16 1017.54 4093.18 1002.26 4100.2 986.811 4107.23 971.381 4114.25 955.951 4121.27 940.445 4128.3 924.959 4135.32 909.472 4142.35 893.961 4149.37 878.463 4156.39 862.964 4163.42 847.466 4170.44 831.97 4177.46 816.474 4184.49 800.986 4191.51 785.487 4198.53 769.988 4205.56 754.494 4212.58 738.976 4219.6 723.458 4226.63 707.937 4233.65 692.381 4240.68 676.825 4247.7 661.254 4254.72 645.64 4261.75 630.025 4268.77 614.384 4275.79 598.694 4282.82 583.003 4289.84 567.276 4296.86 551.496 4303.89 535.715 4310.91 519.89 4317.93 504.011 4324.96 488.131 4331.98 472.202 4339.01 456.219 4346.03 440.235 4353.05 424.199 4360.08 408.111 4367.1 392.023 4374.12 375.881 4381.15 359.692 4388.17 343.501 4395.19 327.258 4402.22 310.972 4409.24 294.684 4416.26 278.346 4423.29 261.969 4430.31 245.591 4437.33 229.166 4444.36 212.707 4451.38 196.246 4458.41 179.743 4465.43 163.208 4472.45 146.674 4479.48 130.069 4486.5 113.5" stroke="#5B9BD5" stroke-width="9.16667" stroke-linecap="round" stroke-linejoin="round" stroke-miterlimit="10" fill="none"/></g><g><text font-family="Calibri,Calibri_MSFontService,sans-serif" font-weight="400" font-size="64" transform="matrix(1 0 0 1 2255.98 1529)">-15</text></g><g><text font-family="Calibri,Calibri_MSFontService,sans-serif" font-weight="400" font-size="64" transform="matrix(1 0 0 1 2255.98 1392)">-10</text></g><g><text font-family="Calibri,Calibri_MSFontService,sans-serif" font-weight="400" font-size="64" transform="matrix(1 0 0 1 2288.5 1255)">-5</text></g><g><text font-family="Calibri,Calibri_MSFontService,sans-serif" font-weight="400" font-size="64" transform="matrix(1 0 0 1 2308.14 1118)">0</text></g><g><text font-family="Calibri,Calibri_MSFontService,sans-serif" font-weight="400" font-size="64" transform="matrix(1 0 0 1 2308.14 981)">5</text></g><g><text font-family="Calibri,Calibri_MSFontService,sans-serif" font-weight="400" font-size="64" transform="matrix(1 0 0 1 2275.62 844)">10</text></g><g><text font-family="Calibri,Calibri_MSFontService,sans-serif" font-weight="400" font-size="64" transform="matrix(1 0 0 1 2275.62 707)">15</text></g><g><text font-family="Calibri,Calibri_MSFontService,sans-serif" font-weight="400" font-size="64" transform="matrix(1 0 0 1 2275.62 570)">20</text></g><g><text font-family="Calibri,Calibri_MSFontService,sans-serif" font-weight="400" font-size="64" transform="matrix(1 0 0 1 2275.62 433)">25</text></g><g><text font-family="Calibri,Calibri_MSFontService,sans-serif" font-weight="400" font-size="64" transform="matrix(1 0 0 1 2275.62 296)">30</text></g><g><text font-family="Calibri,Calibri_MSFontService,sans-serif" font-weight="700" font-size="64" transform="matrix(6.12323e-17 -1 1 6.12323e-17 2204.36 1062)">Magnitude (dB)</text></g><g><path d="M2524.5 207.5 2612.5 207.501" stroke="#4472C4" stroke-width="9.16667" stroke-linecap="round" stroke-linejoin="round" stroke-miterlimit="10" fill="none" fill-rule="evenodd"/></g><g><text font-family="Calibri,Calibri_MSFontService,sans-serif" font-weight="700" font-size="73" transform="matrix(1 0 0 1 2621.85 228)">Z1</text></g><g><path d="M2815.5 207.5 2903.5 207.501" stroke="#ED7D31" stroke-width="9.16667" stroke-linecap="round" stroke-linejoin="round" stroke-miterlimit="10" fill="none" fill-rule="evenodd"/></g><g><text font-family="Calibri,Calibri_MSFontService,sans-serif" font-weight="700" font-size="73" transform="matrix(1 0 0 1 2912.38 228)">Z2</text></g><g><path d="M3105.5 207.5 3193.5 207.501" stroke="#A5A5A5" stroke-width="9.16667" stroke-linecap="round" stroke-linejoin="round" stroke-miterlimit="10" fill="none" fill-rule="evenodd"/></g><g><text font-family="Calibri,Calibri_MSFontService,sans-serif" font-weight="700" font-size="73" transform="matrix(1 0 0 1 3202.9 228)">Z3</text></g><g><path d="M3396.5 207.5 3484.5 207.501" stroke="#FFC000" stroke-width="9.16667" stroke-linecap="round" stroke-linejoin="round" stroke-miterlimit="10" fill="none" fill-rule="evenodd"/></g><g><text font-family="Calibri,Calibri_MSFontService,sans-serif" font-weight="700" font-size="73" transform="matrix(1 0 0 1 3493.42 228)">Z4</text></g><g><path d="M3686.5 207.5 3774.5 207.501" stroke="#5B9BD5" stroke-width="9.16667" stroke-linecap="round" stroke-linejoin="round" stroke-miterlimit="10" fill="none" fill-rule="evenodd"/></g><g><text font-family="Calibri,Calibri_MSFontService,sans-serif" font-weight="700" font-size="73" transform="matrix(1 0 0 1 3783.94 228)">Z5</text></g><rect x="2090.5" y="48.5" width="1980" height="1543" stroke="#D9D9D9" stroke-width="3.4375" stroke-linejoin="round" stroke-miterlimit="10" fill="none"/><g><text fill="#FF0000" font-family="Calibri,Calibri_MSFontService,sans-serif" font-weight="700" font-size="73" transform="matrix(1 0 0 1 3350.88 1076)">Increasing</text></g><g><text fill="#FF0000" font-family="Calibri,Calibri_MSFontService,sans-serif" font-weight="700" font-size="73" transform="matrix(1 0 0 1 3323.26 1165)">Load (Z</text></g><g><text fill="#FF0000" font-family="Calibri,Calibri_MSFontService,sans-serif" font-weight="700" font-size="49" transform="matrix(1 0 0 1 3543.72 1182)">Load1</text></g><g><text fill="#FF0000" font-family="Calibri,Calibri_MSFontService,sans-serif" font-weight="700" font-size="73" transform="matrix(1 0 0 1 3665.82 1165)">)</text></g><g><text fill="#FF0000" font-family="Calibri,Calibri_MSFontService,sans-serif" font-weight="700" font-size="73" transform="matrix(1 0 0 1 3188.81 1255)">Z1</text></g><g><text fill="#FF0000" font-family="Calibri,Calibri_MSFontService,sans-serif" font-weight="700" font-size="73" transform="matrix(1 0 0 1 3272.09 1255)">&lt; </text></g><g><text fill="#FF0000" font-family="Calibri,Calibri_MSFontService,sans-serif" font-weight="700" font-size="73" transform="matrix(1 0 0 1 3325.19 1255)">Z2</text></g><g><text fill="#FF0000" font-family="Calibri,Calibri_MSFontService,sans-serif" font-weight="700" font-size="73" transform="matrix(1 0 0 1 3425.03 1255)">&lt; Z3</text></g><g><text fill="#FF0000" font-family="Calibri,Calibri_MSFontService,sans-serif" font-weight="700" font-size="73" transform="matrix(1 0 0 1 3561.41 1255)">&lt; Z4</text></g><g><text fill="#FF0000" font-family="Calibri,Calibri_MSFontService,sans-serif" font-weight="700" font-size="73" transform="matrix(1 0 0 1 3697.79 1255)">&lt; Z5</text></g><g><path d="M3.4375-1.74007e-06 3.43785 690.026-3.43715 690.026-3.4375 1.74007e-06ZM13.7503 685.443 0.000360892 712.943-13.7497 685.443Z" fill="#7F7F7F" transform="matrix(1 0 0 -1 3550.5 1029.44)"/></g><rect x="2091" y="1589" width="1978" height="1275" fill="#FFFFFF"/><g><path d="M2397.5 2586.5 3960.5 2586.5M2397.5 2493.58 3960.5 2493.58M2397.5 2399.58 3960.5 2399.58M2397.5 2306.58 3960.5 2306.58M2397.5 2212.57 3960.5 2212.57M2397.5 2026.57 3960.5 2026.57M2397.5 1932.56 3960.5 1932.56M2397.5 1839.56 3960.5 1839.56M2397.5 1746.56 3960.5 1746.56M2397.5 1652.5 3960.5 1652.5" stroke="#D9D9D9" stroke-width="3.4375" stroke-linejoin="round" stroke-miterlimit="10" fill="none"/></g><g><path d="M2554.58 1652.5 2554.58 2586.5M2646.59 1652.5 2646.59 2586.5M2711.59 1652.5 2711.59 2586.5M2761.59 1652.5 2761.59 2586.5M2802.59 1652.5 2802.59 2586.5M2837.59 1652.5 2837.59 2586.5M2867.59 1652.5 2867.59 2586.5M2894.6 1652.5 2894.6 2586.5M3075.6 1652.5 3075.6 2586.5M3166.6 1652.5 3166.6 2586.5M3232.61 1652.5 3232.61 2586.5M3282.61 1652.5 3282.61 2586.5M3323.61 1652.5 3323.61 2586.5M3358.61 1652.5 3358.61 2586.5M3388.61 1652.5 3388.61 2586.5M3415.61 1652.5 3415.61 2586.5M3596.62 1652.5 3596.62 2586.5M3687.62 1652.5 3687.62 2586.5M3752.62 1652.5 3752.62 2586.5M3803.62 1652.5 3803.62 2586.5M3844.63 1652.5 3844.63 2586.5M3879.63 1652.5 3879.63 2586.5M3909.63 1652.5 3909.63 2586.5M3936.63 1652.5 3936.63 2586.5" stroke="#F2F2F2" stroke-width="3.4375" stroke-linejoin="round" stroke-miterlimit="10" fill="none"/></g><g><path d="M2918.6 1652.5 2918.6 2586.5M3439.61 1652.5 3439.61 2586.5M3960.5 1652.5 3960.5 2586.5" stroke="#D9D9D9" stroke-width="3.4375" stroke-linejoin="round" stroke-miterlimit="10" fill="none"/></g><g><path d="M0 0 0.000360892 934" stroke="#BFBFBF" stroke-width="3.4375" stroke-linejoin="round" stroke-miterlimit="10" fill="none" fill-rule="evenodd" transform="matrix(1 0 0 -1 2397.5 2586.5)"/></g><g><path d="M2397.5 2119.5 3960.5 2119.5" stroke="#BFBFBF" stroke-width="3.4375" stroke-linejoin="round" stroke-miterlimit="10" fill="none" fill-rule="evenodd"/></g><g clip-path="url(#clip6)"><path d="M2397.5 2109.91C2404.52 2109.61 2411.53 2109.31 2418.55 2108.99 2425.57 2108.67 2432.58 2108.33 2439.6 2107.98 2446.62 2107.62 2453.63 2107.25 2460.65 2106.86 2467.67 2106.47 2474.69 2106.07 2481.7 2105.64 2488.72 2105.22 2495.74 2104.77 2502.75 2104.3 2509.77 2103.84 2516.79 2103.35 2523.8 2102.83 2530.82 2102.32 2537.84 2101.79 2544.85 2101.22 2551.87 2100.66 2558.89 2100.07 2565.9 2099.46 2572.92 2098.84 2579.94 2098.19 2586.95 2097.52 2593.97 2096.84 2600.99 2096.13 2608.01 2095.39 2615.02 2094.65 2622.04 2093.88 2629.06 2093.06 2636.07 2092.25 2643.09 2091.4 2650.11 2090.51 2657.12 2089.62 2664.14 2088.69 2671.16 2087.71 2678.17 2086.73 2685.19 2085.71 2692.21 2084.64 2699.22 2083.57 2706.24 2082.46 2713.26 2081.29 2720.27 2080.11 2727.29 2078.89 2734.31 2077.61 2741.32 2076.33 2748.34 2074.99 2755.36 2073.59 2762.38 2072.19 2769.39 2070.73 2776.41 2069.2 2783.43 2067.67 2790.44 2066.07 2797.46 2064.4 2804.48 2062.72 2811.49 2060.98 2818.51 2059.16 2825.53 2057.33 2832.54 2055.44 2839.56 2053.45 2846.58 2051.46 2853.59 2049.39 2860.61 2047.23 2867.63 2045.07 2874.65 2042.82 2881.66 2040.48 2888.68 2038.13 2895.7 2035.69 2902.71 2033.15 2909.73 2030.6 2916.75 2027.97 2923.76 2025.22 2930.78 2022.47 2937.8 2019.62 2944.81 2016.66 2951.83 2013.7 2958.85 2010.63 2965.86 2007.45 2972.88 2004.28 2979.9 2000.99 2986.91 1997.59 2993.93 1994.2 3000.95 1990.69 3007.96 1987.08 3014.98 1983.47 3022 1979.74 3029.02 1975.93 3036.03 1972.11 3043.05 1968.19 3050.07 1964.18 3057.08 1960.18 3064.1 1956.07 3071.12 1951.91 3078.13 1947.74 3085.15 1943.48 3092.17 1939.19 3099.18 1934.9 3106.2 1930.53 3113.22 1926.17 3120.23 1921.8 3127.25 1917.38 3134.27 1913 3141.28 1908.62 3148.3 1904.21 3155.32 1899.89 3162.33 1895.57 3169.35 1891.26 3176.37 1887.09 3183.39 1882.92 3190.4 1878.8 3197.42 1874.88 3204.44 1870.97 3211.45 1867.14 3218.47 1863.59 3225.49 1860.03 3232.5 1856.63 3239.52 1853.56 3246.54 1850.49 3253.55 1847.63 3260.57 1845.17 3267.59 1842.72 3274.6 1840.54 3281.62 1838.83 3288.64 1837.13 3295.66 1835.76 3302.67 1834.94 3309.69 1834.12 3316.71 1833.71 3323.72 1833.91 3330.74 1834.12 3337.76 1834.8 3344.77 1836.17 3351.79 1837.54 3358.81 1839.45 3365.82 1842.12 3372.84 1844.78 3379.86 1848.07 3386.87 1852.16 3393.89 1856.24 3400.91 1861.02 3407.92 1866.64 3414.94 1872.26 3421.96 1878.64 3428.97 1885.88 3435.99 1893.11 3443.01 1901.17 3450.03 1910.06 3457.04 1918.94 3464.06 1928.7 3471.08 1939.2 3478.09 1949.71 3485.11 1961.1 3492.13 1973.09 3499.14 1985.09 3506.16 1997.94 3513.18 2011.17 3520.19 2024.4 3527.21 2038.39 3534.23 2052.48 3541.24 2066.57 3548.26 2081.24 3555.28 2095.7 3562.29 2110.15 3569.31 2124.94 3576.33 2139.21 3583.35 2153.47 3590.36 2167.77 3597.38 2181.29 3604.4 2194.8 3611.41 2208.03 3618.43 2220.28 3625.45 2232.52 3632.46 2244.2 3639.48 2254.77 3646.5 2265.34 3653.51 2275.1 3660.53 2283.67 3667.55 2292.24 3674.56 2299.85 3681.58 2306.19 3688.6 2312.54 3695.61 2317.8 3702.63 2321.75 3709.65 2325.7 3716.67 2328.48 3723.68 2329.9 3730.7 2331.32 3737.72 2331.5 3744.73 2330.25 3751.75 2329 3758.77 2326.45 3765.78 2322.38 3772.8 2318.32 3779.82 2312.88 3786.83 2305.87 3793.85 2298.86 3800.87 2290.38 3807.88 2280.32 3814.9 2270.26 3821.92 2258.62 3828.93 2245.49 3835.95 2232.36 3842.97 2217.58 3849.98 2201.55 3857 2185.53 3864.02 2167.84 3871.04 2149.34 3878.05 2130.84 3885.07 2110.82 3892.09 2090.56 3899.1 2070.29 3906.12 2048.86 3913.14 2027.76 3920.15 2006.66 3927.17 1984.93 3934.19 1963.97 3941.2 1943.02 3948.22 1922.02 3955.24 1902.04 3962.25 1882.06 3969.27 1862.55 3976.29 1844.1 3983.3 1825.65 3990.32 1808.01 3997.34 1791.35 4004.36 1774.69 4011.37 1758.99 4018.39 1744.14 4025.41 1729.29 4032.42 1715.41 4039.44 1702.23 4046.46 1689.06 4053.47 1676.78 4060.49 1665.08 4067.51 1653.39 4074.52 1642.48 4081.54 1632.05 4088.56 1621.63 4095.57 1611.87 4102.59 1602.51 4109.61 1593.15 4116.62 1584.36 4123.64 1575.9 4130.66 1567.45 4137.67 1559.46 4144.69 1551.77 4151.71 1544.08 4158.73 1536.78 4165.74 1529.74 4172.76 1522.71 4179.78 1516.01 4186.79 1509.54 4193.81 1503.07 4200.83 1496.9 4207.84 1490.93 4214.86 1484.97 4221.88 1479.27 4228.89 1473.76 4235.91 1468.25 4242.93 1462.98 4249.94 1457.88 4256.96 1452.79 4263.98 1447.91 4271 1443.2 4278.01 1438.49 4285.03 1433.97 4292.05 1429.62 4299.06 1425.26 4306.08 1421.09 4313.1 1417.07 4320.11 1413.04 4327.13 1409.19 4334.15 1405.48 4341.16 1401.76 4348.18 1398.21 4355.2 1394.79 4362.21 1391.37 4369.23 1388.09 4376.25 1384.94 4383.26 1381.79 4390.28 1378.78 4397.3 1375.89 4404.31 1372.99 4411.33 1370.22 4418.35 1367.56 4425.37 1364.9 4432.38 1362.36 4439.4 1359.92 4446.42 1357.48 4453.43 1355.16 4460.45 1352.92 4467.47 1350.68 4474.48 1348.64 4481.5 1346.5" stroke="#4472C4" stroke-width="9.16667" stroke-linecap="round" stroke-linejoin="round" stroke-miterlimit="10" fill="none"/></g><g clip-path="url(#clip7)"><path d="M2397.5 2108.82C2404.52 2108.48 2411.53 2108.16 2418.55 2107.81 2425.57 2107.45 2432.58 2107.08 2439.6 2106.7 2446.62 2106.31 2453.63 2105.9 2460.65 2105.48 2467.67 2105.05 2474.69 2104.6 2481.7 2104.14 2488.72 2103.67 2495.74 2103.18 2502.75 2102.67 2509.77 2102.15 2516.79 2101.62 2523.8 2101.06 2530.82 2100.49 2537.84 2099.91 2544.85 2099.29 2551.87 2098.67 2558.89 2098.03 2565.9 2097.35 2572.92 2096.67 2579.94 2095.97 2586.95 2095.22 2593.97 2094.48 2600.99 2093.71 2608.01 2092.89 2615.02 2092.08 2622.04 2091.23 2629.06 2090.33 2636.07 2089.44 2643.09 2088.51 2650.11 2087.53 2657.12 2086.55 2664.14 2085.53 2671.16 2084.46 2678.17 2083.39 2685.19 2082.27 2692.21 2081.09 2699.22 2079.92 2706.24 2078.7 2713.26 2077.41 2720.27 2076.12 2727.29 2074.78 2734.31 2073.37 2741.32 2071.96 2748.34 2070.5 2755.36 2068.96 2762.38 2067.41 2769.39 2065.81 2776.41 2064.13 2783.43 2062.44 2790.44 2060.69 2797.46 2058.85 2804.48 2057.01 2811.49 2055.09 2818.51 2053.08 2825.53 2051.08 2832.54 2048.99 2839.56 2046.8 2846.58 2044.61 2853.59 2042.33 2860.61 2039.95 2867.63 2037.56 2874.65 2035.09 2881.66 2032.5 2888.68 2029.91 2895.7 2027.22 2902.71 2024.41 2909.73 2021.6 2916.75 2018.68 2923.76 2015.64 2930.78 2012.6 2937.8 2009.44 2944.81 2006.16 2951.83 2002.88 2958.85 1999.47 2965.86 1995.94 2972.88 1992.41 2979.9 1988.75 2986.91 1984.97 2993.93 1981.19 3000.95 1977.27 3007.96 1973.24 3014.98 1969.2 3022 1965.03 3029.02 1960.75 3036.03 1956.46 3043.05 1952.05 3050.07 1947.53 3057.08 1943.01 3064.1 1938.37 3071.12 1933.64 3078.13 1928.92 3085.15 1924.07 3092.17 1919.16 3099.18 1914.26 3106.2 1909.25 3113.22 1904.21 3120.23 1899.17 3127.25 1894.05 3134.27 1888.94 3141.28 1883.83 3148.3 1878.65 3155.32 1873.54 3162.33 1868.43 3169.35 1863.28 3176.37 1858.25 3183.39 1853.23 3190.4 1848.21 3197.42 1843.37 3204.44 1838.53 3211.45 1833.74 3218.47 1829.2 3225.49 1824.66 3232.5 1820.24 3239.52 1816.13 3246.54 1812.02 3253.55 1808.08 3260.57 1804.54 3267.59 1801.01 3274.6 1797.71 3281.62 1794.9 3288.64 1792.09 3295.66 1789.6 3302.67 1787.68 3309.69 1785.77 3316.71 1784.25 3323.72 1783.41 3330.74 1782.58 3337.76 1782.23 3344.77 1782.68 3351.79 1783.14 3358.81 1784.17 3365.82 1786.14 3372.84 1788.12 3379.86 1790.77 3386.87 1794.52 3393.89 1798.27 3400.91 1802.83 3407.92 1808.65 3414.94 1814.46 3421.96 1821.23 3428.97 1829.41 3435.99 1837.59 3443.01 1846.9 3450.03 1857.73 3457.04 1868.56 3464.06 1880.71 3471.08 1894.38 3478.09 1908.05 3485.11 1923.24 3492.13 1939.74 3499.14 1956.24 3506.16 1974.4 3513.18 1993.38 3520.19 2012.36 3527.21 2032.95 3534.23 2053.63 3541.24 2074.32 3548.26 2096.26 3555.28 2117.47 3562.29 2138.68 3569.31 2160.5 3576.33 2180.91 3583.35 2201.32 3590.36 2221.52 3597.38 2239.94 3604.4 2258.36 3611.41 2275.83 3618.43 2291.44 3625.45 2307.05 3632.46 2321.22 3639.48 2333.61 3646.5 2346 3653.51 2356.71 3660.53 2365.78 3667.55 2374.84 3674.56 2382.19 3681.58 2388.01 3688.6 2393.83 3695.61 2397.99 3702.63 2400.68 3709.65 2403.38 3716.67 2404.5 3723.68 2404.18 3730.7 2403.87 3737.72 2402.05 3744.73 2398.78 3751.75 2395.51 3758.77 2390.78 3765.78 2384.56 3772.8 2378.33 3779.82 2370.65 3786.83 2361.44 3793.85 2352.23 3800.87 2341.52 3807.88 2329.3 3814.9 2317.07 3821.92 2303.28 3828.93 2288.09 3835.95 2272.9 3842.97 2256.09 3849.98 2238.14 3857 2220.19 3864.02 2200.65 3871.04 2180.41 3878.05 2160.17 3885.07 2138.5 3892.09 2116.71 3899.1 2094.92 3906.12 2072.07 3913.14 2049.67 3920.15 2027.27 3927.17 2004.34 3934.19 1982.3 3941.2 1960.26 3948.22 1938.29 3955.24 1917.43 3962.25 1896.57 3969.27 1876.29 3976.29 1857.15 3983.3 1838.01 3990.32 1819.78 3997.34 1802.59 4004.36 1785.41 4011.37 1769.27 4018.39 1754.04 4025.41 1738.81 4032.42 1724.64 4039.44 1711.21 4046.46 1697.79 4053.47 1685.33 4060.49 1673.49 4067.51 1661.65 4074.52 1650.66 4081.54 1640.17 4088.56 1629.68 4095.57 1619.9 4102.59 1610.54 4109.61 1601.17 4116.62 1592.4 4123.64 1583.97 4130.66 1575.54 4137.67 1567.6 4144.69 1559.94 4151.71 1552.29 4158.73 1545.04 4165.74 1538.03 4172.76 1531.02 4179.78 1524.36 4186.79 1517.9 4193.81 1511.45 4200.83 1505.28 4207.84 1499.31 4214.86 1493.34 4221.88 1487.61 4228.89 1482.07 4235.91 1476.52 4242.93 1471.2 4249.94 1466.04 4256.96 1460.88 4263.98 1455.93 4271 1451.13 4278.01 1446.33 4285.03 1441.72 4292.05 1437.25 4299.06 1432.79 4306.08 1428.5 4313.1 1424.35 4320.11 1420.21 4327.13 1416.22 4334.15 1412.38 4341.16 1408.53 4348.18 1404.84 4355.2 1401.27 4362.21 1397.71 4369.23 1394.3 4376.25 1391 4383.26 1387.71 4390.28 1384.55 4397.3 1381.51 4404.31 1378.47 4411.33 1375.56 4418.35 1372.76 4425.37 1369.96 4432.38 1367.28 4439.4 1364.71 4446.42 1362.13 4453.43 1359.67 4460.45 1357.3 4467.47 1354.93 4474.48 1352.77 4481.5 1350.5" stroke="#ED7D31" stroke-width="9.16667" stroke-linecap="round" stroke-linejoin="round" stroke-miterlimit="10" fill="none"/></g><g clip-path="url(#clip8)"><path d="M2397.5 2109.12C2404.52 2108.77 2411.53 2108.43 2418.55 2108.06 2425.57 2107.69 2432.58 2107.31 2439.6 2106.9 2446.62 2106.5 2453.63 2106.07 2460.65 2105.63 2467.67 2105.18 2474.69 2104.72 2481.7 2104.23 2488.72 2103.74 2495.74 2103.23 2502.75 2102.7 2509.77 2102.16 2516.79 2101.6 2523.8 2101.01 2530.82 2100.43 2537.84 2099.81 2544.85 2099.17 2551.87 2098.52 2558.89 2097.85 2565.9 2097.14 2572.92 2096.44 2579.94 2095.7 2586.95 2094.92 2593.97 2094.15 2600.99 2093.34 2608.01 2092.49 2615.02 2091.64 2622.04 2090.75 2629.06 2089.82 2636.07 2088.88 2643.09 2087.91 2650.11 2086.89 2657.12 2085.86 2664.14 2084.8 2671.16 2083.68 2678.17 2082.56 2685.19 2081.39 2692.21 2080.16 2699.22 2078.93 2706.24 2077.66 2713.26 2076.31 2720.27 2074.96 2727.29 2073.56 2734.31 2072.09 2741.32 2070.62 2748.34 2069.09 2755.36 2067.48 2762.38 2065.87 2769.39 2064.19 2776.41 2062.43 2783.43 2060.67 2790.44 2058.83 2797.46 2056.91 2804.48 2054.98 2811.49 2052.98 2818.51 2050.88 2825.53 2048.78 2832.54 2046.59 2839.56 2044.3 2846.58 2042.01 2853.59 2039.63 2860.61 2037.14 2867.63 2034.64 2874.65 2032.05 2881.66 2029.33 2888.68 2026.62 2895.7 2023.8 2902.71 2020.86 2909.73 2017.91 2916.75 2014.85 2923.76 2011.66 2930.78 2008.47 2937.8 2005.17 2944.81 2001.72 2951.83 1998.27 2958.85 1994.7 2965.86 1990.99 2972.88 1987.28 2979.9 1983.44 2986.91 1979.45 2993.93 1975.47 3000.95 1971.35 3007.96 1967.1 3014.98 1962.84 3022 1958.45 3029.02 1953.93 3036.03 1949.4 3043.05 1944.74 3050.07 1939.96 3057.08 1935.18 3064.1 1930.26 3071.12 1925.24 3078.13 1920.22 3085.15 1915.08 3092.17 1909.85 3099.18 1904.63 3106.2 1899.28 3113.22 1893.89 3120.23 1888.51 3127.25 1883.01 3134.27 1877.52 3141.28 1872.02 3148.3 1866.44 3155.32 1860.91 3162.33 1855.37 3169.35 1849.78 3176.37 1844.29 3183.39 1838.8 3190.4 1833.3 3197.42 1827.95 3204.44 1822.6 3211.45 1817.29 3218.47 1812.19 3225.49 1807.1 3232.5 1802.1 3239.52 1797.39 3246.54 1792.68 3253.55 1788.13 3260.57 1783.95 3267.59 1779.77 3274.6 1775.81 3281.62 1772.31 3288.64 1768.82 3295.66 1765.61 3302.67 1762.98 3309.69 1760.35 3316.71 1758.08 3323.72 1756.51 3330.74 1754.94 3337.76 1753.83 3344.77 1753.56 3351.79 1753.28 3358.81 1753.57 3365.82 1754.86 3372.84 1756.16 3379.86 1758.13 3386.87 1761.32 3393.89 1764.52 3400.91 1768.53 3407.92 1774.02 3414.94 1779.51 3421.96 1786 3428.97 1794.25 3435.99 1802.49 3443.01 1811.99 3450.03 1823.5 3457.04 1835.01 3464.06 1848.09 3471.08 1863.33 3478.09 1878.57 3485.11 1895.76 3492.13 1914.94 3499.14 1934.13 3506.16 1955.64 3513.18 1978.45 3520.19 2001.27 3527.21 2026.52 3534.23 2051.85 3541.24 2077.19 3548.26 2104.48 3555.28 2130.46 3562.29 2156.44 3569.31 2183.24 3576.33 2207.73 3583.35 2232.22 3590.36 2256.13 3597.38 2277.43 3604.4 2298.72 3611.41 2318.33 3618.43 2335.51 3625.45 2352.68 3632.46 2367.63 3639.48 2380.5 3646.5 2393.36 3653.51 2403.91 3660.53 2412.67 3667.55 2421.44 3674.56 2428.05 3681.58 2433.08 3688.6 2438.11 3695.61 2441.22 3702.63 2442.86 3709.65 2444.5 3716.67 2444.42 3723.68 2442.93 3730.7 2441.43 3737.72 2438.36 3744.73 2433.87 3751.75 2429.38 3758.77 2423.41 3765.78 2415.98 3772.8 2408.55 3779.82 2399.67 3786.83 2389.29 3793.85 2378.92 3800.87 2367.06 3807.88 2353.73 3814.9 2340.4 3821.92 2325.53 3828.93 2309.31 3835.95 2293.08 3842.97 2275.27 3849.98 2256.37 3857 2237.47 3864.02 2217.01 3871.04 2195.9 3878.05 2174.8 3885.07 2152.31 3892.09 2129.75 3899.1 2107.19 3906.12 2083.61 3913.14 2060.54 3920.15 2037.46 3927.17 2013.91 3934.19 1991.29 3941.2 1968.68 3948.22 1946.18 3955.24 1924.83 3962.25 1903.48 3969.27 1882.76 3976.29 1863.21 3983.3 1843.67 3990.32 1825.07 3997.34 1807.56 4004.36 1790.04 4011.37 1773.62 4018.39 1758.13 4025.41 1742.65 4032.42 1728.26 4039.44 1714.65 4046.46 1701.03 4053.47 1688.43 4060.49 1676.47 4067.51 1664.51 4074.52 1653.43 4081.54 1642.88 4088.56 1632.32 4095.57 1622.52 4102.59 1613.14 4109.61 1603.76 4116.62 1595 4123.64 1586.59 4130.66 1578.19 4137.67 1570.29 4144.69 1562.69 4151.71 1555.09 4158.73 1547.91 4165.74 1540.97 4172.76 1534.03 4179.78 1527.44 4186.79 1521.06 4193.81 1514.68 4200.83 1508.59 4207.84 1502.69 4214.86 1496.79 4221.88 1491.14 4228.89 1485.66 4235.91 1480.18 4242.93 1474.91 4249.94 1469.8 4256.96 1464.69 4263.98 1459.77 4271 1455.01 4278.01 1450.24 4285.03 1445.65 4292.05 1441.2 4299.06 1436.75 4306.08 1432.47 4313.1 1428.32 4320.11 1424.17 4327.13 1420.17 4334.15 1416.31 4341.16 1412.45 4348.18 1408.73 4355.2 1405.14 4362.21 1401.55 4369.23 1398.1 4376.25 1394.76 4383.26 1391.43 4390.28 1388.23 4397.3 1385.15 4404.31 1382.06 4411.33 1379.1 4418.35 1376.25 4425.37 1373.4 4432.38 1370.67 4439.4 1368.04 4446.42 1365.41 4453.43 1362.89 4460.45 1360.47 4467.47 1358.04 4474.48 1355.82 4481.5 1353.5" stroke="#A5A5A5" stroke-width="9.16667" stroke-linecap="round" stroke-linejoin="round" stroke-miterlimit="10" fill="none"/></g><g clip-path="url(#clip9)"><path d="M2397.5 2108.35C2404.52 2107.99 2411.53 2107.64 2418.55 2107.26 2425.57 2106.88 2432.58 2106.49 2439.6 2106.07 2446.62 2105.66 2453.63 2105.22 2460.65 2104.77 2467.67 2104.31 2474.69 2103.84 2481.7 2103.33 2488.72 2102.83 2495.74 2102.31 2502.75 2101.76 2509.77 2101.21 2516.79 2100.64 2523.8 2100.04 2530.82 2099.43 2537.84 2098.81 2544.85 2098.14 2551.87 2097.48 2558.89 2096.79 2565.9 2096.07 2572.92 2095.34 2579.94 2094.59 2586.95 2093.79 2593.97 2093 2600.99 2092.17 2608.01 2091.3 2615.02 2090.42 2622.04 2089.51 2629.06 2088.56 2636.07 2087.6 2643.09 2086.6 2650.11 2085.56 2657.12 2084.51 2664.14 2083.41 2671.16 2082.27 2678.17 2081.12 2685.19 2079.92 2692.21 2078.66 2699.22 2077.4 2706.24 2076.09 2713.26 2074.71 2720.27 2073.33 2727.29 2071.9 2734.31 2070.39 2741.32 2068.88 2748.34 2067.3 2755.36 2065.65 2762.38 2064 2769.39 2062.28 2776.41 2060.47 2783.43 2058.67 2790.44 2056.79 2797.46 2054.81 2804.48 2052.84 2811.49 2050.78 2818.51 2048.63 2825.53 2046.47 2832.54 2044.23 2839.56 2041.88 2846.58 2039.53 2853.59 2037.08 2860.61 2034.52 2867.63 2031.96 2874.65 2029.3 2881.66 2026.51 2888.68 2023.73 2895.7 2020.83 2902.71 2017.81 2909.73 2014.78 2916.75 2011.64 2923.76 2008.37 2930.78 2005.09 2937.8 2001.69 2944.81 1998.15 2951.83 1994.6 2958.85 1990.93 2965.86 1987.11 2972.88 1983.3 2979.9 1979.34 2986.91 1975.24 2993.93 1971.14 3000.95 1966.9 3007.96 1962.52 3014.98 1958.13 3022 1953.6 3029.02 1948.94 3036.03 1944.27 3043.05 1939.46 3050.07 1934.52 3057.08 1929.58 3064.1 1924.5 3071.12 1919.31 3078.13 1914.12 3085.15 1908.79 3092.17 1903.37 3099.18 1897.95 3106.2 1892.41 3113.22 1886.81 3120.23 1881.21 3127.25 1875.49 3134.27 1869.76 3141.28 1864.03 3148.3 1858.21 3155.32 1852.41 3162.33 1846.62 3169.35 1840.76 3176.37 1834.98 3183.39 1829.21 3190.4 1823.41 3197.42 1817.74 3204.44 1812.08 3211.45 1806.44 3218.47 1801 3225.49 1795.56 3232.5 1790.2 3239.52 1785.12 3246.54 1780.03 3253.55 1775.08 3260.57 1770.48 3267.59 1765.89 3274.6 1761.5 3281.62 1757.55 3288.64 1753.61 3295.66 1749.93 3302.67 1746.82 3309.69 1743.7 3316.71 1740.94 3323.72 1738.85 3330.74 1736.77 3337.76 1735.13 3344.77 1734.32 3351.79 1733.51 3358.81 1733.24 3365.82 1734.01 3372.84 1734.77 3379.86 1736.19 3386.87 1738.89 3393.89 1741.59 3400.91 1745.1 3407.92 1750.19 3414.94 1755.29 3421.96 1761.4 3428.97 1769.47 3435.99 1777.54 3443.01 1786.89 3450.03 1798.62 3457.04 1810.35 3464.06 1823.75 3471.08 1839.83 3478.09 1855.91 3485.11 1874.2 3492.13 1895.11 3499.14 1916.02 3506.16 1939.76 3513.18 1965.29 3520.19 1990.83 3527.21 2019.52 3534.23 2048.31 3541.24 2077.11 3548.26 2108.52 3555.28 2138.04 3562.29 2167.56 3569.31 2198.07 3576.33 2225.45 3583.35 2252.83 3590.36 2279.22 3597.38 2302.34 3604.4 2325.46 3611.41 2346.21 3618.43 2364.18 3625.45 2382.15 3632.46 2397.27 3639.48 2410.17 3646.5 2423.06 3653.51 2433.21 3660.53 2441.54 3667.55 2449.87 3674.56 2455.79 3681.58 2460.14 3688.6 2464.49 3695.61 2466.79 3702.63 2467.64 3709.65 2468.5 3716.67 2467.58 3723.68 2465.27 3730.7 2462.97 3737.72 2459.08 3744.73 2453.79 3751.75 2448.5 3758.77 2441.75 3765.78 2433.56 3772.8 2425.37 3779.82 2415.74 3786.83 2404.65 3793.85 2393.56 3800.87 2381.02 3807.88 2367.02 3814.9 2353.02 3821.92 2337.51 3828.93 2320.67 3835.95 2303.82 3842.97 2285.42 3849.98 2265.96 3857 2246.49 3864.02 2225.49 3871.04 2203.88 3878.05 2182.26 3885.07 2159.29 3892.09 2136.27 3899.1 2113.25 3906.12 2089.24 3913.14 2065.77 3920.15 2042.29 3927.17 2018.36 3934.19 1995.39 3941.2 1972.42 3948.22 1949.6 3955.24 1927.94 3962.25 1906.29 3969.27 1885.29 3976.29 1865.48 3983.3 1845.67 3990.32 1826.83 3997.34 1809.1 4004.36 1791.37 4011.37 1774.75 4018.39 1759.08 4025.41 1743.41 4032.42 1728.86 4039.44 1715.11 4046.46 1701.35 4053.47 1688.63 4060.49 1676.56 4067.51 1664.5 4074.52 1653.34 4081.54 1642.72 4088.56 1632.09 4095.57 1622.24 4102.59 1612.83 4109.61 1603.42 4116.62 1594.65 4123.64 1586.24 4130.66 1577.83 4137.67 1569.95 4144.69 1562.37 4151.71 1554.79 4158.73 1547.65 4165.74 1540.75 4172.76 1533.86 4179.78 1527.32 4186.79 1521 4193.81 1514.68 4200.83 1508.66 4207.84 1502.82 4214.86 1496.99 4221.88 1491.4 4228.89 1485.99 4235.91 1480.57 4242.93 1475.37 4249.94 1470.32 4256.96 1465.28 4263.98 1460.42 4271 1455.71 4278.01 1451 4285.03 1446.46 4292.05 1442.05 4299.06 1437.65 4306.08 1433.41 4313.1 1429.29 4320.11 1425.18 4327.13 1421.22 4334.15 1417.38 4341.16 1413.54 4348.18 1409.84 4355.2 1406.26 4362.21 1402.69 4369.23 1399.24 4376.25 1395.92 4383.26 1392.59 4390.28 1389.39 4397.3 1386.3 4404.31 1383.22 4411.33 1380.25 4418.35 1377.39 4425.37 1374.53 4432.38 1371.79 4439.4 1369.14 4446.42 1366.5 4453.43 1363.96 4460.45 1361.52 4467.47 1359.08 4474.48 1356.84 4481.5 1354.5" stroke="#FFC000" stroke-width="9.16667" stroke-linecap="round" stroke-linejoin="round" stroke-miterlimit="10" fill="none"/></g><g clip-path="url(#clip10)"><path d="M2397.5 2108.25C2404.52 2107.88 2411.53 2107.53 2418.55 2107.14 2425.57 2106.76 2432.58 2106.36 2439.6 2105.93 2446.62 2105.51 2453.63 2105.07 2460.65 2104.6 2467.67 2104.14 2474.69 2103.65 2481.7 2103.15 2488.72 2102.64 2495.74 2102.1 2502.75 2101.55 2509.77 2100.99 2516.79 2100.4 2523.8 2099.79 2530.82 2099.18 2537.84 2098.54 2544.85 2097.87 2551.87 2097.19 2558.89 2096.49 2565.9 2095.75 2572.92 2095.02 2579.94 2094.25 2586.95 2093.44 2593.97 2092.63 2600.99 2091.78 2608.01 2090.9 2615.02 2090.01 2622.04 2089.08 2629.06 2088.11 2636.07 2087.14 2643.09 2086.12 2650.11 2085.06 2657.12 2083.99 2664.14 2082.88 2671.16 2081.71 2678.17 2080.54 2685.19 2079.32 2692.21 2078.04 2699.22 2076.76 2706.24 2075.42 2713.26 2074.02 2720.27 2072.62 2727.29 2071.16 2734.31 2069.62 2741.32 2068.08 2748.34 2066.48 2755.36 2064.8 2762.38 2063.12 2769.39 2061.37 2776.41 2059.53 2783.43 2057.69 2790.44 2055.78 2797.46 2053.77 2804.48 2051.76 2811.49 2049.67 2818.51 2047.47 2825.53 2045.28 2832.54 2043 2839.56 2040.6 2846.58 2038.21 2853.59 2035.72 2860.61 2033.11 2867.63 2030.5 2874.65 2027.79 2881.66 2024.96 2888.68 2022.12 2895.7 2019.17 2902.71 2016.09 2909.73 2013.01 2916.75 2009.81 2923.76 2006.47 2930.78 2003.13 2937.8 1999.66 2944.81 1996.05 2951.83 1992.44 2958.85 1988.7 2965.86 1984.8 2972.88 1980.91 2979.9 1976.88 2986.91 1972.69 2993.93 1968.51 3000.95 1964.18 3007.96 1959.71 3014.98 1955.23 3022 1950.61 3029.02 1945.84 3036.03 1941.07 3043.05 1936.16 3050.07 1931.11 3057.08 1926.06 3064.1 1920.86 3071.12 1915.55 3078.13 1910.23 3085.15 1904.77 3092.17 1899.22 3099.18 1893.67 3106.2 1887.98 3113.22 1882.23 3120.23 1876.48 3127.25 1870.62 3134.27 1864.72 3141.28 1858.82 3148.3 1852.83 3155.32 1846.85 3162.33 1840.87 3169.35 1834.83 3176.37 1828.85 3183.39 1822.87 3190.4 1816.87 3197.42 1810.98 3204.44 1805.1 3211.45 1799.23 3218.47 1793.55 3225.49 1787.87 3232.5 1782.25 3239.52 1776.9 3246.54 1771.54 3253.55 1766.31 3260.57 1761.43 3267.59 1756.54 3274.6 1751.84 3281.62 1747.58 3288.64 1743.31 3295.66 1739.3 3302.67 1735.84 3309.69 1732.38 3316.71 1729.25 3323.72 1726.79 3330.74 1724.33 3337.76 1722.3 3344.77 1721.09 3351.79 1719.89 3358.81 1719.21 3365.82 1719.56 3372.84 1719.91 3379.86 1720.91 3386.87 1723.21 3393.89 1725.51 3400.91 1728.6 3407.92 1733.35 3414.94 1738.1 3421.96 1743.85 3428.97 1751.7 3435.99 1759.55 3443.01 1768.69 3450.03 1780.45 3457.04 1792.22 3464.06 1805.71 3471.08 1822.29 3478.09 1838.87 3485.11 1857.83 3492.13 1879.94 3499.14 1902.06 3506.16 1927.39 3513.18 1954.97 3520.19 1982.55 3527.21 2013.94 3534.23 2045.45 3541.24 2076.95 3548.26 2111.68 3555.28 2143.99 3562.29 2176.29 3569.31 2209.72 3576.33 2239.29 3583.35 2268.86 3590.36 2297.01 3597.38 2321.41 3604.4 2345.8 3611.41 2367.22 3618.43 2385.64 3625.45 2404.06 3632.46 2419.14 3639.48 2431.93 3646.5 2444.72 3653.51 2454.46 3660.53 2462.38 3667.55 2470.31 3674.56 2475.67 3681.58 2479.47 3688.6 2483.28 3695.61 2484.97 3702.63 2485.23 3709.65 2485.5 3716.67 2483.97 3723.68 2481.08 3730.7 2478.18 3737.72 2473.71 3744.73 2467.86 3751.75 2462.01 3758.77 2454.7 3765.78 2445.98 3772.8 2437.26 3779.82 2427.12 3786.83 2415.53 3793.85 2403.94 3800.87 2390.92 3807.88 2376.45 3814.9 2361.99 3821.92 2346.04 3828.93 2328.76 3835.95 2311.48 3842.97 2292.67 3849.98 2272.8 3857 2252.94 3864.02 2231.55 3871.04 2209.57 3878.05 2187.59 3885.07 2164.26 3892.09 2140.91 3899.1 2117.56 3906.12 2093.24 3913.14 2069.46 3920.15 2045.68 3927.17 2021.47 3934.19 1998.23 3941.2 1974.99 3948.22 1951.91 3955.24 1930.03 3962.25 1908.14 3969.27 1886.91 3976.29 1866.89 3983.3 1846.88 3990.32 1827.84 3997.34 1809.93 4004.36 1792.01 4011.37 1775.22 4018.39 1759.4 4025.41 1743.58 4032.42 1728.88 4039.44 1715 4046.46 1701.12 4053.47 1688.28 4060.49 1676.11 4067.51 1663.94 4074.52 1652.69 4081.54 1641.99 4088.56 1631.29 4095.57 1621.37 4102.59 1611.91 4109.61 1602.44 4116.62 1593.63 4123.64 1585.19 4130.66 1576.76 4137.67 1568.86 4144.69 1561.27 4151.71 1553.69 4158.73 1546.55 4165.74 1539.66 4172.76 1532.78 4179.78 1526.27 4186.79 1519.97 4193.81 1513.67 4200.83 1507.68 4207.84 1501.88 4214.86 1496.08 4221.88 1490.54 4228.89 1485.17 4235.91 1479.79 4242.93 1474.64 4249.94 1469.64 4256.96 1464.64 4263.98 1459.83 4271 1455.16 4278.01 1450.5 4285.03 1446 4292.05 1441.64 4299.06 1437.28 4306.08 1433.08 4313.1 1429 4320.11 1424.92 4327.13 1420.99 4334.15 1417.18 4341.16 1413.37 4348.18 1409.7 4355.2 1406.15 4362.21 1402.6 4369.23 1399.17 4376.25 1395.86 4383.26 1392.55 4390.28 1389.37 4397.3 1386.29 4404.31 1383.21 4411.33 1380.25 4418.35 1377.4 4425.37 1374.54 4432.38 1371.8 4439.4 1369.16 4446.42 1366.51 4453.43 1363.98 4460.45 1361.54 4467.47 1359.09 4474.48 1356.85 4481.5 1354.5" stroke="#5B9BD5" stroke-width="9.16667" stroke-linecap="round" stroke-linejoin="round" stroke-miterlimit="10" fill="none"/></g><g><text font-family="Calibri,Calibri_MSFontService,sans-serif" font-weight="400" font-size="64" transform="matrix(1 0 0 1 2253.32 2605)">-50</text></g><g><text font-family="Calibri,Calibri_MSFontService,sans-serif" font-weight="400" font-size="64" transform="matrix(1 0 0 1 2253.32 2511)">-40</text></g><g><text font-family="Calibri,Calibri_MSFontService,sans-serif" font-weight="400" font-size="64" transform="matrix(1 0 0 1 2253.32 2418)">-30</text></g><g><text font-family="Calibri,Calibri_MSFontService,sans-serif" font-weight="400" font-size="64" transform="matrix(1 0 0 1 2253.32 2325)">-20</text></g><g><text font-family="Calibri,Calibri_MSFontService,sans-serif" font-weight="400" font-size="64" transform="matrix(1 0 0 1 2253.32 2231)">-10</text></g><g><text font-family="Calibri,Calibri_MSFontService,sans-serif" font-weight="400" font-size="64" transform="matrix(1 0 0 1 2305.48 2138)">0</text></g><g><text font-family="Calibri,Calibri_MSFontService,sans-serif" font-weight="400" font-size="64" transform="matrix(1 0 0 1 2272.96 2045)">10</text></g><g><text font-family="Calibri,Calibri_MSFontService,sans-serif" font-weight="400" font-size="64" transform="matrix(1 0 0 1 2272.96 1951)">20</text></g><g><text font-family="Calibri,Calibri_MSFontService,sans-serif" font-weight="400" font-size="64" transform="matrix(1 0 0 1 2272.96 1858)">30</text></g><g><text font-family="Calibri,Calibri_MSFontService,sans-serif" font-weight="400" font-size="64" transform="matrix(1 0 0 1 2272.96 1764)">40</text></g><g><text font-family="Calibri,Calibri_MSFontService,sans-serif" font-weight="400" font-size="64" transform="matrix(1 0 0 1 2272.96 1671)">50</text></g><g><text font-family="Calibri,Calibri_MSFontService,sans-serif" font-weight="400" font-size="64" transform="matrix(1 0 0 1 2365.01 2688)">10</text></g><g><text font-family="Calibri,Calibri_MSFontService,sans-serif" font-weight="400" font-size="64" transform="matrix(1 0 0 1 2869.71 2688)">100</text></g><g><text font-family="Calibri,Calibri_MSFontService,sans-serif" font-weight="400" font-size="64" transform="matrix(1 0 0 1 3374.42 2688)">1000</text></g><g><text font-family="Calibri,Calibri_MSFontService,sans-serif" font-weight="400" font-size="64" transform="matrix(1 0 0 1 3879.12 2688)">10000</text></g><g><text font-family="Calibri,Calibri_MSFontService,sans-serif" font-weight="700" font-size="64" transform="matrix(6.12323e-17 -1 1 6.12323e-17 2222.25 2318)">Phase (degree)</text></g><g><text font-family="Calibri,Calibri_MSFontService,sans-serif" font-weight="700" font-size="64" transform="matrix(1 0 0 1 2980.38 2780)">Frequency (Hz)</text></g><rect x="2091.5" y="1589.5" width="1978" height="1275" stroke="#D9D9D9" stroke-width="3.4375" stroke-linejoin="round" stroke-miterlimit="10" fill="none"/><g><path d="M3376.34 1965.2 3374.24 1688.44 3381.11 1688.39 3383.21 1965.15ZM3363.96 1693.1 3377.5 1665.5 3391.46 1692.89Z" fill="#7F7F7F"/></g><g><text fill="#FF0000" font-family="Calibri,Calibri_MSFontService,sans-serif" font-weight="700" font-size="73" transform="matrix(1 0 0 1 3076.75 2028)">Increasing</text></g><g><text fill="#FF0000" font-family="Calibri,Calibri_MSFontService,sans-serif" font-weight="700" font-size="73" transform="matrix(1 0 0 1 3049.14 2117)">Load (Z</text></g><g><text fill="#FF0000" font-family="Calibri,Calibri_MSFontService,sans-serif" font-weight="700" font-size="49" transform="matrix(1 0 0 1 3269.59 2134)">Load1</text></g><g><text fill="#FF0000" font-family="Calibri,Calibri_MSFontService,sans-serif" font-weight="700" font-size="73" transform="matrix(1 0 0 1 3391.69 2117)">)</text></g><g><text fill="#FF0000" font-family="Calibri,Calibri_MSFontService,sans-serif" font-weight="700" font-size="73" transform="matrix(1 0 0 1 2914.68 2207)">Z1</text></g><g><text fill="#FF0000" font-family="Calibri,Calibri_MSFontService,sans-serif" font-weight="700" font-size="73" transform="matrix(1 0 0 1 2997.96 2207)">&lt; </text></g><g><text fill="#FF0000" font-family="Calibri,Calibri_MSFontService,sans-serif" font-weight="700" font-size="73" transform="matrix(1 0 0 1 3051.06 2207)">Z2</text></g><g><text fill="#FF0000" font-family="Calibri,Calibri_MSFontService,sans-serif" font-weight="700" font-size="73" transform="matrix(1 0 0 1 3150.91 2207)">&lt; Z3</text></g><g><text fill="#FF0000" font-family="Calibri,Calibri_MSFontService,sans-serif" font-weight="700" font-size="73" transform="matrix(1 0 0 1 3287.29 2207)">&lt; Z4</text></g><g><text fill="#FF0000" font-family="Calibri,Calibri_MSFontService,sans-serif" font-weight="700" font-size="73" transform="matrix(1 0 0 1 3423.66 2207)">&lt; Z5</text></g></g></svg>