<svg width="1983" height="2823" xmlns="http://www.w3.org/2000/svg" xmlns:xlink="http://www.w3.org/1999/xlink" xml:space="preserve" overflow="hidden"><defs><clipPath id="clip0"><rect x="6084" y="48" width="1983" height="2823"/></clipPath><clipPath id="clip1"><rect x="6388" y="1635" width="1571" height="975"/></clipPath><clipPath id="clip2"><rect x="6388" y="1635" width="1571" height="975"/></clipPath><clipPath id="clip3"><rect x="6388" y="1635" width="1571" height="975"/></clipPath><clipPath id="clip4"><rect x="6388" y="1635" width="1571" height="975"/></clipPath><clipPath id="clip5"><rect x="6388" y="1635" width="1571" height="975"/></clipPath><clipPath id="clip6"><rect x="6388" y="234" width="1569" height="1287"/></clipPath><clipPath id="clip7"><rect x="6388" y="234" width="1569" height="1287"/></clipPath><clipPath id="clip8"><rect x="6388" y="234" width="1569" height="1287"/></clipPath><clipPath id="clip9"><rect x="6388" y="234" width="1569" height="1287"/></clipPath><clipPath id="clip10"><rect x="6388" y="234" width="1569" height="1287"/></clipPath></defs><g clip-path="url(#clip0)" transform="translate(-6084 -48)"><rect x="6085" y="1564" width="1980" height="1305" fill="#FFFFFF"/><g><path d="M6388.5 2607.5 7956.5 2607.5M6388.5 2509.5 7956.5 2509.5M6388.5 2412.5 7956.5 2412.5M6388.5 2315.5 7956.5 2315.5M6388.5 2218.5 7956.5 2218.5M6388.5 2024.5 7956.5 2024.5M6388.5 1927.5 7956.5 1927.5M6388.5 1830.5 7956.5 1830.5M6388.5 1732.5 7956.5 1732.5M6388.5 1635.5 7956.5 1635.5" stroke="#D9D9D9" stroke-width="3.4375" stroke-linejoin="round" stroke-miterlimit="10" fill="none"/></g><g><path d="M6545.5 1635.5 6545.5 2607.5M6637.5 1635.5 6637.5 2607.5M6702.5 1635.5 6702.5 2607.5M6753.5 1635.5 6753.5 2607.5M6794.5 1635.5 6794.5 2607.5M6829.5 1635.5 6829.5 2607.5M6860.5 1635.5 6860.5 2607.5M6887.5 1635.5 6887.5 2607.5M7068.5 1635.5 7068.5 2607.5M7160.5 1635.5 7160.5 2607.5M7225.5 1635.5 7225.5 2607.5M7276.5 1635.5 7276.5 2607.5M7317.5 1635.5 7317.5 2607.5M7352.5 1635.5 7352.5 2607.5M7382.5 1635.5 7382.5 2607.5M7409.5 1635.5 7409.5 2607.5M7590.5 1635.5 7590.5 2607.5M7682.5 1635.5 7682.5 2607.5M7748.5 1635.5 7748.5 2607.5M7798.5 1635.5 7798.5 2607.5M7840.5 1635.5 7840.5 2607.5M7875.5 1635.5 7875.5 2607.5M7905.5 1635.5 7905.5 2607.5M7932.5 1635.5 7932.5 2607.5" stroke="#F2F2F2" stroke-width="3.4375" stroke-linejoin="round" stroke-miterlimit="10" fill="none"/></g><g><path d="M6910.5 1635.5 6910.5 2607.5M7433.5 1635.5 7433.5 2607.5M7956.5 1635.5 7956.5 2607.5" stroke="#D9D9D9" stroke-width="3.4375" stroke-linejoin="round" stroke-miterlimit="10" fill="none"/></g><g><path d="M0 0 0.000360892 972" stroke="#BFBFBF" stroke-width="3.4375" stroke-linejoin="round" stroke-miterlimit="10" fill="none" fill-rule="evenodd" transform="matrix(1 0 0 -1 6388.5 2607.5)"/></g><g><path d="M6388.5 2121.5 7956.5 2121.5" stroke="#BFBFBF" stroke-width="3.4375" stroke-linejoin="round" stroke-miterlimit="10" fill="none" fill-rule="evenodd"/></g><g clip-path="url(#clip1)"><path d="M6388.31 2115.43C6395.35 2115.23 6402.39 2115.05 6409.43 2114.84 6416.47 2114.63 6423.51 2114.42 6430.54 2114.19 6437.58 2113.97 6444.62 2113.73 6451.66 2113.49 6458.7 2113.24 6465.74 2112.98 6472.78 2112.71 6479.81 2112.44 6486.85 2112.15 6493.89 2111.85 6500.93 2111.56 6507.97 2111.25 6515.01 2110.92 6522.04 2110.59 6529.08 2110.25 6536.12 2109.89 6543.16 2109.53 6550.2 2109.16 6557.24 2108.76 6564.27 2108.37 6571.31 2107.96 6578.35 2107.52 6585.39 2107.09 6592.43 2106.64 6599.47 2106.17 6606.5 2105.69 6613.54 2105.2 6620.58 2104.68 6627.62 2104.15 6634.66 2103.61 6641.7 2103.04 6648.73 2102.47 6655.77 2101.87 6662.81 2101.25 6669.85 2100.62 6676.89 2099.97 6683.93 2099.28 6690.97 2098.59 6698 2097.87 6705.04 2097.12 6712.08 2096.37 6719.12 2095.58 6726.16 2094.75 6733.2 2093.92 6740.23 2093.06 6747.27 2092.16 6754.31 2091.25 6761.35 2090.3 6768.39 2089.31 6775.43 2088.31 6782.46 2087.28 6789.5 2086.19 6796.54 2085.09 6803.58 2083.96 6810.62 2082.76 6817.66 2081.57 6824.7 2080.32 6831.73 2079.01 6838.77 2077.7 6845.81 2076.34 6852.85 2074.9 6859.89 2073.47 6866.93 2071.97 6873.96 2070.4 6881 2068.83 6888.04 2067.19 6895.08 2065.47 6902.12 2063.75 6909.16 2061.96 6916.19 2060.08 6923.23 2058.2 6930.27 2056.24 6937.31 2054.19 6944.35 2052.13 6951.39 2049.99 6958.42 2047.75 6965.46 2045.5 6972.5 2043.17 6979.54 2040.72 6986.58 2038.27 6993.62 2035.72 7000.66 2033.05 7007.69 2030.38 7014.73 2027.6 7021.77 2024.7 7028.81 2021.79 7035.85 2018.77 7042.89 2015.61 7049.92 2012.46 7056.96 2009.18 7064 2005.75 7071.04 2002.33 7078.08 1998.78 7085.12 1995.07 7092.15 1991.37 7099.19 1987.53 7106.23 1983.54 7113.27 1979.54 7120.31 1975.4 7127.35 1971.11 7134.38 1966.82 7141.42 1962.37 7148.46 1957.77 7155.5 1953.18 7162.54 1948.42 7169.58 1943.52 7176.61 1938.63 7183.65 1933.57 7190.69 1928.38 7197.73 1923.19 7204.77 1917.84 7211.81 1912.37 7218.85 1906.91 7225.88 1901.29 7232.92 1895.58 7239.96 1889.87 7247 1884.03 7254.04 1878.12 7261.08 1872.21 7268.11 1866.18 7275.15 1860.13 7282.19 1854.08 7289.23 1847.94 7296.27 1841.83 7303.31 1835.72 7310.34 1829.55 7317.38 1823.48 7324.42 1817.41 7331.46 1811.32 7338.5 1805.41 7345.54 1799.51 7352.57 1793.63 7359.61 1788.04 7366.65 1782.46 7373.69 1776.96 7380.73 1771.88 7387.77 1766.79 7394.81 1761.88 7401.84 1757.52 7408.88 1753.17 7415.92 1749.08 7422.96 1745.74 7430 1742.41 7437.04 1739.45 7444.07 1737.5 7451.11 1735.55 7458.15 1734.13 7465.19 1734.06 7472.23 1733.98 7479.27 1734.61 7486.3 1737.08 7493.34 1739.55 7500.38 1742.95 7507.42 1748.87 7514.46 1754.79 7521.5 1762 7528.53 1772.6 7535.57 1783.2 7542.61 1795.68 7549.65 1812.48 7556.69 1829.27 7563.73 1848.99 7570.77 1873.37 7577.8 1897.75 7584.84 1926.69 7591.88 1958.76 7598.92 1990.84 7605.96 2028.79 7613 2065.82 7620.03 2102.85 7627.07 2144.47 7634.11 2180.95 7641.15 2217.43 7648.19 2254.19 7655.23 2284.69 7662.26 2315.19 7669.3 2342.04 7676.34 2363.96 7683.38 2385.87 7690.42 2402.74 7697.46 2416.18 7704.49 2429.61 7711.53 2438.36 7718.57 2444.55 7725.61 2450.74 7732.65 2453.11 7739.69 2453.32 7746.73 2453.54 7753.76 2450.67 7760.8 2445.84 7767.84 2441.01 7774.88 2433.61 7781.92 2424.33 7788.96 2415.05 7795.99 2403.5 7803.03 2390.16 7810.07 2376.81 7817.11 2361.34 7824.15 2344.26 7831.19 2327.17 7838.22 2308.04 7845.26 2287.64 7852.3 2267.24 7859.34 2244.91 7866.38 2221.87 7873.42 2198.82 7880.45 2174.1 7887.49 2149.36 7894.53 2124.62 7901.57 2098.7 7908.61 2073.43 7915.65 2048.15 7922.69 2022.37 7929.72 1997.72 7936.76 1973.06 7943.8 1948.61 7950.84 1925.5 7957.88 1902.39 7964.92 1880.06 7971.95 1859.06 7978.99 1838.06 7986.03 1818.18 7993.07 1799.51 8000.11 1780.83 8007.15 1763.4 8014.18 1746.99 8021.22 1730.58 8028.26 1715.4 8035.3 1701.05 8042.34 1686.7 8049.38 1673.46 8056.41 1660.9 8063.45 1648.34 8070.49 1636.74 8077.53 1625.69 8084.57 1614.64 8091.61 1604.4 8098.65 1594.6 8105.68 1584.8 8112.72 1575.67 8119.76 1566.9 8126.8 1558.13 8133.84 1549.91 8140.88 1541.99 8147.91 1534.07 8154.95 1526.59 8161.99 1519.36 8169.03 1512.14 8176.07 1505.28 8183.11 1498.64 8190.14 1492.01 8197.18 1485.67 8204.22 1479.53 8211.26 1473.39 8218.3 1467.51 8225.34 1461.81 8232.38 1456.11 8239.41 1450.63 8246.45 1445.31 8253.49 1440 8260.53 1434.89 8267.57 1429.93 8274.6 1424.97 8281.64 1420.2 8288.68 1415.57 8295.72 1410.94 8302.76 1406.49 8309.8 1402.17 8316.83 1397.86 8323.87 1393.7 8330.91 1389.69 8337.95 1385.67 8344.99 1381.8 8352.03 1378.07 8359.07 1374.33 8366.1 1370.74 8373.14 1367.28 8380.18 1363.81 8387.22 1360.48 8394.26 1357.28 8401.3 1354.07 8408.33 1350.99 8415.37 1348.02 8422.41 1345.06 8429.45 1342.22 8436.49 1339.48 8443.53 1336.75 8450.57 1334.13 8457.6 1331.61 8464.64 1329.09 8475.2 1325.57 8478.72 1324.36" stroke="#4472C4" stroke-width="9.16667" stroke-linecap="round" stroke-linejoin="round" stroke-miterlimit="10" fill="none"/></g><g clip-path="url(#clip2)"><path d="M6388.31 2113.45C6395.35 2113.19 6402.39 2112.94 6409.43 2112.66 6416.47 2112.39 6423.51 2112.11 6430.54 2111.81 6437.58 2111.51 6444.62 2111.19 6451.66 2110.87 6458.7 2110.54 6465.74 2110.19 6472.78 2109.83 6479.81 2109.47 6486.85 2109.09 6493.89 2108.7 6500.93 2108.3 6507.97 2107.89 6515.01 2107.46 6522.04 2107.02 6529.08 2106.57 6536.12 2106.09 6543.16 2105.61 6550.2 2105.12 6557.24 2104.59 6564.27 2104.07 6571.31 2103.52 6578.35 2102.95 6585.39 2102.38 6592.43 2101.78 6599.47 2101.15 6606.5 2100.52 6613.54 2099.86 6620.58 2099.17 6627.62 2098.48 6634.66 2097.76 6641.7 2097 6648.73 2096.24 6655.77 2095.45 6662.81 2094.62 6669.85 2093.79 6676.89 2092.92 6683.93 2092.01 6690.97 2091.1 6698 2090.15 6705.04 2089.15 6712.08 2088.15 6719.12 2087.11 6726.16 2086.02 6733.2 2084.92 6740.23 2083.78 6747.27 2082.58 6754.31 2081.38 6761.35 2080.13 6768.39 2078.81 6775.43 2077.5 6782.46 2076.13 6789.5 2074.69 6796.54 2073.24 6803.58 2071.74 6810.62 2070.17 6817.66 2068.59 6824.7 2066.95 6831.73 2065.22 6838.77 2063.5 6845.81 2061.7 6852.85 2059.81 6859.89 2057.93 6866.93 2055.96 6873.96 2053.9 6881 2051.84 6888.04 2049.69 6895.08 2047.44 6902.12 2045.19 6909.16 2042.85 6916.19 2040.4 6923.23 2037.94 6930.27 2035.39 6937.31 2032.71 6944.35 2030.04 6951.39 2027.26 6958.42 2024.35 6965.46 2021.45 6972.5 2018.43 6979.54 2015.27 6986.58 2012.11 6993.62 2008.84 7000.66 2005.42 7007.69 2002 7014.73 1998.45 7021.77 1994.76 7028.81 1991.06 7035.85 1987.23 7042.89 1983.26 7049.92 1979.28 7056.96 1975.16 7064 1970.89 7071.04 1966.62 7078.08 1962.2 7085.12 1957.64 7092.15 1953.08 7099.19 1948.36 7106.23 1943.51 7113.27 1938.66 7120.31 1933.66 7127.35 1928.53 7134.38 1923.4 7141.42 1918.13 7148.46 1912.75 7155.5 1907.36 7162.54 1901.84 7169.58 1896.24 7176.61 1890.63 7183.65 1884.9 7190.69 1879.12 7197.73 1873.35 7204.77 1867.46 7211.81 1861.57 7218.85 1855.68 7225.88 1849.7 7232.92 1843.78 7239.96 1837.85 7247 1831.88 7254.04 1826.02 7261.08 1820.15 7268.11 1814.28 7275.15 1808.6 7282.19 1802.91 7289.23 1797.27 7296.27 1791.9 7303.31 1786.53 7310.34 1781.27 7317.38 1776.37 7324.42 1771.48 7331.46 1766.76 7338.5 1762.53 7345.54 1758.29 7352.57 1754.32 7359.61 1750.97 7366.65 1747.62 7373.69 1744.62 7380.73 1742.42 7387.77 1740.22 7394.81 1738.48 7401.84 1737.75 7408.88 1737.03 7415.92 1736.9 7422.96 1738.06 7430 1739.22 7437.04 1741.15 7444.07 1744.73 7451.11 1748.32 7458.15 1752.88 7465.19 1759.57 7472.23 1766.27 7479.27 1774.24 7486.3 1784.89 7493.34 1795.55 7500.38 1807.93 7507.42 1823.51 7514.46 1839.09 7521.5 1857.06 7528.53 1878.35 7535.57 1899.64 7542.61 1924.22 7549.65 1951.25 7556.69 1978.28 7563.73 2009.27 7570.77 2040.51 7577.8 2071.75 7584.84 2106.45 7591.88 2138.68 7598.92 2170.9 7605.96 2204.43 7613 2233.86 7620.03 2263.29 7627.07 2291.31 7634.11 2315.24 7641.15 2339.17 7648.19 2359.96 7655.23 2377.44 7662.26 2394.92 7669.3 2408.81 7676.34 2420.13 7683.38 2431.44 7690.42 2439.44 7697.46 2445.34 7704.49 2451.23 7711.53 2454.3 7718.57 2455.52 7725.61 2456.74 7732.65 2455.56 7739.69 2452.66 7746.73 2449.75 7753.76 2444.76 7760.8 2438.08 7767.84 2431.39 7774.88 2422.81 7781.92 2412.54 7788.96 2402.28 7795.99 2390.2 7803.03 2376.47 7810.07 2362.75 7817.11 2347.22 7824.15 2330.2 7831.19 2313.18 7838.22 2294.34 7845.26 2274.32 7852.3 2254.3 7859.34 2232.54 7866.38 2210.08 7873.42 2187.63 7880.45 2163.64 7887.49 2139.6 7894.53 2115.56 7901.57 2090.41 7908.61 2065.84 7915.65 2041.27 7922.69 2016.2 7929.72 1992.17 7936.76 1968.14 7943.8 1944.27 7950.84 1921.66 7957.88 1899.06 7964.92 1877.15 7971.95 1856.52 7978.99 1835.9 7986.03 1816.31 7993.07 1797.89 8000.11 1779.47 8007.15 1762.23 8014.18 1745.99 8021.22 1729.75 8028.26 1714.68 8035.3 1700.44 8042.34 1686.2 8049.38 1673.03 8056.41 1660.54 8063.45 1648.04 8070.49 1636.49 8077.53 1625.48 8084.57 1614.47 8091.61 1604.25 8098.65 1594.48 8105.68 1584.7 8112.72 1575.59 8119.76 1566.83 8126.8 1558.08 8133.84 1549.86 8140.88 1541.95 8147.91 1534.03 8154.95 1526.56 8161.99 1519.34 8169.03 1512.12 8176.07 1505.27 8183.11 1498.63 8190.14 1492 8197.18 1485.66 8204.22 1479.53 8211.26 1473.39 8218.3 1467.51 8225.34 1461.81 8232.38 1456.1 8239.41 1450.62 8246.45 1445.31 8253.49 1440 8260.53 1434.88 8267.57 1429.93 8274.6 1424.97 8281.64 1420.19 8288.68 1415.57 8295.72 1410.94 8302.76 1406.49 8309.8 1402.17 8316.83 1397.86 8323.87 1393.7 8330.91 1389.68 8337.95 1385.67 8344.99 1381.8 8352.03 1378.07 8359.07 1374.33 8366.1 1370.74 8373.14 1367.28 8380.18 1363.81 8387.22 1360.48 8394.26 1357.27 8401.3 1354.07 8408.33 1350.99 8415.37 1348.02 8422.41 1345.06 8429.45 1342.22 8436.49 1339.48 8443.53 1336.75 8450.57 1334.13 8457.6 1331.61 8464.64 1329.09 8475.2 1325.57 8478.72 1324.36" stroke="#ED7D31" stroke-width="9.16667" stroke-linecap="round" stroke-linejoin="round" stroke-miterlimit="10" fill="none"/></g><g clip-path="url(#clip3)"><path d="M6388.31 2110.17C6395.35 2109.8 6402.39 2109.46 6409.43 2109.07 6416.47 2108.69 6423.51 2108.28 6430.54 2107.86 6437.58 2107.44 6444.62 2107 6451.66 2106.54 6458.7 2106.07 6465.74 2105.59 6472.78 2105.08 6479.81 2104.58 6486.85 2104.05 6493.89 2103.49 6500.93 2102.93 6507.97 2102.35 6515.01 2101.74 6522.04 2101.13 6529.08 2100.49 6536.12 2099.82 6543.16 2099.15 6550.2 2098.45 6557.24 2097.71 6564.27 2096.98 6571.31 2096.21 6578.35 2095.4 6585.39 2094.6 6592.43 2093.76 6599.47 2092.87 6606.5 2091.99 6613.54 2091.06 6620.58 2090.09 6627.62 2089.12 6634.66 2088.11 6641.7 2087.05 6648.73 2085.98 6655.77 2084.88 6662.81 2083.71 6669.85 2082.54 6676.89 2081.33 6683.93 2080.05 6690.97 2078.78 6698 2077.45 6705.04 2076.05 6712.08 2074.65 6719.12 2073.19 6726.16 2071.66 6733.2 2070.13 6740.23 2068.54 6747.27 2066.86 6754.31 2065.19 6761.35 2063.44 6768.39 2061.61 6775.43 2059.78 6782.46 2057.87 6789.5 2055.87 6796.54 2053.87 6803.58 2051.79 6810.62 2049.6 6817.66 2047.42 6824.7 2045.15 6831.73 2042.76 6838.77 2040.38 6845.81 2037.9 6852.85 2035.31 6859.89 2032.71 6866.93 2030.02 6873.96 2027.2 6881 2024.37 6888.04 2021.44 6895.08 2018.38 6902.12 2015.32 6909.16 2012.14 6916.19 2008.82 6923.23 2005.5 6930.27 2002.06 6937.31 1998.48 6944.35 1994.89 6951.39 1991.18 6958.42 1987.32 6965.46 1983.46 6972.5 1979.46 6979.54 1975.32 6986.58 1971.18 6993.62 1966.9 7000.66 1962.47 7007.69 1958.05 7014.73 1953.48 7021.77 1948.78 7028.81 1944.07 7035.85 1939.22 7042.89 1934.25 7049.92 1929.28 7056.96 1924.16 7064 1918.95 7071.04 1913.73 7078.08 1908.37 7085.12 1902.94 7092.15 1897.51 7099.19 1891.95 7106.23 1886.35 7113.27 1880.74 7120.31 1875.03 7127.35 1869.31 7134.38 1863.6 7141.42 1857.8 7148.46 1852.04 7155.5 1846.28 7162.54 1840.47 7169.58 1834.76 7176.61 1829.05 7183.65 1823.33 7190.69 1817.76 7197.73 1812.2 7204.77 1806.68 7211.81 1801.38 7218.85 1796.09 7225.88 1790.88 7232.92 1785.99 7239.96 1781.09 7247 1776.35 7254.04 1772.01 7261.08 1767.66 7268.11 1763.54 7275.15 1759.9 7282.19 1756.27 7289.23 1752.94 7296.27 1750.2 7303.31 1747.46 7310.34 1745.11 7317.38 1743.48 7324.42 1741.85 7331.46 1740.69 7338.5 1740.41 7345.54 1740.12 7352.57 1740.42 7359.61 1741.76 7366.65 1743.11 7373.69 1745.16 7380.73 1748.48 7387.77 1751.8 7394.81 1755.98 7401.84 1761.68 7408.88 1767.39 7415.92 1774.14 7422.96 1782.72 7430 1791.29 7437.04 1801.17 7444.07 1813.14 7451.11 1825.11 7458.15 1838.71 7465.19 1854.56 7472.23 1870.41 7479.27 1888.28 7486.3 1908.24 7493.34 1928.19 7500.38 1950.55 7507.42 1974.28 7514.46 1998.01 7521.5 2024.27 7528.53 2050.62 7535.57 2076.96 7542.61 2105.35 7549.65 2132.36 7556.69 2159.38 7563.73 2187.25 7570.77 2212.72 7577.8 2238.19 7584.84 2263.05 7591.88 2285.2 7598.92 2307.34 7605.96 2327.73 7613 2345.6 7620.03 2363.46 7627.07 2379.01 7634.11 2392.38 7641.15 2405.76 7648.19 2416.73 7655.23 2425.85 7662.26 2434.96 7669.3 2441.84 7676.34 2447.07 7683.38 2452.3 7690.42 2455.53 7697.46 2457.24 7704.49 2458.95 7711.53 2458.87 7718.57 2457.31 7725.61 2455.75 7732.65 2452.56 7739.69 2447.89 7746.73 2443.22 7753.76 2437.02 7760.8 2429.29 7767.84 2421.56 7774.88 2412.32 7781.92 2401.53 7788.96 2390.74 7795.99 2378.42 7803.03 2364.55 7810.07 2350.69 7817.11 2335.23 7824.15 2318.35 7831.19 2301.48 7838.22 2282.95 7845.26 2263.3 7852.3 2243.64 7859.34 2222.37 7866.38 2200.42 7873.42 2178.47 7880.45 2155.09 7887.49 2131.62 7894.53 2108.16 7901.57 2083.64 7908.61 2059.65 7915.65 2035.65 7922.69 2011.16 7929.72 1987.64 7936.76 1964.12 7943.8 1940.72 7950.84 1918.52 7957.88 1896.32 7964.92 1874.76 7971.95 1854.44 7978.99 1834.11 7986.03 1814.77 7993.07 1796.56 8000.11 1778.35 8007.15 1761.27 8014.18 1745.16 8021.22 1729.06 8028.26 1714.09 8035.3 1699.94 8042.34 1685.78 8049.38 1672.68 8056.41 1660.24 8063.45 1647.8 8070.49 1636.28 8077.53 1625.3 8084.57 1614.32 8091.61 1604.13 8098.65 1594.37 8105.68 1584.62 8112.72 1575.51 8119.76 1566.77 8126.8 1558.03 8133.84 1549.82 8140.88 1541.91 8147.91 1534 8154.95 1526.54 8161.99 1519.32 8169.03 1512.1 8176.07 1505.25 8183.11 1498.62 8190.14 1491.99 8197.18 1485.66 8204.22 1479.52 8211.26 1473.38 8218.3 1467.5 8225.34 1461.8 8232.38 1456.1 8239.41 1450.62 8246.45 1445.31 8253.49 1440 8260.53 1434.88 8267.57 1429.93 8274.6 1424.97 8281.64 1420.19 8288.68 1415.57 8295.72 1410.94 8302.76 1406.48 8309.8 1402.17 8316.83 1397.86 8323.87 1393.7 8330.91 1389.68 8337.95 1385.67 8344.99 1381.8 8352.03 1378.07 8359.07 1374.33 8366.1 1370.74 8373.14 1367.28 8380.18 1363.81 8387.22 1360.48 8394.26 1357.27 8401.3 1354.07 8408.33 1350.99 8415.37 1348.02 8422.41 1345.06 8429.45 1342.22 8436.49 1339.48 8443.53 1336.75 8450.57 1334.13 8457.6 1331.61 8464.64 1329.09 8475.2 1325.57 8478.72 1324.36" stroke="#A5A5A5" stroke-width="9.16667" stroke-linecap="round" stroke-linejoin="round" stroke-miterlimit="10" fill="none"/></g><g clip-path="url(#clip4)"><path d="M6388.31 2104.18C6395.35 2103.62 6402.39 2103.09 6409.43 2102.5 6416.47 2101.91 6423.51 2101.3 6430.54 2100.66 6437.58 2100.01 6444.62 2099.34 6451.66 2098.63 6458.7 2097.92 6465.74 2097.19 6472.78 2096.41 6479.81 2095.64 6486.85 2094.83 6493.89 2093.98 6500.93 2093.13 6507.97 2092.24 6515.01 2091.31 6522.04 2090.37 6529.08 2089.4 6536.12 2088.38 6543.16 2087.36 6550.2 2086.29 6557.24 2085.17 6564.27 2084.05 6571.31 2082.88 6578.35 2081.66 6585.39 2080.43 6592.43 2079.15 6599.47 2077.8 6606.5 2076.46 6613.54 2075.06 6620.58 2073.59 6627.62 2072.11 6634.66 2070.58 6641.7 2068.97 6648.73 2067.36 6655.77 2065.68 6662.81 2063.92 6669.85 2062.16 6676.89 2060.33 6683.93 2058.4 6690.97 2056.48 6698 2054.47 6705.04 2052.37 6712.08 2050.27 6719.12 2048.08 6726.16 2045.79 6733.2 2043.5 6740.23 2041.12 6747.27 2038.62 6754.31 2036.12 6761.35 2033.53 6768.39 2030.81 6775.43 2028.1 6782.46 2025.28 6789.5 2022.33 6796.54 2019.38 6803.58 2016.32 6810.62 2013.13 6817.66 2009.93 6824.7 2006.62 6831.73 2003.17 6838.77 1999.72 6845.81 1996.14 6852.85 1992.42 6859.89 1988.71 6866.93 1984.85 6873.96 1980.86 6881 1976.87 6888.04 1972.74 6895.08 1968.48 6902.12 1964.21 6909.16 1959.8 6916.19 1955.26 6923.23 1950.72 6930.27 1946.04 6937.31 1941.24 6944.35 1936.44 6951.39 1931.5 6958.42 1926.45 6965.46 1921.41 6972.5 1916.23 6979.54 1910.97 6986.58 1905.71 6993.62 1900.33 7000.66 1894.9 7007.69 1889.46 7014.73 1883.93 7021.77 1878.37 7028.81 1872.82 7035.85 1867.18 7042.89 1861.57 7049.92 1855.96 7056.96 1850.3 7064 1844.71 7071.04 1839.13 7078.08 1833.53 7085.12 1828.06 7092.15 1822.59 7099.19 1817.15 7106.23 1811.9 7113.27 1806.65 7120.31 1801.48 7127.35 1796.57 7134.38 1791.65 7141.42 1786.88 7148.46 1782.42 7155.5 1777.96 7162.54 1773.7 7169.58 1769.83 7176.61 1765.97 7183.65 1762.35 7190.69 1759.21 7197.73 1756.07 7204.77 1753.24 7211.81 1750.97 7218.85 1748.69 7225.88 1746.8 7232.92 1745.54 7239.96 1744.28 7247 1743.48 7254.04 1743.39 7261.08 1743.3 7268.11 1743.76 7275.15 1745.02 7282.19 1746.28 7289.23 1748.16 7296.27 1750.97 7303.31 1753.77 7310.34 1757.28 7317.38 1761.83 7324.42 1766.38 7331.46 1771.75 7338.5 1778.28 7345.54 1784.81 7352.57 1792.27 7359.61 1801.03 7366.65 1809.78 7373.69 1819.59 7380.73 1830.79 7387.77 1841.98 7394.81 1854.39 7401.84 1868.19 7408.88 1881.99 7415.92 1897.15 7422.96 1913.56 7430 1929.98 7437.04 1947.86 7444.07 1966.67 7451.11 1985.48 7458.15 2005.75 7465.19 2026.4 7472.23 2047.06 7479.27 2068.97 7486.3 2090.6 7493.34 2112.23 7500.38 2134.66 7507.42 2156.18 7514.46 2177.71 7521.5 2199.4 7528.53 2219.74 7535.57 2240.08 7542.61 2259.94 7549.65 2278.23 7556.69 2296.51 7563.73 2313.79 7570.77 2329.47 7577.8 2345.15 7584.84 2359.49 7591.88 2372.31 7598.92 2385.14 7605.96 2396.49 7613 2406.43 7620.03 2416.37 7627.07 2424.82 7634.11 2431.96 7641.15 2439.1 7648.19 2444.81 7655.23 2449.27 7662.26 2453.73 7669.3 2456.84 7676.34 2458.72 7683.38 2460.61 7690.42 2461.22 7697.46 2460.6 7704.49 2459.98 7711.53 2458.12 7718.57 2455 7725.61 2451.87 7732.65 2447.53 7739.69 2441.86 7746.73 2436.19 7753.76 2429.29 7760.8 2420.98 7767.84 2412.68 7774.88 2403.08 7781.92 2392.03 7788.96 2380.98 7795.99 2368.55 7803.03 2354.67 7810.07 2340.79 7817.11 2325.45 7824.15 2308.74 7831.19 2292.04 7838.22 2273.8 7845.26 2254.46 7852.3 2235.13 7859.34 2214.26 7866.38 2192.73 7873.42 2171.2 7880.45 2148.3 7887.49 2125.3 7894.53 2102.3 7901.57 2078.28 7908.61 2054.73 7915.65 2031.19 7922.69 2007.16 7929.72 1984.04 7936.76 1960.91 7943.8 1937.89 7950.84 1916.01 7957.88 1894.13 7964.92 1872.86 7971.95 1852.77 7978.99 1832.68 7986.03 1813.53 7993.07 1795.49 8000.11 1777.44 8007.15 1760.49 8014.18 1744.5 8021.22 1728.5 8028.26 1713.61 8035.3 1699.53 8042.34 1685.45 8049.38 1672.39 8056.41 1659.99 8063.45 1647.6 8070.49 1636.11 8077.53 1625.16 8084.57 1614.2 8091.61 1604.03 8098.65 1594.29 8105.68 1584.55 8112.72 1575.45 8119.76 1566.72 8126.8 1557.99 8133.84 1549.79 8140.88 1541.88 8147.91 1533.98 8154.95 1526.52 8161.99 1519.3 8169.03 1512.09 8176.07 1505.24 8183.11 1498.61 8190.14 1491.98 8197.18 1485.65 8204.22 1479.51 8211.26 1473.38 8218.3 1467.5 8225.34 1461.8 8232.38 1456.1 8239.41 1450.62 8246.45 1445.31 8253.49 1440 8260.53 1434.88 8267.57 1429.93 8274.6 1424.97 8281.64 1420.19 8288.68 1415.57 8295.72 1410.94 8302.76 1406.48 8309.8 1402.17 8316.83 1397.86 8323.87 1393.7 8330.91 1389.68 8337.95 1385.67 8344.99 1381.8 8352.03 1378.07 8359.07 1374.33 8366.1 1370.74 8373.14 1367.28 8380.18 1363.81 8387.22 1360.48 8394.26 1357.27 8401.3 1354.07 8408.33 1350.99 8415.37 1348.02 8422.41 1345.06 8429.45 1342.22 8436.49 1339.48 8443.53 1336.75 8450.57 1334.13 8457.6 1331.61 8464.64 1329.09 8475.2 1325.57 8478.72 1324.36" stroke="#FFC000" stroke-width="9.16667" stroke-linecap="round" stroke-linejoin="round" stroke-miterlimit="10" fill="none"/></g><g clip-path="url(#clip5)"><path d="M6388.31 2091.45C6395.35 2090.48 6402.39 2089.55 6409.43 2088.53 6416.47 2087.52 6423.51 2086.46 6430.54 2085.34 6437.58 2084.23 6444.62 2083.06 6451.66 2081.84 6458.7 2080.62 6465.74 2079.35 6472.78 2078.01 6479.81 2076.67 6486.85 2075.28 6493.89 2073.81 6500.93 2072.35 6507.97 2070.82 6515.01 2069.22 6522.04 2067.62 6529.08 2065.95 6536.12 2064.2 6543.16 2062.45 6550.2 2060.62 6557.24 2058.71 6564.27 2056.8 6571.31 2054.81 6578.35 2052.72 6585.39 2050.63 6592.43 2048.45 6599.47 2046.18 6606.5 2043.9 6613.54 2041.53 6620.58 2039.05 6627.62 2036.57 6634.66 2033.99 6641.7 2031.29 6648.73 2028.6 6655.77 2025.79 6662.81 2022.87 6669.85 2019.94 6676.89 2016.9 6683.93 2013.73 6690.97 2010.57 6698 2007.28 6705.04 2003.86 6712.08 2000.43 6719.12 1996.89 6726.16 1993.2 6733.2 1989.52 6740.23 1985.7 6747.27 1981.75 6754.31 1977.8 6761.35 1973.71 6768.39 1969.49 6775.43 1965.27 6782.46 1960.91 6789.5 1956.43 6796.54 1951.94 6803.58 1947.32 6810.62 1942.58 6817.66 1937.84 6824.7 1932.97 6831.73 1928 6838.77 1923.03 6845.81 1917.93 6852.85 1912.76 6859.89 1907.59 6866.93 1902.3 6873.96 1896.97 6881 1891.63 6888.04 1886.2 6895.08 1880.76 6902.12 1875.32 6909.16 1869.8 6916.19 1864.32 6923.23 1858.83 6930.27 1853.3 6937.31 1847.86 6944.35 1842.41 6951.39 1836.95 6958.42 1831.63 6965.46 1826.3 6972.5 1821.02 6979.54 1815.91 6986.58 1810.81 6993.62 1805.79 7000.66 1801.02 7007.69 1796.24 7014.73 1791.6 7021.77 1787.27 7028.81 1782.93 7035.85 1778.78 7042.89 1774.99 7049.92 1771.2 7056.96 1767.65 7064 1764.52 7071.04 1761.39 7078.08 1758.56 7085.12 1756.19 7092.15 1753.82 7099.19 1751.8 7106.23 1750.3 7113.27 1748.8 7120.31 1747.7 7127.35 1747.16 7134.38 1746.62 7141.42 1746.54 7148.46 1747.06 7155.5 1747.58 7162.54 1748.61 7169.58 1750.28 7176.61 1751.94 7183.65 1754.16 7190.69 1757.06 7197.73 1759.95 7204.77 1763.45 7211.81 1767.66 7218.85 1771.87 7225.88 1776.71 7232.92 1782.31 7239.96 1787.9 7247 1794.17 7254.04 1801.21 7261.08 1808.26 7268.11 1816.02 7275.15 1824.55 7282.19 1833.09 7289.23 1842.37 7296.27 1852.42 7303.31 1862.47 7310.34 1873.3 7317.38 1884.84 7324.42 1896.38 7331.46 1908.71 7338.5 1921.67 7345.54 1934.62 7352.57 1948.35 7359.61 1962.57 7366.65 1976.79 7373.69 1991.74 7380.73 2006.99 7387.77 2022.25 7394.81 2038.12 7401.84 2054.1 7408.88 2070.07 7415.92 2086.52 7422.96 2102.84 7430 2119.15 7437.04 2135.74 7444.07 2151.98 7451.11 2168.22 7458.15 2184.51 7465.19 2200.26 7472.23 2216 7479.27 2231.58 7486.3 2246.46 7493.34 2261.34 7500.38 2275.83 7507.42 2289.54 7514.46 2303.25 7521.5 2316.39 7528.53 2328.69 7535.57 2340.99 7542.61 2352.6 7549.65 2363.34 7556.69 2374.07 7563.73 2384.02 7570.77 2393.09 7577.8 2402.16 7584.84 2410.4 7591.88 2417.74 7598.92 2425.08 7605.96 2431.56 7613 2437.14 7620.03 2442.72 7627.07 2447.42 7634.11 2451.2 7641.15 2454.98 7648.19 2457.88 7655.23 2459.83 7662.26 2461.78 7669.3 2462.83 7676.34 2462.89 7683.38 2462.95 7690.42 2462.09 7697.46 2460.17 7704.49 2458.25 7711.53 2455.38 7718.57 2451.38 7725.61 2447.38 7732.65 2442.37 7739.69 2436.14 7746.73 2429.91 7753.76 2422.61 7760.8 2413.99 7767.84 2405.37 7774.88 2395.59 7781.92 2384.42 7788.96 2373.24 7795.99 2360.8 7803.03 2346.96 7810.07 2333.11 7817.11 2317.88 7824.15 2301.34 7831.19 2284.8 7838.22 2266.79 7845.26 2247.71 7852.3 2228.64 7859.34 2208.08 7866.38 2186.88 7873.42 2165.68 7880.45 2143.14 7887.49 2120.49 7894.53 2097.85 7901.57 2074.21 7908.61 2051.01 7915.65 2027.81 7922.69 2004.12 7929.72 1981.3 7936.76 1958.48 7943.8 1935.73 7950.84 1914.1 7957.88 1892.47 7964.92 1871.4 7971.95 1851.49 7978.99 1831.59 7986.03 1812.59 7993.07 1794.67 8000.11 1776.75 8007.15 1759.89 8014.18 1743.98 8021.22 1728.07 8028.26 1713.25 8035.3 1699.22 8042.34 1685.19 8049.38 1672.17 8056.41 1659.8 8063.45 1647.44 8070.49 1635.97 8077.53 1625.04 8084.57 1614.11 8091.61 1603.95 8098.65 1594.22 8105.68 1584.49 8112.72 1575.41 8119.76 1566.68 8126.8 1557.96 8133.84 1549.76 8140.88 1541.86 8147.91 1533.96 8154.95 1526.5 8161.99 1519.29 8169.03 1512.08 8176.07 1505.23 8183.11 1498.6 8190.14 1491.97 8197.18 1485.64 8204.22 1479.51 8211.26 1473.37 8218.3 1467.5 8225.34 1461.8 8232.38 1456.1 8239.41 1450.62 8246.45 1445.31 8253.49 1439.99 8260.53 1434.88 8267.57 1429.92 8274.6 1424.97 8281.64 1420.19 8288.68 1415.57 8295.72 1410.94 8302.76 1406.48 8309.8 1402.17 8316.83 1397.86 8323.87 1393.7 8330.91 1389.68 8337.95 1385.67 8344.99 1381.8 8352.03 1378.07 8359.07 1374.33 8366.1 1370.74 8373.14 1367.28 8380.18 1363.81 8387.22 1360.48 8394.26 1357.27 8401.3 1354.07 8408.33 1350.99 8415.37 1348.02 8422.41 1345.06 8429.45 1342.22 8436.49 1339.48 8443.53 1336.75 8450.57 1334.13 8457.6 1331.61 8464.64 1329.09 8475.2 1325.57 8478.72 1324.36" stroke="#5B9BD5" stroke-width="9.16667" stroke-linecap="round" stroke-linejoin="round" stroke-miterlimit="10" fill="none"/></g><g><text font-family="Calibri,Calibri_MSFontService,sans-serif" font-weight="400" font-size="64" transform="matrix(1 0 0 1 6244.11 2625)">-50</text></g><g><text font-family="Calibri,Calibri_MSFontService,sans-serif" font-weight="400" font-size="64" transform="matrix(1 0 0 1 6244.11 2528)">-40</text></g><g><text font-family="Calibri,Calibri_MSFontService,sans-serif" font-weight="400" font-size="64" transform="matrix(1 0 0 1 6244.11 2431)">-30</text></g><g><text font-family="Calibri,Calibri_MSFontService,sans-serif" font-weight="400" font-size="64" transform="matrix(1 0 0 1 6244.11 2334)">-20</text></g><g><text font-family="Calibri,Calibri_MSFontService,sans-serif" font-weight="400" font-size="64" transform="matrix(1 0 0 1 6244.11 2237)">-10</text></g><g><text font-family="Calibri,Calibri_MSFontService,sans-serif" font-weight="400" font-size="64" transform="matrix(1 0 0 1 6296.27 2140)">0</text></g><g><text font-family="Calibri,Calibri_MSFontService,sans-serif" font-weight="400" font-size="64" transform="matrix(1 0 0 1 6263.75 2043)">10</text></g><g><text font-family="Calibri,Calibri_MSFontService,sans-serif" font-weight="400" font-size="64" transform="matrix(1 0 0 1 6263.75 1946)">20</text></g><g><text font-family="Calibri,Calibri_MSFontService,sans-serif" font-weight="400" font-size="64" transform="matrix(1 0 0 1 6263.75 1848)">30</text></g><g><text font-family="Calibri,Calibri_MSFontService,sans-serif" font-weight="400" font-size="64" transform="matrix(1 0 0 1 6263.75 1751)">40</text></g><g><text font-family="Calibri,Calibri_MSFontService,sans-serif" font-weight="400" font-size="64" transform="matrix(1 0 0 1 6263.75 1654)">50</text></g><g><text font-family="Calibri,Calibri_MSFontService,sans-serif" font-weight="400" font-size="64" transform="matrix(1 0 0 1 6355.79 2709)">10</text></g><g><text font-family="Calibri,Calibri_MSFontService,sans-serif" font-weight="400" font-size="64" transform="matrix(1 0 0 1 6862.14 2709)">100</text></g><g><text font-family="Calibri,Calibri_MSFontService,sans-serif" font-weight="400" font-size="64" transform="matrix(1 0 0 1 7368.48 2709)">1000</text></g><g><text font-family="Calibri,Calibri_MSFontService,sans-serif" font-weight="400" font-size="64" transform="matrix(1 0 0 1 7874.82 2709)">10000</text></g><g><text font-family="Calibri,Calibri_MSFontService,sans-serif" font-weight="700" font-size="64" transform="matrix(6.12323e-17 -1 1 6.12323e-17 6213.03 2320)">Phase (degree)</text></g><g><text font-family="Calibri,Calibri_MSFontService,sans-serif" font-weight="700" font-size="64" transform="matrix(1 0 0 1 6977.69 2801)">Frequenct (Hz)</text></g><rect x="6085.5" y="1564.5" width="1980" height="1305" stroke="#D9D9D9" stroke-width="3.4375" stroke-linejoin="round" stroke-miterlimit="10" fill="none"/><g><path d="M2.32215-2.53456 329.035 296.798 324.391 301.867-2.32215 2.53456ZM332.622 286.098 343.61 314.814 314.045 306.375Z" fill="#7F7F7F" transform="matrix(-1 0 0 1 7642.11 1831.5)"/></g><g><text fill="#FF0000" font-family="Calibri,Calibri_MSFontService,sans-serif" font-weight="700" font-size="73" transform="matrix(1 0 0 1 6873.89 2218)">Increasing Power </text></g><g><text fill="#FF0000" font-family="Calibri,Calibri_MSFontService,sans-serif" font-weight="700" font-size="73" transform="matrix(1 0 0 1 6945.87 2307)">at</text></g><g><text fill="#FF0000" font-family="Calibri,Calibri_MSFontService,sans-serif" font-weight="700" font-size="73" transform="matrix(1 0 0 1 7024.06 2307)">PV source</text></g><g><text fill="#FF0000" font-family="Calibri,Calibri_MSFontService,sans-serif" font-weight="700" font-size="73" transform="matrix(1 0 0 1 6871.73 2397)">P1&lt;P2&lt;P3&lt;P4&lt;P5</text></g><rect x="6087" y="49.0002" width="1978" height="1538" fill="#FFFFFF"/><g><path d="M6388.5 1518.5 7954.5 1518.5M6388.5 1375.55 7954.5 1375.55M6388.5 1232.54 7954.5 1232.54M6388.5 947.531 7954.5 947.531M6388.5 804.527 7954.5 804.527M6388.5 662.522 7954.5 662.522M6388.5 519.517 7954.5 519.517M6388.5 377.513 7954.5 377.513M6388.5 234.5 7954.5 234.5" stroke="#D9D9D9" stroke-width="3.4375" stroke-linejoin="round" stroke-miterlimit="10" fill="none"/></g><g><path d="M6545.71 234.5 6545.71 1518.5M6637.72 234.5 6637.72 1518.5M6702.72 234.5 6702.72 1518.5M6752.72 234.5 6752.72 1518.5M6794.72 234.5 6794.72 1518.5M6829.72 234.5 6829.72 1518.5M6859.73 234.5 6859.73 1518.5M6886.73 234.5 6886.73 1518.5M7067.73 234.5 7067.73 1518.5M7159.73 234.5 7159.73 1518.5M7224.74 234.5 7224.74 1518.5M7274.74 234.5 7274.74 1518.5M7316.74 234.5 7316.74 1518.5M7351.74 234.5 7351.74 1518.5M7381.74 234.5 7381.74 1518.5M7408.74 234.5 7408.74 1518.5M7589.75 234.5 7589.75 1518.5M7681.75 234.5 7681.75 1518.5M7746.75 234.5 7746.75 1518.5M7797.76 234.5 7797.76 1518.5M7838.76 234.5 7838.76 1518.5M7873.76 234.5 7873.76 1518.5M7903.76 234.5 7903.76 1518.5M7930.76 234.5 7930.76 1518.5" stroke="#F2F2F2" stroke-width="3.4375" stroke-linejoin="round" stroke-miterlimit="10" fill="none"/></g><g><path d="M6910.73 234.5 6910.73 1518.5M7432.74 234.5 7432.74 1518.5M7954.5 234.5 7954.5 1518.5" stroke="#D9D9D9" stroke-width="3.4375" stroke-linejoin="round" stroke-miterlimit="10" fill="none"/></g><g><path d="M0 0 0.000360892 1284" stroke="#BFBFBF" stroke-width="3.4375" stroke-linejoin="round" stroke-miterlimit="10" fill="none" fill-rule="evenodd" transform="matrix(1 0 0 -1 6388.5 1518.5)"/></g><g><path d="M6388.5 1090.5 7954.5 1090.5" stroke="#BFBFBF" stroke-width="3.4375" stroke-linejoin="round" stroke-miterlimit="10" fill="none" fill-rule="evenodd"/></g><g clip-path="url(#clip6)"><path d="M6388.5 1297.5C6395.53 1297.5 6402.56 1297.49 6409.59 1297.49 6416.62 1297.49 6423.65 1297.48 6430.68 1297.48 6437.71 1297.47 6444.74 1297.47 6451.77 1297.46 6458.8 1297.46 6465.83 1297.45 6472.86 1297.44 6479.89 1297.44 6486.92 1297.43 6493.95 1297.42 6500.98 1297.41 6508.01 1297.4 6515.05 1297.39 6522.08 1297.38 6529.11 1297.37 6536.14 1297.36 6543.17 1297.35 6550.2 1297.34 6557.23 1297.32 6564.26 1297.31 6571.29 1297.29 6578.32 1297.28 6585.35 1297.26 6592.38 1297.24 6599.41 1297.22 6606.44 1297.2 6613.47 1297.18 6620.5 1297.15 6627.53 1297.13 6634.56 1297.1 6641.59 1297.07 6648.62 1297.04 6655.65 1297.01 6662.68 1296.97 6669.71 1296.93 6676.74 1296.89 6683.77 1296.85 6690.8 1296.81 6697.83 1296.76 6704.86 1296.71 6711.89 1296.65 6718.92 1296.6 6725.95 1296.53 6732.98 1296.47 6740.02 1296.4 6747.05 1296.33 6754.08 1296.25 6761.11 1296.17 6768.14 1296.08 6775.17 1295.98 6782.2 1295.89 6789.23 1295.78 6796.26 1295.67 6803.29 1295.55 6810.32 1295.41 6817.35 1295.28 6824.38 1295.14 6831.41 1294.98 6838.44 1294.82 6845.47 1294.65 6852.5 1294.45 6859.53 1294.26 6866.56 1294.05 6873.59 1293.82 6880.62 1293.59 6887.65 1293.34 6894.68 1293.06 6901.71 1292.79 6908.74 1292.49 6915.77 1292.15 6922.8 1291.82 6929.83 1291.46 6936.86 1291.06 6943.89 1290.66 6950.92 1290.22 6957.95 1289.74 6964.98 1289.26 6972.01 1288.74 6979.05 1288.16 6986.08 1287.58 6993.11 1286.96 7000.14 1286.27 7007.17 1285.58 7014.2 1284.83 7021.23 1284 7028.26 1283.17 7035.29 1282.28 7042.32 1281.29 7049.35 1280.29 7056.38 1279.23 7063.41 1278.04 7070.44 1276.85 7077.47 1275.58 7084.5 1274.16 7091.53 1272.74 7098.56 1271.23 7105.59 1269.54 7112.62 1267.85 7119.65 1266.04 7126.68 1264.04 7133.71 1262.04 7140.74 1259.89 7147.77 1257.51 7154.8 1255.14 7161.83 1252.59 7168.86 1249.78 7175.89 1246.97 7182.92 1243.97 7189.95 1240.66 7196.98 1237.35 7204.01 1233.81 7211.05 1229.92 7218.08 1226.03 7225.11 1221.88 7232.14 1217.34 7239.17 1212.79 7246.2 1207.94 7253.23 1202.65 7260.26 1197.35 7267.29 1191.71 7274.32 1185.58 7281.35 1179.44 7288.38 1172.92 7295.41 1165.84 7302.44 1158.77 7309.47 1151.25 7316.5 1143.14 7323.53 1135.03 7330.56 1126.42 7337.59 1117.16 7344.62 1107.91 7351.65 1098.1 7358.68 1087.6 7365.71 1077.09 7372.74 1065.99 7379.77 1054.13 7386.8 1042.27 7393.83 1029.76 7400.86 1016.44 7407.89 1003.11 7414.92 989.083 7421.95 974.188 7428.98 959.291 7436.01 943.632 7443.05 927.059 7450.08 910.486 7457.11 893.085 7464.14 874.751 7471.17 856.416 7478.2 837.175 7485.23 817.051 7492.26 796.927 7499.29 775.799 7506.32 754.008 7513.35 732.217 7520.38 709.296 7527.41 686.305 7534.44 663.314 7541.47 639.064 7548.5 616.061 7555.53 593.058 7562.56 568.843 7569.59 548.289 7576.62 527.735 7583.65 506.843 7590.68 492.736 7597.71 478.629 7604.74 466.935 7611.77 463.646 7618.65 460.429 7625.99 463.736 7632.86 473.001 7639.89 482.472 7646.92 500.329 7653.95 520.476 7660.98 540.621 7668.01 567.4 7675.05 593.876 7682.08 620.352 7689.11 650.386 7696.14 679.33 7703.17 708.274 7710.2 738.478 7717.23 767.539 7724.26 796.6 7731.29 825.693 7738.32 853.696 7745.35 881.699 7752.38 909.185 7759.41 935.555 7766.44 961.925 7773.47 987.55 7780.5 1011.91 7787.53 1036.28 7794.56 1059.77 7801.59 1081.74 7808.62 1103.71 7815.65 1124.66 7822.68 1143.71 7829.71 1162.77 7836.74 1180.56 7843.77 1196.07 7850.8 1211.57 7857.83 1225.44 7864.86 1236.72 7871.89 1248 7878.92 1257.19 7885.95 1263.72 7892.98 1270.25 7900.01 1274.29 7907.05 1275.91 7914.08 1277.52 7921.11 1276.44 7928.14 1273.41 7935.17 1270.38 7942.2 1264.75 7949.23 1257.74 7956.26 1250.73 7963.29 1241.49 7970.32 1231.36 7977.35 1221.23 7984.38 1209.35 7991.41 1196.97 7998.44 1184.59 8005.47 1170.96 8012.5 1157.06 8019.53 1143.16 8026.56 1128.44 8033.59 1113.59 8040.62 1098.74 8047.65 1083.38 8054.68 1067.98 8061.71 1052.57 8068.74 1036.87 8075.77 1021.17 8082.8 1005.47 8089.83 989.609 8096.86 973.761 8103.89 957.912 8110.92 941.991 8117.95 926.079 8124.98 910.165 8132.01 894.225 8139.05 878.282 8146.08 862.339 8153.11 846.387 8160.14 830.418 8167.17 814.448 8174.2 798.474 8181.23 782.466 8188.26 766.459 8195.29 750.439 8202.32 734.374 8209.35 718.309 8216.38 702.221 8223.41 686.078 8230.44 669.935 8237.47 653.756 8244.5 637.517 8251.53 621.278 8258.56 604.992 8265.59 588.642 8272.62 572.292 8279.65 555.887 8286.68 539.419 8293.71 522.95 8300.74 506.422 8307.77 489.831 8314.8 473.241 8321.83 456.587 8328.86 439.876 8335.89 423.165 8342.92 406.39 8349.95 389.563 8356.98 372.735 8364.01 355.847 8371.04 338.91 8378.08 321.973 8385.11 304.979 8392.14 287.942 8399.17 270.905 8406.2 253.815 8413.23 236.688 8420.26 219.56 8427.29 202.385 8434.32 185.177 8441.35 167.968 8448.38 150.717 8455.41 133.438 8462.44 116.158 8469.47 98.8124 8476.5 81.5" stroke="#4472C4" stroke-width="9.16667" stroke-linecap="round" stroke-linejoin="round" stroke-miterlimit="10" fill="none"/></g><g clip-path="url(#clip7)"><path d="M6388.5 1296.5C6395.53 1296.49 6402.56 1296.49 6409.59 1296.48 6416.62 1296.47 6423.65 1296.47 6430.68 1296.46 6437.71 1296.45 6444.74 1296.44 6451.77 1296.43 6458.8 1296.42 6465.83 1296.41 6472.86 1296.4 6479.89 1296.39 6486.92 1296.37 6493.95 1296.36 6500.98 1296.34 6508.01 1296.33 6515.05 1296.31 6522.08 1296.29 6529.11 1296.27 6536.14 1296.25 6543.17 1296.23 6550.2 1296.21 6557.23 1296.18 6564.26 1296.16 6571.29 1296.13 6578.32 1296.1 6585.35 1296.07 6592.38 1296.04 6599.41 1296 6606.44 1295.96 6613.47 1295.92 6620.5 1295.88 6627.53 1295.83 6634.56 1295.78 6641.59 1295.73 6648.62 1295.68 6655.65 1295.62 6662.68 1295.56 6669.71 1295.49 6676.74 1295.42 6683.77 1295.34 6690.8 1295.27 6697.83 1295.18 6704.86 1295.09 6711.89 1295 6718.92 1294.89 6725.95 1294.78 6732.98 1294.67 6740.02 1294.55 6747.05 1294.41 6754.08 1294.28 6761.11 1294.13 6768.14 1293.97 6775.17 1293.81 6782.2 1293.63 6789.23 1293.43 6796.26 1293.24 6803.29 1293.03 6810.32 1292.79 6817.35 1292.56 6824.38 1292.3 6831.41 1292.02 6838.44 1291.74 6845.47 1291.43 6852.5 1291.09 6859.53 1290.75 6866.56 1290.39 6873.59 1289.98 6880.62 1289.57 6887.65 1289.13 6894.68 1288.64 6901.71 1288.15 6908.74 1287.62 6915.77 1287.04 6922.8 1286.45 6929.83 1285.82 6936.86 1285.11 6943.89 1284.41 6950.92 1283.65 6957.95 1282.81 6964.98 1281.97 6972.01 1281.06 6979.05 1280.05 6986.08 1279.05 6993.11 1277.97 7000.14 1276.77 7007.17 1275.56 7014.2 1274.27 7021.23 1272.84 7028.26 1271.41 7035.29 1269.87 7042.32 1268.17 7049.35 1266.47 7056.38 1264.65 7063.41 1262.63 7070.44 1260.61 7077.47 1258.45 7084.5 1256.06 7091.53 1253.67 7098.56 1251.11 7105.59 1248.3 7112.62 1245.48 7119.65 1242.47 7126.68 1239.17 7133.71 1235.86 7140.74 1232.33 7147.77 1228.46 7154.8 1224.59 7161.83 1220.46 7168.86 1215.96 7175.89 1211.45 7182.92 1206.65 7189.95 1201.43 7196.98 1196.21 7204.01 1190.65 7211.05 1184.64 7218.08 1178.62 7225.11 1172.23 7232.14 1165.34 7239.17 1158.45 7246.2 1151.14 7253.23 1143.3 7260.26 1135.45 7267.29 1127.15 7274.32 1118.27 7281.35 1109.4 7288.38 1100.02 7295.41 1090.04 7302.44 1080.06 7309.47 1069.55 7316.5 1058.4 7323.53 1047.25 7330.56 1035.53 7337.59 1023.16 7344.62 1010.78 7351.65 997.806 7358.68 984.15 7365.71 970.494 7372.74 956.204 7379.77 941.225 7386.8 926.246 7393.83 910.603 7400.86 894.274 7407.89 877.945 7414.92 860.923 7421.95 843.252 7428.98 825.581 7436.01 807.185 7443.05 788.251 7450.08 769.316 7457.11 749.623 7464.14 729.643 7471.17 709.662 7478.2 688.901 7485.23 668.367 7492.26 647.833 7499.29 626.545 7506.32 606.441 7513.35 586.336 7520.38 565.682 7527.41 547.741 7534.44 529.8 7541.47 512.003 7548.5 498.793 7555.53 485.584 7562.56 474.108 7569.59 468.484 7576.62 462.859 7583.65 461.282 7590.68 465.045 7597.71 468.808 7604.74 478.303 7611.77 491.062 7618.8 503.822 7625.83 522.133 7632.86 541.601 7639.89 561.069 7646.92 584.49 7653.95 607.872 7660.98 631.253 7668.01 656.815 7675.05 681.89 7682.08 706.965 7689.11 732.946 7696.14 758.322 7703.17 783.697 7710.2 809.24 7717.23 834.141 7724.26 859.042 7731.29 883.733 7738.32 907.728 7745.35 931.722 7752.38 955.321 7759.41 978.105 7766.44 1000.89 7773.47 1023.17 7780.5 1044.43 7787.53 1065.7 7794.56 1086.35 7801.59 1105.69 7808.62 1125.02 7815.65 1143.59 7822.68 1160.45 7829.71 1177.32 7836.74 1193.15 7843.77 1206.88 7850.8 1220.62 7857.83 1232.94 7864.86 1242.87 7871.89 1252.79 7878.92 1260.86 7885.95 1266.43 7892.98 1272.01 7900.01 1275.31 7907.05 1276.33 7914.08 1277.35 7921.11 1275.87 7928.14 1272.53 7935.17 1269.18 7942.2 1263.41 7949.23 1256.28 7956.26 1249.16 7963.29 1239.91 7970.32 1229.78 7977.35 1219.65 7984.38 1207.84 7991.41 1195.51 7998.44 1183.18 8005.47 1169.64 8012.5 1155.81 8019.53 1141.99 8026.56 1127.34 8033.59 1112.56 8040.62 1097.78 8047.65 1082.48 8054.68 1067.14 8061.71 1051.79 8068.74 1036.15 8075.77 1020.49 8082.8 1004.83 8089.83 989.015 8096.86 973.202 8103.89 957.389 8110.92 941.499 8117.95 925.613 8124.98 909.727 8132.01 893.81 8139.05 877.888 8146.08 861.965 8153.11 846.031 8160.14 830.078 8167.17 814.125 8174.2 798.163 8181.23 782.169 8188.26 766.174 8195.29 750.166 8202.32 734.112 8209.35 718.057 8216.38 701.978 8223.41 685.844 8230.44 669.71 8237.47 653.539 8244.5 637.308 8251.53 621.076 8258.56 604.797 8265.59 588.455 8272.62 572.113 8279.65 555.715 8286.68 539.253 8293.71 522.792 8300.74 506.269 8307.77 489.685 8314.8 473.101 8321.83 456.454 8328.86 439.749 8335.89 423.044 8342.92 406.276 8349.95 389.455 8356.98 372.633 8364.01 355.75 8371.04 338.82 8378.08 321.889 8385.11 304.901 8392.14 287.87 8399.17 270.839 8406.2 253.755 8413.23 236.634 8420.26 219.512 8427.29 202.343 8434.32 185.141 8441.35 167.938 8448.38 150.693 8455.41 133.42 8462.44 116.146 8469.47 98.8064 8476.5 81.5" stroke="#ED7D31" stroke-width="9.16667" stroke-linecap="round" stroke-linejoin="round" stroke-miterlimit="10" fill="none"/></g><g clip-path="url(#clip8)"><path d="M6388.5 1295.5C6395.53 1295.49 6402.56 1295.48 6409.59 1295.46 6416.62 1295.45 6423.65 1295.43 6430.68 1295.42 6437.71 1295.4 6444.74 1295.38 6451.77 1295.36 6458.8 1295.34 6465.83 1295.32 6472.86 1295.3 6479.89 1295.27 6486.92 1295.25 6493.95 1295.22 6500.98 1295.19 6508.01 1295.16 6515.05 1295.12 6522.08 1295.09 6529.11 1295.05 6536.14 1295.01 6543.17 1294.96 6550.2 1294.92 6557.23 1294.87 6564.26 1294.82 6571.29 1294.76 6578.32 1294.7 6585.35 1294.64 6592.38 1294.57 6599.41 1294.5 6606.44 1294.42 6613.47 1294.34 6620.5 1294.26 6627.53 1294.17 6634.56 1294.07 6641.59 1293.96 6648.62 1293.86 6655.65 1293.74 6662.68 1293.61 6669.71 1293.48 6676.74 1293.35 6683.77 1293.19 6690.8 1293.04 6697.83 1292.87 6704.86 1292.68 6711.89 1292.5 6718.92 1292.3 6725.95 1292.07 6732.98 1291.85 6740.02 1291.61 6747.05 1291.34 6754.08 1291.07 6761.11 1290.78 6768.14 1290.46 6775.17 1290.13 6782.2 1289.78 6789.23 1289.4 6796.26 1289.01 6803.29 1288.59 6810.32 1288.13 6817.35 1287.66 6824.38 1287.16 6831.41 1286.6 6838.44 1286.04 6845.47 1285.44 6852.5 1284.77 6859.53 1284.1 6866.56 1283.39 6873.59 1282.59 6880.62 1281.79 6887.65 1280.93 6894.68 1279.97 6901.71 1279.02 6908.74 1277.99 6915.77 1276.85 6922.8 1275.71 6929.83 1274.49 6936.86 1273.13 6943.89 1271.77 6950.92 1270.32 6957.95 1268.71 6964.98 1267.1 6972.01 1265.37 6979.05 1263.46 6986.08 1261.55 6993.11 1259.5 7000.14 1257.24 7007.17 1254.99 7014.2 1252.57 7021.23 1249.91 7028.26 1247.26 7035.29 1244.41 7042.32 1241.3 7049.35 1238.18 7056.38 1234.85 7063.41 1231.21 7070.44 1227.57 7077.47 1223.69 7084.5 1219.46 7091.53 1215.23 7098.56 1210.72 7105.59 1205.83 7112.62 1200.95 7119.65 1195.75 7126.68 1190.13 7133.71 1184.52 7140.74 1178.55 7147.77 1172.15 7154.8 1165.74 7161.83 1158.95 7168.86 1151.68 7175.89 1144.42 7182.92 1136.74 7189.95 1128.56 7196.98 1120.39 7204.01 1111.77 7211.05 1102.63 7218.08 1093.5 7225.11 1083.89 7232.14 1073.76 7239.17 1063.64 7246.2 1053.01 7253.23 1041.86 7260.26 1030.71 7267.29 1019.05 7274.32 1006.87 7281.35 994.682 7288.38 981.975 7295.41 968.753 7302.44 955.53 7309.47 941.781 7316.5 927.534 7323.53 913.287 7330.56 898.511 7337.59 883.271 7344.62 868.031 7351.65 852.266 7358.68 836.094 7365.71 819.922 7372.74 803.233 7379.77 786.239 7386.8 769.245 7393.83 751.751 7400.86 734.127 7407.89 716.504 7414.92 698.416 7421.95 680.499 7428.98 662.582 7436.01 644.273 7443.05 626.625 7450.08 608.976 7457.11 591.095 7464.14 574.609 7471.17 558.124 7478.2 541.738 7485.23 527.712 7492.26 513.686 7499.29 500.399 7506.32 490.453 7513.35 480.506 7520.38 472.317 7527.41 468.034 7534.44 463.75 7541.47 462.418 7548.5 464.751 7555.53 467.083 7562.56 473.206 7569.59 482.028 7576.62 490.851 7583.65 503.496 7590.68 517.687 7597.71 531.878 7604.74 549.195 7611.77 567.174 7618.8 585.153 7625.83 605.282 7632.86 625.561 7639.89 645.839 7646.92 667.393 7653.95 688.846 7660.98 710.297 7668.01 732.396 7675.05 754.273 7682.08 776.151 7689.11 798.276 7696.14 820.11 7703.17 841.943 7710.2 863.79 7717.23 885.275 7724.26 906.76 7731.29 928.122 7738.32 949.022 7745.35 969.921 7752.38 990.606 7759.41 1010.67 7766.44 1030.74 7773.47 1050.5 7780.5 1069.42 7787.53 1088.34 7794.56 1106.84 7801.59 1124.18 7808.62 1141.52 7815.65 1158.26 7822.68 1173.46 7829.71 1188.66 7836.74 1202.98 7843.77 1215.37 7850.8 1227.75 7857.83 1238.89 7864.86 1247.78 7871.89 1256.66 7878.92 1263.86 7885.95 1268.7 7892.98 1273.54 7900.01 1276.28 7907.05 1276.84 7914.08 1277.39 7921.11 1275.61 7928.14 1272.03 7935.17 1268.44 7942.2 1262.55 7949.23 1255.34 7956.26 1248.12 7963.29 1238.87 7970.32 1228.74 7977.35 1218.61 7984.38 1206.85 7991.41 1194.57 7998.44 1182.29 8005.47 1168.8 8012.5 1155.04 8019.53 1141.27 8026.56 1126.68 8033.59 1111.96 8040.62 1097.23 8047.65 1081.98 8054.68 1066.68 8061.71 1051.38 8068.74 1035.78 8075.77 1020.15 8082.8 1004.53 8089.83 988.744 8096.86 972.957 8103.89 957.17 8110.92 941.301 8117.95 925.434 8124.98 909.567 8132.01 893.665 8139.05 877.756 8146.08 861.847 8153.11 845.923 8160.14 829.98 8167.17 814.036 8174.2 798.082 8181.23 782.095 8188.26 766.107 8195.29 750.103 8202.32 734.054 8209.35 718.005 8216.38 701.929 8223.41 685.799 8230.44 669.669 8237.47 653.501 8244.5 637.272 8251.53 621.043 8258.56 604.766 8265.59 588.426 8272.62 572.085 8279.65 555.689 8286.68 539.229 8293.71 522.769 8300.74 506.248 8307.77 489.665 8314.8 473.082 8321.83 456.437 8328.86 439.733 8335.89 423.028 8342.92 406.261 8349.95 389.441 8356.98 372.62 8364.01 355.738 8371.04 338.809 8378.08 321.879 8385.11 304.892 8392.14 287.862 8399.17 270.831 8406.2 253.748 8413.23 236.627 8420.26 219.506 8427.29 202.338 8434.32 185.136 8441.35 167.934 8448.38 150.69 8455.41 133.418 8462.44 116.145 8469.47 98.8058 8476.5 81.5" stroke="#A5A5A5" stroke-width="9.16667" stroke-linecap="round" stroke-linejoin="round" stroke-miterlimit="10" fill="none"/></g><g clip-path="url(#clip9)"><path d="M6388.5 1293.5C6395.53 1293.47 6402.56 1293.44 6409.59 1293.41 6416.62 1293.38 6423.65 1293.34 6430.68 1293.3 6437.71 1293.26 6444.74 1293.22 6451.77 1293.17 6458.8 1293.13 6465.83 1293.08 6472.86 1293.02 6479.89 1292.96 6486.92 1292.9 6493.95 1292.83 6500.98 1292.76 6508.01 1292.69 6515.05 1292.6 6522.08 1292.52 6529.11 1292.43 6536.14 1292.33 6543.17 1292.23 6550.2 1292.13 6557.23 1292.01 6564.26 1291.89 6571.29 1291.76 6578.32 1291.61 6585.35 1291.47 6592.38 1291.31 6599.41 1291.14 6606.44 1290.97 6613.47 1290.78 6620.5 1290.57 6627.53 1290.36 6634.56 1290.14 6641.59 1289.89 6648.62 1289.64 6655.65 1289.37 6662.68 1289.07 6669.71 1288.76 6676.74 1288.44 6683.77 1288.08 6690.8 1287.72 6697.83 1287.33 6704.86 1286.89 6711.89 1286.46 6718.92 1285.99 6725.95 1285.47 6732.98 1284.95 6740.02 1284.4 6747.05 1283.77 6754.08 1283.15 6761.11 1282.48 6768.14 1281.74 6775.17 1280.99 6782.2 1280.19 6789.23 1279.3 6796.26 1278.41 6803.29 1277.46 6810.32 1276.4 6817.35 1275.34 6824.38 1274.2 6831.41 1272.94 6838.44 1271.67 6845.47 1270.32 6852.5 1268.82 6859.53 1267.32 6866.56 1265.71 6873.59 1263.93 6880.62 1262.15 6887.65 1260.25 6894.68 1258.15 6901.71 1256.05 6908.74 1253.81 6915.77 1251.34 6922.8 1248.87 6929.83 1246.23 6936.86 1243.33 6943.89 1240.44 6950.92 1237.34 6957.95 1233.96 6964.98 1230.59 6972.01 1226.98 6979.05 1223.06 6986.08 1219.14 6993.11 1214.96 7000.14 1210.43 7007.17 1205.91 7014.2 1201.09 7021.23 1195.9 7028.26 1190.71 7035.29 1185.2 7042.32 1179.29 7049.35 1173.37 7056.38 1167.11 7063.41 1160.43 7070.44 1153.74 7077.47 1146.67 7084.5 1139.17 7091.53 1131.67 7098.56 1123.77 7105.59 1115.42 7112.62 1107.08 7119.65 1098.31 7126.68 1089.09 7133.71 1079.88 7140.74 1070.23 7147.77 1060.15 7154.8 1050.07 7161.83 1039.55 7168.86 1028.6 7175.89 1017.66 7182.92 1006.28 7189.95 994.503 7196.98 982.725 7204.01 970.515 7211.05 957.94 7218.08 945.365 7225.11 932.373 7232.14 919.056 7239.17 905.738 7246.2 892.024 7253.23 878.033 7260.26 864.042 7267.29 849.683 7274.32 835.109 7281.35 820.536 7288.38 805.629 7295.41 790.592 7302.44 775.554 7309.47 760.226 7316.5 744.884 7323.53 729.542 7330.56 713.966 7337.59 698.537 7344.62 683.108 7351.65 667.523 7358.68 652.311 7365.71 637.098 7372.74 621.84 7379.77 607.264 7386.8 592.687 7393.83 578.231 7400.86 564.852 7407.89 551.472 7414.92 538.461 7421.95 526.987 7428.98 515.513 7436.01 504.765 7443.05 496.007 7450.08 487.25 7457.11 479.688 7464.14 474.442 7471.17 469.197 7478.2 465.669 7485.23 464.535 7492.26 463.401 7499.29 464.43 7506.32 467.638 7513.35 470.846 7520.38 476.439 7527.41 483.781 7534.44 491.123 7541.47 500.78 7548.5 511.688 7555.53 522.597 7562.56 535.506 7569.59 549.232 7576.62 562.957 7583.65 578.253 7590.68 594.041 7597.71 609.828 7604.74 626.755 7611.77 643.957 7618.8 661.158 7625.83 679.137 7632.86 697.251 7639.89 715.365 7646.92 733.98 7653.95 752.638 7660.98 771.296 7668.01 790.261 7675.05 809.197 7682.08 828.132 7689.11 847.241 7696.14 866.25 7703.17 885.258 7710.2 904.347 7717.23 923.248 7724.26 942.148 7731.29 961.056 7738.32 979.654 7745.35 998.251 7752.38 1016.79 7759.41 1034.84 7766.44 1052.89 7773.47 1070.78 7780.5 1087.96 7787.53 1105.13 7794.56 1122.02 7801.59 1137.86 7808.62 1153.71 7815.65 1169.08 7822.68 1183.03 7829.71 1196.97 7836.74 1210.16 7843.77 1221.53 7850.8 1232.9 7857.83 1243.13 7864.86 1251.24 7871.89 1259.34 7878.92 1265.88 7885.95 1270.16 7892.98 1274.45 7900.01 1276.76 7907.05 1276.97 7914.08 1277.17 7921.11 1275.16 7928.14 1271.4 7935.17 1267.63 7942.2 1261.65 7949.23 1254.37 7956.26 1247.09 7963.29 1237.84 7970.32 1227.72 7977.35 1217.59 7984.38 1205.88 7991.41 1193.63 7998.44 1181.38 8005.47 1167.96 8012.5 1154.24 8019.53 1140.51 8026.56 1125.98 8033.59 1111.3 8040.62 1096.62 8047.65 1081.42 8054.68 1066.16 8061.71 1050.9 8068.74 1035.32 8075.77 1019.73 8082.8 1004.14 8089.83 988.378 8096.86 972.615 8103.89 956.852 8110.92 941.002 8117.95 925.153 8124.98 909.304 8132.01 893.417 8139.05 877.522 8146.08 861.626 8153.11 845.713 8160.14 829.781 8167.17 813.847 8174.2 797.902 8181.23 781.923 8188.26 765.943 8195.29 749.946 8202.32 733.904 8209.35 717.861 8216.38 701.791 8223.41 685.666 8230.44 669.541 8237.47 653.378 8244.5 637.154 8251.53 620.929 8258.56 604.657 8265.59 588.321 8272.62 571.985 8279.65 555.592 8286.68 539.136 8293.71 522.68 8300.74 506.163 8307.77 489.584 8314.8 473.004 8321.83 456.362 8328.86 439.661 8335.89 422.961 8342.92 406.197 8349.95 389.38 8356.98 372.563 8364.01 355.685 8371.04 338.759 8378.08 321.832 8385.11 304.848 8392.14 287.821 8399.17 270.794 8406.2 253.715 8413.23 236.597 8420.26 219.48 8427.29 202.315 8434.32 185.117 8441.35 167.918 8448.38 150.677 8455.41 133.408 8462.44 116.138 8469.47 98.8025 8476.5 81.5" stroke="#FFC000" stroke-width="9.16667" stroke-linecap="round" stroke-linejoin="round" stroke-miterlimit="10" fill="none"/></g><g clip-path="url(#clip10)"><path d="M6388.5 1289.5C6395.53 1289.41 6402.56 1289.33 6409.59 1289.23 6416.62 1289.13 6423.65 1289.02 6430.68 1288.9 6437.71 1288.78 6444.74 1288.65 6451.77 1288.51 6458.8 1288.36 6465.83 1288.21 6472.86 1288.04 6479.89 1287.86 6486.92 1287.68 6493.95 1287.47 6500.98 1287.26 6508.01 1287.04 6515.05 1286.79 6522.08 1286.54 6529.11 1286.27 6536.14 1285.97 6543.17 1285.66 6550.2 1285.34 6557.23 1284.98 6564.26 1284.62 6571.29 1284.23 6578.32 1283.8 6585.35 1283.37 6592.38 1282.9 6599.41 1282.38 6606.44 1281.86 6613.47 1281.31 6620.5 1280.69 6627.53 1280.07 6634.56 1279.4 6641.59 1278.66 6648.62 1277.91 6655.65 1277.12 6662.68 1276.23 6669.71 1275.34 6676.74 1274.39 6683.77 1273.34 6690.8 1272.28 6697.83 1271.15 6704.86 1269.89 6711.89 1268.64 6718.92 1267.29 6725.95 1265.8 6732.98 1264.31 6740.02 1262.71 6747.05 1260.95 6754.08 1259.18 6761.11 1257.29 6768.14 1255.21 6775.17 1253.13 6782.2 1250.91 6789.23 1248.46 6796.26 1246.02 6803.29 1243.4 6810.32 1240.54 6817.35 1237.68 6824.38 1234.63 6831.41 1231.3 6838.44 1227.97 6845.47 1224.42 6852.5 1220.56 6859.53 1216.7 6866.56 1212.59 6873.59 1208.15 6880.62 1203.72 6887.65 1199 6894.68 1193.92 6901.71 1188.85 6908.74 1183.46 6915.77 1177.71 6922.8 1171.95 6929.83 1165.85 6936.86 1159.37 6943.89 1152.89 6950.92 1146.05 6957.95 1138.81 6964.98 1131.57 6972.01 1123.96 6979.05 1115.95 6986.08 1107.94 6993.11 1099.54 7000.14 1090.76 7007.17 1081.98 7014.2 1072.8 7021.23 1063.26 7028.26 1053.72 7035.29 1043.79 7042.32 1033.51 7049.35 1023.24 7056.38 1012.59 7063.41 1001.64 7070.44 990.68 7077.47 979.363 7084.5 967.786 7091.53 956.208 7098.56 944.295 7105.59 932.169 7112.62 920.043 7119.65 907.616 7126.68 895.029 7133.71 882.442 7140.74 869.595 7147.77 856.647 7154.8 843.699 7161.83 830.537 7168.86 817.341 7175.89 804.144 7182.92 790.785 7189.95 777.465 7196.98 764.145 7204.01 750.722 7211.05 737.422 7218.08 724.122 7225.11 710.783 7232.14 697.665 7239.17 684.548 7246.2 671.465 7253.23 658.716 7260.26 645.968 7267.29 633.339 7274.32 621.175 7281.35 609.011 7288.38 597.065 7295.41 585.732 7302.44 574.398 7309.47 563.4 7316.5 553.174 7323.53 542.948 7330.56 533.193 7337.59 524.373 7344.62 515.554 7351.65 507.362 7358.68 500.257 7365.71 493.152 7372.74 486.843 7379.77 481.744 7386.8 476.644 7393.83 472.511 7400.86 469.659 7407.89 466.806 7414.92 465.074 7421.95 464.631 7428.98 464.189 7436.01 464.979 7443.05 467.005 7450.08 469.031 7457.11 472.346 7464.14 476.788 7471.17 481.23 7478.2 486.952 7485.23 493.66 7492.26 500.368 7499.29 508.285 7506.32 517.035 7513.35 525.786 7520.38 535.631 7527.41 546.162 7534.44 556.694 7541.47 568.181 7548.5 580.223 7555.53 592.264 7562.56 605.117 7569.59 618.414 7576.62 631.711 7583.65 645.681 7590.68 660.004 7597.71 674.327 7604.74 689.201 7611.77 704.354 7618.8 719.507 7625.83 735.106 7632.86 750.921 7639.89 766.735 7646.92 782.91 7653.95 799.24 7660.98 815.57 7668.01 832.189 7675.05 848.902 7682.08 865.614 7689.11 882.554 7696.14 899.514 7703.17 916.474 7710.2 933.605 7717.23 950.66 7724.26 967.714 7731.29 984.883 7738.32 1001.84 7745.35 1018.8 7752.38 1035.81 7759.41 1052.42 7766.44 1069.03 7773.47 1085.59 7780.5 1101.51 7787.53 1117.43 7794.56 1133.16 7801.59 1147.93 7808.62 1162.7 7815.65 1177.09 7822.68 1190.12 7829.71 1203.16 7836.74 1215.53 7843.77 1226.16 7850.8 1236.79 7857.83 1246.37 7864.86 1253.9 7871.89 1261.44 7878.92 1267.49 7885.95 1271.38 7892.98 1275.26 7900.01 1277.26 7907.05 1277.21 7914.08 1277.16 7921.11 1274.98 7928.14 1271.08 7935.17 1267.18 7942.2 1261.14 7949.23 1253.81 7956.26 1246.48 7963.29 1237.23 7970.32 1227.11 7977.35 1216.99 7984.38 1205.3 7991.41 1193.08 7998.44 1180.86 8005.47 1167.48 8012.5 1153.79 8019.53 1140.1 8026.56 1125.61 8033.59 1110.96 8040.62 1096.31 8047.65 1081.14 8054.68 1065.91 8061.71 1050.67 8068.74 1035.12 8075.77 1019.55 8082.8 1003.98 8089.83 988.239 8096.86 972.492 8103.89 956.745 8110.92 940.908 8117.95 925.07 8124.98 909.232 8132.01 893.354 8139.05 877.466 8146.08 861.578 8153.11 845.672 8160.14 829.745 8167.17 813.817 8174.2 797.876 8181.23 781.9 8188.26 765.924 8195.29 749.93 8202.32 733.89 8209.35 717.85 8216.38 701.782 8223.41 685.659 8230.44 669.535 8237.47 653.374 8244.5 637.15 8251.53 620.927 8258.56 604.655 8265.59 588.32 8272.62 571.984 8279.65 555.593 8286.68 539.137 8293.71 522.681 8300.74 506.164 8307.77 489.585 8314.8 473.006 8321.83 456.364 8328.86 439.664 8335.89 422.963 8342.92 406.199 8349.95 389.382 8356.98 372.565 8364.01 355.687 8371.04 338.76 8378.08 321.834 8385.11 304.85 8392.14 287.823 8399.17 270.796 8406.2 253.716 8413.23 236.599 8420.26 219.481 8427.29 202.316 8434.32 185.117 8441.35 167.919 8448.38 150.678 8455.41 133.408 8462.44 116.138 8469.47 98.8027 8476.5 81.5" stroke="#5B9BD5" stroke-width="9.16667" stroke-linecap="round" stroke-linejoin="round" stroke-miterlimit="10" fill="none"/></g><g><text font-family="Calibri,Calibri_MSFontService,sans-serif" font-weight="400" font-size="64" transform="matrix(1 0 0 1 6243.89 1536)">-15</text></g><g><text font-family="Calibri,Calibri_MSFontService,sans-serif" font-weight="400" font-size="64" transform="matrix(1 0 0 1 6243.89 1394)">-10</text></g><g><text font-family="Calibri,Calibri_MSFontService,sans-serif" font-weight="400" font-size="64" transform="matrix(1 0 0 1 6276.41 1251)">-5</text></g><g><text font-family="Calibri,Calibri_MSFontService,sans-serif" font-weight="400" font-size="64" transform="matrix(1 0 0 1 6296.05 1109)">0</text></g><g><text font-family="Calibri,Calibri_MSFontService,sans-serif" font-weight="400" font-size="64" transform="matrix(1 0 0 1 6296.05 966)">5</text></g><g><text font-family="Calibri,Calibri_MSFontService,sans-serif" font-weight="400" font-size="64" transform="matrix(1 0 0 1 6263.53 823)">10</text></g><g><text font-family="Calibri,Calibri_MSFontService,sans-serif" font-weight="400" font-size="64" transform="matrix(1 0 0 1 6263.53 681)">15</text></g><g><text font-family="Calibri,Calibri_MSFontService,sans-serif" font-weight="400" font-size="64" transform="matrix(1 0 0 1 6263.53 538)">20</text></g><g><text font-family="Calibri,Calibri_MSFontService,sans-serif" font-weight="400" font-size="64" transform="matrix(1 0 0 1 6263.53 396)">25</text></g><g><text font-family="Calibri,Calibri_MSFontService,sans-serif" font-weight="400" font-size="64" transform="matrix(1 0 0 1 6263.53 253)">30</text></g><g><text font-family="Calibri,Calibri_MSFontService,sans-serif" font-weight="700" font-size="64" transform="matrix(6.12323e-17 -1 1 6.12323e-17 6212.82 1085)">Magnitude (dB)</text></g><g><path d="M6498.5 155.5 6586.5 155.5" stroke="#4472C4" stroke-width="9.16667" stroke-linecap="round" stroke-linejoin="round" stroke-miterlimit="10" fill="none" fill-rule="evenodd"/></g><g><text font-family="Calibri,Calibri_MSFontService,sans-serif" font-weight="700" font-size="73" transform="matrix(1 0 0 1 6595.31 176)">P1</text></g><g><path d="M6793.5 155.5 6881.5 155.5" stroke="#ED7D31" stroke-width="9.16667" stroke-linecap="round" stroke-linejoin="round" stroke-miterlimit="10" fill="none" fill-rule="evenodd"/></g><g><text font-family="Calibri,Calibri_MSFontService,sans-serif" font-weight="700" font-size="73" transform="matrix(1 0 0 1 6891.04 176)">P2</text></g><g><path d="M7089.5 155.5 7177.5 155.5" stroke="#A5A5A5" stroke-width="9.16667" stroke-linecap="round" stroke-linejoin="round" stroke-miterlimit="10" fill="none" fill-rule="evenodd"/></g><g><text font-family="Calibri,Calibri_MSFontService,sans-serif" font-weight="700" font-size="73" transform="matrix(1 0 0 1 7186.77 176)">P3</text></g><g><path d="M7385.5 155.5 7473.5 155.5" stroke="#FFC000" stroke-width="9.16667" stroke-linecap="round" stroke-linejoin="round" stroke-miterlimit="10" fill="none" fill-rule="evenodd"/></g><g><text font-family="Calibri,Calibri_MSFontService,sans-serif" font-weight="700" font-size="73" transform="matrix(1 0 0 1 7482.49 176)">P4</text></g><g><path d="M7680.5 155.5 7768.5 155.5" stroke="#5B9BD5" stroke-width="9.16667" stroke-linecap="round" stroke-linejoin="round" stroke-miterlimit="10" fill="none" fill-rule="evenodd"/></g><g><text font-family="Calibri,Calibri_MSFontService,sans-serif" font-weight="700" font-size="73" transform="matrix(1 0 0 1 7778.22 176)">P5</text></g><rect x="6087.5" y="49.5" width="1978" height="1538" stroke="#D9D9D9" stroke-width="3.4375" stroke-linejoin="round" stroke-miterlimit="10" fill="none"/><g><text fill="#FF0000" font-family="Calibri,Calibri_MSFontService,sans-serif" font-weight="700" font-size="73" transform="matrix(1 0 0 1 6528.81 738)">Increasing Power </text></g><g><text fill="#FF0000" font-family="Calibri,Calibri_MSFontService,sans-serif" font-weight="700" font-size="73" transform="matrix(1 0 0 1 6600.79 827)">at</text></g><g><text fill="#FF0000" font-family="Calibri,Calibri_MSFontService,sans-serif" font-weight="700" font-size="73" transform="matrix(1 0 0 1 6678.98 827)">PV source</text></g><g><text fill="#FF0000" font-family="Calibri,Calibri_MSFontService,sans-serif" font-weight="700" font-size="73" transform="matrix(1 0 0 1 6526.66 917)">P1&lt;P2&lt;P3&lt;P4&lt;P5</text></g><g><path d="M7381.27 1150.79 7093.74 846.517 7098.74 841.795 7386.27 1146.07ZM7089.39 856.931 7080.5 827.5 7109.38 838.044Z" fill="#7F7F7F"/></g></g></svg>